<svg xmlns="http://www.w3.org/2000/svg" xmlns:xlink="http://www.w3.org/1999/xlink" viewBox="0 0 431.91 393.56"><defs><style>.cls-1{isolation:isolate;}.cls-2{fill:#b5dfea;}.cls-3{fill:#90cedd;}.cls-19,.cls-3{opacity:0.55;}.cls-4{fill:#79c9e8;}.cls-5{fill:#d7f0f9;}.cls-6{fill:#0582c1;}.cls-7{fill:#fff;}.cls-8{fill:#ffbf4d;}.cls-9{fill:#00668e;}.cls-10{fill:#05556d;}.cls-11{fill:#f98d3d;}.cls-12{fill:#ed701b;}.cls-13{fill:none;}.cls-14{fill:#efaa3a;}.cls-15{fill:#f98d2b;opacity:0.29;mix-blend-mode:multiply;}.cls-16{fill:#49b4d6;}.cls-17{fill:#ff9f50;}.cls-18{fill:#f77e2d;}.cls-19{mix-blend-mode:overlay;fill:url(#linear-gradient);}</style><linearGradient id="linear-gradient" x1="237.37" y1="361.34" x2="237.37" y2="337.29" gradientUnits="userSpaceOnUse"><stop offset="0" stop-color="#fff"/><stop offset="0.12" stop-color="#fff" stop-opacity="0.82"/><stop offset="0.3" stop-color="#fff" stop-opacity="0.58"/><stop offset="0.47" stop-color="#fff" stop-opacity="0.37"/><stop offset="0.64" stop-color="#fff" stop-opacity="0.21"/><stop offset="0.78" stop-color="#fff" stop-opacity="0.1"/><stop offset="0.91" stop-color="#fff" stop-opacity="0.02"/><stop offset="1" stop-color="#fff" stop-opacity="0"/></linearGradient></defs><title>404</title><g class="cls-1"><g id="Layer_2" data-name="Layer 2"><g id="OBJECTS"><path class="cls-2" d="M419,393.56A12.73,12.73,0,0,0,431.75,381c.53-34.64,3.32-85.75-61.92-99.88-52.8-11.44-21.49-105.27-163.69-99.21-102.07,4.35-75,90.39-154.32,97.55C-1,284.27-1.45,351.06.58,381.66a12.73,12.73,0,0,0,12.71,11.89Z"/><path class="cls-3" d="M369.82,281.15c-52.8-11.44-21.49-105.27-163.69-99.21-24.28,1-41.24,6.7-54.07,14.81,4.32-.57,8.91-1,13.8-1.17,142.19-6.06,110.89,87.77,163.69,99.21,64.55,14,62.51,64.15,61.94,98.76H419A12.73,12.73,0,0,0,431.75,381C432.28,346.39,435.07,295.29,369.82,281.15Z"/><rect class="cls-4" x="143.73" width="2.24" height="163.8"/><rect class="cls-4" x="304.7" width="2.24" height="188.96"/><path class="cls-5" d="M306.73,177.95,139.78,158.46a13,13,0,0,0-14.43,11.41L112.9,276.63a13,13,0,0,0,11.41,14.43l166.95,19.49a13,13,0,0,0,14.43-11.41l12.46-106.75A13,13,0,0,0,306.73,177.95Z"/><path class="cls-6" d="M316.91,202.94l1.23-10.57a13,13,0,0,0-11.41-14.43L139.78,158.46a13,13,0,0,0-14.43,11.41l-1.23,10.57Z"/><path class="cls-4" d="M151.14,245.08l21.16-37.29a6.84,6.84,0,0,1,6.74-3.42h0a6.84,6.84,0,0,1,6,7.58l-4.4,37.72.19,0A4.74,4.74,0,0,1,185,255h0a4.74,4.74,0,0,1-5.25,4.16l-.19,0-.8,6.87a5.12,5.12,0,0,1-5.67,4.49h0a5.12,5.12,0,0,1-4.49-5.67l.8-6.87-15.24-1.78a4.74,4.74,0,0,1-4.16-5.26l.4-3.46A6.14,6.14,0,0,1,151.14,245.08Zm19.41,2.79,2.73-23.39a.15.15,0,0,0-.28-.09l-12.5,22.06a.63.63,0,0,0,.47.93l8.89,1A.63.63,0,0,0,170.54,247.87Z"/><path class="cls-4" d="M244.53,256l21.16-37.29a6.84,6.84,0,0,1,6.74-3.42h0a6.84,6.84,0,0,1,6,7.58L274,260.58l.19,0a4.74,4.74,0,0,1,4.16,5.25h0a4.74,4.74,0,0,1-5.25,4.16l-.19,0-.8,6.87a5.12,5.12,0,0,1-5.67,4.49h0a5.12,5.12,0,0,1-4.49-5.67l.8-6.87L247.53,267a4.74,4.74,0,0,1-4.16-5.26l.4-3.46A6.14,6.14,0,0,1,244.53,256Zm19.41,2.79,2.73-23.39a.15.15,0,0,0-.28-.09l-12.5,22.06a.63.63,0,0,0,.47.93l8.89,1A.63.63,0,0,0,263.94,258.77Z"/><path class="cls-4" d="M202.55,223.14c1.23-10.54,7.48-15.91,17.65-14.73s15,7.86,13.78,18.39l-4,34.25c-1.23,10.54-7.48,15.91-17.65,14.73s-15-7.86-13.78-18.39Zm6.28,36.12c-.55,4.7,1.31,6.73,4.61,7.12s5.57-1.16,6.12-5.87l4.15-35.57c.55-4.7-1.31-6.73-4.61-7.12s-5.57,1.16-6.12,5.87Z"/><circle class="cls-7" cx="140.33" cy="172.81" r="3.5" transform="translate(-47.58 292.16) rotate(-83.34)"/><circle class="cls-4" cx="157.08" cy="174.76" r="3.5" transform="translate(-34.71 310.52) rotate(-83.34)"/><circle class="cls-8" cx="174.44" cy="176.79" r="3.5" transform="translate(-21.38 329.55) rotate(-83.34)"/><path class="cls-9" d="M110.75,298.79A89.84,89.84,0,0,0,108.87,319c.34,9.15-.75,69.31-.75,69.31h7.35s10.46-47.12,10.85-50.84S132,296.56,132,296.56Z"/><path class="cls-6" d="M115.64,296s1.69,12.85,4.57,22,17,70.29,17,70.29h7.35s-1.35-47.12-1.86-50.84-4.23-40.93-4.23-40.93Z"/><path class="cls-6" d="M137.81,388.31v5.13h14a.8.8,0,0,0,.44-1.47c-2-1.36-5.32-3.24-8.37-3.66Z"/><path class="cls-6" d="M108.49,388.31v5.13h14a.8.8,0,0,0,.44-1.47c-2-1.36-5.32-3.24-8.37-3.66Z"/><path class="cls-9" d="M133.73,236.26s4.81-7.31-.71-8c-4.24-.55-6,.72-6,.72s-4.88-.54-7.56,1.78c-1.83,1.59-8.55,13.9,2.32,18.35s8.55-6.95,8.55-6.95Z"/><path class="cls-10" d="M133,228.24c-4.24-.55-6,.72-6,.72s-4.88-.54-7.56,1.78c-1.83,1.59-8.55,13.9,2.32,18.35,5.11,2.09,7.3.68,8.2-1.4-10.31,2.9-11.43-9.53-9.73-13.06s5.87-1.94,5.87-1.94c1.62-4.08,6.91-3.64,9.09-3.32A3,3,0,0,0,133,228.24Z"/><path class="cls-11" d="M127,239.82s-1.43-1.43-2.49,0-.36,4.63,1.43,4.81c0,0-.53,4.63-4.1,4.45v3.74h8.37V250s5.17-2.14,5-6.41a23.63,23.63,0,0,0-1.43-7.31A11.64,11.64,0,0,1,127,239.82Z"/><path class="cls-12" d="M128.24,251.17c.83.35.68.87.72,1.65h1.2V250s-2,.64-5-1A13.15,13.15,0,0,0,128.24,251.17Z"/><path class="cls-11" d="M130,233s-4.34-1.73-4.85-.43c-.33.85.51,1.58,1.67,2.32l-1,.17a.27.27,0,0,0-.13.47,5.75,5.75,0,0,0,2.71.44Z"/><polygon class="cls-13" points="104.14 280.07 109.95 298.82 109.85 297.87 109.95 298.82 111.92 271.52 104.14 280.07"/><path class="cls-8" d="M161,243.87c-8.28-6.13-30.88-11-30.88-11l-1.86,3.39s20.52,8,19.17,9.14c-.8.7-10.82,5.29-14.22,6.84a5.39,5.39,0,0,1-2.33.48l-10.39-.06A16.4,16.4,0,0,0,107,258.51c-5.27,6.07-14.23,20.12-14.23,20.12l15.1,22.2,1.67,2.45v.18l1.49.15c4.85.45,20.41,1.68,28.64-.07l.23-.05-.39-36.42a141.17,141.17,0,0,0,21.66-21A1.52,1.52,0,0,0,161,243.87ZM110.3,293.54l-1.47-3.22-4.69-10.25,7.78-8.72-1.4,19.13Z"/><polygon class="cls-14" points="108.82 290.32 110.3 293.54 109.58 303.25 109.57 303.28 107.9 300.83 108.82 290.32"/><path class="cls-15" d="M136,265.76c-1.4,1-1,10-1.39,15.65-.58,9.43-1.14,17.59-.73,22.85a42,42,0,0,0,5.79-.73l.23-.05-.39-36.42a141.17,141.17,0,0,0,21.66-21,1.52,1.52,0,0,0-.24-2.23A185.49,185.49,0,0,1,136,265.76Z"/><path class="cls-9" d="M142.7,337.49c-.37-2.68-2.41-22.8-3.51-33.8l-5.28.58s7.7,63.33,8.21,84.06h2.44S143.21,341.21,142.7,337.49Z"/><path class="cls-6" d="M108.84,240.86,107.25,238a10.78,10.78,0,1,0-1.87,2.54Z"/><path class="cls-7" d="M92.11,232h.42v1.5c0,.46.14.66.46.66s.43-.13.66-.41V232h.41v2.46h-.34l0-.38h0a1,1,0,0,1-.81.45c-.52,0-.75-.33-.75-1Z"/><path class="cls-7" d="M95.82,234.65v.83H95.4V232h.34l0,.28h0a1.27,1.27,0,0,1,.78-.34c.63,0,1,.49,1,1.25s-.5,1.33-1.06,1.33a1.14,1.14,0,0,1-.68-.28Zm.6-.5c.4,0,.7-.37.7-1s-.18-.91-.65-.91a1,1,0,0,0-.66.33v1.29A1,1,0,0,0,96.42,234.16Z"/><path class="cls-7" d="M98.65,233.89a1.11,1.11,0,0,0,.72.29c.32,0,.49-.17.49-.38s-.29-.36-.56-.47-.73-.29-.73-.71.31-.7.84-.7a1.23,1.23,0,0,1,.76.28l-.2.26a.91.91,0,0,0-.56-.22c-.31,0-.45.17-.45.35s.27.32.55.43.75.28.75.74-.32.73-.9.73a1.48,1.48,0,0,1-.92-.34Z"/><path class="cls-7" d="M101.56,233.87a.32.32,0,1,1-.3.32A.31.31,0,0,1,101.56,233.87Z"/><path class="cls-7" d="M103.32,233.87a.32.32,0,1,1-.3.32A.31.31,0,0,1,103.32,233.87Z"/><path class="cls-4" d="M67.5,370.49s-2.26-2.12-.74-10.14,5.38-15.73,3.48-24.43-16.73-30.65-16.77-32.11S48.89,329.34,56.56,340s8.59,14.32,8.25,19.92.08,10.1.92,11.4Z"/><path class="cls-16" d="M66.1,354.36c-.89,3.58-1.43,12.55,0,14.7.13.2.32.09.56-.28-.43-1.48-.72-4.08.1-8.42,1.52-8,5.38-15.73,3.48-24.43s-16.73-30.65-16.77-32.11c0,0,2.24,18.29,9.76,30.87C68.62,343.69,67,350.78,66.1,354.36Z"/><path class="cls-4" d="M70.21,369.94s-4.36-10.88,3-20.3,19.2-21.52,19.43-26.31c0,0,3,22.75-6.58,29.19S69.74,360,71.4,369.9Z"/><path class="cls-16" d="M80.58,347.95c-10.72,7.8-11.59,16.79-9.93,21a1.06,1.06,0,0,0,.7.63c-1.44-9.56,5.25-10.65,14.74-17s6.58-29.19,6.58-29.19S91.3,340.14,80.58,347.95Z"/><path class="cls-4" d="M63,370.18a38,38,0,0,0,.65-12c-.74-6.22-7.24-9.72-13.31-16.29-3.12-3.38-4-21.25-2.11-22.91,0,0-10.72,13-9.06,22.5S58.35,357.19,60,361.78a25.52,25.52,0,0,1,1.48,8.45Z"/><path class="cls-16" d="M44.65,324.11c-3.54,9.59.09,21.21,11.86,28.43,8.66,5.31,5.9,16.36,5.9,16.36l1.42-4.36a34.55,34.55,0,0,0-.13-6.34c-.74-6.22-7.24-9.72-13.31-16.29-3-3.26-4-20-2.31-22.67A57.38,57.38,0,0,0,44.65,324.11Z"/><path class="cls-16" d="M48.08,319.24l.19-.24A1.06,1.06,0,0,0,48.08,319.24Z"/><path class="cls-4" d="M72.45,369.46s2.51-9.32,8.73-10.58,13.35-10.44,13.73-12.24C94.91,346.65,93.86,364,72.45,369.46Z"/><path class="cls-16" d="M80.82,362c-3.81,1.9-5.39,4.46-6,6.79,19.06-6.13,20-22.11,20-22.11a6.83,6.83,0,0,1-1,1.82C92.07,351.75,87.54,358.61,80.82,362Z"/><path class="cls-8" d="M85.89,366H53.4l3.86,24.27A3.79,3.79,0,0,0,61,393.5H78.29A3.79,3.79,0,0,0,82,390.3Z"/><polygon class="cls-17" points="85.26 370.05 85.89 366.03 53.4 366.03 54.04 370.05 85.26 370.05"/><path class="cls-17" d="M78,366,74.16,390.3a3.79,3.79,0,0,1-3.74,3.2h7.87A3.79,3.79,0,0,0,82,390.3L85.89,366Z"/><rect class="cls-8" x="163.16" y="322.75" width="146.86" height="29.86"/><rect class="cls-15" x="163.16" y="322.75" width="146.86" height="7.25"/><polygon class="cls-18" points="175.93 322.75 189.33 322.75 185.74 330 172.33 330 175.93 322.75"/><polygon class="cls-18" points="206.13 322.75 219.53 322.75 215.94 330 202.54 330 206.13 322.75"/><polygon class="cls-18" points="236.33 322.75 249.73 322.75 246.14 330 232.74 330 236.33 322.75"/><polygon class="cls-18" points="266.53 322.75 279.92 322.75 276.33 330 262.93 330 266.53 322.75"/><polygon class="cls-18" points="310.02 322.75 310.02 322.95 306.52 330 293.13 330 296.73 322.75 310.02 322.75"/><rect class="cls-4" x="181.44" y="352.61" width="10.35" height="40.83"/><rect class="cls-16" x="189.44" y="352.61" width="2.35" height="40.83"/><rect class="cls-4" x="282.19" y="352.61" width="10.35" height="40.83"/><rect class="cls-16" x="289.48" y="352.61" width="3.06" height="40.83"/><rect class="cls-16" x="181.44" y="352.58" width="10.35" height="5.14"/><rect class="cls-16" x="282.19" y="352.58" width="10.35" height="5.14"/><rect class="cls-4" x="181.44" y="318.08" width="10.35" height="4.64"/><rect class="cls-16" x="189.44" y="318.08" width="2.35" height="4.64"/><rect class="cls-4" x="282.19" y="318.08" width="10.35" height="4.64"/><rect class="cls-16" x="289.48" y="318.08" width="3.06" height="4.64"/><rect class="cls-16" x="181.44" y="322.14" width="10.35" height="0.58"/><rect class="cls-16" x="282.19" y="322.14" width="10.35" height="0.58"/><polygon class="cls-6" points="189.33 322.75 174.52 352.61 163.16 352.61 163.16 348.49 175.93 322.75 189.33 322.75"/><polygon class="cls-6" points="206.13 322.75 191.32 352.61 204.72 352.61 219.53 322.75 206.13 322.75"/><polygon class="cls-6" points="249.73 322.75 234.92 352.61 221.52 352.61 236.33 322.75 249.73 322.75"/><polygon class="cls-6" points="279.92 322.75 265.12 352.61 251.72 352.61 266.53 322.75 279.92 322.75"/><polygon class="cls-6" points="296.73 322.75 281.92 352.61 295.31 352.61 310.02 322.95 296.73 322.75"/><polygon class="cls-9" points="189.33 322.75 185.74 330 172.33 330 175.93 322.75 189.33 322.75"/><polygon class="cls-9" points="219.53 322.75 215.94 330 202.54 330 206.13 322.75 219.53 322.75"/><polygon class="cls-9" points="249.73 322.75 246.14 330 232.74 330 236.33 322.75 249.73 322.75"/><polygon class="cls-9" points="279.92 322.75 276.33 330 262.93 330 266.53 322.75 279.92 322.75"/><polygon class="cls-9" points="310.02 322.95 306.52 330 293.13 330 296.73 322.75 310.02 322.95"/><rect class="cls-19" x="167.25" y="335.67" width="140.24" height="14.94"/><circle class="cls-8" cx="186.35" cy="311.6" r="9.23"/><circle class="cls-6" cx="186.35" cy="311.6" r="4.18"/><circle class="cls-8" cx="287.31" cy="311.6" r="9.23"/><circle class="cls-6" cx="287.31" cy="311.6" r="4.18"/><path class="cls-8" d="M365.66,390.27H318.89L326,372.93h0l2.88-7,.79-1.92,1.29-3.12.26-.64,2.88-7,.53-1.27,5.1-12.38a2.7,2.7,0,0,1,5,0l5.1,12.38.53,1.27,2.88,7,.26.64,1.29,3.12.79,1.92,2.88,7h0Z"/><polygon class="cls-15" points="321.96 382.84 318.89 390.27 365.67 390.27 362.6 382.84 321.96 382.84"/><rect class="cls-4" x="315.15" y="385.83" width="53.57" height="7.57"/><rect class="cls-16" x="357.15" y="385.83" width="11.57" height="7.57"/><path class="cls-15" d="M363.82,385.83h-6.62l-5.31-12.89h0l-2.88-7-.79-1.92-1.29-3.12-.26-.64-2.88-7-.53-1.27L339,341.56l.8-2a2.7,2.7,0,0,1,5,0l5.1,12.38.53,1.27,2.88,7,.26.64,1.29,3.12.79,1.92,2.88,7h0Z"/><polygon class="cls-6" points="353.28 360.25 331.27 360.25 334.15 353.25 350.4 353.25 353.28 360.25"/><polygon class="cls-6" points="358.51 372.92 358.51 372.93 326.04 372.93 326.04 372.92 328.92 365.92 355.63 365.92 358.51 372.92"/><polygon class="cls-9" points="353.28 360.25 346.67 360.25 343.79 353.25 350.4 353.25 353.28 360.25"/><polygon class="cls-9" points="358.51 372.92 358.51 372.93 351.89 372.93 351.89 372.92 349.01 365.92 355.63 365.92 358.51 372.92"/><path class="cls-5" d="M67.52,220.21a7,7,0,0,0,7-6,14,14,0,0,0-13.83-15.86c-.32,0-.63,0-.94,0a14.83,14.83,0,0,0-29.6,1.25c0,.36,0,.72,0,1.08a14.83,14.83,0,0,0-22,11.88v.18a7.07,7.07,0,0,0,7.08,7.44Z"/><path class="cls-5" d="M400.65,231.17c11,0,11.65-16.61.62-17.15l-.91,0a18.4,18.4,0,0,0-5.64.88,18.94,18.94,0,0,0-37.46.6,17.53,17.53,0,0,0-11.9-1.16c-9.65,2.49-7.63,16.85,2.34,16.85Z"/><path class="cls-5" d="M268.09,149.32c11,0,11.65-16.61.62-17.14l-.91,0a18.4,18.4,0,0,0-5.64.88,18.93,18.93,0,0,0-37.45.6,17.52,17.52,0,0,0-11.9-1.16c-9.65,2.48-7.62,16.84,2.34,16.84Z"/><circle class="cls-8" cx="92.4" cy="153.56" r="26.45"/><path class="cls-17" d="M92.62,127.11a26.45,26.45,0,0,1-14.51,48.57H77.9a26.45,26.45,0,1,0,14.72-48.57Z"/></g></g></g></svg>