<svg xmlns="http://www.w3.org/2000/svg" viewBox="0 0 362.74 296.38"><defs><style>.cls-1{isolation:isolate;}.cls-2{fill:#e6e6e6;mix-blend-mode:multiply;}.cls-3{fill:#f2f2f2;}.cls-4{fill:#666;}.cls-5{fill:#c1272d;}.cls-6{fill:#fbb03b;}.cls-7{fill:#ccc;}.cls-11,.cls-8{fill:none;stroke-miterlimit:10;}.cls-8{stroke:#c1272d;stroke-width:18.18px;}.cls-9{fill:#f18b26;}.cls-10{fill:#e6491c;}.cls-11{stroke:#ccc;stroke-width:0.83px;}.cls-12{fill:#29abe2;}.cls-13{opacity:0.5;}.cls-13,.cls-19{mix-blend-mode:overlay;}.cls-14,.cls-19{fill:#fff;}.cls-15{fill:#333;}.cls-16{fill:#1a1a1a;}.cls-17{fill:gray;}.cls-18{fill:#d4145a;}.cls-20{fill:#de8932;}</style></defs><title>ambulan_1</title><g class="cls-1"><g id="Layer_2" data-name="Layer 2"><g id="objects"><path class="cls-2" d="M7.27,296.38H352.83a5.79,5.79,0,0,0,5.79-5.79h0a5.79,5.79,0,0,0-5.79-5.79H7.27a5.79,5.79,0,0,0-5.79,5.79h0A5.79,5.79,0,0,0,7.27,296.38Z"/><path class="cls-3" d="M84.66,140v4.75c-15,18.63-41.38,49.43-41.38,49.43l-33.15,11.3h0a4.75,4.75,0,0,0-4.75,4.75v39H133.86V126.57H107.17C94.74,126.57,84.66,127.56,84.66,140Z"/><rect class="cls-4" x="131.38" y="126.57" width="2.48" height="122.71"/><rect class="cls-3" x="134.27" y="126.57" width="224.75" height="125.6"/><polygon class="cls-5" points="291.64 172.84 359.03 172.84 359.03 154.67 299.17 154.67 263.86 119.36 241.46 122.67 291.64 172.84"/><path class="cls-3" d="M142.55,111.7h208.2A8.27,8.27,0,0,1,359,120v3.29a0,0,0,0,1,0,0H134.27a0,0,0,0,1,0,0V120A8.27,8.27,0,0,1,142.55,111.7Z"/><path class="cls-6" d="M142.51,111.7a8.27,8.27,0,0,0-8.24,8.21h4.27a4,4,0,0,0,4-4Z"/><path class="cls-6" d="M350.79,111.75A8.27,8.27,0,0,1,359,120h-4.27a4,4,0,0,1-4-4Z"/><rect class="cls-7" x="134.27" y="123.27" width="224.75" height="3.31"/><circle class="cls-5" cx="295.4" cy="163.75" r="23.96"/><polygon class="cls-3" points="312.35 157.91 301.25 157.91 301.25 146.81 289.56 146.81 289.56 157.91 278.45 157.91 278.45 169.6 289.56 169.6 289.56 180.7 301.25 180.7 301.25 169.6 312.35 169.6 312.35 157.91"/><line class="cls-8" x1="133.86" y1="213.75" x2="359.03" y2="213.75"/><rect class="cls-5" x="67.03" y="204.66" width="64.28" height="18.18"/><rect class="cls-9" x="209.47" y="183.59" width="21.48" height="14.87" rx="3.1" ry="3.1"/><rect class="cls-10" x="236.73" y="183.59" width="21.48" height="14.87" rx="3.1" ry="3.1"/><rect class="cls-11" x="152.45" y="139.79" width="49.58" height="112.38"/><rect class="cls-12" x="157.41" y="144.75" width="39.66" height="29.75"/><g class="cls-13"><polygon class="cls-14" points="197.07 158.11 197.07 171.82 170 144.75 183.71 144.75 197.07 158.11"/><polygon class="cls-14" points="161.22 144.75 166.16 144.75 195.91 174.5 190.97 174.5 161.22 144.75"/><polygon class="cls-14" points="157.41 167.47 157.41 162.54 169.37 174.5 164.43 174.5 157.41 167.47"/></g><path class="cls-7" d="M195.42,196H183.85a1.65,1.65,0,0,0-1.65,1.65h0a1.65,1.65,0,0,0,1.65,1.65h11.57a1.65,1.65,0,0,0,1.65-1.65h0A1.65,1.65,0,0,0,195.42,196Z"/><rect class="cls-7" x="105.5" y="199.29" width="14.87" height="3.31" rx="1.65" ry="1.65"/><path class="cls-15" d="M2.48,249.28H359.79a3,3,0,0,1,3,3v10.62a3,3,0,0,1-3,3H2.48A2.48,2.48,0,0,1,0,263.32V251.76a2.48,2.48,0,0,1,2.48-2.48Z"/><path class="cls-15" d="M326,265.8H245.76a40.14,40.14,0,1,1,80.28,0Z"/><path class="cls-16" d="M315.93,265.8H255.87a30,30,0,0,1,60.06,0Z"/><path class="cls-15" d="M312.75,265.28h0q0-1.26-.2-2.49h0a.83.83,0,0,0,.68-.95,27.18,27.18,0,0,0-1-4.16.83.83,0,0,0-1-.53h0q-.43-1.18-1-2.31h0a.83.83,0,0,0,.36-1.11,27.47,27.47,0,0,0-2.25-3.63.82.82,0,0,0-1.15-.18v0q-.77-1-1.63-1.9h0a.83.83,0,0,0,0-1.17,27.51,27.51,0,0,0-3.26-2.77.83.83,0,0,0-1.15.19h0q-1-.7-2.14-1.3h0a.83.83,0,0,0-.36-1.11,27.16,27.16,0,0,0-4-1.63.83.83,0,0,0-1,.53s0,0,0,0q-1.2-.34-2.44-.57v0a.83.83,0,0,0-.69-.94,27.42,27.42,0,0,0-4.15-.32h-.11a.79.79,0,0,0-.79.83v0q-1.28,0-2.54.2s0,0,0,0a.82.82,0,0,0-.95-.69,27.09,27.09,0,0,0-4.16,1,.83.83,0,0,0-.53,1h0q-1.18.43-2.31,1v0a.83.83,0,0,0-1.11-.36,27.36,27.36,0,0,0-3.64,2.25.83.83,0,0,0-.18,1.15h0q-1,.77-1.9,1.63v0a.83.83,0,0,0-1.17,0,27.57,27.57,0,0,0-2.77,3.26.83.83,0,0,0,.18,1.15h0q-.7,1-1.3,2.14h0a.82.82,0,0,0-1.11.36,27.24,27.24,0,0,0-1.63,4,.83.83,0,0,0,.53,1h0q-.34,1.2-.58,2.44h0a.83.83,0,0,0-.94.69,27.65,27.65,0,0,0-.32,4.21v.05a.8.8,0,0,0,.83.8h0q0,1.28.2,2.52h0a.83.83,0,0,0-.69.95,27.2,27.2,0,0,0,1,4.16.83.83,0,0,0,.79.57.82.82,0,0,0,.26,0h0q.43,1.18,1,2.31h0a.83.83,0,0,0-.36,1.11,27.24,27.24,0,0,0,2.24,3.64.83.83,0,0,0,1.15.18v0q.77,1,1.63,1.9h0a.83.83,0,0,0,0,1.17,27.54,27.54,0,0,0,3.25,2.78.83.83,0,0,0,1.15-.18h0q1,.7,2.14,1.31h0a.83.83,0,0,0,.36,1.11,27.07,27.07,0,0,0,4,1.63.83.83,0,0,0,1-.53s0,0,0,0q1.2.35,2.44.58v0a.83.83,0,0,0,.69.94,27,27,0,0,0,4.16.32h.1a.81.81,0,0,0,.81-.83v0q1.27,0,2.51-.2s0,0,0,0a.83.83,0,0,0,.82.7h.13a27.18,27.18,0,0,0,4.16-1,.83.83,0,0,0,.53-1h0q1.18-.43,2.31-1v0a.83.83,0,0,0,1.11.36,27.48,27.48,0,0,0,3.64-2.24.83.83,0,0,0,.18-1.15h0q1-.77,1.9-1.63v0a.83.83,0,0,0,1.17,0,27.4,27.4,0,0,0,2.78-3.25.83.83,0,0,0-.18-1.15h0q.7-1,1.31-2.14h0a.83.83,0,0,0,1.11-.36,27.17,27.17,0,0,0,1.64-4,.83.83,0,0,0-.53-1h0q.35-1.2.58-2.43h.15a.83.83,0,0,0,.82-.7,27.6,27.6,0,0,0,.33-4.26v-.11A.83.83,0,0,0,312.75,265.28Z"/><circle class="cls-4" cx="285.9" cy="265.8" r="19"/><circle class="cls-17" cx="285.9" cy="265.8" r="14.87"/><circle class="cls-15" cx="291.06" cy="260.64" r="1.65" transform="translate(-99.05 282.14) rotate(-45)"/><circle class="cls-15" cx="280.74" cy="270.96" r="1.65" transform="translate(-109.37 277.88) rotate(-45)"/><circle class="cls-15" cx="291.06" cy="270.96" r="1.65" transform="translate(-106.35 285.17) rotate(-45)"/><circle class="cls-15" cx="280.74" cy="260.64" r="1.65" transform="translate(-102.07 274.86) rotate(-45)"/><path class="cls-10" d="M357.72,243.3H359V231.44h-1.31a5.93,5.93,0,0,0-5.93,5.93h0A5.93,5.93,0,0,0,357.72,243.3Z"/><path class="cls-9" d="M6.68,216.57H5.37v11.86H6.68a5.93,5.93,0,0,0,5.93-5.93h0A5.93,5.93,0,0,0,6.68,216.57Z"/><rect class="cls-7" x="100.81" y="121.93" width="27.26" height="4.64"/><path class="cls-18" d="M126.34,121.93h-23.8v-.36a11.9,11.9,0,0,1,11.9-11.9h0a11.9,11.9,0,0,1,11.9,11.9Z"/><ellipse class="cls-19" cx="119.29" cy="114.67" rx="2.21" ry="4.62" transform="translate(-46.15 117.93) rotate(-45)"/><ellipse class="cls-19" cx="347.11" cy="136.9" rx="3.9" ry="8.13" transform="translate(4.86 285.54) rotate(-45)"/><ellipse class="cls-19" cx="310.77" cy="239.5" rx="2.85" ry="5.94" transform="translate(-78.33 289.9) rotate(-45)"/><path class="cls-11" d="M126.34,249.28V151.94a7.19,7.19,0,0,0-7.19-7.19H84.66"/><path class="cls-12" d="M85.22,144.75h-.56c-15,18.63-41.38,49.43-41.38,49.43l-.42.14H85.22a6,6,0,0,0,6-6v-37.6A6,6,0,0,0,85.22,144.75Z"/><line class="cls-11" x1="67.03" y1="237.96" x2="67.03" y2="194.33"/><path class="cls-15" d="M95.92,265.8H15.63a40.14,40.14,0,1,1,80.28,0Z"/><path class="cls-16" d="M85.81,265.8H25.74a30,30,0,0,1,60.06,0Z"/><path class="cls-15" d="M82.63,265.28h0q0-1.26-.2-2.49h0a.83.83,0,0,0,.68-.95,27.17,27.17,0,0,0-1-4.16.83.83,0,0,0-1-.53h0q-.43-1.18-1-2.31h0a.83.83,0,0,0,.36-1.11,27.47,27.47,0,0,0-2.25-3.63.82.82,0,0,0-1.15-.18v0q-.77-1-1.63-1.9h0a.83.83,0,0,0,0-1.17,27.51,27.51,0,0,0-3.26-2.77.83.83,0,0,0-1.15.19h0q-1-.7-2.14-1.3h0a.83.83,0,0,0-.36-1.11,27.17,27.17,0,0,0-4-1.63.83.83,0,0,0-1,.53s0,0,0,0q-1.2-.34-2.44-.57v0a.83.83,0,0,0-.69-.94,27.42,27.42,0,0,0-4.15-.32h-.11a.79.79,0,0,0-.79.83v0q-1.28,0-2.54.2s0,0,0,0a.82.82,0,0,0-.95-.69,27.09,27.09,0,0,0-4.16,1,.83.83,0,0,0-.53,1h0q-1.18.43-2.31,1v0a.83.83,0,0,0-1.11-.36,27.36,27.36,0,0,0-3.64,2.25.83.83,0,0,0-.18,1.15h0q-1,.77-1.9,1.63v0a.83.83,0,0,0-1.17,0,27.56,27.56,0,0,0-2.77,3.26.83.83,0,0,0,.18,1.15h0q-.7,1-1.3,2.14h0a.82.82,0,0,0-1.11.36,27.24,27.24,0,0,0-1.63,4,.83.83,0,0,0,.53,1h0q-.34,1.2-.58,2.44h0a.83.83,0,0,0-.94.69,27.66,27.66,0,0,0-.32,4.21v.05a.8.8,0,0,0,.83.8h0q0,1.28.2,2.52h0a.83.83,0,0,0-.69.95,27.2,27.2,0,0,0,1,4.16.83.83,0,0,0,.79.57.82.82,0,0,0,.26,0h0q.43,1.18,1,2.31h0a.83.83,0,0,0-.36,1.11,27.24,27.24,0,0,0,2.24,3.64.83.83,0,0,0,1.15.18v0q.77,1,1.63,1.9h0a.83.83,0,0,0,0,1.17,27.54,27.54,0,0,0,3.25,2.78.83.83,0,0,0,1.15-.18h0q1,.7,2.14,1.31h0a.83.83,0,0,0,.36,1.11,27.08,27.08,0,0,0,4,1.63.83.83,0,0,0,1-.53s0,0,0,0q1.2.35,2.44.58v0a.83.83,0,0,0,.69.94,27,27,0,0,0,4.16.32h.1a.81.81,0,0,0,.81-.83v0q1.27,0,2.51-.2s0,0,0,0a.83.83,0,0,0,.82.7h.13a27.18,27.18,0,0,0,4.16-1,.83.83,0,0,0,.53-1h0q1.18-.43,2.31-1v0a.83.83,0,0,0,1.11.36,27.48,27.48,0,0,0,3.64-2.24.83.83,0,0,0,.18-1.15h0q1-.77,1.9-1.63v0a.83.83,0,0,0,1.17,0,27.4,27.4,0,0,0,2.78-3.25.83.83,0,0,0-.18-1.15h0q.7-1,1.31-2.14h0a.83.83,0,0,0,1.11-.36,27.17,27.17,0,0,0,1.64-4,.83.83,0,0,0-.53-1h0q.35-1.2.58-2.43h.15a.83.83,0,0,0,.82-.7,27.6,27.6,0,0,0,.33-4.26v-.11A.83.83,0,0,0,82.63,265.28Z"/><circle class="cls-4" cx="55.78" cy="265.8" r="19"/><circle class="cls-17" cx="55.78" cy="265.8" r="14.87"/><circle class="cls-15" cx="60.94" cy="260.64" r="1.65" transform="translate(-166.45 119.42) rotate(-45)"/><circle class="cls-15" cx="50.61" cy="270.96" r="1.65" transform="translate(-176.78 115.15) rotate(-45)"/><circle class="cls-15" cx="60.94" cy="270.96" r="1.65" transform="translate(-173.75 122.45) rotate(-45)"/><circle class="cls-15" cx="50.61" cy="260.64" r="1.65" transform="translate(-169.48 112.13) rotate(-45)"/><rect class="cls-12" x="98.19" y="148.61" width="22.18" height="45.72" rx="4.82" ry="4.82"/><g class="cls-13"><path class="cls-14" d="M91.21,170.72,75.94,155.44c3.12-3.78,6.1-7.43,8.72-10.69h.49l6.07,6.07Z"/><path class="cls-14" d="M98.19,157.8,120.37,180v9.53a4.82,4.82,0,0,1-4.82,4.82h-.73L98.19,177.7Z"/><path class="cls-14" d="M73.41,158.49l17.8,17.8v7.17L70.16,162.41Z"/><path class="cls-14" d="M98.19,189.51v-6.23l11.05,11.05H103a4.81,4.81,0,0,1-1.06-.12l-3.64-3.64A4.81,4.81,0,0,1,98.19,189.51Z"/><path class="cls-14" d="M74,194.33H66.85L54.06,181.53l3.29-3.88Z"/></g><ellipse class="cls-19" cx="78.79" cy="239.5" rx="2.85" ry="5.94" transform="translate(-146.27 125.86) rotate(-45)"/><ellipse class="cls-19" cx="254.73" cy="186.96" rx="1.72" ry="2.18" transform="translate(-57.6 234.88) rotate(-45)"/><ellipse class="cls-19" cx="355.36" cy="115.41" rx="1.08" ry="2.18" transform="translate(22.48 285.08) rotate(-45)"/><ellipse class="cls-19" cx="355.41" cy="234.05" rx="2.18" ry="1.08" transform="translate(-61.4 319.86) rotate(-45)"/><ellipse class="cls-19" cx="8.99" cy="220.78" rx="1.08" ry="2.18" transform="translate(-153.48 71.02) rotate(-45)"/><ellipse class="cls-19" cx="227.2" cy="186.96" rx="1.72" ry="2.18" transform="translate(-65.66 215.42) rotate(-45)"/><ellipse class="cls-19" cx="294.5" cy="257.26" rx="1.77" ry="2.74" transform="translate(-95.65 283.59) rotate(-45)"/><ellipse class="cls-19" cx="64.72" cy="257.44" rx="1.77" ry="2.74" transform="translate(-163.08 121.17) rotate(-45)"/><ellipse class="cls-14" cx="178.56" cy="40.93" rx="55.69" ry="40.86" transform="translate(-2.2 11.21) rotate(-3.57)"/><g id="Layer_2-2" data-name="Layer 2"><g id="Layer_1-2" data-name="Layer 1-2"><path class="cls-5" d="M179.52,60.85a1.25,1.25,0,0,1-2.15.11S162.79,41.67,161.5,39.84s.32-2.32.32-2.32l3.4-.67-6.65-15.26s-8.11,2.26-8.11,6.26A46.9,46.9,0,0,0,153.63,41a60.39,60.39,0,0,0,14.05,22,49.61,49.61,0,0,0,18.25,10.76c6,2.15,8.24-5.68,8.24-5.68L180.92,57.84A8.78,8.78,0,0,1,179.52,60.85Z"/><path class="cls-9" d="M168.84,33s-4.3-10.55-5.06-11.88-4-.22-4-.22l6.76,15.65S169.62,34.89,168.84,33Z"/><path class="cls-9" d="M185.87,55.19c-1.38-1.05-4.18,1.42-4.18,1.42L195,66.92s2.48-2.84.43-4.41Z"/></g></g><path class="cls-20" d="M195.84,46.93a1.84,1.84,0,0,1-.3-1.43c4.1-22.32-15.95-23.54-16.8-23.58A1.81,1.81,0,0,1,177,19.73a2.53,2.53,0,0,1,2.55-2c.25,0,25.17,1.52,20.32,27.94a2.53,2.53,0,0,1-2.54,2A1.87,1.87,0,0,1,195.84,46.93Z"/><path class="cls-20" d="M189.55,45.29a1.26,1.26,0,0,1-.2-1c2.81-15.28-10.92-16.12-11.5-16.14a1.24,1.24,0,0,1-1.2-1.5,1.73,1.73,0,0,1,1.74-1.36c.17,0,17.23,1,13.91,19.13a1.73,1.73,0,0,1-1.74,1.37A1.28,1.28,0,0,1,189.55,45.29Z"/><path class="cls-20" d="M184.18,43.75a.75.75,0,0,1-.12-.58c1.67-9.1-6.51-9.6-6.86-9.62a.74.74,0,0,1-.72-.89,1,1,0,0,1,1-.81c.1,0,10.27.62,8.29,11.4a1,1,0,0,1-1,.82A.76.76,0,0,1,184.18,43.75Z"/><polygon class="cls-14" points="168.97 78.93 142.51 98.61 149.82 76.44 168.97 78.93"/></g></g></g></svg>