<svg xmlns="http://www.w3.org/2000/svg" xmlns:xlink="http://www.w3.org/1999/xlink" viewBox="0 0 190.95 156.57"><defs><style>.cls-1{isolation:isolate;}.cls-2{fill:url(#Degradado_sin_nombre_70);}.cls-3{fill:#a2e2e7;}.cls-4,.cls-41{fill:#00bec9;}.cls-5{fill:url(#Degradado_sin_nombre_69);}.cls-6{fill:url(#Degradado_sin_nombre_6);}.cls-7{fill:#00b7bc;}.cls-8{fill:#fff;}.cls-10,.cls-9{fill:#e7e7e7;}.cls-10,.cls-16,.cls-28,.cls-37,.cls-41,.cls-54{mix-blend-mode:multiply;}.cls-11{fill:url(#Degradado_sin_nombre_69-2);}.cls-12{fill:url(#Degradado_sin_nombre_69-3);}.cls-13{fill:url(#Degradado_sin_nombre_69-4);}.cls-14{fill:url(#Degradado_sin_nombre_69-5);}.cls-15{fill:url(#Degradado_sin_nombre_69-6);}.cls-17{fill:url(#Degradado_sin_nombre_69-7);}.cls-18{fill:url(#Degradado_sin_nombre_69-8);}.cls-19{fill:url(#Degradado_sin_nombre_69-9);}.cls-20{fill:url(#Degradado_sin_nombre_69-10);}.cls-21{fill:url(#Degradado_sin_nombre_79);}.cls-22{fill:url(#Degradado_sin_nombre_78);}.cls-23{fill:url(#Degradado_sin_nombre_78-2);}.cls-24{fill:#afafaf;}.cls-25{fill:#ffa6af;}.cls-26{fill:#ffc5cb;}.cls-27{fill:#cacaca;}.cls-28{fill:#d2dfe7;}.cls-29{fill:#ffaab2;}.cls-30{fill:#003738;}.cls-31{fill:#002727;}.cls-32{fill:#ffb5bd;}.cls-33{fill:#ff8b97;}.cls-34{fill:#909090;}.cls-35{fill:#d2d2d2;}.cls-36{fill:url(#Degradado_sin_nombre_8);}.cls-37{fill:url(#Degradado_sin_nombre_3);}.cls-38{fill:#00dce7;}.cls-39{fill:url(#Degradado_sin_nombre_9);}.cls-40{fill:url(#Degradado_sin_nombre_8-2);}.cls-42{fill:url(#Degradado_sin_nombre_7);}.cls-43{fill:#004d62;}.cls-44{fill:url(#Degradado_sin_nombre_74);}.cls-45{fill:url(#Degradado_sin_nombre_4);}.cls-46{opacity:0.62;}.cls-47{fill:url(#Degradado_sin_nombre_6-2);}.cls-48{fill:url(#Degradado_sin_nombre_4-2);}.cls-49{fill:url(#Degradado_sin_nombre_7-2);}.cls-50{fill:url(#Degradado_sin_nombre_74-2);}.cls-51{fill:url(#Degradado_sin_nombre_4-3);}.cls-52{fill:url(#Degradado_sin_nombre_6-3);}.cls-53{fill:url(#Degradado_sin_nombre_4-4);}.cls-54{fill:url(#Degradado_sin_nombre_3-2);}.cls-55{fill:url(#Degradado_sin_nombre_70-2);}</style><linearGradient id="Degradado_sin_nombre_70" x1="9.9" y1="88.11" x2="190.95" y2="88.11" gradientUnits="userSpaceOnUse"><stop offset="0.02" stop-color="#d4e6e7"/><stop offset="0.29" stop-color="#d0e6e7"/><stop offset="0.58" stop-color="#c3e5e7"/><stop offset="0.86" stop-color="#afe3e7"/><stop offset="1" stop-color="#a2e2e7"/></linearGradient><linearGradient id="Degradado_sin_nombre_69" x1="61.75" y1="6.23" x2="74.21" y2="6.23" gradientUnits="userSpaceOnUse"><stop offset="0.01" stop-color="#ffda00"/><stop offset="1" stop-color="#ffa910"/></linearGradient><linearGradient id="Degradado_sin_nombre_6" x1="107.55" y1="44.93" x2="107.55" y2="84.15" gradientTransform="translate(40.13 174.97) rotate(-90)" gradientUnits="userSpaceOnUse"><stop offset="0.07" stop-color="#006061"/><stop offset="0.99" stop-color="#003d3e"/></linearGradient><linearGradient id="Degradado_sin_nombre_69-2" x1="109.31" y1="43.18" x2="114.53" y2="43.18" xlink:href="#Degradado_sin_nombre_69"/><linearGradient id="Degradado_sin_nombre_69-3" x1="70.16" y1="43.18" x2="75.38" y2="43.18" xlink:href="#Degradado_sin_nombre_69"/><linearGradient id="Degradado_sin_nombre_69-4" x1="88.21" y1="43.18" x2="93.42" y2="43.18" xlink:href="#Degradado_sin_nombre_69"/><linearGradient id="Degradado_sin_nombre_69-5" x1="130.99" y1="43.18" x2="136.21" y2="43.18" xlink:href="#Degradado_sin_nombre_69"/><linearGradient id="Degradado_sin_nombre_69-6" x1="149.04" y1="43.18" x2="154.25" y2="43.18" xlink:href="#Degradado_sin_nombre_69"/><linearGradient id="Degradado_sin_nombre_69-7" x1="125.06" y1="56.94" x2="131.06" y2="56.94" xlink:href="#Degradado_sin_nombre_69"/><linearGradient id="Degradado_sin_nombre_69-8" x1="126.34" y1="56.91" x2="129.63" y2="56.91" xlink:href="#Degradado_sin_nombre_69"/><linearGradient id="Degradado_sin_nombre_69-9" x1="61.59" y1="55.84" x2="70.58" y2="55.84" xlink:href="#Degradado_sin_nombre_69"/><linearGradient id="Degradado_sin_nombre_69-10" x1="61.69" y1="87.08" x2="70.68" y2="87.08" xlink:href="#Degradado_sin_nombre_69"/><linearGradient id="Degradado_sin_nombre_79" x1="110.64" y1="77.05" x2="110.64" y2="91.92" gradientUnits="userSpaceOnUse"><stop offset="0" stop-color="#00bec9"/><stop offset="0.75" stop-color="#007379"/></linearGradient><linearGradient id="Degradado_sin_nombre_78" x1="119.13" y1="72.97" x2="119.13" y2="102.66" gradientUnits="userSpaceOnUse"><stop offset="0.03" stop-color="#cacaca"/><stop offset="1" stop-color="#adadad"/></linearGradient><linearGradient id="Degradado_sin_nombre_78-2" x1="102.52" y1="72.97" x2="102.52" y2="102.66" xlink:href="#Degradado_sin_nombre_78"/><linearGradient id="Degradado_sin_nombre_8" x1="107.55" y1="103.58" x2="107.55" y2="148.61" gradientUnits="userSpaceOnUse"><stop offset="0" stop-color="#00bec9"/><stop offset="1" stop-color="#0097a0"/></linearGradient><linearGradient id="Degradado_sin_nombre_3" x1="107.55" y1="101.32" x2="107.55" y2="116.36" gradientUnits="userSpaceOnUse"><stop offset="0" stop-color="#d0d0d0"/><stop offset="0.1" stop-color="#c6ccd0" stop-opacity="0.87"/><stop offset="0.34" stop-color="#b1c3d1" stop-opacity="0.56"/><stop offset="0.56" stop-color="#a0bcd2" stop-opacity="0.32"/><stop offset="0.75" stop-color="#93b7d3" stop-opacity="0.15"/><stop offset="0.9" stop-color="#8cb4d3" stop-opacity="0.04"/><stop offset="1" stop-color="#89b3d3" stop-opacity="0"/></linearGradient><linearGradient id="Degradado_sin_nombre_9" x1="156.08" y1="61.81" x2="156.08" y2="93.57" gradientUnits="userSpaceOnUse"><stop offset="0" stop-color="#00dce7"/><stop offset="1" stop-color="#00c8d3"/></linearGradient><linearGradient id="Degradado_sin_nombre_8-2" x1="156.08" y1="69.78" x2="156.08" y2="94.84" xlink:href="#Degradado_sin_nombre_8"/><linearGradient id="Degradado_sin_nombre_7" x1="-1524" y1="122.88" x2="-1519.61" y2="148.59" gradientTransform="translate(1681)" gradientUnits="userSpaceOnUse"><stop offset="0.04" stop-color="#009787"/><stop offset="0.61" stop-color="#00695d"/><stop offset="1" stop-color="#004e44"/></linearGradient><linearGradient id="Degradado_sin_nombre_74" x1="688.56" y1="-46.28" x2="682.31" y2="-31.83" gradientTransform="translate(-502.88 255.92) rotate(-7.48)" gradientUnits="userSpaceOnUse"><stop offset="0.07" stop-color="#006061"/><stop offset="0.39" stop-color="#005354"/><stop offset="0.99" stop-color="#003d3e"/></linearGradient><linearGradient id="Degradado_sin_nombre_4" x1="174.52" y1="103.85" x2="175.85" y2="145.67" gradientUnits="userSpaceOnUse"><stop offset="0.04" stop-color="#72eedc"/><stop offset="0.65" stop-color="#279f91"/><stop offset="1" stop-color="#00766a"/></linearGradient><linearGradient id="Degradado_sin_nombre_6-2" x1="296.81" y1="58.31" x2="296.81" y2="97.59" gradientTransform="translate(-125.38 56.94) rotate(-1.82)" xlink:href="#Degradado_sin_nombre_6"/><linearGradient id="Degradado_sin_nombre_4-2" x1="-1972.1" y1="347.59" x2="-1988.42" y2="386" gradientTransform="translate(2183.94 28.66) rotate(7.24)" xlink:href="#Degradado_sin_nombre_4"/><linearGradient id="Degradado_sin_nombre_7-2" x1="988.22" y1="122.88" x2="992.62" y2="148.59" gradientTransform="matrix(-1, 0, 0, 1, 1040.16, 0)" xlink:href="#Degradado_sin_nombre_7"/><linearGradient id="Degradado_sin_nombre_74-2" x1="3179.43" y1="280.56" x2="3173.18" y2="295.01" gradientTransform="matrix(-0.99, -0.13, -0.13, 0.99, 3224.03, 255.92)" xlink:href="#Degradado_sin_nombre_74"/><linearGradient id="Degradado_sin_nombre_4-3" x1="34.41" y1="103.85" x2="33.08" y2="145.67" xlink:href="#Degradado_sin_nombre_4"/><linearGradient id="Degradado_sin_nombre_6-3" x1="2807.75" y1="138.19" x2="2807.75" y2="177.48" gradientTransform="matrix(-1, -0.03, -0.03, 1, 2846.53, 56.94)" xlink:href="#Degradado_sin_nombre_6"/><linearGradient id="Degradado_sin_nombre_4-4" x1="520.11" y1="30.79" x2="503.8" y2="69.2" gradientTransform="matrix(-0.99, 0.13, 0.13, 0.99, 537.21, 28.66)" xlink:href="#Degradado_sin_nombre_4"/><linearGradient id="Degradado_sin_nombre_3-2" x1="110.52" y1="122.1" x2="110.52" y2="139.1" xlink:href="#Degradado_sin_nombre_3"/><linearGradient id="Degradado_sin_nombre_70-2" x1="110.36" y1="109.69" x2="110.36" y2="132.96" xlink:href="#Degradado_sin_nombre_70"/></defs><title>Asset 13</title><g class="cls-1"><g id="Layer_2" data-name="Layer 2"><g id="Layer_1-2" data-name="Layer 1"><path class="cls-2" d="M191,48.11A108,108,0,0,0,13.81,156.57H191Z"/><polygon class="cls-3" points="179.17 25.27 176.8 25.27 176.8 22.91 174.24 22.91 174.24 25.27 171.88 25.27 171.88 27.83 174.24 27.83 174.24 30.2 176.8 30.2 176.8 27.83 179.17 27.83 179.17 25.27"/><polygon class="cls-4" points="7.29 97.67 4.92 97.67 4.92 95.31 2.37 95.31 2.37 97.67 0 97.67 0 100.23 2.37 100.23 2.37 102.6 4.92 102.6 4.92 100.23 7.29 100.23 7.29 97.67"/><polygon class="cls-5" points="74.21 4.04 70.17 4.04 70.17 0 65.8 0 65.8 4.04 61.75 4.04 61.75 8.41 65.8 8.41 65.8 12.46 70.17 12.46 70.17 8.41 74.21 8.41 74.21 4.04"/><path class="cls-3" d="M66.66,31h82.17a12,12,0,0,1,12,12v60.85a0,0,0,0,1,0,0H54.63a0,0,0,0,1,0,0V43A12,12,0,0,1,66.66,31Z"/><path class="cls-6" d="M79.83,16.39h61.86a0,0,0,0,1,0,0V118.45a0,0,0,0,1,0,0H79.83A6.42,6.42,0,0,1,73.41,112V22.82A6.42,6.42,0,0,1,79.83,16.39Z" transform="translate(174.97 -40.13) rotate(90)"/><rect class="cls-3" x="56.02" y="46.57" width="104.03" height="2.3"/><rect class="cls-3" x="56.02" y="61.75" width="104.03" height="2.3"/><rect class="cls-3" x="56.02" y="76.93" width="104.03" height="2.3"/><rect class="cls-7" x="61.24" y="39.81" width="5.21" height="6.73"/><rect class="cls-8" x="61.05" y="41.6" width="5.64" height="3.12"/><rect class="cls-8" x="60.49" y="37.61" width="6.5" height="2.39" rx="0.99" ry="0.99"/><rect class="cls-9" x="60.92" y="37.61" width="0.41" height="2.39"/><rect class="cls-9" x="61.8" y="37.61" width="0.41" height="2.39"/><rect class="cls-9" x="62.67" y="37.61" width="0.41" height="2.39"/><rect class="cls-9" x="63.54" y="37.61" width="0.41" height="2.39"/><rect class="cls-9" x="64.41" y="37.61" width="0.41" height="2.39"/><rect class="cls-9" x="65.28" y="37.61" width="0.41" height="2.39"/><rect class="cls-9" x="66.15" y="37.61" width="0.41" height="2.39"/><path class="cls-10" d="M66.45,41.6V40h-2.1v3.51a3.13,3.13,0,0,1-2.37,3h4.47V44.72h.25V41.6Z"/><rect class="cls-7" x="79.09" y="39.81" width="5.21" height="6.73"/><rect class="cls-8" x="78.91" y="41.6" width="5.64" height="3.12"/><rect class="cls-8" x="78.35" y="37.61" width="6.5" height="2.39" rx="0.99" ry="0.99"/><rect class="cls-9" x="78.78" y="37.61" width="0.41" height="2.39"/><rect class="cls-9" x="79.65" y="37.61" width="0.41" height="2.39"/><rect class="cls-9" x="80.52" y="37.61" width="0.41" height="2.39"/><rect class="cls-9" x="81.39" y="37.61" width="0.41" height="2.39"/><rect class="cls-9" x="82.27" y="37.61" width="0.41" height="2.39"/><rect class="cls-9" x="83.14" y="37.61" width="0.41" height="2.39"/><rect class="cls-9" x="84.01" y="37.61" width="0.41" height="2.39"/><path class="cls-10" d="M84.3,41.6V40H82.2v3.51a3.13,3.13,0,0,1-2.37,3H84.3V44.72h.25V41.6Z"/><rect class="cls-7" x="97.84" y="39.81" width="5.21" height="6.73"/><rect class="cls-8" x="97.65" y="41.6" width="5.64" height="3.12"/><rect class="cls-8" x="97.09" y="37.61" width="6.5" height="2.39" rx="0.99" ry="0.99"/><rect class="cls-9" x="97.53" y="37.61" width="0.41" height="2.39"/><rect class="cls-9" x="98.4" y="37.61" width="0.41" height="2.39"/><rect class="cls-9" x="99.27" y="37.61" width="0.41" height="2.39"/><rect class="cls-9" x="100.14" y="37.61" width="0.41" height="2.39"/><rect class="cls-9" x="101.01" y="37.61" width="0.41" height="2.39"/><rect class="cls-9" x="101.88" y="37.61" width="0.41" height="2.39"/><rect class="cls-9" x="102.76" y="37.61" width="0.41" height="2.39"/><path class="cls-10" d="M103,41.6V40h-2.1v3.51a3.13,3.13,0,0,1-2.37,3H103V44.72h.25V41.6Z"/><rect class="cls-11" x="109.31" y="39.81" width="5.21" height="6.73"/><rect class="cls-8" x="109.13" y="41.6" width="5.64" height="3.12"/><rect class="cls-8" x="108.57" y="37.61" width="6.5" height="2.39" rx="0.99" ry="0.99"/><rect class="cls-9" x="109" y="37.61" width="0.41" height="2.39"/><rect class="cls-9" x="109.87" y="37.61" width="0.41" height="2.39"/><rect class="cls-9" x="110.75" y="37.61" width="0.41" height="2.39"/><rect class="cls-9" x="111.62" y="37.61" width="0.41" height="2.39"/><rect class="cls-9" x="112.49" y="37.61" width="0.41" height="2.39"/><rect class="cls-9" x="113.36" y="37.61" width="0.41" height="2.39"/><rect class="cls-9" x="114.23" y="37.61" width="0.41" height="2.39"/><path class="cls-10" d="M114.53,41.6V40h-2.1v3.51a3.13,3.13,0,0,1-2.37,3h4.47V44.72h.25V41.6Z"/><rect class="cls-12" x="70.16" y="39.81" width="5.21" height="6.73"/><rect class="cls-8" x="69.98" y="41.6" width="5.64" height="3.12"/><rect class="cls-8" x="69.42" y="37.61" width="6.5" height="2.39" rx="0.99" ry="0.99"/><rect class="cls-9" x="69.85" y="37.61" width="0.41" height="2.39"/><rect class="cls-9" x="70.72" y="37.61" width="0.41" height="2.39"/><rect class="cls-9" x="71.6" y="37.61" width="0.41" height="2.39"/><rect class="cls-9" x="72.47" y="37.61" width="0.41" height="2.39"/><rect class="cls-9" x="73.34" y="37.61" width="0.41" height="2.39"/><rect class="cls-9" x="74.21" y="37.61" width="0.41" height="2.39"/><rect class="cls-9" x="75.08" y="37.61" width="0.41" height="2.39"/><path class="cls-10" d="M75.38,41.6V40h-2.1v3.51a3.13,3.13,0,0,1-2.37,3h4.47V44.72h.25V41.6Z"/><rect class="cls-13" x="88.21" y="39.81" width="5.21" height="6.73"/><rect class="cls-8" x="88.02" y="41.6" width="5.64" height="3.12"/><rect class="cls-8" x="87.47" y="37.61" width="6.5" height="2.39" rx="0.99" ry="0.99"/><rect class="cls-9" x="87.9" y="37.61" width="0.41" height="2.39"/><rect class="cls-9" x="88.77" y="37.61" width="0.41" height="2.39"/><rect class="cls-9" x="89.64" y="37.61" width="0.41" height="2.39"/><rect class="cls-9" x="90.51" y="37.61" width="0.41" height="2.39"/><rect class="cls-9" x="91.38" y="37.61" width="0.41" height="2.39"/><rect class="cls-9" x="92.26" y="37.61" width="0.41" height="2.39"/><rect class="cls-9" x="93.13" y="37.61" width="0.41" height="2.39"/><path class="cls-10" d="M93.42,41.6V40h-2.1v3.51a3.13,3.13,0,0,1-2.37,3h4.47V44.72h.25V41.6Z"/><rect class="cls-7" x="122.07" y="39.81" width="5.21" height="6.73"/><rect class="cls-8" x="121.88" y="41.6" width="5.64" height="3.12"/><rect class="cls-8" x="121.33" y="37.61" width="6.5" height="2.39" rx="0.99" ry="0.99"/><rect class="cls-9" x="121.76" y="37.61" width="0.41" height="2.39"/><rect class="cls-9" x="122.63" y="37.61" width="0.41" height="2.39"/><rect class="cls-9" x="123.5" y="37.61" width="0.41" height="2.39"/><rect class="cls-9" x="124.37" y="37.61" width="0.41" height="2.39"/><rect class="cls-9" x="125.24" y="37.61" width="0.41" height="2.39"/><rect class="cls-9" x="126.11" y="37.61" width="0.41" height="2.39"/><rect class="cls-9" x="126.99" y="37.61" width="0.41" height="2.39"/><path class="cls-10" d="M127.28,41.6V40h-2.1v3.51a3.13,3.13,0,0,1-2.37,3h4.47V44.72h.25V41.6Z"/><rect class="cls-7" x="139.92" y="39.81" width="5.21" height="6.73"/><rect class="cls-8" x="139.74" y="41.6" width="5.64" height="3.12"/><rect class="cls-8" x="139.18" y="37.61" width="6.5" height="2.39" rx="0.99" ry="0.99"/><rect class="cls-9" x="139.61" y="37.61" width="0.41" height="2.39"/><rect class="cls-9" x="140.48" y="37.61" width="0.41" height="2.39"/><rect class="cls-9" x="141.35" y="37.61" width="0.41" height="2.39"/><rect class="cls-9" x="142.22" y="37.61" width="0.41" height="2.39"/><rect class="cls-9" x="143.1" y="37.61" width="0.41" height="2.39"/><rect class="cls-9" x="143.97" y="37.61" width="0.41" height="2.39"/><rect class="cls-9" x="144.84" y="37.61" width="0.41" height="2.39"/><path class="cls-10" d="M145.13,41.6V40H143v3.51a3.13,3.13,0,0,1-2.37,3h4.47V44.72h.25V41.6Z"/><rect class="cls-14" x="130.99" y="39.81" width="5.21" height="6.73"/><rect class="cls-8" x="130.81" y="41.6" width="5.64" height="3.12"/><rect class="cls-8" x="130.25" y="37.61" width="6.5" height="2.39" rx="0.99" ry="0.99"/><rect class="cls-9" x="130.68" y="37.61" width="0.41" height="2.39"/><rect class="cls-9" x="131.55" y="37.61" width="0.41" height="2.39"/><rect class="cls-9" x="132.43" y="37.61" width="0.41" height="2.39"/><rect class="cls-9" x="133.3" y="37.61" width="0.41" height="2.39"/><rect class="cls-9" x="134.17" y="37.61" width="0.41" height="2.39"/><rect class="cls-9" x="135.04" y="37.61" width="0.41" height="2.39"/><rect class="cls-9" x="135.91" y="37.61" width="0.41" height="2.39"/><path class="cls-10" d="M136.21,41.6V40h-2.1v3.51a3.13,3.13,0,0,1-2.37,3h4.47V44.72h.25V41.6Z"/><rect class="cls-15" x="149.04" y="39.81" width="5.21" height="6.73"/><rect class="cls-8" x="148.86" y="41.6" width="5.64" height="3.12"/><rect class="cls-8" x="148.3" y="37.61" width="6.5" height="2.39" rx="0.99" ry="0.99"/><rect class="cls-9" x="148.73" y="37.61" width="0.41" height="2.39"/><rect class="cls-9" x="149.6" y="37.61" width="0.41" height="2.39"/><rect class="cls-9" x="150.47" y="37.61" width="0.41" height="2.39"/><rect class="cls-9" x="151.34" y="37.61" width="0.41" height="2.39"/><rect class="cls-9" x="152.21" y="37.61" width="0.41" height="2.39"/><rect class="cls-9" x="153.09" y="37.61" width="0.41" height="2.39"/><rect class="cls-9" x="153.96" y="37.61" width="0.41" height="2.39"/><path class="cls-10" d="M154.25,41.6V40h-2.1v3.51a3.13,3.13,0,0,1-2.37,3h4.47V44.72h.25V41.6Z"/><path class="cls-4" d="M64.58,68.27h-.16v-.94H61.24v.94h-.16a1.25,1.25,0,0,0-1.25,1.25v6.25A1.25,1.25,0,0,0,61.08,77h3.5a1.25,1.25,0,0,0,1.25-1.25V69.52A1.25,1.25,0,0,0,64.58,68.27Z"/><g class="cls-16"><path class="cls-9" d="M64.58,68.27h-.16v-.94H63.18v.78a.16.16,0,0,0,.16.16h0a1.25,1.25,0,0,1,1.25,1.25v6.25A1.25,1.25,0,0,1,63.33,77h1.25a1.25,1.25,0,0,0,1.25-1.25V69.52A1.25,1.25,0,0,0,64.58,68.27Z"/></g><rect class="cls-9" x="60.67" y="70.15" width="4.21" height="4.25"/><rect class="cls-4" x="61.11" y="71.81" width="3.29" height="0.67"/><rect class="cls-8" x="60.74" y="65.96" width="4.19" height="1.69" rx="0.7" ry="0.7"/><path class="cls-9" d="M64.46,66H63.08v1.69h1.38a.47.47,0,0,0,.47-.47v-.75A.47.47,0,0,0,64.46,66Z"/><path class="cls-4" d="M72.92,68.27h-.16v-.94H69.58v.94h-.16a1.25,1.25,0,0,0-1.25,1.25v6.25A1.25,1.25,0,0,0,69.42,77h3.5a1.25,1.25,0,0,0,1.25-1.25V69.52A1.25,1.25,0,0,0,72.92,68.27Z"/><g class="cls-16"><path class="cls-9" d="M72.92,68.27h-.16v-.94H71.51v.78a.16.16,0,0,0,.16.16h0a1.25,1.25,0,0,1,1.25,1.25v6.25A1.25,1.25,0,0,1,71.67,77h1.25a1.25,1.25,0,0,0,1.25-1.25V69.52A1.25,1.25,0,0,0,72.92,68.27Z"/></g><rect class="cls-9" x="69.01" y="70.15" width="4.21" height="4.25"/><rect class="cls-4" x="69.45" y="71.81" width="3.29" height="0.67"/><rect class="cls-8" x="69.08" y="65.96" width="4.19" height="1.69" rx="0.7" ry="0.7"/><path class="cls-9" d="M72.79,66H71.42v1.69h1.38a.47.47,0,0,0,.47-.47v-.75A.47.47,0,0,0,72.79,66Z"/><path class="cls-17" d="M129.81,53h-.16V52.1h-3.19V53h-.16a1.25,1.25,0,0,0-1.25,1.25v6.25a1.25,1.25,0,0,0,1.25,1.25h3.5a1.25,1.25,0,0,0,1.25-1.25V54.29A1.25,1.25,0,0,0,129.81,53Z"/><g class="cls-16"><path class="cls-9" d="M129.81,53h-.16V52.1H128.4v.78a.16.16,0,0,0,.16.16h0a1.25,1.25,0,0,1,1.25,1.25v6.25a1.25,1.25,0,0,1-1.25,1.25h1.25a1.25,1.25,0,0,0,1.25-1.25V54.29A1.25,1.25,0,0,0,129.81,53Z"/></g><rect class="cls-9" x="125.9" y="54.91" width="4.21" height="4.25"/><rect class="cls-18" x="126.34" y="56.58" width="3.29" height="0.67"/><rect class="cls-8" x="125.96" y="50.72" width="4.19" height="1.69" rx="0.7" ry="0.7"/><path class="cls-9" d="M129.68,50.72h-1.38v1.69h1.38a.47.47,0,0,0,.47-.47v-.75A.47.47,0,0,0,129.68,50.72Z"/><rect class="cls-8" x="60.72" y="53.68" width="11.19" height="8.03"/><rect class="cls-19" x="61.59" y="55.02" width="8.99" height="1.63"/><rect class="cls-3" x="61.65" y="58.18" width="8.74" height="0.83"/><rect class="cls-3" x="61.65" y="59.52" width="8.74" height="0.83"/><path class="cls-10" d="M69.81,53.68v2.79a3.91,3.91,0,0,1-3.91,3.91H60.72v1.34H71.92v-8Z"/><rect class="cls-8" x="60.83" y="84.93" width="11.19" height="8.03"/><rect class="cls-20" x="61.69" y="86.27" width="8.99" height="1.63"/><rect class="cls-3" x="61.75" y="89.42" width="8.74" height="0.83"/><rect class="cls-3" x="61.75" y="90.76" width="8.74" height="0.83"/><path class="cls-10" d="M69.91,84.93v2.79A3.91,3.91,0,0,1,66,91.62H60.83V93H72v-8Z"/><rect class="cls-8" x="95.71" y="53.78" width="11.19" height="8.03"/><rect class="cls-4" x="96.57" y="55.12" width="8.99" height="1.63"/><rect class="cls-3" x="96.63" y="58.28" width="8.74" height="0.83"/><rect class="cls-3" x="96.63" y="59.62" width="8.74" height="0.83"/><path class="cls-10" d="M104.79,53.78v2.79a3.91,3.91,0,0,1-3.91,3.91H95.71v1.34H106.9v-8Z"/><rect class="cls-8" x="139.47" y="53.68" width="11.19" height="8.03"/><rect class="cls-4" x="140.33" y="55.02" width="8.99" height="1.63"/><rect class="cls-3" x="140.39" y="58.18" width="8.74" height="0.83"/><rect class="cls-3" x="140.39" y="59.52" width="8.74" height="0.83"/><path class="cls-10" d="M148.55,53.68v2.79a3.91,3.91,0,0,1-3.91,3.91h-5.18v1.34h11.19v-8Z"/><path class="cls-21" d="M99.8,94.62l23.45-.16c0-1.57-.62-10-.6-12.47.08-.5.74-9.11-.89-10.81a7.07,7.07,0,0,0-6.9-2H107.5c-.54,0-4.82-1.05-7.88,1.91-2.87,2.77-1.15,9.85-.29,13.1C99.47,86.22,99.33,93.09,99.8,94.62Z"/><path class="cls-22" d="M117.19,94.45l6,0c0-1.57-.62-10-.6-12.47.08-.5.74-9.11-.89-10.81a6.78,6.78,0,0,0-4.56-2.2L115,79.62Z"/><path class="cls-23" d="M105.93,69a8.23,8.23,0,0,0-6.41,2.07c-2.87,2.77-1.15,9.85-.29,13.1.15,2,0,8.9.48,10.43l6.22,0,1.18-14.78Z"/><polygon class="cls-24" points="133.38 91.18 142.84 92.9 127.8 92.99 133.38 91.18"/><path class="cls-25" d="M133.81,92.95a9.1,9.1,0,0,1,3.92-1.05c1.91,0,4.45.29,4.45.29l-3.6,1Z"/><path class="cls-26" d="M148.49,92.87A6.18,6.18,0,0,0,145.36,91a8.53,8.53,0,0,0-3.89.26,10.93,10.93,0,0,0-2.84,1.63s-.39.4-.35.41c.16,1.28,2,1.75,3.08,2s2.3-.22.86-.88c-1.13-.53-.73-.63-.47-.65h0c1.82.09,2.81,1.28,4,1.38C148.39,95.34,150.59,94.34,148.49,92.87Z"/><path class="cls-27" d="M99.07,71.7a8,8,0,0,1,1.5,2.55c1.51,4.49,2,6.25-1.05,10.14l-9.37,8.23-3.73-4.4Z"/><path class="cls-25" d="M85.55,68a6.13,6.13,0,0,0,1.15-2.74.76.76,0,0,0-.16-.56c-.25-.22-.68,0-.86.27s-.36.65-.51.94-.29.5-.36.63l-1.37-3.32c-.4-1-1-2.05-2.05-2.24a2.21,2.21,0,0,0-2.28,1.36,4.4,4.4,0,0,0,0,2.67,31.14,31.14,0,0,0,2.68,6.76c.21.42,3.1-.52,3.3-.87,0-.34-.28-.77-.21-1.14A5.9,5.9,0,0,1,85.55,68Z"/><path class="cls-7" d="M85.08,70.42l6.65,16.3h0A5.07,5.07,0,0,1,90.3,92.5l-.59.5a2,2,0,0,1-2.88-.26l0,0A9.34,9.34,0,0,1,85.08,89L81.35,71.57Z"/><path class="cls-27" d="M122.15,71.76l11.22,19.42A9.51,9.51,0,0,1,127.77,93l-5-6.31a24.6,24.6,0,0,1-.61-14.92Z"/><polygon class="cls-9" points="117.02 67.65 113.48 78.36 113.29 94.72 118.26 94.62 119.32 83.53 115.68 79.7 119.8 80.18 117.02 67.65"/><polygon class="cls-9" points="105.45 67.65 108.99 78.36 109.18 94.72 104.2 94.62 103.15 83.53 106.79 79.7 102.67 80.18 105.45 67.65"/><path class="cls-25" d="M115.72,69.69a45.59,45.59,0,0,0-6-.52,29.89,29.89,0,0,0-3.45.27c.3.74,1,2.67,1.16,3.26a14.42,14.42,0,0,0,3.87,3.44,14.45,14.45,0,0,0,3.61-3.29C115.17,71.77,115.5,70.77,115.72,69.69Z"/><path class="cls-25" d="M115.31,72.18a5.77,5.77,0,0,0,1.16-2.35l-.51-.08C115.8,70.57,115.54,71.37,115.31,72.18Z"/><polygon class="cls-25" points="114.97 71.23 107.13 70.78 107.38 65.7 114.78 65.88 114.97 71.23"/><path class="cls-28" d="M107.24,65.39c.46,2.91,1.61,5.47,3.65,5.59s3.66-2.3,4.46-5.13Z"/><path class="cls-29" d="M116.85,60.38c-.23,3.94-1.85,8.27-5.84,8.44-4.21-.91-5.05-5.12-4.83-9.06s2.35-7,5.75-6.83S117.08,56.44,116.85,60.38Z"/><path class="cls-26" d="M116.46,61.06a2.42,2.42,0,0,0-1.27-1.9c-1.09-.71-4.53-1.3-5.13-2.56A6.84,6.84,0,0,1,107.85,60a4.2,4.2,0,0,0-1.31,3.63c.34,2.54,1.55,4.49,4.12,5.2a1.91,1.91,0,0,0,.73.06,4.9,4.9,0,0,0,1.33-.33C114.45,67.78,116.11,65.2,116.46,61.06Z"/><path class="cls-29" d="M111.41,63.34a2.74,2.74,0,0,1-.76-.17.1.1,0,0,0-.11.16,1.44,1.44,0,0,0,.58.44,1.23,1.23,0,0,0,.27.06h0a1.23,1.23,0,0,0,.27,0,1.44,1.44,0,0,0,.63-.36.1.1,0,0,0-.09-.17A2.73,2.73,0,0,1,111.41,63.34Z"/><path class="cls-30" d="M107.84,59.82a1.16,1.16,0,0,1,.47-.52,1.46,1.46,0,0,1,.68-.21,1.48,1.48,0,0,1,.7.13,1.19,1.19,0,0,1,.53.45.09.09,0,0,1-.1.13h0a3.89,3.89,0,0,0-.56-.15,2.54,2.54,0,0,0-.53,0,2.44,2.44,0,0,0-.52.09,3.44,3.44,0,0,0-.54.22h0a.09.09,0,0,1-.12-.11Z"/><ellipse class="cls-31" cx="109.05" cy="61.21" rx="0.44" ry="0.33" transform="translate(44.12 168.09) rotate(-88.03)"/><path class="cls-30" d="M115,60a1.16,1.16,0,0,0-.48-.51,1.46,1.46,0,0,0-.69-.2,1.48,1.48,0,0,0-.7.14,1.19,1.19,0,0,0-.52.46.09.09,0,0,0,.11.13h0a3.89,3.89,0,0,1,.56-.15,2.54,2.54,0,0,1,.53,0,2.45,2.45,0,0,1,.53.08,3.45,3.45,0,0,1,.54.21h0A.09.09,0,0,0,115,60Z"/><ellipse class="cls-31" cx="113.68" cy="61.37" rx="0.44" ry="0.33" transform="translate(48.42 172.87) rotate(-88.02)"/><ellipse class="cls-32" cx="108.56" cy="63.21" rx="0.76" ry="1.1" transform="matrix(0.03, -1, 1, 0.03, 41.65, 169.53)"/><ellipse class="cls-32" cx="114.32" cy="63.41" rx="0.76" ry="1.1" transform="translate(47.01 175.47) rotate(-88.02)"/><path class="cls-33" d="M109.47,64.87a5.52,5.52,0,0,1,3.63.2A6,6,0,0,1,109.47,64.87Z"/><path class="cls-33" d="M109.3,65.15a2.41,2.41,0,0,0,2,1.66,2,2,0,0,0,2-1.39Z"/><path class="cls-8" d="M109.63,64.85c-.22,0-.38.25-.24.46a2.55,2.55,0,0,0,3.81.23c.16-.19,0-.5-.19-.48A13.19,13.19,0,0,1,109.63,64.85Z"/><path class="cls-30" d="M108.21,58.62a8.26,8.26,0,0,0-1.65,1.49,4.15,4.15,0,0,0-.15,3.47c.34,1.13.82,2.22,1.11,3.36a5.54,5.54,0,0,1-.1,3.48,2.93,2.93,0,0,1-2.74,1.87,3,3,0,0,1-2.49-2.36,6.59,6.59,0,0,1,.34-3.61,28,28,0,0,0,1.11-3.5c.48-2.56-.34-5.32.62-7.74a5.61,5.61,0,0,1,2.19-2.65,3.17,3.17,0,0,1,2-.57C111.82,52.3,109.67,57.37,108.21,58.62Z"/><path class="cls-30" d="M108.87,52c-.38-.37.7-1,1.21-1.17a5.73,5.73,0,0,1,5.16.78,7.23,7.23,0,0,1,3.54,5.17c.53,3.89-1.26,7.6-.71,11.49.1.71.9,1.84.9,2.56a2.06,2.06,0,0,1-.9,1.84c-.59.33-1.92-.25-2.52-.56a4.06,4.06,0,0,1-2.14-3.91c2.25-1.78,3-4.31,3.3-7.16a3.47,3.47,0,0,0-.17-1.7c-1.18-2.33-5.16-1.24-6.45-3.66a2.22,2.22,0,0,1-.27-1.4A3.37,3.37,0,0,0,108.87,52Z"/><path class="cls-31" d="M113.41,68.17a4,4,0,0,0,1,3.07,4,4,0,0,1,.19-2.72c.44-1,1-1.56,1.42-2.53.34-.78.73-1.56,1-2.37s1.08-3.39.22-4.84a4.26,4.26,0,0,0-2.7-1.61,22.27,22.27,0,0,1-3.26-.47l-.38-.09c1.7,1.21,4.62.77,5.61,2.71a3.47,3.47,0,0,1,.17,1.7C116.4,63.86,115.66,66.38,113.41,68.17Z"/><ellipse class="cls-26" cx="105.41" cy="60.98" rx="0.85" ry="1.78" transform="translate(-3.39 6.27) rotate(-3.35)"/><ellipse class="cls-33" cx="105.55" cy="61.09" rx="0.49" ry="0.88" transform="translate(-3.4 6.28) rotate(-3.36)"/><path class="cls-30" d="M108,58.82a4.74,4.74,0,0,0-1.56,4.8s-1.61-1.35-.37-4.32c.22-.52,2-1.08,2-1.08Z"/><path class="cls-30" d="M109.1,63.12a1.81,1.81,0,1,1,1.81-1.81A1.82,1.82,0,0,1,109.1,63.12Zm0-3.37a1.56,1.56,0,1,0,1.56,1.56A1.56,1.56,0,0,0,109.1,59.75Z"/><path class="cls-30" d="M113.77,63.12a1.81,1.81,0,1,1,1.81-1.81A1.82,1.82,0,0,1,113.77,63.12Zm0-3.37a1.56,1.56,0,1,0,1.56,1.56A1.56,1.56,0,0,0,113.77,59.75Z"/><path class="cls-30" d="M112.08,61.27a.13.13,0,0,1-.13-.13.51.51,0,1,0-1,0,.13.13,0,1,1-.26,0,.77.77,0,1,1,1.54,0A.13.13,0,0,1,112.08,61.27Z"/><path class="cls-27" d="M86,71.51l5.72,15.21h0A5.07,5.07,0,0,1,90.3,92.5l-.59.5a2,2,0,0,1-2.88-.26l0,0A9.34,9.34,0,0,1,85.08,89L81.15,73.16Z"/><path class="cls-34" d="M99.2,84.7s2.42-1.53,2.42-6.12a17.67,17.67,0,0,1,0,5.42,50,50,0,0,1-2.18,8.94C99.37,90.17,99.27,87.48,99.2,84.7Z"/><path class="cls-34" d="M122.89,86.87a27.17,27.17,0,0,1-1.75-11.22c.7,3.27,1.59,6.73,2.74,10.33q.62,1.94,1.28,3.76Z"/><path class="cls-35" d="M104,92.17l.23,2.45,5,.1-.1-8.49C108.07,88.67,106.33,91.17,104,92.17Z"/><path class="cls-35" d="M113.39,86.61l-.09,8.11,5-.1.4-4.23A14.85,14.85,0,0,1,113.39,86.61Z"/><rect class="cls-36" x="38.69" y="92.96" width="137.73" height="62.56"/><rect class="cls-37" x="38.69" y="97.36" width="137.73" height="22.04"/><rect class="cls-38" x="34.1" y="92.96" width="146.9" height="7.11" rx="2.95" ry="2.95"/><rect class="cls-39" x="133.22" y="60.09" width="45.73" height="26.25" rx="5.34" ry="5.34"/><path class="cls-10" d="M177.51,60.27c-1.78,5.82-10.14,24.49-44.28,24.88a2.09,2.09,0,0,0,1.88,1.19h41.55a2.09,2.09,0,0,0,2.09-2.09V62.18A2.09,2.09,0,0,0,177.51,60.27Z"/><path class="cls-40" d="M155.12,68.7H157a4.64,4.64,0,0,1,4.64,4.64V93a0,0,0,0,1,0,0H150.48a0,0,0,0,1,0,0V73.34A4.64,4.64,0,0,1,155.12,68.7Z"/><g class="cls-16"><path class="cls-9" d="M159.39,68.8h0A4.8,4.8,0,0,1,160.56,72L160.4,83c0,3.38-2.74,7.87-6.12,7.87h-3.8V93h11.21V71.76A3.06,3.06,0,0,0,159.39,68.8Z"/></g><circle class="cls-41" cx="166.47" cy="83.76" r="0.91"/><circle class="cls-41" cx="169.91" cy="83.76" r="0.91"/><circle class="cls-41" cx="173.36" cy="83.76" r="0.91"/><path class="cls-42" d="M150.79,138.78a19.33,19.33,0,0,1,7-17.11,19.35,19.35,0,0,1,3.61,32.25A19.33,19.33,0,0,1,150.79,138.78Z"/><path class="cls-43" d="M161.21,152l-1.38-11.57h0l-4.15-3.32a.11.11,0,0,1,.14-.17l4,3.21-.6-5.08a.11.11,0,0,1,0-.09l-.55-4.59-4.08-3.27a.11.11,0,1,1,.14-.17l3.91,3.13-.65-5.42a.11.11,0,0,1,.22,0l.67,5.64a.11.11,0,0,1,0,.14l.51,4.31,3.59-4.49a.11.11,0,0,1,.17.14l-3.73,4.65,1.32,11.11,3.61-4.51a.11.11,0,1,1,.17.14l-3.74,4.67.66,5.55a.11.11,0,0,1,0,.1l-.06,0A.11.11,0,0,1,161.21,152Z"/><path class="cls-44" d="M163.08,151.21s-2.74-24.88,14.46-35.73C177.54,115.48,179.93,138.64,163.08,151.21Z"/><path class="cls-45" d="M162.53,145.14a9.68,9.68,0,0,1,1.09-7.1,20,20,0,0,1,4.5-5.47c1.64-1.49,3.27-2.67,4.58-3.8a20.66,20.66,0,0,0,1.75-1.63,7.12,7.12,0,0,0,.77-.82,9.15,9.15,0,0,0,.74-.87,27.09,27.09,0,0,0,4.52-8.44,34.28,34.28,0,0,0,1.69-11.12l.9-.44c3.53,2.94,5.35,7.77,5.43,12.55a21.62,21.62,0,0,1-4.68,13.72,15.44,15.44,0,0,1-1.25,1.43,13.84,13.84,0,0,1-1.38,1.32,19.68,19.68,0,0,1-3,2.17,42.85,42.85,0,0,1-5.65,2.75,40.83,40.83,0,0,0-4.83,2.25,12.9,12.9,0,0,0-4.22,3.64Z"/><g class="cls-46"><path class="cls-47" d="M163,145.21a9.42,9.42,0,0,1,.9-2.9,12.58,12.58,0,0,1,1.7-2.54,21.81,21.81,0,0,1,4.66-3.92c1.69-1.13,3.45-2.13,5.1-3.29a19.85,19.85,0,0,0,2.34-1.89c.18-.17.37-.33.55-.51l.51-.55a12.46,12.46,0,0,0,1-1.14l.46-.59a6,6,0,0,0,.44-.61l.82-1.27.71-1.33c.23-.45.41-.92.62-1.37a23.91,23.91,0,0,0,1.55-5.81,21.34,21.34,0,0,0,0-6,20.51,20.51,0,0,0-1.7-5.79,0,0,0,0,1,0,0h0a21,21,0,0,1,2,11.86,23,23,0,0,1-1.53,5.91c-.21.47-.39.94-.62,1.4l-.72,1.35-.82,1.29a6.14,6.14,0,0,1-.45.62l-.47.61a12.14,12.14,0,0,1-1,1.16l-.52.56c-.18.18-.38.34-.57.52a20.23,20.23,0,0,1-2.39,1.91c-1.67,1.16-3.43,2.17-5.14,3.26a21.62,21.62,0,0,0-4.67,3.8,12.41,12.41,0,0,0-1.74,2.45,9.34,9.34,0,0,0-1,2.85l0,0A0,0,0,0,1,163,145.21Z"/></g><path class="cls-48" d="M168,135.06a19.33,19.33,0,0,1,17.8-4.89,19.35,19.35,0,0,1-23.39,22.49A19.33,19.33,0,0,1,168,135.06Z"/><path class="cls-43" d="M164.45,151.55l8.34-8.13a.11.11,0,0,1,0,0l.11-5.32a.11.11,0,1,1,.22,0l-.11,5.13,3.66-3.57a.11.11,0,0,1,.06-.06l3.31-3.22.11-5.23a.11.11,0,1,1,.22,0l-.11,5,3.91-3.81a.11.11,0,1,1,.15.16l-4.07,4a.11.11,0,0,1-.1.1l-3.11,3,5.75.12a.11.11,0,0,1,0,.22l-6-.13-8,7.81,5.77.12a.11.11,0,0,1,0,.22l-6-.13-4,3.9a.11.11,0,0,1-.1,0l-.05,0A.11.11,0,0,1,164.45,151.55Z"/><path class="cls-49" d="M58.14,138.78a19.33,19.33,0,0,0-7-17.11,19.35,19.35,0,0,0-3.61,32.25A19.33,19.33,0,0,0,58.14,138.78Z"/><path class="cls-43" d="M47.72,152l1.38-11.57h0l4.15-3.32a.11.11,0,0,0-.14-.17l-4,3.21.6-5.08a.11.11,0,0,0,0-.09l.55-4.59,4.08-3.27a.11.11,0,1,0-.14-.17l-3.91,3.13.65-5.42a.11.11,0,0,0-.22,0l-.67,5.64a.11.11,0,0,0,0,.14l-.51,4.31L46,130.27a.11.11,0,0,0-.17.14l3.73,4.65L48.2,146.16l-3.61-4.51a.11.11,0,1,0-.17.14l3.74,4.67L47.51,152a.11.11,0,0,0,0,.1l.06,0A.11.11,0,0,0,47.72,152Z"/><path class="cls-50" d="M45.85,151.21s2.74-24.88-14.46-35.73C31.39,115.48,29,138.64,45.85,151.21Z"/><path class="cls-51" d="M45.41,145.28a12.9,12.9,0,0,0-4.22-3.64,40.83,40.83,0,0,0-4.83-2.25,42.85,42.85,0,0,1-5.65-2.75,19.68,19.68,0,0,1-3-2.17,13.84,13.84,0,0,1-1.38-1.32,15.44,15.44,0,0,1-1.25-1.43A21.62,21.62,0,0,1,20.43,118c.08-4.78,1.9-9.61,5.43-12.55l.9.44A34.28,34.28,0,0,0,28.45,117,27.09,27.09,0,0,0,33,125.45a9.15,9.15,0,0,0,.74.87,7.12,7.12,0,0,0,.77.82,20.65,20.65,0,0,0,1.75,1.63c1.31,1.13,2.94,2.31,4.58,3.8a20,20,0,0,1,4.5,5.47,9.68,9.68,0,0,1,1.09,7.1Z"/><g class="cls-46"><path class="cls-52" d="M45.92,145.21a9.42,9.42,0,0,0-.9-2.9,12.58,12.58,0,0,0-1.7-2.54,21.81,21.81,0,0,0-4.66-3.92c-1.69-1.13-3.45-2.13-5.1-3.29a19.85,19.85,0,0,1-2.34-1.89c-.18-.17-.37-.33-.55-.51l-.51-.55a12.46,12.46,0,0,1-1-1.14l-.46-.59a6,6,0,0,1-.44-.61L27.47,126l-.71-1.33c-.23-.45-.41-.92-.62-1.37a23.91,23.91,0,0,1-1.55-5.81,21.34,21.34,0,0,1,0-6,20.5,20.5,0,0,1,1.7-5.79,0,0,0,0,0,0,0h0a21,21,0,0,0-2,11.86,23,23,0,0,0,1.53,5.91c.21.47.39.94.62,1.4l.72,1.35.82,1.29a6.13,6.13,0,0,0,.45.62l.47.61a12.14,12.14,0,0,0,1,1.16l.52.56c.18.18.38.34.57.52a20.23,20.23,0,0,0,2.39,1.91C35,134,36.8,135,38.5,136.11a21.63,21.63,0,0,1,4.67,3.8,12.41,12.41,0,0,1,1.74,2.45,9.34,9.34,0,0,1,1,2.85l0,0A0,0,0,0,0,45.92,145.21Z"/></g><path class="cls-53" d="M41,135.06a19.33,19.33,0,0,0-17.8-4.89,19.35,19.35,0,0,0,23.39,22.49A19.33,19.33,0,0,0,41,135.06Z"/><path class="cls-43" d="M44.48,151.55l-8.34-8.13a.11.11,0,0,0,0,0L36,138.08a.11.11,0,1,0-.22,0l.11,5.13-3.66-3.57a.11.11,0,0,0-.06-.06l-3.31-3.22-.11-5.23a.11.11,0,1,0-.22,0l.11,5-3.91-3.81a.11.11,0,1,0-.15.16l4.07,4a.11.11,0,0,0,.1.1l3.11,3-5.75.12a.11.11,0,0,0,0,.22l6-.13,8,7.81-5.77.12a.11.11,0,0,0,0,.22l6-.13,4,3.9a.11.11,0,0,0,.1,0l.05,0A.11.11,0,0,0,44.48,151.55Z"/><rect class="cls-54" x="97.03" y="119.16" width="26.97" height="24.9"/><circle class="cls-55" cx="110.36" cy="119.52" r="13.52"/><polygon class="cls-4" points="117.37 116.59 112.65 116.59 112.65 111.87 107.55 111.87 107.55 116.59 102.83 116.59 102.83 121.69 107.55 121.69 107.55 126.41 112.65 126.41 112.65 121.69 117.37 121.69 117.37 116.59"/></g></g></g></svg>