
<svg xmlns="http://www.w3.org/2000/svg" xmlns:xlink="http://www.w3.org/1999/xlink" viewBox="0 0 212 232.61"><defs><style>.cls-1{isolation:isolate;}.cls-2{fill:url(#linear-gradient);}.cls-3,.cls-4,.cls-9{mix-blend-mode:color-dodge;}.cls-3{fill:url(#linear-gradient-2);}.cls-4{fill:url(#linear-gradient-3);}.cls-5{mix-blend-mode:overlay;}.cls-6{fill:#3d3d3d;}.cls-7{fill:url(#linear-gradient-4);}.cls-8{fill:url(#linear-gradient-5);}.cls-9{fill:url(#linear-gradient-6);}</style><linearGradient id="linear-gradient" x1="106" y1="226.78" x2="106" y2="5.62" gradientUnits="userSpaceOnUse"><stop offset="0" stop-color="#fff"/><stop offset="0.14" stop-color="#249282"/><stop offset="0.33" stop-color="#00977a"/><stop offset="1" stop-color="#f2f2f2"/></linearGradient><linearGradient id="linear-gradient-2" x1="20.61" y1="93.85" x2="277.79" y2="159.83" gradientUnits="userSpaceOnUse"><stop offset="0"/><stop offset="0.2" stop-color="#060606"/><stop offset="0.47" stop-color="#191919"/><stop offset="0.79" stop-color="#363636"/><stop offset="1" stop-color="#4d4d4d"/></linearGradient><linearGradient id="linear-gradient-3" x1="13.54" y1="116.2" x2="133.02" y2="116.2" gradientUnits="userSpaceOnUse"><stop offset="0"/><stop offset="0.26" stop-color="#060606"/><stop offset="0.62" stop-color="#191919"/><stop offset="1" stop-color="#333"/></linearGradient><linearGradient id="linear-gradient-4" y1="116.3" x2="212" y2="116.3" gradientUnits="userSpaceOnUse"><stop offset="0" stop-color="#fff"/><stop offset="0.24" stop-color="#717171"/><stop offset="0.52" stop-color="#fff"/><stop offset="0.89" stop-color="#494949"/><stop offset="1" stop-color="#ebebeb"/></linearGradient><linearGradient id="linear-gradient-5" x1="2.2" y1="116.26" x2="209.8" y2="116.26" gradientUnits="userSpaceOnUse"><stop offset="0" stop-color="#fff"/><stop offset="0.49" stop-color="#494949"/><stop offset="0.49" stop-color="#ebebeb"/></linearGradient><linearGradient id="linear-gradient-6" x1="50" y1="97.17" x2="162" y2="97.17" xlink:href="#linear-gradient-2"/></defs><title>lawan_2</title><g class="cls-1"><g id="Layer_2" data-name="Layer 2"><g id="Layer_1-2" data-name="Layer 1"><path class="cls-2" d="M106,5.62S122.75,9,159.09,18.37c34.33,8.85,46.37,12.39,46.37,12.39s5.66,34.69-9.91,98.75C183,181.23,141.75,214.46,106,226.78c-35.75-12.32-77-45.55-89.55-97.27C.88,65.44,6.54,30.75,6.54,30.75s12-3.54,46.37-12.39C89.25,9,106,5.62,106,5.62Z"/><path class="cls-3" d="M106,5.62S122.75,9,159.09,18.37c34.33,8.85,46.37,12.39,46.37,12.39s5.66,34.69-9.91,98.75C183,181.23,141.75,214.46,106,226.78c-35.75-12.32-77-45.55-89.55-97.27C.88,65.44,6.54,30.75,6.54,30.75s12-3.54,46.37-12.39C89.25,9,106,5.62,106,5.62Z"/><path class="cls-4" d="M52.91,18.37C18.57,27.21,6.54,30.75,6.54,30.75S.88,65.44,16.45,129.51C29,181.23,70.25,214.46,106,226.78V5.62S89.25,9,52.91,18.37Z"/><g class="cls-5"><path class="cls-6" d="M106,16.89c5.59,1.2,22,4.85,50.34,12.15,19.58,5,31.92,8.37,38.83,10.27.69,12.67.58,42.68-10.33,87.59C173.35,174.17,136,203.49,106,215c-30-11.55-67.35-40.87-78.84-88.14C16.24,82,16.13,52,16.83,39.32c6.91-1.9,19.25-5.23,38.83-10.27,28.32-7.3,44.75-11,50.34-12.15m0-11.27S89.25,9,52.91,18.37C18.57,27.21,6.54,30.75,6.54,30.75S.88,65.44,16.45,129.51C29,181.23,70.25,214.46,106,226.78c35.75-12.32,77-45.55,89.55-97.27,15.57-64.07,9.91-98.75,9.91-98.75s-12-3.54-46.37-12.39C122.75,9,106,5.62,106,5.62Z"/></g><path class="cls-7" d="M106,232.61l-1.8-.62c-34.5-11.89-79.58-45.52-93.11-101.18C-4.56,66.4.86,31.33,1.1,29.87l.56-3.42,3.33-1C5.48,25.32,17.5,21.8,51.53,13,87.61,3.73,104.22.36,104.91.22L106,0l1.09.22c.69.14,17.31,3.51,53.38,12.81,34,8.77,46.05,12.29,46.55,12.44l3.33,1,.56,3.42c.24,1.46,5.66,36.53-10,100.94C187.38,186.47,142.29,220.1,107.8,232ZM11.6,35c-.88,10.08-2.16,42.29,10.2,93.16,12.25,50.38,52.58,81.21,84.19,92.72,31.62-11.51,71.95-42.34,84.19-92.72C202.61,77.13,201.31,45.09,200.41,35c-5.7-1.6-18.84-5.2-42.69-11.34C127.06,15.8,110.26,12.15,106,11.25c-4.26.9-21.06,4.55-51.72,12.45C30.44,29.85,17.31,33.45,11.6,35Z"/><path class="cls-8" d="M106,230.27l-1.08-.37c-34-11.71-78.37-44.82-91.69-99.61C-2.32,66.31,3,31.66,3.27,30.22l.34-2.05,2-.59c.12,0,12.48-3.66,46.48-12.42,36-9.28,53.1-12.75,53.27-12.78l.65-.13.65.13c.17,0,17.25,3.5,53.27,12.78,34,8.76,46.35,12.38,46.48,12.42l2,.59.34,2.05c.24,1.44,5.59,36.09-10,100.07-13.32,54.8-57.72,87.91-91.69,99.61ZM9.55,33.33c-.87,8.28-3,41.44,10.11,95.4,12.55,51.62,54.09,83.06,86.34,94.54,32.25-11.49,73.79-42.92,86.34-94.54,13.15-54.1,11-87.13,10.11-95.39-4.74-1.34-18-5-44.18-11.76C126.35,13.34,109.43,9.72,106,9c-3.42.72-20.35,4.34-52.27,12.57C27.58,28.31,14.3,32,9.55,33.33Z"/><path class="cls-9" d="M162,105.28a4.75,4.75,0,0,1-5,2.64,4.18,4.18,0,0,1-3.73-3.91c0-.69,0-1.37,0-2.22H142.67a36.85,36.85,0,0,1-7.38,18l7.29,7.28a22.45,22.45,0,0,1,3.58-2.08c1.58-.58,3.5.4,4.59,2s1.24,3.45.08,4.68c-3.34,3.55-6.75,7-10.34,10.34-1.62,1.5-4.14.87-5.73-1a4.23,4.23,0,0,1,0-5.75c.43-.49.95-.91,1.39-1.32l-7.57-7.46a36.73,36.73,0,0,1-17.89,7.36V144.4c.72,0,1.4,0,2.09,0a4.18,4.18,0,0,1,3.95,3.45,4.43,4.43,0,0,1-2.56,5.12,3.4,3.4,0,0,1-1.17.18c-4.59,0-9.18,0-13.77,0a4,4,0,0,1-2.1-.7,4.58,4.58,0,0,1-1.42-5.12,4.08,4.08,0,0,1,4-2.92c.58,0,1.16,0,1.82,0V133.83a36.76,36.76,0,0,1-17.91-7.4l-7.24,7.33a22.12,22.12,0,0,1,2.07,3.55c.59,1.59-.38,3.49-2,4.6s-3.46,1.26-4.68.1c-3.57-3.37-7.09-6.81-10.41-10.42-1.45-1.58-.8-4.1,1-5.64a4.23,4.23,0,0,1,5.76,0c.49.43.91.95,1.49,1.56,1.28-1.29,2.49-2.53,3.71-3.75s2.48-2.45,3.78-3.73a37,37,0,0,1-7.53-18.11H59c0,.54,0,1.07,0,1.61a4.18,4.18,0,0,1-4.09,4.46c-2.8.11-4.78-1.44-4.85-4.15q-.18-6.5,0-13c.08-2.71,2.07-4.24,4.88-4.11A4.18,4.18,0,0,1,59,91.15c0,.5,0,1,0,1.58H69.61A36.76,36.76,0,0,1,77,74.84l-7.27-7.28a22.35,22.35,0,0,1-3.63,2.09c-1.59.57-3.51-.42-4.59-2a4.18,4.18,0,0,1-.09-4.71,7.15,7.15,0,0,1,.9-1.09c2.78-2.79,5.57-5.56,8.34-8.36a4.27,4.27,0,0,1,4.53-1.4A4.67,4.67,0,0,1,78.59,56a4,4,0,0,1-1.18,3.48,17.3,17.3,0,0,1-1.31,1.19l7.56,7.52a36.76,36.76,0,0,1,17.92-7.38V50.21H100c-2.66,0-4.43-1.65-4.52-4.14-.1-2.79,1.49-4.75,4.2-4.81q6.45-.16,12.9,0c2.71.07,4.28,2,4.18,4.83a4.18,4.18,0,0,1-4.43,4.12h-1.62V60.77a36.65,36.65,0,0,1,17.8,7.32l7.54-7.53c-.23-.21-.67-.57-1.07-1a4.49,4.49,0,0,1,6.31-6.39c1.4,1.33,2.74,2.72,4.11,4.09,1.52,1.52,3,3,4.56,4.56,2,2.07,2.09,4.62.14,6.56s-4.43,1.86-6.47-.17a10.55,10.55,0,0,1-.82-1l-7.57,7.57a36.77,36.77,0,0,1,7.4,17.94h10.58c0-.56,0-1.13,0-1.7a4.2,4.2,0,0,1,3.21-4.26,4.61,4.61,0,0,1,5.2,2.05c.11.18.24.33.37.5ZM107.82,90.44a9.6,9.6,0,0,0-9.65-9.73,9.68,9.68,0,1,0,9.65,9.73Zm.38,14.78a5.91,5.91,0,1,0,6-5.86A5.83,5.83,0,0,0,108.2,105.22Z"/></g></g></g></svg>