<svg xmlns="http://www.w3.org/2000/svg" viewBox="0 0 346.03 336.78"><defs><style>.cls-1{isolation:isolate;}.cls-2{mix-blend-mode:overlay;}.cls-3{fill:#389096;}.cls-4{fill:#46bdc6;}.cls-5{fill:#a2e2e7;}</style></defs><title>neural</title><g class="cls-1"><g id="Layer_2" data-name="Layer 2"><g id="Layer_1-2" data-name="Layer 1"><g class="cls-2"><circle class="cls-3" cx="184.42" cy="185.38" r="1.31" transform="translate(-76.36 204.62) rotate(-49.37)"/><path class="cls-3" d="M216.64,207.22a3.09,3.09,0,0,0-.17,3.81l-11.9,11.09,0,0a3.09,3.09,0,0,0-4.36.33l-.13.17L188.77,216a5.88,5.88,0,0,0-4.23-8.41L189.25,197a5.89,5.89,0,1,0,.25-10.76l-2.28-15.4a3.94,3.94,0,0,0,1.81-1.09l2.84,2.23a3.1,3.1,0,1,0,.46-.53l-2.86-2.25a4,4,0,0,0-2-5.94l1.51-5.42a3.09,3.09,0,1,0,0-6.18l1.17-13.93a5.88,5.88,0,0,0,5.53-7.5l13.41-2.76a3.1,3.1,0,1,0-.21-.67l-13.43,2.76a5.87,5.87,0,0,0-5.27-3.61l.84-9.92a4,4,0,0,0,.08-7.24l.74-8.77a5.88,5.88,0,0,0,8.65-6.82l13-4.58a3.09,3.09,0,0,0,4.36,1.29l2.92,2.92,0,0a2.1,2.1,0,1,0,.59-.47l-2.91-2.91.21-.22A3.09,3.09,0,1,0,213.25,88l-13,4.58a5.8,5.8,0,0,0-2.83-2.89L202.13,80a4.11,4.11,0,1,0-.65-.27l-4.69,9.73a5.89,5.89,0,0,0-5.73,10.05l.14.11-.76,9a4,4,0,1,0-.12,7.71l-.82,9.71a5.89,5.89,0,0,0,0,11.73l-1.18,14a3.09,3.09,0,0,0,0,6l-1.49,5.33a4,4,0,0,0-4.13,2l-5.24-2.44a1.57,1.57,0,1,0-.35.71l.06-.08,5.25,2.44a4,4,0,0,0,4.13,5.19l2.31,15.6a5.86,5.86,0,0,0-.2,10.1l-4.82,10.82a5.91,5.91,0,0,0-2.2.3L180,202.31a1.94,1.94,0,1,0-.69.12L181,208a5.89,5.89,0,0,0,1.46,11.11l.67,4.23a1.33,1.33,0,1,0,.7,0l-.65-4.12a5.81,5.81,0,0,0,5.28-2.66l11.25,6.6a3.09,3.09,0,0,0,3.56,4.24l3.55,5.58a1.32,1.32,0,1,0,.66-.26l-3.53-5.56a3.09,3.09,0,0,0,1.12-4.55l11.9-11.09,0,0a3.09,3.09,0,1,0-.33-4.36Z"/><path class="cls-3" d="M209.9,171.16a5.91,5.91,0,1,0-5.52,2l-.05,4.77a2,2,0,1,0,.7.07l.05-4.75A5.88,5.88,0,0,0,209.9,171.16Z"/><path class="cls-3" d="M167.18,211.91a3.77,3.77,0,0,0-2.39-6.19l-.42-12.31a3.1,3.1,0,1,0-1.11-.07l.43,12.4a3.76,3.76,0,0,0-1.23.44l-11.64-13.35a7.31,7.31,0,0,0,.79-13l8.31-12,.3.29a4.76,4.76,0,1,0-1.08-1.34l-8.66,12.53a7.32,7.32,0,0,0-9.66,8.74l-16.88,6.88a4.29,4.29,0,0,0-7.15-1.72l-7.42-4.78a2.92,2.92,0,1,0-.81,1L116,194.2a4.3,4.3,0,1,0,8.09,2l17.1-7a7.31,7.31,0,0,0,8.45,4l11.9,13.65-.13.14a3.76,3.76,0,0,0,1.2,5.83l-4.27,7.38a1.94,1.94,0,0,0-2.16,2.87l-3.54,3.66a3.42,3.42,0,0,0-5.19,3.08l-5.08,1a1.31,1.31,0,1,0-.12.87l5.34-1a3.4,3.4,0,0,0,1.69,2.07L146,242.47a4.29,4.29,0,0,0-3.4,1.5l0,0-4.44-3a1.31,1.31,0,1,0-.35.63l4.38,2.92a4.3,4.3,0,0,0,.05,4.43l-3.75,3.06,0,0a5.13,5.13,0,0,0-6-.51l-4.18-3.66a1.3,1.3,0,1,0-.45.56l4,3.53a5.08,5.08,0,0,0-1.9,3.84l-12.72-1.39a4.75,4.75,0,0,0-6-4l-3.48-12.8a2.58,2.58,0,1,0-.7.15l3.51,12.9a4.74,4.74,0,0,0-2.59,5.88l-7.4,5.69a2.34,2.34,0,0,0-4,2.28l-4.82,3.71a3.53,3.53,0,0,0-3.65-1.91l-3.11-7.87a5.45,5.45,0,1,0-4.75-.53l-3.14,2.78a1.3,1.3,0,1,0,.46.55l3.35-3a5.38,5.38,0,0,0,3.39.36l3.1,7.85A3.53,3.53,0,0,0,85.21,269l-4.78-1.28a2.35,2.35,0,1,0-.08.72l4.77,1.28a3.54,3.54,0,0,0,.65,2.1L78,276a4.78,4.78,0,1,0-7.5,5.89l-6,6.52a4.77,4.77,0,0,0-8,1.1l-6.89-4.18A3.53,3.53,0,0,0,46,280.25l1.62-10a2.78,2.78,0,1,0-.73,0l-1.64,10.17a3.52,3.52,0,0,0-2.35,3.63l-5.24,1.34a1.32,1.32,0,1,0,.18.69l5.2-1.33a3.53,3.53,0,0,0,4.6,2.31l1.18,7a1.29,1.29,0,0,0-.49.35,1.32,1.32,0,1,0,1.2-.43l-1.22-7.27a3.53,3.53,0,0,0,.79-.68l.08-.11,7,4.27a4.78,4.78,0,0,0,9.06,3l3.63.35a1.32,1.32,0,1,0,0-.72l-3.42-.33a4.8,4.8,0,0,0-.6-3.53L71,282.4a4.78,4.78,0,0,0,7.34-5.76l7.93-4.25.1.09a3.54,3.54,0,0,0,5.73-3.57L97,265.13a2.34,2.34,0,0,0,4-2.28l7.32-5.64a4.76,4.76,0,0,0,9-2L130,256.55a5.08,5.08,0,0,0,2.51,3.84l-5.24,12.17a4.4,4.4,0,0,0-6.72,5.66l-9.14,5.41-.06-.06a3.09,3.09,0,0,0-5.09,2.06l-5.54,1.71a3.6,3.6,0,0,0-5.27-.3l-3.12-2.73a1.3,1.3,0,1,0-.44.56l3.1,2.71a3.62,3.62,0,0,0,.44,4.67l-7.33,11.66a6,6,0,0,0-5.7.08l-4.1-5.24a1.31,1.31,0,1,0-.59.41l4.08,5.21a6,6,0,0,0-2.3,6.27l-9.8-.95a4.76,4.76,0,0,0-3.56-3.91l1.11-2.94a1.29,1.29,0,1,0-.71-.16l-1.12,3a4.78,4.78,0,0,0-3.07,8.76l-2.62,3.15a1.31,1.31,0,1,0,.61.39L63,314.79a4.76,4.76,0,0,0,1.48.41l2.09,13.19a3.61,3.61,0,0,0-2.77,2.11l-4-1.36a1.35,1.35,0,1,0-.09.73l3.88,1.31a3.62,3.62,0,0,0,7,1.68l12.93,1.6a2.14,2.14,0,1,0,.19-.7l-13-1.61a3.61,3.61,0,0,0-3.43-3.8l-2.08-13.14a4.77,4.77,0,0,0,4.56-4.78l10,1a6,6,0,1,0,9.5-6.72,6.07,6.07,0,0,0-.51-.39L96,292.71a3.61,3.61,0,0,0,2.32.56l0,4a2.72,2.72,0,1,0,.72,0l0-4.1a3.61,3.61,0,0,0,.55-.22l11.08,9.54a5,5,0,0,0-.62,7.1l-1.83,3.64a1.31,1.31,0,1,0,.62.36l1.74-3.46,0,0a5,5,0,1,0,.67-8.09l-11-9.51a3.61,3.61,0,0,0,.94-4.54l5.14-1.58a3.09,3.09,0,0,0,2.1,2.49l0,4.17a1.29,1.29,0,0,0-.49.35,1.31,1.31,0,1,0,1.84-.14,1.29,1.29,0,0,0-.63-.29l0-3.95a3.09,3.09,0,0,0,2.8-4.82l9.15-5.42.13.13a4.4,4.4,0,0,0,6-.22l8.55,7.36a3.11,3.11,0,1,0,.72-.32l-8.8-7.58a4.4,4.4,0,0,0,.17-4.91l5.38-12.5a5.14,5.14,0,0,0,3.76,0l3.66,6.14A3.09,3.09,0,0,0,144,272l3,3.48a1.31,1.31,0,1,0,.41-.42l-2.89-3.36a3.06,3.06,0,0,0,1.29-2.25l9.29-1.69a3.1,3.1,0,1,0-.11-.57l-9.18,1.67a3.09,3.09,0,0,0-4.67-2.33l-3.59-6a5,5,0,0,0,2-1.84l2.28,1.56a1.31,1.31,0,1,0,.41-.43l-2.4-1.65a5.13,5.13,0,0,0-.76-5.57l3.68-3a4.3,4.3,0,1,0,4.09-7L150,233a3.44,3.44,0,0,0,2.58-.29l2.26,3-.06.06a1.31,1.31,0,1,0,.69-.42l-2.3-3.07a3.33,3.33,0,0,0,1-1.5l9.15,4.72a3.43,3.43,0,0,0,5.85,3.34l.14-.18,2.93,3a1.29,1.29,0,1,0,.51-.47l-3.07-3.2a3.43,3.43,0,0,0-6.07-3.18l-9.28-4.79a3.43,3.43,0,0,0-1-2.83l3.44-3.57a1.94,1.94,0,0,0,2.37-3.07l0,0,4.33-7.47A3.77,3.77,0,0,0,167.18,211.91Z"/><path class="cls-3" d="M272.71,46.66a1.3,1.3,0,0,0,.89,2.15l1.73,7.14a5,5,0,0,0-5,2.35l-11.78-3a2.53,2.53,0,1,0-.23.7L270,59a5,5,0,0,0,6.54,6.58l3.79,9.7a5,5,0,0,0-2.12,2.57L274,75.88a1.3,1.3,0,1,0-.3.67l4.27,2a5,5,0,0,0,.3,3L268.34,87a3.91,3.91,0,1,0-5.07,5.38l-4.21,11.95a3.9,3.9,0,0,0-2.16-.46l-.8-5.12a2.1,2.1,0,1,0-2.68-1.36l-12,2.16a4.58,4.58,0,0,0-3.23-2.42l-.74-4.75a2.1,2.1,0,1,0-.74.06l.72,4.61a4.6,4.6,0,1,0,4.27,3.2l12.07-2.17a2.08,2.08,0,0,0,1.59.79l.8,5.13a3.91,3.91,0,0,0-2.62,5.16l-3.66,3.27-.06-.06a2.09,2.09,0,0,0-3.2,2.6l-8.39,8.46a4.6,4.6,0,0,0-4.86.23l-6.13-7a2.1,2.1,0,1,0-.57.47l6.12,7c-.1.1-.21.21-.3.32a4.59,4.59,0,0,0,4.45,7.48l-2.76,11a4.59,4.59,0,1,0,1.95,8.64l9.36,8.81a3.1,3.1,0,0,0,0,2.72L228,174.37a5.89,5.89,0,1,0-6.65,8.27l-1.54,6.43a4.37,4.37,0,1,0,.68.17l1.55-6.48A5.89,5.89,0,0,0,228.3,175l17.54-11.39a3.08,3.08,0,0,0,5-.3l3.78,2.4a1.3,1.3,0,1,0,.44-.55l-3.91-2.48a3.09,3.09,0,0,0-.91-3.34l-.17-.13,7.56-11.34a5,5,0,0,0,4.2.07l.09,5.21a1.3,1.3,0,1,0,.69-.26l-.09-5.31a5,5,0,0,0,2.05-5.85L275,140.6a5,5,0,0,0,7.11,2.31l3.74,5.72-.1.1a3.09,3.09,0,0,0-.14,3.85L280.21,157a2.59,2.59,0,1,0,.55.5l5.39-4.37a3.09,3.09,0,0,0,5.06-2.62l7.66-1.56a2.35,2.35,0,0,0,2.76,2l1.15,3.29a1.31,1.31,0,1,0,.72-.17l-1.18-3.37a2.34,2.34,0,0,0,1.22-1.87l3.15.23a2.35,2.35,0,1,0,4.68-.48l8.66-5a3,3,0,0,0,.87.73l-1.28,4.28a1.3,1.3,0,1,0,.66.34l1.3-4.35a3.08,3.08,0,0,0,3.73-1.95l9.66,2.17a3.09,3.09,0,1,0,6.12.07l2.72-1.7,0,0a1.31,1.31,0,1,0-.41-.67l-2.53,1.58a3.07,3.07,0,0,0-1.58-1.68l1.56-7.64a3.09,3.09,0,0,0,1.15-5.9l1.44-2.4a1.3,1.3,0,1,0-.6-.43l-1.56,2.61a3.11,3.11,0,0,0-1.27,0l-3.5-6.76a2.16,2.16,0,1,0-.67.3l3.48,6.72a3.09,3.09,0,0,0,.8,5.79l-1.52,7.47a3.11,3.11,0,0,0-1.36,0L333,134l.06-.06a1.32,1.32,0,1,0-.7.42l4.23,8.17a3.06,3.06,0,0,0-1.41,1.56l-9.69-2.17a3.09,3.09,0,1,0-5.85,1l-8.45,4.85a2.33,2.33,0,0,0-1-1.08l.31-3.6a1.32,1.32,0,1,0-.74,0l-.29,3.36a2.36,2.36,0,0,0-.72,0l-3.11-5.6a3.91,3.91,0,1,0-.65.34l3,5.48a2.36,2.36,0,0,0-1.25,1.6l-3.25-.24a2.35,2.35,0,0,0-4.6.13l-7.82,1.59a3.09,3.09,0,0,0-4.62-1.63l-3.69-5.66a5,5,0,0,0,.91-7l6-2.53a2.18,2.18,0,1,0-.14-.74l-6.4,2.69-.23-.22a5,5,0,0,0-3-1.2l-2.8-11.39a3.09,3.09,0,0,0-1.16-5.36l.93-6.16a2.16,2.16,0,1,0-2.56-1.8l-7.29.63a1.29,1.29,0,0,0-.24-.28,1.31,1.31,0,0,0-1.84.14,1.29,1.29,0,0,0-.11.16l-4-.51a3.91,3.91,0,0,0-1.18-4.16l-.06,0L264,92.62a3.92,3.92,0,0,0,2.25-.12l2.3,4a1.31,1.31,0,1,0,.77-.14l-2.4-4.13a3.89,3.89,0,0,0,1.74-4.49l10-5.53a5,5,0,1,0,5.44-7.5l3.12-5.2a1.3,1.3,0,1,0-.58-.47l-3.33,5.54a5,5,0,0,0-2.3.37l-3.79-9.69a5,5,0,0,0-1-9.08l-1.81-7.47a1.3,1.3,0,1,0-1.61-2Zm-8,63.53a1.3,1.3,0,0,0,2.6,0l7.31-.63a2.14,2.14,0,0,0,1.57,1.1l-.91,6a3.09,3.09,0,1,0,1.24,5.89l2.7,11a5,5,0,0,0-4.42,6.35L264.32,141a5,5,0,0,0-3.08-2.52l2.14-5.88a1.3,1.3,0,1,0-.71-.31l.06,0-2.18,6a5,5,0,0,0-4.52,1.7l-.16.2-2.52-1.56a2.16,2.16,0,1,0-.44.55l2.57,1.59a5,5,0,0,0,1.59,6.7l-7.55,11.33a3.07,3.07,0,0,0-.55-.18l-.09-5.23a1.93,1.93,0,1,0-.7-.08l.09,5.23a3.08,3.08,0,0,0-2.35,1.08h0l-9.13-8.6a4.6,4.6,0,0,0-1.85-8.13l2.85-11.31a4.59,4.59,0,0,0,1.2-7.72l-.12-.1,8.24-8.31h0a2.1,2.1,0,0,0,3.24-2.53l3.56-3.18a3.91,3.91,0,0,0,6.72-.18Z"/><circle class="cls-3" cx="150.84" cy="139.17" r="1.31" transform="translate(-53.01 163.01) rotate(-49.37)"/><path class="cls-3" d="M183,161a3.09,3.09,0,0,0-.17,3.81L171,175.91l0,0a3.09,3.09,0,0,0-4.36.33l-.13.17-11.26-6.61a5.88,5.88,0,0,0-4.23-8.41l4.71-10.57a5.89,5.89,0,1,0,.25-10.76l-2.28-15.4a3.94,3.94,0,0,0,1.81-1.09l2.84,2.23a3.1,3.1,0,1,0,.46-.53L155.87,123a4,4,0,0,0-2-5.94l1.51-5.42a3.09,3.09,0,1,0,0-6.18l1.17-13.93a5.88,5.88,0,0,0,5.53-7.5l13.41-2.76a3.1,3.1,0,1,0-.21-.67L161.9,83.38a5.87,5.87,0,0,0-5.27-3.61l.84-9.92a4,4,0,0,0,.08-7.24l.74-8.77A5.88,5.88,0,0,0,166.93,47l13-4.58a3.09,3.09,0,0,0,4.36,1.29l2.92,2.92,0,0a2.1,2.1,0,1,0,.59-.47l-2.91-2.91.21-.22a3.09,3.09,0,1,0-5.36-1.31l-13,4.58a5.8,5.8,0,0,0-2.83-2.89l4.69-9.73a4.11,4.11,0,1,0-.65-.27l-4.69,9.73a5.89,5.89,0,0,0-5.73,10.05l.14.11-.76,9a4,4,0,1,0-.12,7.71l-.82,9.71a5.89,5.89,0,0,0,0,11.73l-1.18,14a3.09,3.09,0,0,0,0,6l-1.49,5.33a4,4,0,0,0-4.13,2l-5.24-2.44a1.57,1.57,0,1,0-.35.71l.06-.08,5.25,2.44a4,4,0,0,0,4.13,5.19l2.31,15.6a5.86,5.86,0,0,0-.2,10.1l-4.82,10.82a5.91,5.91,0,0,0-2.2.3l-1.58-5.47a1.94,1.94,0,1,0-.69.12l1.62,5.61a5.89,5.89,0,0,0,1.46,11.11l.67,4.23a1.33,1.33,0,1,0,.7,0l-.65-4.12a5.81,5.81,0,0,0,5.28-2.66l11.25,6.6a3.09,3.09,0,0,0,3.56,4.24l3.55,5.58a1.31,1.31,0,1,0,1.65,0,1.3,1.3,0,0,0-1-.3L170.32,181a3.09,3.09,0,0,0,1.12-4.55l11.9-11.09,0,0A3.09,3.09,0,1,0,183,161Z"/><path class="cls-3" d="M176.32,125a5.91,5.91,0,1,0-5.52,2l-.05,4.77a2,2,0,1,0,.7.07l.05-4.75A5.88,5.88,0,0,0,176.32,125Z"/><path class="cls-3" d="M133.59,165.71a3.77,3.77,0,0,0-2.39-6.19l-.42-12.31a3.1,3.1,0,1,0-1.11-.07l.43,12.4a3.76,3.76,0,0,0-1.23.44l-11.64-13.35a7.31,7.31,0,0,0,.79-13l8.31-12,.3.29a4.76,4.76,0,1,0-1.08-1.34l-8.66,12.53a7.32,7.32,0,0,0-9.66,8.74l-16.88,6.88A4.29,4.29,0,0,0,83.19,147l-7.42-4.78a2.92,2.92,0,1,0-.81,1L82.45,148a4.3,4.3,0,1,0,8.09,2l17.1-7a7.31,7.31,0,0,0,8.45,4L128,160.67l-.13.14a3.76,3.76,0,0,0,1.2,5.83L124.79,174a1.94,1.94,0,0,0-2.16,2.87l-3.54,3.66a3.42,3.42,0,0,0-5.19,3.08l-5.08,1a1.31,1.31,0,1,0-.12.87l5.34-1a3.4,3.4,0,0,0,1.69,2.07l-3.28,9.75a4.29,4.29,0,0,0-3.4,1.5l0,0-4.44-3a1.31,1.31,0,1,0-.35.63l4.38,2.92a4.3,4.3,0,0,0,.05,4.43l-3.75,3.06,0,0a5.13,5.13,0,0,0-6-.51l-4.18-3.66a1.3,1.3,0,1,0-.45.56l4,3.53a5.08,5.08,0,0,0-1.9,3.84L83.7,208.24a4.75,4.75,0,0,0-6-4l-3.48-12.8a2.58,2.58,0,1,0-.7.15l3.51,12.9a4.74,4.74,0,0,0-2.59,5.88L67.08,216a2.34,2.34,0,0,0-4,2.28L58.24,222a3.53,3.53,0,0,0-3.65-1.91l-3.11-7.87a5.45,5.45,0,1,0-4.75-.53l-3.14,2.78A1.3,1.3,0,1,0,44,215l3.35-3a5.38,5.38,0,0,0,3.39.36l3.1,7.85a3.53,3.53,0,0,0-2.26,2.55l-4.78-1.28a2.35,2.35,0,1,0-.08.72l4.77,1.28a3.54,3.54,0,0,0,.65,2.1l-7.8,4.18a4.78,4.78,0,1,0-7.5,5.89l-6,6.52a4.77,4.77,0,0,0-8,1.1L16,239.14a3.53,3.53,0,0,0-3.57-5.09l1.62-10a2.78,2.78,0,1,0-.73,0L11.7,234.23a3.52,3.52,0,0,0-2.35,3.63L4.1,239.19a1.32,1.32,0,1,0,.18.69l5.2-1.33a3.53,3.53,0,0,0,4.6,2.31l1.18,7a1.29,1.29,0,0,0-.49.35,1.32,1.32,0,1,0,1.2-.43l-1.22-7.27a3.53,3.53,0,0,0,.79-.68l.08-.11,7,4.27a4.78,4.78,0,0,0,9.06,3l3.63.35a1.32,1.32,0,1,0,0-.72l-3.42-.33a4.8,4.8,0,0,0-.6-3.53l6.07-6.62a4.78,4.78,0,0,0,7.34-5.76l7.93-4.25.1.09a3.54,3.54,0,0,0,5.73-3.57l4.91-3.78a2.34,2.34,0,0,0,4-2.28L74.76,211a4.76,4.76,0,0,0,9-2l12.72,1.39A5.08,5.08,0,0,0,99,214.19l-5.24,12.17A4.4,4.4,0,0,0,87,232l-9.14,5.41-.06-.06a3.09,3.09,0,0,0-5.09,2.06l-5.54,1.71a3.6,3.6,0,0,0-5.27-.3l-3.12-2.73a1.3,1.3,0,1,0-.44.56l3.1,2.71a3.62,3.62,0,0,0,.44,4.67l-7.33,11.66a6,6,0,0,0-5.7.08l-4.1-5.24a1.31,1.31,0,1,0-.59.41l4.08,5.21a6,6,0,0,0-2.3,6.27l-9.8-.95a4.76,4.76,0,0,0-3.56-3.91l1.11-2.94a1.29,1.29,0,1,0-.71-.16l-1.12,3a4.78,4.78,0,0,0-3.07,8.76l-2.62,3.15a1.31,1.31,0,1,0,.61.39l2.65-3.19a4.76,4.76,0,0,0,1.48.41L33,282.19a3.61,3.61,0,0,0-2.77,2.11l-4-1.36a1.35,1.35,0,1,0-.09.73L30,285a3.62,3.62,0,0,0,7,1.68L50,288.27a2.14,2.14,0,1,0,.19-.7l-13-1.61a3.61,3.61,0,0,0-3.43-3.8L31.64,269a4.77,4.77,0,0,0,4.56-4.78l10,1a6,6,0,1,0,9.5-6.72,6.07,6.07,0,0,0-.51-.39l7.28-11.58a3.61,3.61,0,0,0,2.32.56l0,4a2.72,2.72,0,1,0,.72,0l0-4.1a3.61,3.61,0,0,0,.55-.22l11.08,9.54a5,5,0,0,0-.62,7.1L74.65,267a1.31,1.31,0,1,0,.62.36L77,263.88l0,0a5,5,0,1,0,.67-8.09l-11-9.51a3.61,3.61,0,0,0,.94-4.54l5.14-1.58a3.09,3.09,0,0,0,2.1,2.49l0,4.17a1.29,1.29,0,0,0-.49.35,1.31,1.31,0,1,0,1.84-.14,1.29,1.29,0,0,0-.63-.29l0-3.95a3.09,3.09,0,0,0,2.8-4.82l9.15-5.42.13.12a4.4,4.4,0,0,0,6-.22l8.55,7.36a3.11,3.11,0,1,0,.72-.32l-8.8-7.58a4.4,4.4,0,0,0,.17-4.91l5.38-12.5a5.14,5.14,0,0,0,3.76,0L107,220.7a3.09,3.09,0,0,0,3.34,5.12l3,3.48a1.31,1.31,0,1,0,.41-.42l-2.89-3.36a3.06,3.06,0,0,0,1.29-2.25l9.29-1.69a3.1,3.1,0,1,0-.11-.57l-9.18,1.67a3.09,3.09,0,0,0-4.67-2.33l-3.59-6a5,5,0,0,0,2-1.84l2.28,1.56a1.31,1.31,0,1,0,.41-.43l-2.4-1.65a5.13,5.13,0,0,0-.76-5.57l3.68-3a4.3,4.3,0,1,0,4.09-7l3.22-9.57a3.44,3.44,0,0,0,2.58-.29l2.26,3-.06.06a1.31,1.31,0,1,0,.69-.42l-2.3-3.07a3.33,3.33,0,0,0,1-1.5l9.15,4.72a3.43,3.43,0,0,0,5.85,3.34l.14-.18,2.93,3a1.29,1.29,0,1,0,.51-.47l-3.07-3.2a3.43,3.43,0,0,0-6.07-3.18l-9.28-4.79a3.43,3.43,0,0,0-1-2.83l3.44-3.57a1.94,1.94,0,0,0,2.37-3.07l0,0,4.33-7.47A3.77,3.77,0,0,0,133.59,165.71Z"/><path class="cls-3" d="M239.12.46A1.3,1.3,0,0,0,240,2.6l1.73,7.14a5,5,0,0,0-5,2.35L225,9.13a2.53,2.53,0,1,0-.23.7l11.66,2.93a5,5,0,0,0,6.54,6.58l3.79,9.7a5,5,0,0,0-2.12,2.57l-4.17-1.93a1.3,1.3,0,1,0-.3.67l4.27,2a5,5,0,0,0,.3,3l-9.95,5.5a3.91,3.91,0,1,0-5.07,5.38l-4.21,11.95a3.9,3.9,0,0,0-2.16-.46l-.8-5.12a2.1,2.1,0,1,0-2.68-1.36l-12,2.16a4.58,4.58,0,0,0-3.23-2.42l-.74-4.75a2.1,2.1,0,1,0-.74.06l.72,4.61a4.6,4.6,0,1,0,4.27,3.2l12.07-2.17a2.08,2.08,0,0,0,1.59.79l.8,5.13A3.91,3.91,0,0,0,220,63l-3.66,3.27-.06-.06a2.09,2.09,0,0,0-3.2,2.6l-8.39,8.46a4.6,4.6,0,0,0-4.86.23l-6.13-7a2.1,2.1,0,1,0-.57.47l6.12,7c-.1.1-.21.21-.3.32a4.59,4.59,0,0,0,4.45,7.48l-2.76,11a4.59,4.59,0,1,0,1.95,8.64l9.36,8.81a3.1,3.1,0,0,0,0,2.72l-17.43,11.32a5.89,5.89,0,1,0-6.65,8.27l-1.54,6.43a4.37,4.37,0,1,0,.68.17l1.55-6.48a5.89,5.89,0,0,0,6.22-7.73l17.54-11.39a3.08,3.08,0,0,0,5-.3l3.78,2.4a1.3,1.3,0,1,0,.44-.55l-3.91-2.48a3.09,3.09,0,0,0-.91-3.34l-.17-.13,7.56-11.34a5,5,0,0,0,4.2.07l.09,5.21a1.3,1.3,0,1,0,.69-.26L229,101.4A5,5,0,0,0,231,95.56l10.42-1.16a5,5,0,0,0,7.11,2.31l3.74,5.72-.1.1a3.09,3.09,0,0,0-.14,3.85l-5.44,4.41a2.59,2.59,0,1,0,.55.5l5.39-4.37a3.09,3.09,0,0,0,5.06-2.62l7.66-1.56a2.35,2.35,0,0,0,2.76,2l1.15,3.29a1.31,1.31,0,1,0,.72-.17l-1.18-3.37a2.34,2.34,0,0,0,1.22-1.87l3.15.23a2.35,2.35,0,1,0,4.68-.48l8.66-5a3,3,0,0,0,.87.73L286,102.39a1.3,1.3,0,1,0,.66.34l1.3-4.35a3.08,3.08,0,0,0,3.73-1.95l9.66,2.17a3.09,3.09,0,1,0,6.12.07l2.72-1.7,0,0a1.31,1.31,0,1,0-.41-.67l-2.53,1.58a3.07,3.07,0,0,0-1.58-1.68l1.56-7.64a3.09,3.09,0,0,0,1.15-5.9l1.44-2.4a1.3,1.3,0,1,0-.6-.43l-1.56,2.61a3.1,3.1,0,0,0-1.27,0L303,75.75a2.16,2.16,0,1,0-.67.3l3.48,6.72a3.09,3.09,0,0,0,.8,5.79L305,96a3.11,3.11,0,0,0-1.36,0l-4.28-8.26.06-.06a1.32,1.32,0,1,0-.7.42L303,96.33a3.06,3.06,0,0,0-1.41,1.56l-9.69-2.17a3.09,3.09,0,1,0-5.85,1l-8.45,4.85a2.33,2.33,0,0,0-1-1.08l.31-3.6a1.32,1.32,0,1,0-.74,0l-.29,3.36a2.36,2.36,0,0,0-.72,0L272,94.68a3.91,3.91,0,1,0-.65.34l3,5.48a2.36,2.36,0,0,0-1.25,1.6l-3.25-.24a2.35,2.35,0,0,0-4.6.13l-7.82,1.59a3.09,3.09,0,0,0-4.62-1.63l-3.69-5.66a5,5,0,0,0,.91-7l6-2.53a2.18,2.18,0,1,0-.14-.74l-6.4,2.69-.23-.22a5,5,0,0,0-3-1.2l-2.8-11.39a3.09,3.09,0,0,0-1.16-5.36l.93-6.16a2.16,2.16,0,1,0-2.56-1.8l-7.29.63a1.29,1.29,0,0,0-.24-.28,1.28,1.28,0,0,0-2,.3l-4-.51a3.91,3.91,0,0,0-1.18-4.16l-.06,0,4.28-12.13a3.92,3.92,0,0,0,2.25-.12l2.3,3.95a1.31,1.31,0,1,0,.77-.14L233.3,46A3.89,3.89,0,0,0,235,41.49L245,36a5,5,0,1,0,5.44-7.5l3.12-5.2a1.3,1.3,0,1,0-.58-.47l-3.33,5.54a5,5,0,0,0-2.3.37L243.59,19a5,5,0,0,0-1-9.08l-1.81-7.47a1.3,1.3,0,1,0-1.61-2Zm-8,63.53a1.3,1.3,0,0,0,2.6,0l7.31-.63a2.14,2.14,0,0,0,1.57,1.1l-.91,6a3.09,3.09,0,1,0,1.24,5.89l2.7,11a5,5,0,0,0-4.42,6.35l-10.46,1.17a5,5,0,0,0-3.08-2.52l2.14-5.88a1.3,1.3,0,1,0-.71-.31l.06,0-2.18,6a5,5,0,0,0-4.52,1.7l-.16.2-2.52-1.56a2.16,2.16,0,1,0-.44.55l2.57,1.59a5,5,0,0,0,1.59,6.7l-7.55,11.33a3.07,3.07,0,0,0-.55-.18l-.09-5.23a1.93,1.93,0,1,0-.7-.08l.09,5.23a3.08,3.08,0,0,0-2.35,1.08h0l-9.13-8.6a4.6,4.6,0,0,0-1.85-8.13l2.85-11.31a4.59,4.59,0,0,0,1.2-7.72l-.12-.1,8.24-8.31h0a2.1,2.1,0,0,0,3.24-2.53l3.56-3.18a3.91,3.91,0,0,0,6.72-.18Z"/><circle class="cls-4" cx="166.82" cy="182.12" r="1.31" transform="translate(-76.32 138.77) rotate(-37.4)"/><path class="cls-4" d="M193.8,210.16a3.09,3.09,0,0,0-1,3.69l-13.94,8.38,0,0a3.09,3.09,0,0,0-4.34-.58l-.17.14-9.65-8.8a5.88,5.88,0,0,0-2.39-9.1l6.8-9.36A5.89,5.89,0,1,0,171.6,184l1-15.54a3.94,3.94,0,0,0,2-.69l2.31,2.77a3.1,3.1,0,1,0,.56-.42l-2.33-2.79a4,4,0,0,0-.71-6.22l2.6-5a3.09,3.09,0,1,0,1.32-6l4-13.38a5.88,5.88,0,0,0,7-6.19l13.69.08a3.09,3.09,0,1,0-.07-.7l-13.71-.08a5.87,5.87,0,0,0-4.41-4.63l2.87-9.53a4,4,0,0,0,1.58-7.06l2.54-8.42a5.88,5.88,0,0,0,9.87-4.88l13.63-1.79a3.09,3.09,0,0,0,4,2.17l2.25,3.46,0,0a2.1,2.1,0,1,0,.67-.34l-2.24-3.45.25-.17a3.09,3.09,0,1,0-5-2.39l-13.65,1.79a5.8,5.8,0,0,0-2.17-3.41l6.6-8.55a4.11,4.11,0,1,0-.58-.4l-6.61,8.55a5.89,5.89,0,0,0-7.69,8.64l.11.14-2.61,8.64a4,4,0,1,0-1.71,7.52l-2.81,9.33a5.89,5.89,0,0,0-2.44,11.47L177.6,150a3.09,3.09,0,0,0-1.28,5.88l-2.56,4.91A4,4,0,0,0,169.3,162l-4.62-3.47a1.57,1.57,0,1,0-.49.63l.08-.06,4.63,3.48a4,4,0,0,0,3,5.93l-1,15.74A5.86,5.86,0,0,0,168.6,194l-7,9.59a5.91,5.91,0,0,0-2.21-.16l-.41-5.68a1.94,1.94,0,1,0-.7,0l.42,5.83a5.89,5.89,0,0,0-.88,11.17l-.22,4.28a1.33,1.33,0,1,0,.69.12l.22-4.16a5.81,5.81,0,0,0,5.72-1.5l9.64,8.79a3.09,3.09,0,0,0,2.6,4.89l2.31,6.19a1.32,1.32,0,1,0,.7-.12l-2.3-6.17a3.09,3.09,0,0,0,2-4.22l13.94-8.38,0,0a3.09,3.09,0,1,0,.58-4.34Z"/><path class="cls-4" d="M194.69,173.5a5.91,5.91,0,1,0-5.81.77l-1,4.65a2,2,0,1,0,.67.21l1-4.64A5.88,5.88,0,0,0,194.69,173.5Z"/><path class="cls-5" d="M144.44,204.5a3.77,3.77,0,0,0-1.05-6.55l2.14-12.13a3.1,3.1,0,1,0-1.07-.3l-2.15,12.22a3.76,3.76,0,0,0-1.29.18l-8.62-15.47a7.31,7.31,0,0,0,3.46-12.55l10.62-10c.07.12.15.23.24.34a4.76,4.76,0,1,0-.78-1.54l-11.07,10.46a7.32,7.32,0,0,0-11.27,6.54l-17.94,3.23A4.29,4.29,0,0,0,99,175.74l-6.27-6.21a2.92,2.92,0,1,0-1,.76l6.33,6.27a4.3,4.3,0,1,0,7.51,3.61l18.17-3.28a7.31,7.31,0,0,0,7.44,5.69L140,198.4l-.15.11a3.76,3.76,0,0,0,0,6l-5.71,6.34a1.94,1.94,0,0,0-2.71,2.36L127.19,216a3.42,3.42,0,0,0-5.71,1.94l-5.18-.1a1.31,1.31,0,1,0-.3.82l5.43.1a3.4,3.4,0,0,0,1.22,2.38L117.43,230a4.29,4.29,0,0,0-3.63.76l0,0L110,227a1.31,1.31,0,1,0-.47.54l3.68,3.76a4.3,4.3,0,0,0-.87,4.35l-4.31,2.21v0a5.13,5.13,0,0,0-5.73-1.74L99,231.65a1.3,1.3,0,1,0-.56.45l3.21,4.29A5.08,5.08,0,0,0,99,239.75l-12.16-4a4.75,4.75,0,0,0-5-5.18l-.75-13.25a2.58,2.58,0,1,0-.72,0l.76,13.35a4.74,4.74,0,0,0-3.76,5.22l-8.42,4a2.34,2.34,0,0,0-4.41,1.39l-5.48,2.63a3.53,3.53,0,0,0-3.18-2.63L54.47,233a5.45,5.45,0,1,0-4.54-1.5l-3.65,2.06a1.3,1.3,0,1,0,.33.64l3.89-2.2A5.38,5.38,0,0,0,53.75,233l1.4,8.32a3.53,3.53,0,0,0-2.74,2L48,241.12a2.35,2.35,0,1,0-.23.69l4.4,2.25a3.54,3.54,0,0,0,.2,2.19l-8.5,2.47a4.78,4.78,0,1,0-8.56,4.21l-7.2,5.14a4.77,4.77,0,0,0-8-.58L14.2,252a3.53,3.53,0,0,0-2.43-5.72l3.66-9.49a2.78,2.78,0,1,0-.73-.11L11,246.25a3.52,3.52,0,0,0-3.05,3.06l-5.41.22a1.29,1.29,0,0,0-.2-.38,1.32,1.32,0,1,0,.23,1.1L7.93,250a3.53,3.53,0,0,0,4,3.22l-.3,7.12a1.29,1.29,0,0,0-.55.24,1.32,1.32,0,1,0,1.27-.17l.31-7.36a3.53,3.53,0,0,0,.92-.51l.1-.09,6,5.63a4.78,4.78,0,0,0,8.24,4.84L31.4,264a1.32,1.32,0,1,0,.15-.7l-3.27-1a4.8,4.8,0,0,0,.15-3.58l7.31-5.21a4.78,4.78,0,0,0,8.38-4.12l8.64-2.51.07.11a3.54,3.54,0,0,0,6.35-2.31L64.75,242a2.34,2.34,0,0,0,4.42-1.4l8.33-4a4.76,4.76,0,0,0,9.2-.14l12.16,4a5.08,5.08,0,0,0,1.66,4.28l-7.65,10.82a4.4,4.4,0,0,0-7.75,4.14l-10.06,3.4,0-.07a3.09,3.09,0,0,0-5.41,1l-5.78.52a3.6,3.6,0,0,0-5.09-1.39l-2.49-3.32a1.3,1.3,0,1,0-.55.46l2.47,3.3a3.62,3.62,0,0,0-.54,4.66L48,278.12A6,6,0,0,0,42.45,277l-2.92-6a1.31,1.31,0,1,0-.66.28l2.91,5.94a6,6,0,0,0-3.55,5.66l-9.39-3a4.76,4.76,0,0,0-2.67-4.56l1.69-2.65a1.29,1.29,0,1,0-.66-.3l-1.72,2.68a4.78,4.78,0,0,0-4.82,7.93l-3.21,2.54a1.31,1.31,0,1,0,.51.51l3.25-2.57a4.76,4.76,0,0,0,1.37.71l-.69,13.34a3.61,3.61,0,0,0-3.15,1.49l-3.65-2.16a1.35,1.35,0,1,0-.23.69l3.52,2.09a3.62,3.62,0,0,0,6.54,3.11l12.31,4.25a2.14,2.14,0,1,0,.33-.64l-12.39-4.28a3.61,3.61,0,0,0-2.57-4.43l.69-13.28a4.77,4.77,0,0,0,5.45-3.73l9.56,3A6,6,0,1,0,49,279.09a6.07,6.07,0,0,0-.42-.49l9.52-9.82a3.61,3.61,0,0,0,2.15,1l-.87,3.88a2.72,2.72,0,1,0,.71.12l.9-4a3.61,3.61,0,0,0,.59-.1l8.86,11.63a5,5,0,0,0-2.08,6.81l-2.55,3.18a1.31,1.31,0,1,0,.54.48l2.42-3,0,0a5,5,0,1,0,2.33-7.78l-8.84-11.6a3.61,3.61,0,0,0,1.86-4.24l5.36-.48A3.09,3.09,0,0,0,71,267.6l-.91,4.07a1.29,1.29,0,0,0-.55.24,1.32,1.32,0,1,0,1.27-.17l.86-3.85a3.09,3.09,0,0,0,3.74-4.14l10.08-3.41.1.15a4.4,4.4,0,0,0,5.88,1l6.83,9a3.11,3.11,0,1,0,.77-.17l-7-9.24a4.4,4.4,0,0,0,1.18-4.77l7.86-11.11a5.14,5.14,0,0,0,3.67.83l2.3,6.77a3.09,3.09,0,0,0,2.21,5.7l2.21,4a1.31,1.31,0,1,0,.49-.32l-2.13-3.89a3.06,3.06,0,0,0,1.73-1.93l9.44.27a3.1,3.1,0,1,0,0-.58l-9.33-.27a3.09,3.09,0,0,0-4.09-3.25l-2.26-6.65a5,5,0,0,0,2.32-1.38l1.9,2a1.31,1.31,0,1,0,.49-.34l-2-2.11a5.13,5.13,0,0,0,.41-5.61l4.22-2.17a4.3,4.3,0,1,0,5.46-6l5.13-8.69a3.44,3.44,0,0,0,2.58.25l1.58,3.42-.07,0a1.31,1.31,0,1,0,.76-.26l-1.61-3.48a3.33,3.33,0,0,0,1.31-1.26l8,6.52a3.43,3.43,0,0,0,5,4.48l.17-.14,2.23,3.59a1.29,1.29,0,1,0,.6-.35l-2.34-3.76a3.43,3.43,0,0,0-5.28-4.37l-8.08-6.61a3.43,3.43,0,0,0-.38-3l4.11-2.77a1.94,1.94,0,0,0,3-2.51l0,0,5.78-6.41A3.77,3.77,0,0,0,144.44,204.5Z"/><path class="cls-5" d="M282,64.72a1.3,1.3,0,0,0,.42,2.29l.22,7.35a5,5,0,0,0-5.38,1.26l-10.91-5.34a2.53,2.53,0,1,0-.37.64l10.8,5.29a5,5,0,0,0,5,7.79l1.7,10.27a5,5,0,0,0-2.61,2.08l-3.68-2.75a1.3,1.3,0,1,0-.44.6L280.5,97a5,5,0,0,0-.32,3l-10.87,3.32a3.91,3.91,0,1,0-6.07,4.21l-6.6,10.82a3.9,3.9,0,0,0-2-.89l.28-5.17a2.1,2.1,0,1,0-2.34-1.88L240.39,110a4.58,4.58,0,0,0-2.66-3l.26-4.8a2.1,2.1,0,1,0-.73-.09l-.25,4.66a4.6,4.6,0,1,0,3.51,4l12.26.38a2.08,2.08,0,0,0,1.39,1.1l-.28,5.18a3.91,3.91,0,0,0-3.63,4.51L246,124.33l-.05-.07a2.09,2.09,0,0,0-3.67,1.87l-10,6.54a4.6,4.6,0,0,0-4.81-.78L223,123.74a2.1,2.1,0,1,0-.66.34l4.53,8.14-.36.25a4.59,4.59,0,0,0,2.8,8.24l-5,10.15a4.59,4.59,0,1,0,.11,8.85l7.33,10.56a3.1,3.1,0,0,0-.59,2.65l-19.4,7.46a5.89,5.89,0,1,0-8.22,6.71l-2.84,6a4.37,4.37,0,1,0,.63.31l2.86-6a5.89,5.89,0,0,0,7.69-6.27l19.52-7.51a3.08,3.08,0,0,0,5,.76l3.2,3.13a1.3,1.3,0,1,0,.54-.44l-3.31-3.24a3.09,3.09,0,0,0-.2-3.46l-.14-.16,9.75-9.53a5,5,0,0,0,4.09.94l-1,5.11a1.3,1.3,0,1,0,.73-.11l1-5.21a5,5,0,0,0,3.22-5.29l10.44,1a5,5,0,0,0,6.47,3.74l2.47,6.37-.12.08a3.09,3.09,0,0,0-.93,3.74l-6.24,3.19a2.59,2.59,0,1,0,.44.6l6.18-3.16a3.09,3.09,0,0,0,5.5-1.51l7.82.06a2.35,2.35,0,0,0,2.29,2.51l.45,3.46a1.31,1.31,0,1,0,.74,0l-.46-3.54a2.34,2.34,0,0,0,1.58-1.58l3,.88a2.35,2.35,0,1,0,4.68.5l9.5-3.06a3,3,0,0,0,.7.89l-2.14,3.92a1.3,1.3,0,1,0,.58.47l2.17-4a3.08,3.08,0,0,0,4.05-1.13l9,4.12a3.09,3.09,0,1,0,6,1.34l3-1.09,0,0a1.31,1.31,0,1,0-.27-.74l-2.81,1a3.07,3.07,0,0,0-1.2-2l3.11-7.15a3.09,3.09,0,0,0,2.35-5.53l1.9-2a1.3,1.3,0,1,0-.49-.55l-2.07,2.23a3.1,3.1,0,0,0-1.25-.23l-2-7.34a2.16,2.16,0,1,0-.72.15l2,7.29a3.09,3.09,0,0,0-.42,5.83l-3,7a3.11,3.11,0,0,0-1.34-.24l-2.47-9,.07,0a1.32,1.32,0,1,0-.78.26l2.44,8.87a3.06,3.06,0,0,0-1.7,1.24l-9-4.14a3.09,3.09,0,1,0-5.94-.19l-9.28,3a2.33,2.33,0,0,0-.78-1.27l1-3.46a1.32,1.32,0,1,0-.72-.15l-1,3.23a2.36,2.36,0,0,0-.7-.16l-1.88-6.13a3.91,3.91,0,1,0-.71.2l1.84,6a2.35,2.35,0,0,0-1.56,1.3L291,170.3a2.35,2.35,0,0,0-4.53-.83l-8-.06a3.09,3.09,0,0,0-4.18-2.55l-2.44-6.3a5,5,0,0,0,2.33-6.63l6.42-1.23a2.17,2.17,0,1,0,0-.75l-6.82,1.3-.18-.26A5,5,0,0,0,271,151.2l-.38-11.72a3.09,3.09,0,0,0,0-5.49l2.19-5.84a2.16,2.16,0,1,0-2.13-2.3l-7.26-.89a1.29,1.29,0,0,0-.17-.32,1.31,1.31,0,0,0-1.83-.24l-.14.13-3.77-1.32a3.91,3.91,0,0,0-.29-4.31l0-.06,6.7-11a3.92,3.92,0,0,0,2.22.35l1.43,4.34a1.31,1.31,0,1,0,.78,0L266.81,108a3.89,3.89,0,0,0,2.63-4l10.93-3.33a5,5,0,1,0,6.88-6.21L291.38,90a1.3,1.3,0,1,0-.47-.58l-4.41,4.73a5,5,0,0,0-2.33-.12l-1.7-10.27a5,5,0,0,0,.86-9.1L283.11,67A1.3,1.3,0,1,0,282,64.72Zm-21,60.48a1.3,1.3,0,0,0,2.55.52l7.28.9a2.14,2.14,0,0,0,1.31,1.41l-2.14,5.72a3.09,3.09,0,1,0,0,6l.36,11.29a5,5,0,0,0-5.64,5.3l-10.48-1a5,5,0,0,0-2.49-3.11l3.31-5.31a1.3,1.3,0,1,0-.63-.45l.05.05L251,151.93a5,5,0,0,0-4.78.73l-.19.16-2.14-2a2.16,2.16,0,1,0-.54.45l2.18,2.08a5,5,0,0,0,.16,6.88L236,169.7a3.08,3.08,0,0,0-.5-.29l1-5.13a1.93,1.93,0,1,0-.67-.23l-1,5.14a3.08,3.08,0,0,0-2.52.57h0l-7.15-10.3a4.6,4.6,0,0,0-.12-8.34l5.13-10.48a4.59,4.59,0,0,0,2.78-7.3l-.1-.12,9.78-6.42h0a2.1,2.1,0,0,0,3.69-1.8l4.14-2.37a3.91,3.91,0,0,0,6.61,1.22Z"/></g></g></g></g></svg>