<?xml version="1.0" encoding="utf-8"?>
<!-- Generator: Adobe Illustrator 21.1.0, SVG Export Plug-In . SVG Version: 6.00 Build 0)  -->
<svg version="1.1" id="Layer_1" xmlns="http://www.w3.org/2000/svg" xmlns:xlink="http://www.w3.org/1999/xlink" x="0px" y="0px"
	 viewBox="0 0 152.8 35" style="enable-background:new 0 0 152.8 35;" xml:space="preserve">
<style type="text/css">
	.st0{fill:#64BBB5;}
	.st1{fill:#FFFFFF;}
	.st2{fill:#3A2456;}
	.st3{fill:#95BFCD;}
	.st4{fill:#E1F3F3;}
	.st5{fill:#B7E8F5;}
	.st6{opacity:5.000000e-02;enable-background:new    ;}
	.st7{opacity:0.1;}
	.st8{opacity:3.000000e-02;enable-background:new    ;}
	.st9{opacity:0.1;enable-background:new    ;}
	.st10{opacity:2.000000e-02;fill:#FFFFFF;enable-background:new    ;}
</style>
<title>title1</title>
<path class="st0" d="M11.9,0h129c6.6,0,11.9,5.3,11.9,11.9v11.3c0,6.6-5.3,11.9-11.9,11.9h-129C5.3,35,0,29.7,0,23.1V11.9
	C0,5.3,5.3,0,11.9,0z"/>
<path class="st1" d="M49.7,10.6h0.9v3.9h-0.9l0-0.6c-0.3,0.4-0.8,0.7-1.3,0.7c-1,0.1-1.9-0.7-2-1.7c0-0.1,0-0.3,0-0.4
	c-0.1-1,0.7-2,1.7-2c0.1,0,0.2,0,0.3,0c0.5,0,1,0.2,1.2,0.6L49.7,10.6z M47.3,12.6c0,0.6,0.4,1.1,1.1,1.2c0,0,0.1,0,0.1,0
	c0.7,0,1.2-0.5,1.2-1.2c0-0.7-0.5-1.2-1.2-1.2c-0.6,0-1.1,0.4-1.2,1.1C47.3,12.5,47.3,12.5,47.3,12.6z"/>
<path class="st1" d="M54.3,14.5v-2c0.1-0.5-0.3-1-0.8-1c0,0-0.1,0-0.1,0c-0.6,0-1,0.5-1,1.1c0,0,0,0,0,0v2h-0.9v-3.9h0.9l0.1,0.5
	c0.3-0.4,0.8-0.6,1.3-0.6c0.9,0,1.7,0.8,1.7,1.7c0,0.1,0,0.1,0,0.2v2.1H54.3z"/>
<path class="st1" d="M59.2,10.2l0.7,0.5l-0.4,0.6c0.3,0.3,0.4,0.7,0.4,1.2c0,0.6-0.3,1.2-0.8,1.5c0.5,0.2,0.8,0.7,0.8,1.3
	c0,1-0.8,1.7-1.8,1.7c-0.1,0-0.1,0-0.2,0c-1,0.1-1.9-0.6-2-1.6c0,0,0-0.1,0-0.1h0.9c0,0.5,0.5,0.9,1,0.8c0,0,0,0,0,0
	c0.6,0,1-0.3,1-0.8c0-0.5-0.5-0.8-1-0.8c-1,0.1-1.9-0.7-2-1.7c0-0.1,0-0.2,0-0.2c0-1.1,0.8-1.9,1.8-2c0.1,0,0.1,0,0.2,0
	c0.3,0,0.6,0.1,0.9,0.2L59.2,10.2z M56.9,12.5c0,0.6,0.5,1,1,1c0.6,0,1-0.5,1-1c0-0.6-0.5-1-1-1C57.3,11.5,56.9,11.9,56.9,12.5z"/>
<path class="st1" d="M63.6,10.6h0.9v3.9h-0.9l0-0.6c-0.3,0.4-0.8,0.7-1.3,0.7c-1,0.1-1.9-0.7-2-1.7c0-0.1,0-0.3,0-0.4
	c-0.1-1,0.7-2,1.7-2c0.1,0,0.2,0,0.3,0c0.5,0,1,0.2,1.2,0.6L63.6,10.6z M61.2,12.6c0,0.6,0.4,1.1,1.1,1.2c0,0,0.1,0,0.1,0
	c0.7,0,1.2-0.5,1.2-1.2c0-0.7-0.5-1.2-1.2-1.2c-0.6,0-1.1,0.4-1.2,1.1C61.2,12.5,61.2,12.5,61.2,12.6L61.2,12.6z"/>
<path class="st1" d="M68.2,14.5v-2c0.1-0.5-0.3-1-0.8-1c0,0-0.1,0-0.1,0c-0.6,0-1,0.5-1,1.1c0,0,0,0,0,0v2h-0.9v-3.9h0.9l0.1,0.5
	c0.3-0.4,0.8-0.6,1.3-0.6c0.9,0,1.7,0.8,1.7,1.7c0,0.1,0,0.1,0,0.2v2.1H68.2z"/>
<path class="st1" d="M72.7,9v4.6h2.9v0.9h-3.9V8.9L72.7,9z"/>
<path class="st1" d="M77.2,10.6v2c-0.1,0.5,0.3,1,0.8,1c0,0,0.1,0,0.1,0c0.6,0,1-0.5,1-1.1c0,0,0,0,0,0v-2h0.9v3.9h-0.9L79.2,14
	c-0.3,0.4-0.8,0.6-1.3,0.6c-0.9,0-1.6-0.7-1.6-1.9v-2.1H77.2z"/>
<path class="st1" d="M81,16.2v-5.6h0.9l0.1,0.5c0.3-0.4,0.8-0.6,1.3-0.6c1.1,0,2,0.8,2,1.9c0,0.1,0,0.1,0,0.2c0.1,1.1-0.7,2-1.8,2
	c-0.1,0-0.1,0-0.2,0c-0.5,0-1-0.2-1.3-0.6v2.1L81,16.2z M84.3,12.6c0-0.6-0.5-1.1-1.1-1.1c-0.6,0-1.1,0.5-1.1,1.1s0.5,1.1,1.1,1.1
	C83.8,13.7,84.3,13.2,84.3,12.6z"/>
<path class="st1" d="M89,10.6H90v3.9H89l0-0.6c-0.3,0.4-0.8,0.7-1.3,0.7c-1,0.1-1.9-0.7-2-1.7c0-0.1,0-0.3,0-0.4c-0.1-1,0.7-2,1.7-2
	c0.1,0,0.2,0,0.3,0c0.5,0,1,0.2,1.2,0.6L89,10.6z M86.7,12.6c0,0.6,0.4,1.1,1.1,1.2c0,0,0.1,0,0.1,0c0.7,0,1.2-0.5,1.2-1.2
	c0-0.7-0.5-1.2-1.2-1.2c-0.6,0-1.1,0.4-1.2,1.1C86.7,12.5,86.7,12.5,86.7,12.6z"/>
<path class="st2" d="M95.1,12.9h-1.6v1.6h-1V9h2.6c1.1,0,2,0.9,2,2C97,12,96.2,12.9,95.1,12.9z M93.5,12h1.6c0.5,0,1-0.4,1-1
	c0-0.5-0.4-1-1-1c0,0,0,0,0,0h-1.6L93.5,12z"/>
<path class="st2" d="M100.7,10.6h0.9v3.9h-0.9l0-0.6c-0.3,0.4-0.8,0.7-1.3,0.7c-1,0.1-1.9-0.7-2-1.7c0-0.1,0-0.3,0-0.4
	c-0.1-1,0.7-2,1.7-2c0.1,0,0.2,0,0.3,0c0.5,0,1,0.2,1.2,0.6L100.7,10.6z M98.3,12.6c0,0.6,0.4,1.1,1.1,1.2c0,0,0.1,0,0.1,0
	c0.7,0,1.2-0.5,1.2-1.2c0-0.7-0.5-1.2-1.2-1.2c-0.6,0-1.1,0.4-1.2,1.1C98.3,12.5,98.3,12.5,98.3,12.6z"/>
<path class="st2" d="M103.4,9v3.2l1.3-1.6h1.1v0.1l-1.6,1.8l1.9,2v0.1h-1.2l-1.5-1.8v1.7h-0.9V9L103.4,9z"/>
<path class="st2" d="M109.6,10.6h0.9v3.9h-0.9l0-0.6c-0.3,0.4-0.8,0.7-1.3,0.7c-1,0.1-1.9-0.7-2-1.7c0-0.1,0-0.3,0-0.4
	c-0.1-1,0.7-2,1.7-2c0.1,0,0.2,0,0.3,0c0.5,0,1,0.2,1.2,0.6L109.6,10.6z M107.3,12.6c0,0.6,0.4,1.1,1.1,1.2c0,0,0.1,0,0.1,0
	c0.7,0,1.2-0.5,1.2-1.2c0-0.7-0.5-1.2-1.2-1.2c-0.6,0-1.1,0.4-1.2,1.1C107.2,12.5,107.2,12.5,107.3,12.6L107.3,12.6z"/>
<path class="st2" d="M112.4,9.5c0,0.3-0.3,0.5-0.6,0.5c-0.3,0-0.5-0.2-0.5-0.5c0-0.3,0.3-0.5,0.6-0.5C112.2,9.1,112.4,9.3,112.4,9.5
	z M111.4,10.6v3.9h0.9v-3.9H111.4z"/>
<path class="st2" d="M119.7,10.5l-1.9,2.4h-0.2l-1.8-2.4v4h-1V9h1.2l1.8,2.4l1.7-2.4h1.2v5.6h-1.1V10.5z"/>
<path class="st2" d="M124.8,10.6h0.9v3.9h-0.9l0-0.6c-0.3,0.4-0.8,0.7-1.3,0.7c-1,0.1-1.9-0.7-2-1.7c0-0.1,0-0.2,0-0.3
	c-0.1-1,0.7-2,1.7-2c0.1,0,0.2,0,0.3,0c0.5,0,1,0.2,1.2,0.6V10.6z M122.5,12.6c0,0.6,0.4,1.1,1.1,1.2c0,0,0.1,0,0.1,0
	c0.7,0,1.2-0.5,1.2-1.2c0-0.7-0.5-1.2-1.2-1.2c-0.6,0-1.1,0.4-1.2,1.1C122.5,12.5,122.5,12.5,122.5,12.6z"/>
<path class="st2" d="M129.1,11.7c-0.3-0.2-0.6-0.4-0.9-0.4c-0.5,0-0.7,0.1-0.7,0.4s0.2,0.4,0.7,0.4c0.7,0,1.7,0.2,1.7,1.2
	c0,0.7-0.6,1.3-1.7,1.3c-0.7,0.1-1.4-0.2-1.9-0.7l0.5-0.7c0.4,0.3,0.9,0.5,1.4,0.5c0.4,0,0.7-0.2,0.7-0.5c0-0.3-0.2-0.4-0.8-0.4
	c-0.7-0.1-1.6-0.3-1.6-1.2s0.9-1.2,1.6-1.2c0.6,0,1.1,0.2,1.5,0.5L129.1,11.7z"/>
<path class="st2" d="M131.4,9v3.2l1.3-1.6h1.2v0.1l-1.6,1.8l1.9,2v0.1h-1.2l-1.5-1.8v1.7h-0.9V9L131.4,9z"/>
<path class="st2" d="M135.4,12.9c0.1,0.5,0.6,0.9,1.2,0.8c0.4,0,0.8-0.1,1-0.4l0.6,0.6c-0.5,0.4-1.1,0.7-1.7,0.6
	c-1.1,0.1-2-0.7-2.1-1.8c0-0.1,0-0.2,0-0.3c-0.1-1.1,0.8-2,1.9-2c0.1,0,0.1,0,0.2,0c1.3,0,2.1,0.8,2,2.4L135.4,12.9z M137.5,12.1
	c-0.1-0.5-0.5-0.8-1-0.8c-0.5,0-1,0.3-1.1,0.8H137.5z"/>
<path class="st2" d="M140.1,10.6l0.1,0.5c0.2-0.4,0.7-0.6,1.1-0.6c0.4,0,0.7,0.1,1,0.4l-0.4,0.8c-0.2-0.2-0.4-0.3-0.7-0.2
	c-0.5,0-0.9,0.4-1,0.9c0,0,0,0.1,0,0.1v2.1h-0.9v-3.9H140.1z"/>
<path class="st1" d="M44.6,20.9c-0.3-0.4-0.8-0.6-1.3-0.6c-0.8,0-1.1,0.3-1.1,0.7c0,0.4,0.6,0.6,1.2,0.7c1.2,0.1,2.2,0.4,2.2,1.8
	c0,1.3-1.1,1.8-2.3,1.8c-1,0.1-2-0.4-2.4-1.4l0.9-0.5c0.3,0.6,0.9,1,1.6,0.9c0.7,0,1.3-0.2,1.3-0.8s-0.5-0.7-1.3-0.8
	c-1.1-0.1-2.2-0.4-2.2-1.7c0-1.2,1.1-1.6,2.1-1.6c0.9-0.1,1.7,0.3,2.2,1.1L44.6,20.9z"/>
<path class="st1" d="M47.5,23.5c0.1,0.5,0.6,0.9,1.2,0.8c0.4,0,0.8-0.1,1-0.4l0.6,0.6c-0.5,0.4-1.1,0.6-1.7,0.6
	c-1.1,0.1-2-0.7-2.1-1.8c0-0.1,0-0.2,0-0.3c-0.1-1.1,0.8-2,1.9-2c0.1,0,0.1,0,0.2,0c1.3,0,2.1,0.8,2,2.4H47.5z M49.6,22.7
	c-0.1-0.5-0.5-0.8-1-0.8c-0.5,0-1,0.3-1.1,0.8H49.6z"/>
<path class="st1" d="M52.2,19.6v2.2c0.3-0.4,0.8-0.6,1.3-0.6c1-0.1,1.9,0.7,2,1.7c0,0.1,0,0.2,0,0.4c0.1,1.1-0.7,2-1.8,2
	c-0.1,0-0.2,0-0.2,0c-0.5,0-1-0.2-1.3-0.6l-0.1,0.5h-0.9v-5.6L52.2,19.6z M52.3,23.2c0,0.6,0.5,1.1,1.1,1.1c0.6,0,1.1-0.5,1.1-1.1
	c0,0,0,0,0,0c0-0.6-0.4-1.1-1-1.1c0,0-0.1,0-0.1,0C52.8,22,52.3,22.5,52.3,23.2C52.3,23.1,52.3,23.1,52.3,23.2L52.3,23.2z"/>
<path class="st1" d="M57,23.5c0.1,0.5,0.6,0.9,1.2,0.8c0.4,0,0.8-0.1,1-0.4l0.6,0.6c-0.5,0.4-1.1,0.6-1.7,0.6
	c-1.1,0.1-2-0.7-2.1-1.8c0-0.1,0-0.2,0-0.3c-0.1-1.1,0.8-2,1.9-2c0.1,0,0.1,0,0.2,0c1.3,0,2.1,0.8,2,2.4H57z M59.1,22.7
	c-0.1-0.5-0.5-0.8-1-0.8c-0.5,0-1,0.3-1.1,0.8H59.1z"/>
<path class="st1" d="M61.8,19.6v5.6h-0.9v-5.6H61.8z"/>
<path class="st1" d="M63.6,21.2v2c-0.1,0.5,0.3,1,0.8,1c0,0,0.1,0,0.1,0c0.6,0,1-0.5,1-1.1c0,0,0,0,0,0v-2h0.9v3.9h-0.9l-0.1-0.5
	c-0.3,0.4-0.8,0.6-1.3,0.6c-0.9,0-1.6-0.7-1.6-1.9v-2.1H63.6z"/>
<path class="st1" d="M70,25.1V23c0-0.5-0.3-1-0.8-1c-0.5,0-0.9,0.5-0.8,1v2.1h-0.9v-3.9h0.9l0.1,0.5c0.2-0.4,0.6-0.6,1-0.5
	c0.5,0,1,0.3,1.2,0.7c0.3-0.5,0.8-0.7,1.3-0.7c1.1,0,1.7,0.7,1.7,1.9v2.1h-1.1V23c0-0.5-0.2-0.9-0.7-0.9c-0.5,0-0.9,0.4-0.9,0.9v2.1
	L70,25.1z"/>
<path class="st1" d="M80.7,21.2c0,0.5-0.3,0.9-0.8,1.1c0.5,0.2,0.9,0.7,0.9,1.2c0,1.2-0.9,1.6-2.1,1.6h-2.6v-5.6h2.6
	C79.8,19.6,80.7,20.1,80.7,21.2z M77.1,21.8h1.6c0.7,0,0.9-0.3,0.9-0.6s-0.2-0.7-0.9-0.7h-1.6V21.8z M77.1,24.1h1.6
	c0.4,0,1-0.1,1-0.7s-0.6-0.8-1-0.8h-1.6V24.1z"/>
<path class="st1" d="M82.3,23.5c0.1,0.5,0.6,0.9,1.2,0.8c0.4,0,0.7-0.1,1-0.4l0.6,0.6c-0.5,0.4-1.1,0.6-1.7,0.6
	c-1.1,0.1-2-0.7-2.1-1.8c0-0.1,0-0.2,0-0.3c-0.1-1.1,0.8-2,1.9-2c0.1,0,0.1,0,0.2,0c1.3,0,2.1,0.8,2,2.4H82.3z M84.4,22.7
	c-0.1-0.5-0.5-0.8-1-0.8c-0.5,0-1,0.3-1.1,0.8H84.4z"/>
<path class="st1" d="M87,21.2l0.1,0.5c0.2-0.4,0.7-0.6,1.1-0.6c0.4,0,0.7,0.1,1,0.4l-0.4,0.8c-0.2-0.2-0.4-0.3-0.7-0.2
	c-0.5,0-0.9,0.4-1,0.9c0,0,0,0.1,0,0.1v2.1h-0.9v-3.9H87z"/>
<path class="st1" d="M92.6,21.2h0.9v3.9h-0.9l0-0.6c-0.3,0.4-0.8,0.7-1.3,0.7c-1,0.1-1.9-0.7-2-1.7c0-0.1,0-0.3,0-0.4
	c-0.1-1.1,0.7-2,1.8-2c0.1,0,0.2,0,0.3,0c0.5,0,1,0.2,1.2,0.6L92.6,21.2z M90.3,23.2c0,0.6,0.4,1.1,1.1,1.2c0,0,0.1,0,0.1,0
	c0.7,0,1.2-0.5,1.2-1.2c0-0.7-0.5-1.2-1.2-1.2c-0.6,0-1.1,0.4-1.2,1.1C90.3,23.1,90.3,23.1,90.3,23.2L90.3,23.2z"/>
<path class="st1" d="M95.3,19.6v3.2l1.3-1.6h1.2v0.1l-1.6,1.8l1.9,2v0.1h-1.2l-1.5-1.8v1.8h-0.9v-5.6L95.3,19.6z"/>
<path class="st1" d="M99.8,20.1v1.1h1.1v0.8h-1.1v1.7c0,0.3,0.1,0.5,0.4,0.6c0,0,0.1,0,0.1,0c0.2,0,0.3,0,0.5-0.1l0.3,0.8
	c-0.3,0.1-0.5,0.2-0.8,0.2c-0.7,0.1-1.3-0.4-1.4-1.1c0-0.1,0-0.2,0-0.3v-1.7h-0.7v-0.8h0.7v-1L99.8,20.1z"/>
<path class="st1" d="M102.7,20.1c0,0.3-0.3,0.5-0.6,0.5c-0.3,0-0.5-0.2-0.5-0.5c0-0.3,0.3-0.5,0.6-0.5
	C102.5,19.6,102.7,19.9,102.7,20.1z M101.6,21.2v3.9h0.9v-3.9H101.6z"/>
<path class="st1" d="M107.5,21.2l-1.7,3.9h-1l-1.7-3.9h1.1l0.5,1.3l0.6,1.6l0.6-1.6l0.5-1.3L107.5,21.2z"/>
<path class="st1" d="M109,20.1c0,0.3-0.3,0.5-0.6,0.5c-0.3,0-0.5-0.2-0.5-0.5c0-0.3,0.3-0.5,0.6-0.5C108.8,19.6,109,19.9,109,20.1z
	 M108,21.2v3.9h0.9v-3.9H108z"/>
<path class="st1" d="M111.2,20.1v1.1h1.1v0.8h-1.1v1.7c0,0.3,0.1,0.5,0.4,0.6c0,0,0.1,0,0.1,0c0.2,0,0.3,0,0.5-0.1l0.3,0.8
	c-0.3,0.1-0.5,0.2-0.8,0.2c-0.7,0.1-1.3-0.4-1.4-1.1c0-0.1,0-0.2,0-0.3v-1.7h-0.7v-0.8h0.7v-1L111.2,20.1z"/>
<path class="st1" d="M116.1,21.2h0.9v3.9h-0.9l0-0.6c-0.3,0.4-0.8,0.7-1.3,0.7c-1,0.1-1.9-0.7-2-1.7c0-0.1,0-0.3,0-0.4
	c-0.1-1.1,0.7-2,1.8-2c0.1,0,0.2,0,0.3,0c0.5,0,1,0.2,1.2,0.6L116.1,21.2z M113.7,23.2c0,0.6,0.4,1.1,1.1,1.2c0,0,0.1,0,0.1,0
	c0.7,0,1.2-0.5,1.2-1.2c0-0.7-0.5-1.2-1.2-1.2c-0.6,0-1.1,0.4-1.2,1.1C113.7,23.1,113.7,23.1,113.7,23.2L113.7,23.2z"/>
<path class="st1" d="M120.4,22.2c-0.3-0.2-0.6-0.4-0.9-0.4c-0.5,0-0.7,0.1-0.7,0.4c0,0.2,0.2,0.4,0.7,0.4c0.7,0,1.7,0.2,1.7,1.2
	c0,0.7-0.6,1.3-1.7,1.3c-0.7,0.1-1.4-0.2-1.9-0.7l0.5-0.7c0.4,0.3,0.9,0.5,1.4,0.5c0.4,0,0.7-0.2,0.7-0.5c0-0.3-0.2-0.4-0.8-0.4
	c-0.7-0.1-1.6-0.3-1.6-1.2c0-0.9,0.9-1.2,1.6-1.2c0.6,0,1.1,0.2,1.5,0.5L120.4,22.2z"/>
<path class="st1" d="M125.7,21.9l1.5-2.3h1.3v0l-2.2,3.2v2.3h-1v-2.3l-2.1-3.2v0h1.2L125.7,21.9z"/>
<path class="st1" d="M131,21.2h0.9v3.9H131l0-0.6c-0.3,0.4-0.8,0.7-1.3,0.7c-1,0.1-1.9-0.7-2-1.7c0-0.1,0-0.3,0-0.4
	c-0.1-1.1,0.7-2,1.8-2c0.1,0,0.2,0,0.3,0c0.5,0,1,0.2,1.2,0.6L131,21.2z M128.6,23.2c0,0.6,0.4,1.1,1.1,1.2c0,0,0.1,0,0.1,0
	c0.7,0,1.2-0.5,1.2-1.2c0-0.7-0.5-1.2-1.2-1.2c-0.6,0-1.1,0.4-1.2,1.1C128.6,23.1,128.6,23.1,128.6,23.2L128.6,23.2z"/>
<path class="st1" d="M134.1,24.5c0,0.4-0.3,0.6-0.6,0.6s-0.6-0.3-0.6-0.6c0-0.4,0.3-0.6,0.6-0.6S134.1,24.2,134.1,24.5z M134,19.6
	v4.1h-1v-4.1H134z"/>
<path class="st3" d="M36.4,11.3c0,0,1.7-5.4,5.2-6.8c3.2-1.3,4.2,5.1,3.5,9.5c-0.7,4.3-0.5,7.6-6.4,9.5l-1.1-0.3c0,0,4-0.9,5.5-3.5
	c1.5-2.7,2.7-13.5-0.4-14.4s-5.8,6.5-7.1,7.7L36.4,11.3z"/>
<path class="st4" d="M41.6,4.5c-3.5,1.4-5.6,6.9-5.6,6.9l-0.4,1.4c1.2-1,3.8-7.5,6.5-7.7l0,0c0.8-0.1,1.6,0.1,2.2,0.6
	C43.6,4.6,42.7,4,41.6,4.5z"/>
<path class="st3" d="M15.3,11.7c0,0,2.1-6.4,5.5-7.8s4.3,5.4,3.6,9.7s-1.6,8.2-6.9,9.8l-1.1-0.3c0,0,4-0.9,5.5-3.5s3.2-13.8,0.3-15
	c-2.8-1.1-5.8,6.2-6.7,7.4L15.3,11.7z"/>
<path class="st4" d="M20.4,4.8l0.3-0.2c0.6-0.3,1.3-0.5,2.1-0.5c-0.6-0.5-1.3-0.5-2-0.2c-3.5,1.4-5.5,7.8-5.5,7.8l0.2,0.3
	c0.6-0.8,2.2-4.5,4-6.4C19.8,5.3,20.1,5,20.4,4.8z"/>
<path class="st4" d="M15.2,11.5c0,1-0.1,2-0.3,2.9c0,0.2-0.1,0.6-0.1,0.7c0,0.2,0,0.3,0,0.5c0,0.2-0.1,0.4-0.1,0.5
	c-0.1,0.7-0.1,1.5,0,2.2c0,0.2,0.2,0.4,0.3,0.6c0,0.1,0,0.2,0,0.3v0.1c0.1,0.7,0.3,1.4,0.5,2c0,0.1,0.1,0.1,0.2,0.2
	c0.1,0.2,0,0.4,0.1,0.6c0.1,0.2-0.1,0.1,0,0.2c0.2,0.6,0.5,1.1,0.9,1.6c0.1,0,0.1,0.1,0.2,0.2l0.2,0.3c0,0.1,0.1,0.1,0.1,0.2
	l0.4,0.7c0.9,1.6,1.1,1.6,1.1,1.6s5.7,2.3,9,1.2s5.4-2.3,11.1-5c-1.1-1.6-2.1-3.2-2.8-5c-1.3-3.2-0.1-4.2,0.5-7.1
	c-2.4-0.5-4.8-1.1-7.1-1.9c-2.8-1-6.1-1.6-8.4-1.1C18.6,8.8,15.2,11.5,15.2,11.5z"/>
<path class="st5" d="M15.2,11.5c0,1-0.1,2-0.3,2.9c0,0.2-0.1,0.6-0.1,0.7c0,0.2,0,0.3,0,0.5c0,0.2-0.1,0.4-0.1,0.5
	c-0.1,0.7-0.1,1.5,0,2.2c0,0.2,0.2,0.4,0.3,0.6c0,0.1,0,0.2,0,0.3v0.1c0.1,0.7,0.3,1.4,0.5,2c0,0.1,0.1,0.1,0.2,0.2
	c0.1,0.2,0,0.4,0.1,0.6c0.1,0.2-0.1,0.1,0,0.2c0.2,0.6,0.5,1.1,0.9,1.6c0.1,0,0.1,0.1,0.2,0.2l0.2,0.3c0,0.1,0.1,0.1,0.1,0.2
	l0.4,0.7c0.9,1.6,1.1,1.6,1.1,1.6s5.7,2.3,9,1.2s5.4-2.3,11.1-5c-1.1-1.6-2.1-3.2-2.8-5c-1.3-3.2-0.1-4.2,0.5-7.1
	c-2.4-0.5-4.8-1.1-7.1-1.9c-2.8-1-6.1-1.6-8.4-1.1C18.6,8.8,15.2,11.5,15.2,11.5z"/>
<path class="st6" d="M38.2,23.2c-1.1-1.5-2-3.1-2.6-4.8c-1.2-3-0.1-4,0.4-6.8c-2.3-0.5-4.6-1.1-6.8-1.8c-2.6-0.9-5.9-1.5-8-1
	c-1.2,0.3-2.4,0.7-3.6,1.1c-1.3,0.8-2.3,1.6-2.3,1.6c0,0.4,0,0.8-0.1,1.2c1.7-0.9,3.4-1.7,5.2-2.2c2.6-0.3,5.2-0.1,7.6,0.7
	c2,0.5,4,1,6.1,1.3c0.2,0,0.3,0.2,0.3,0.4c0,0,0,0,0,0c-0.6,1.7-0.6,3.6-0.2,5.3c0.3,1.4,0.9,2.8,1.7,3.9c0.1,0.1,0.1,0.3,0,0.5
	c0,0-0.1,0-0.1,0.1c-5,2.1-6.4,3.1-9.4,4c-2.3,0.7-7.1-0.2-8.9-0.8c0.2,0.4,0.4,0.7,0.5,0.9c0.2,0.1,0.4,0.1,0.6,0.1
	c0,0,5.6,2.1,8.7,1S32.7,25.7,38.2,23.2z"/>
<path class="st4" d="M36.4,11.3c-2.4-0.5-4.8-1.1-7.1-1.9c-2.8-1-6.1-1.6-8.4-1.1s-5.7,3.2-5.7,3.2c-0.1,0-0.1,0.1-0.1,0.2
	c0,0.1,0,0.2,0,0.5c0,0.1,0,0.4,0,0.4c1.5-1.1,3.2-1.9,4.9-2.4c2.7-0.3,5.4-0.1,8,0.8c2.1,0.6,4.2,1,6.4,1.4c0.2,0,0.3,0.2,0.3,0.4
	c0,0,0,0,0,0c-0.6,1.8-0.6,3.7-0.2,5.6c0.3,1.5,0.9,2.9,1.9,4.1c0.1,0.1,0.1,0.4,0,0.5c0,0-0.1,0-0.1,0.1c-5.2,2.2-6.7,3.2-9.8,4.2
	c-2.7,0.9-7.6-0.6-8.8-1.1c0,0.1,0.1,0.3,0.1,0.4c0.2,0.3,0.3,0.6,0.6,0.9c0,0,5.8,2.2,9.1,1.1s5.4-2.4,11.2-5
	c-1.1-1.6-2.1-3.2-2.8-5C34.7,15.2,35.8,14.2,36.4,11.3z"/>
<path class="st5" d="M18.1,27c2.1,0.7,4.4,1.1,6.6,1.1c1.1,0,2.2-0.3,3.2-0.8c1-0.4,2.1-0.9,3.1-1.4c2-1,4.1-1.9,6.1-2.9h0.1
	c0,0,0,0-0.1,0c0,0.1,0,0.1,0,0.2c0,0,0,0.1,0,0.1l-0.1-0.1L37,23.1c-0.2-0.2-0.3-0.5-0.5-0.7c-0.3-0.5-0.6-1-0.8-1.5
	c-0.5-1-0.9-2.2-1.2-3.3c-0.2-1.2-0.2-2.4,0.1-3.5l0.3-1.7l0.1-0.4c0,0.1,0,0.1,0.1,0.2h0.1h-0.1L34.2,12c-2.2-0.4-4.4-1-6.6-1.7
	c-2.1-0.7-4.3-1-6.6-0.9C20,9.4,18.9,9.8,18,10.4c-1,0.6-1.9,1.2-2.9,1.9c0.9-0.7,1.8-1.4,2.7-2c1-0.7,2-1.1,3.2-1.3
	c2.3-0.2,4.6,0,6.8,0.7c2.1,0.7,4.3,1.2,6.5,1.6l0.8,0.1h0.1c0.1,0,0.2,0.1,0.3,0.1c0.2,0.1,0.2,0.3,0.2,0.6l-0.1,0.5l-0.3,1.7
	c-0.2,1-0.3,2.1-0.1,3.2c0.2,1.1,0.6,2.1,1.1,3.1c0.2,0.5,0.5,1,0.8,1.5c0.1,0.2,0.3,0.5,0.4,0.7l0.1,0.2l0.1,0.1
	c0.1,0.1,0.1,0.2,0.1,0.2c0,0.2,0,0.4-0.1,0.6c-0.1,0.1-0.1,0.1-0.2,0.2h-0.1c-2.1,0.9-4.1,1.9-6.2,2.8c-1,0.4-2.1,0.9-3.2,1.3
	c-0.5,0.2-1.1,0.4-1.6,0.5c-0.6,0.1-1.2,0.2-1.7,0.2C22.5,28.4,20.2,27.8,18.1,27z"/>
<path class="st6" d="M17.4,15.6c4.2,0,4.8-0.6,7.6-0.6c3.5,0.1,3.3,0.2,6.1,0.1c-0.3,0.1-1.3-0.2-4.9-0.7c-1.7-0.3-3.5-0.3-5.2,0
	c-1.9,0.2-3.2-0.2-4.6,0.1c-0.5,0.1-1,0.3-1.5,0.6c0,0.2,0,0.3,0,0.5c0,0.2-0.1,0.4-0.1,0.5C15.5,15.7,16.4,15.5,17.4,15.6z"/>
<g class="st7">
	<path d="M31.1,15.1L31.1,15.1z"/>
	<path d="M24.2,14.9c-1.3,0-3.5,0.3-4.1,0.4l-2.9,0.4h0.2c4.2,0,4.8-0.6,7.6-0.6c3.4,0.1,3.3,0.2,6,0.1h-0.3
		C29.2,15,25.3,14.8,24.2,14.9z"/>
</g>
<path class="st6" d="M32.4,18.1c-2.7-0.3-5.4-0.5-8.2-0.5c-3,0.1-4.2,0.8-6.3,0.6c-1.1-0.1-2.2,0-3.2,0.2l0,0c0,0.2,0.2,0.4,0.3,0.6
	c0,0.1,0,0.2,0,0.3c1.1-0.2,2.8-0.2,4.3-0.4c0.9-0.1,2.1-0.3,2.9-0.4c1.8-0.4,3.6-0.5,5.5-0.5C30.5,18.2,32.4,18.1,32.4,18.1z"/>
<path class="st8" d="M27.6,18.1c-1.8,0-3.7,0.1-5.5,0.5c-0.7,0.1-2,0.3-2.9,0.4c-1.6,0.2-3.2,0.2-4.3,0.4l0,0v0.1
	c0.1,0.7,0.3,1.4,0.5,2c0,0.1,0.1,0.1,0.2,0.2c0.1,0.2,0,0.4,0.1,0.6c0.1,0.2-0.1,0.1,0,0.2c0.2,0.6,0.5,1.1,0.9,1.6
	c0.1,0,0.1,0.1,0.2,0.2l0.2,0.3c0,0.1,0.1,0.1,0.1,0.2l0.4,0.7l0.2,0.4l0,0c0,0.1,0.1,0.3,0.1,0.4c0.2,0.3,0.3,0.6,0.6,0.9
	c0,0,5.8,2.2,9.1,1.1c0.5-0.2,1-0.4,1.4-0.6l0.3-0.1l0.1-0.1l0.3-0.1l0.3-0.1l0.7-0.3l0.1,0l0.9-0.4l0.8-0.4l0.3-0.1l0.5-0.2
	l0.3-0.2l1.7-0.8l0.6-0.3l2.6-1.3c-1.1-1.6-2.1-3.2-2.8-5L35.7,18h-3.4C32.3,18,30.5,18.2,27.6,18.1z"/>
<path class="st9" d="M26.1,17.8c-1.8,0.2-3.6,0.4-5.3,0.8c-1.2,0.2-4.5,0.4-5.9,0.4v0.1c0,0.1,0,0.2,0,0.3c1.1-0.2,2.8-0.2,4.3-0.4
	c0.9-0.1,2.1-0.3,2.9-0.4c1.8-0.4,3.6-0.5,5.5-0.5c2.9,0.1,4.8,0,4.8,0S27.3,17.8,26.1,17.8z"/>
<path class="st6" d="M27.3,20.5C30.1,20.3,32,20,32,20c-2.7-0.1-5.4-0.1-8.1,0.2c-3,0.4-4.2,1.2-6.3,1.2c-0.7,0-1.5,0.1-2.2,0.2
	c0,0.1,0.1,0.1,0.2,0.2c0.1,0.2,0,0.4,0.1,0.6c0.1,0.2-0.1,0.1,0,0.2l0,0c1-0.2,2.2-0.3,3.3-0.5c0.9-0.2,2.1-0.5,2.9-0.6
	C23.6,20.9,25.4,20.6,27.3,20.5z"/>
<path class="st9" d="M19.7,21.6c-1,0.2-3,0.4-4.1,0.5c0,0.1,0,0.1,0,0.2c0,0.1-0.1,0.1,0,0.2l0,0c1-0.2,2.2-0.3,3.3-0.5
	c0.9-0.2,2.1-0.5,2.9-0.6c1.8-0.5,3.6-0.8,5.4-0.9c2.9-0.2,4.8-0.4,4.8-0.4s-4.6,0.3-6.5,0.3S21.1,21.3,19.7,21.6z"/>
<path class="st6" d="M29.3,22.6l0.4-0.1c-1.4-0.1-2.9,0-4.3,0.1l-0.8,0.1c-2.6,0.4-5.2,1.1-7.9,1.4h-0.1l0,0c0.1,0,0.1,0.1,0.2,0.2
	l0.2,0.3c0,0.1,0.1,0.1,0.1,0.2c2.4-0.4,4.8-1.1,7.2-1.6l0.8-0.2C26.4,22.9,27.9,22.9,29.3,22.6z"/>
<path class="st9" d="M23.9,23.1c-2,0.5-5.6,1.2-7,1.5v0.1c0,0.1,0.1,0.1,0.1,0.2c2.4-0.4,4.8-1.1,7.2-1.6l0.8-0.2
	c1.4-0.3,2.9-0.3,4.3-0.6l0.4-0.1l0,0C27.7,22.6,25.8,22.7,23.9,23.1z"/>
<path class="st8" d="M35.4,15.4v-0.1c0-0.3,0.1-0.5,0.1-0.8c0-0.1,0.1-0.3,0.1-0.4c0.2-0.6,0.4-1.3,0.6-2.1l0.1-0.2
	c0-0.2,0.1-0.3,0.1-0.5c-2.4-0.5-4.8-1.1-7.1-1.9L29,9.3l-0.5-0.2c-0.8-0.3-1.6-0.5-2.5-0.6l-0.3-0.1l-0.7-0.1h-0.1l-0.5-0.1H24
	h-0.5H23c-0.7,0-1.4,0-2.1,0.2c-2.2,0.5-5.7,3.2-5.7,3.2c-0.1,0-0.1,0.1-0.1,0.2c0,0.1,0,0.2,0,0.5c0,0.1,0,0.4,0,0.4l0,0
	c0,0.4-0.1,1.1-0.2,1.9l-0.1,0.6c0,0.1,0,0.1,0,0.2l0,0c0,0.1,0,0.2,0,0.4v0.1c0,0.1,0,0.3-0.1,0.4v0.1c0.8-0.4,1.7-0.7,2.6-0.6
	c4.2,0,4.8-0.6,7.6-0.6c3.5,0.1,3.3,0.2,6.1,0.1C32.5,15.4,33.9,15.4,35.4,15.4z"/>
<path class="st10" d="M35.4,15.4v-0.1c0-0.3,0.1-0.5,0.1-0.8c0-0.1,0.1-0.3,0.1-0.4c0.2-0.6,0.4-1.3,0.6-2.1l0.1-0.2
	c0-0.2,0.1-0.3,0.1-0.5c-2.4-0.5-4.8-1.1-7.1-1.9L29,9.3l-0.5-0.2c-0.8-0.3-1.6-0.5-2.5-0.6l-0.3-0.1l-0.7-0.1h-0.1l-0.5-0.1H24
	h-0.5H23c-0.7,0-1.4,0-2.1,0.2c-2.2,0.5-5.7,3.2-5.7,3.2c-0.1,0-0.1,0.1-0.1,0.2c0,0.1,0,0.2,0,0.5c0,0.1,0,0.4,0,0.4l0,0
	c0,0.4-0.1,1.1-0.2,1.9l-0.1,0.6c0,0.1,0,0.1,0,0.2l0,0c0,0.1,0,0.2,0,0.4v0.1c0,0.1,0,0.3-0.1,0.4v0.1c0.8-0.4,1.7-0.7,2.6-0.6
	c4.2,0,4.8-0.6,7.6-0.6c3.5,0.1,3.3,0.2,6.1,0.1C32.5,15.4,33.9,15.4,35.4,15.4z"/>
<path class="st8" d="M27.3,20.5c-1.8,0.1-3.7,0.4-5.4,0.9c-0.7,0.2-1.9,0.5-2.9,0.6c-1.1,0.2-2.3,0.3-3.3,0.5
	c0.2,0.6,0.5,1.1,0.9,1.6c0.1,0,0.1,0.1,0.2,0.2l0.2,0.3c0,0.1,0.1,0.1,0.1,0.2l0.4,0.7l0.2,0.4l0,0c0,0.1,0.1,0.3,0.1,0.4
	c0.2,0.3,0.3,0.6,0.6,0.9c0,0,5.8,2.2,9.1,1.1c0.5-0.2,1-0.4,1.5-0.6l0.3-0.1l0.1-0.1l0.3-0.1l0.3-0.1l0.7-0.3l0.1,0l0.9-0.4
	l0.8-0.4l0.3-0.1l0.5-0.2l0.3-0.2l1.7-0.8l0.6-0.3l2.6-1.3c-0.9-1.2-1.6-2.5-2.2-3.9L32,20C32,20,30.1,20.3,27.3,20.5z"/>
<circle class="st6" cx="15.7" cy="22.6" r="0"/>
<path class="st8" d="M29.6,22.5l-0.4,0.1c-1.4,0.2-2.9,0.2-4.3,0.6l-0.8,0.2c-2.4,0.5-4.8,1.2-7.2,1.6l0,0l0.4,0.7l0.2,0.4l0,0
	c0,0.1,0.1,0.3,0.1,0.4c0.2,0.3,0.3,0.6,0.6,0.9c0,0,5.8,2.2,9.1,1.1c0.5-0.2,1-0.4,1.5-0.6l0.3-0.1l0.1-0.1l0.3-0.1l0.3-0.1
	l0.7-0.3l0.1,0l0.9-0.4l0.8-0.4l0.3-0.1l0.5-0.2l0.3-0.2l1.7-0.8l0.6-0.3l2.6-1.3c-0.6-0.8-1.1-1.6-1.5-2.4
	C34.9,21.4,32,22.6,29.6,22.5z"/>
<path class="st8" d="M20.3,24.2c0-0.6-0.4-0.6-0.4-0.6c-0.4-0.5-0.5-1.1-0.4-1.7c0.1-0.3,0-0.6-0.2-0.7c-0.6-1.9-0.1-2.2-0.1-2.2
	c0.3-0.4-0.2-0.7-0.2-0.7c-0.4-2.2,0.4-2.8,0.4-2.8c0.6-0.4-0.2-0.9-0.2-0.9c-0.4-2.2,0.2-4.6,1.7-6.3l0,0l-0.2,0.1h-0.1
	c-0.3,0.1-0.5,0.2-0.8,0.3h-0.1l-0.2,0.1l-0.1,0.1l-0.2,0.1L18.9,9l-0.4,0.2l-0.3,0.2l-0.2,0.1L18,9.5l-0.2,0.1l-0.1,0.1l-0.1,0.1
	l-0.2,0.1L17.2,10l-0.1,0.1l-0.3,0.2l-0.1,0.1l-0.2,0.1l-0.2,0.1l-0.2,0.1L16,10.8L16,10.9L15.8,11l-0.1,0l-0.1,0.1l-0.4,0.3
	c-0.1,0-0.1,0.1-0.1,0.2c0,0.1,0,0.2,0,0.5c0,0.1,0,0.4,0,0.4c0,0.4-0.1,1.1-0.2,1.9v0.3l0,0v0.3v0.1l0,0v0c0,0,0,0.1,0,0.1
	c0,0,0,0.1,0,0.1l0,0c0,0,0,0.1,0,0.1v0.2v0.1v0.1l0,0V16l0,0v0.1c0,0.4-0.1,0.7-0.1,1.1c0,0.2,0,0.4,0,0.6c0,0.2,0,0.4,0,0.6
	c0,0.1,0,0.1,0,0.2l0.1,0.1l0.1,0.1v0.1c0,0.1,0,0.1,0,0.2l0,0l0,0l0,0c0,0,0,0,0,0.1l0,0v0.1l0,0c0,0,0,0,0,0.1l0,0v0.1l0,0v0.2
	v0.1v0.2v0.1v0.1v0.1v0.1v0.1v0.1v0.1v0.2v0.1l0.1,0.2l0.1,0.2l0,0l0,0l0,0l0,0l0,0l0,0l0,0l0,0l0,0l0,0l0,0c0.1,0.2,0,0.4,0.1,0.6
	c0,0,0,0,0,0.1v0v0l0,0l0,0l0.1,0.2c0.1,0.1,0.1,0.3,0.2,0.4l0.1,0.3v0.1l0.1,0.3l0.1,0.2l0.1,0.2l0,0l0,0l0,0l0,0l0,0l0,0l0.2,0.3
	c0,0,0,0.1,0.1,0.1v0.1v0.1l0.2,0.4l0,0l0.1,0.1V25l0.2,0.4l0,0c0,0.1,0.1,0.3,0.1,0.4c0.2,0.3,0.3,0.6,0.6,0.9
	c1.7,0.6,3.4,1,5.2,1.3C21.7,27,20.8,25.7,20.3,24.2z"/>
<path class="st8" d="M17.9,24.7c0-0.6-0.3-0.7-0.3-0.7c-0.4-0.5-0.5-1.1-0.4-1.7c0.2-0.5-0.4-0.9-0.4-0.9c-0.6-1.9-0.2-2.2-0.2-2.2
	c0.3-0.4-0.1-0.9-0.1-0.9c-0.4-2.2,0.4-2.8,0.4-2.8c0.6-0.4-0.2-0.9-0.2-0.9c-0.3-1.5-0.1-3,0.5-4.4l0,0l-0.3,0.2l-0.1,0.1l-0.3,0.2
	l-0.3,0.2l-0.1,0.1L16,11l-0.1,0.1l-0.1,0.1l-0.4,0.3c-0.1,0-0.1,0.1-0.1,0.2c0,0.1,0,0.2,0,0.5c0,0.1,0,0.4,0,0.4
	c0,0.4-0.1,1.1-0.2,1.9c0,0.2-0.1,0.6-0.1,0.7c0,0.2,0,0.3,0,0.5c0,0.2-0.1,0.4-0.1,0.5c-0.1,0.7-0.1,1.5,0,2.2
	c0,0.2,0.2,0.4,0.3,0.6c0,0.1,0,0.2,0,0.3v0.1c0.1,0.7,0.3,1.4,0.5,2c0,0.1,0.1,0.1,0.2,0.2c0.1,0.2,0,0.4,0.1,0.6
	c0.1,0.2-0.1,0.1,0,0.2c0.2,0.6,0.5,1.1,0.9,1.6c0.1,0,0.1,0.1,0.2,0.2l0.2,0.3c0,0.1,0.1,0.1,0.1,0.2l0.4,0.7l0.2,0.4l0,0
	c0,0.1,0.1,0.3,0.1,0.4c0.2,0.3,0.3,0.6,0.6,0.9c0,0,0.7,0.2,1.7,0.5C19.1,27,18.3,26,17.9,24.7z"/>
<path class="st1" d="M45.8,12.2c0.1,1.3-0.9,2.4-2.1,2.5c-0.1,0-0.2,0-0.3,0c-1.2,0.1-2.3-0.8-2.4-2.1c0-0.1,0-0.2,0-0.3h1
	c-0.1,0.7,0.4,1.3,1,1.4c0.1,0,0.2,0,0.4,0c0.7,0,1.4-0.5,1.4-1.3c0-0.1,0-0.1,0-0.2V10h-1.7V9h2.7L45.8,12.2z"/>
</svg>
