<svg xmlns="http://www.w3.org/2000/svg" viewBox="0 0 20.85 20.85"><defs><style>.cls-1{fill:#fcb813;}.cls-2{fill:#3b5f93;}</style></defs><title>about</title><g id="Layer_2" data-name="Layer 2"><g id="Layer_1-2" data-name="Layer 1"><path class="cls-1" d="M0,11.25v-.12s0,0,0-.07S0,11,0,11s0,0,0-.06,0-.08,0-.11V10S0,10,0,10s0,0,0-.05,0,0,0-.05,0,0,0-.05,0,0,0-.07V9.62c0-.37.06-.74.13-1.1A10.52,10.52,0,0,1,2.51,3.59,10.52,10.52,0,0,1,7.8.31a8.83,8.83,0,0,1,2-.3,15.35,15.35,0,0,1,1.8,0A9,9,0,0,1,13,.31a10.46,10.46,0,0,1,3.31,1.52,10.92,10.92,0,0,1,1.22,1,10.4,10.4,0,0,1,3.21,6.26,12.54,12.54,0,0,1,.05,2,9.7,9.7,0,0,1-.92,3.75,10.48,10.48,0,0,1-4.49,4.82A10.34,10.34,0,0,1,12,20.78c-.29,0-.57,0-.86.08h-.06s-.06,0-.09,0-.06,0-.09,0h-.17a.16.16,0,0,0-.14,0h-.32a.22.22,0,0,0-.17,0H10s0,0-.06,0h-.1s0,0-.06,0H9.61c-.37,0-.74-.07-1.11-.14a10.41,10.41,0,0,1-5.11-2.54A10.35,10.35,0,0,1,.71,14.33,9.92,9.92,0,0,1,0,11.66,2.48,2.48,0,0,0,0,11.25Z"/><path class="cls-2" d="M8.65,12.74c0-1.25,0-2.51,0-3.76a1.74,1.74,0,0,1,1.1-1.69,1.84,1.84,0,0,1,2.09.5,1.58,1.58,0,0,1,.38,1.08q0,2,0,4c0,1.19,0,2.38,0,3.57a1.78,1.78,0,0,1-2.11,1.78,2.5,2.5,0,0,1-.38-.09,1.49,1.49,0,0,1-1.09-1.53c0-1.29,0-2.58,0-3.88Z"/><path class="cls-2" d="M8.5,4.51a1.92,1.92,0,1,1,1.89,1.93A1.91,1.91,0,0,1,8.5,4.51Z"/></g></g></svg>