<svg xmlns="http://www.w3.org/2000/svg" xmlns:xlink="http://www.w3.org/1999/xlink" viewBox="0 0 8.51 5.11"><defs><style>.cls-1{fill:url(#linear-gradient);}</style><linearGradient id="linear-gradient" x1="4.25" y1="5.11" x2="4.25" gradientUnits="userSpaceOnUse"><stop offset="0" stop-color="#00bec9"/><stop offset="0.85" stop-color="#008789"/></linearGradient></defs><title>arrow</title><g id="Layer_2" data-name="Layer 2"><g id="Layer_1-2" data-name="Layer 1"><path class="cls-1" d="M0,.79A.8.8,0,0,1,.51.08a.8.8,0,0,1,.91.16c.18.16.35.34.52.51L4.19,3c.05.06.08.05.13,0L7,.26A.85.85,0,0,1,8.46.58a.82.82,0,0,1-.21.87L7.7,2,4.9,4.81a.85.85,0,0,1-1.3,0L.28,1.49A.9.9,0,0,1,0,.79Z"/></g></g></svg>