<svg xmlns="http://www.w3.org/2000/svg" xmlns:xlink="http://www.w3.org/1999/xlink" viewBox="0 0 14.04 14.04"><defs><style>.cls-1{fill:url(#Degradado_sin_nombre_10);}</style><linearGradient id="Degradado_sin_nombre_10" y1="7.02" x2="14.04" y2="7.02" gradientUnits="userSpaceOnUse"><stop offset="0" stop-color="#00bec9"/><stop offset="0.85" stop-color="#008789"/></linearGradient></defs><title>bantuan</title><g id="Layer_2" data-name="Layer 2"><g id="Layer_1-2" data-name="Layer 1"><path class="cls-1" d="M12.83,5.11H8.94c0-1.32,0-2.63,0-3.95C8.93.38,7.87-.12,6.61,0c-.91.1-1.5.55-1.51,1.16,0,1.31,0,2.61,0,3.92H1.16C.38,5.11-.12,6.17,0,7.43c.1.91.55,1.5,1.16,1.51H5.1c0,1.31,0,2.62,0,3.93,0,.71.84,1.19,2,1.17s1.85-.5,1.85-1.21q0-1.95,0-3.9h3.93c.71,0,1.19-.84,1.17-2S13.54,5.11,12.83,5.11Z"/></g></g></svg>