<svg xmlns="http://www.w3.org/2000/svg" viewBox="0 0 21.27 24.94"><defs><style>.cls-1{fill:#1ca038;}.cls-2{fill:#167006;}</style></defs><title>call</title><g id="Layer_2" data-name="Layer 2"><g id="Layer_1-2" data-name="Layer 1"><path class="cls-1" d="M13.5,18.76a.58.58,0,0,1-1,.05S5.73,9.85,5.13,9s.15-1.08.15-1.08l1.58-.31L3.77.52S0,1.57,0,3.43A21.79,21.79,0,0,0,1.47,9.55,28.06,28.06,0,0,0,8,19.75a23.05,23.05,0,0,0,8.48,5c2.77,1,3.83-2.64,3.83-2.64l-6.16-4.75A4.08,4.08,0,0,1,13.5,18.76Z"/><path class="cls-2" d="M8.54,5.82S6.54.92,6.19.3,4.35.2,4.35.2L7.49,7.47S8.9,6.7,8.54,5.82Z"/><path class="cls-2" d="M16.45,16.13c-.64-.49-1.94.66-1.94.66l6.18,4.79s1.15-1.32.2-2.05Z"/></g></g></svg>