<svg xmlns="http://www.w3.org/2000/svg" xmlns:xlink="http://www.w3.org/1999/xlink" viewBox="0 0 16.77 16.77"><defs><style>.cls-1{fill:url(#Degradado_sin_nombre_10);}</style><linearGradient id="Degradado_sin_nombre_10" x1="3.67" y1="8.39" x2="28.44" y2="8.39" gradientUnits="userSpaceOnUse"><stop offset="0" stop-color="#00bec9"/><stop offset="0.85" stop-color="#008789"/></linearGradient></defs><title>dashboard</title><g id="Layer_2" data-name="Layer 2"><g id="Layer_1-2" data-name="Layer 1"><path class="cls-1" d="M16.77,9.6A.71.71,0,0,1,16,10a.63.63,0,0,1-.56-.59c0-.1,0-.21,0-.33H13.88a5.52,5.52,0,0,1-1.11,2.69l1.09,1.09a3.36,3.36,0,0,1,.54-.31.63.63,0,0,1,.69.3.57.57,0,0,1,0,.7c-.5.53-1,1.05-1.55,1.55a.6.6,0,0,1-.86-.14.63.63,0,0,1,0-.86c.06-.07.14-.14.21-.2l-1.13-1.12a5.5,5.5,0,0,1-2.68,1.1v1.58H9.4A.63.63,0,0,1,10,16a.66.66,0,0,1-.38.77.51.51,0,0,1-.17,0H7.37a.6.6,0,0,1-.31-.11.69.69,0,0,1-.21-.77.61.61,0,0,1,.6-.44h.27V13.87A5.51,5.51,0,0,1,5,12.77L4,13.86a3.31,3.31,0,0,1,.31.53.63.63,0,0,1-.29.69.57.57,0,0,1-.7,0c-.54-.5-1.06-1-1.56-1.56a.6.6,0,0,1,.15-.84.63.63,0,0,1,.86,0c.07.06.14.14.22.23l.56-.56.57-.56A5.54,5.54,0,0,1,2.94,9.09H1.35c0,.08,0,.16,0,.24A.63.63,0,0,1,.74,10,.63.63,0,0,1,0,9.38q0-1,0-1.95a.63.63,0,0,1,.73-.62.63.63,0,0,1,.61.67c0,.08,0,.15,0,.24H2.94A5.5,5.5,0,0,1,4,5L3,4a3.35,3.35,0,0,1-.54.31A.63.63,0,0,1,1.72,4a.63.63,0,0,1,0-.71,1.07,1.07,0,0,1,.13-.16L3.09,1.84a.64.64,0,0,1,.68-.21.7.7,0,0,1,.51.58.6.6,0,0,1-.18.52,2.59,2.59,0,0,1-.2.18L5,4A5.5,5.5,0,0,1,7.72,2.94V1.35H7.49A.63.63,0,0,1,6.81.73.63.63,0,0,1,7.44,0q1,0,1.93,0A.63.63,0,0,1,10,.74a.63.63,0,0,1-.66.62H9.09V2.94A5.49,5.49,0,0,1,11.76,4L12.89,2.9l-.16-.15a.64.64,0,0,1,0-.93.64.64,0,0,1,.95,0c.21.2.41.41.61.61L15,3.1a.65.65,0,0,1,0,1,.64.64,0,0,1-1,0,1.58,1.58,0,0,1-.12-.15L12.76,5a5.51,5.51,0,0,1,1.11,2.69h1.58c0-.08,0-.17,0-.25a.63.63,0,0,1,.48-.64.69.69,0,0,1,.78.31l.05.08ZM8.66,7.38A1.44,1.44,0,0,0,7.21,5.92,1.45,1.45,0,1,0,8.66,7.38Zm.06,2.21a.89.89,0,1,0,.89-.88A.87.87,0,0,0,8.71,9.59Z"/></g></g></svg>