<svg xmlns="http://www.w3.org/2000/svg" xmlns:xlink="http://www.w3.org/1999/xlink" viewBox="0 0 27.44 34.5"><defs><style>.cls-1{fill:#fffdfd;stroke-miterlimit:10;stroke-width:0.5px;stroke:url(#radial-gradient);}.cls-2{fill:#008789;}.cls-3{fill:url(#Degradado_sin_nombre_69);}.cls-4{fill:url(#Degradado_sin_nombre_69-2);}.cls-5{fill:url(#Degradado_sin_nombre_69-3);}</style><radialGradient id="radial-gradient" cx="13.72" cy="12.72" r="13.23" gradientUnits="userSpaceOnUse"><stop offset="0" stop-color="#00bec9"/><stop offset="0.58" stop-color="#009ca1"/><stop offset="1" stop-color="#008789"/></radialGradient><linearGradient id="Degradado_sin_nombre_69" x1="7.03" y1="14.7" x2="23.11" y2="14.7" gradientUnits="userSpaceOnUse"><stop offset="0.01" stop-color="#ffda00"/><stop offset="1" stop-color="#ffa910"/></linearGradient><linearGradient id="Degradado_sin_nombre_69-2" x1="13.01" y1="7.69" x2="19.44" y2="7.69" xlink:href="#Degradado_sin_nombre_69"/><linearGradient id="Degradado_sin_nombre_69-3" x1="3.78" y1="17.63" x2="9.88" y2="17.63" xlink:href="#Degradado_sin_nombre_69"/></defs><title>donasi</title><g id="Layer_2" data-name="Layer 2"><g id="Layer_1-2" data-name="Layer 1"><rect class="cls-1" x="0.25" y="0.25" width="26.94" height="24.94" rx="5.69" ry="5.69"/><path class="cls-2" d="M2.05,29a10.16,10.16,0,0,1,1.6-.11,3.35,3.35,0,0,1,2.25.64,2.46,2.46,0,0,1,.86,2,2.85,2.85,0,0,1-.86,2.19,3.67,3.67,0,0,1-2.49.75,10.88,10.88,0,0,1-1.35-.07Zm1,4.66a3.75,3.75,0,0,0,.55,0,1.88,1.88,0,0,0,2.08-2.11,1.75,1.75,0,0,0-2-1.91,3.23,3.23,0,0,0-.69.06Z"/><path class="cls-2" d="M11.37,32.39a2,2,0,0,1-2,2.11,1.92,1.92,0,0,1-2-2,2,2,0,0,1,2.06-2.11A1.91,1.91,0,0,1,11.37,32.39Zm-3,0c0,.77.38,1.35,1,1.35s1-.56,1-1.36c0-.62-.28-1.33-1-1.33S8.37,31.77,8.37,32.43Z"/><path class="cls-2" d="M12.19,31.62c0-.46,0-.84,0-1.18H13l0,.6h0a1.44,1.44,0,0,1,1.27-.69c.69,0,1.41.45,1.41,1.71v2.36h-1V32.17c0-.57-.21-1-.76-1a.84.84,0,0,0-.78.59,1,1,0,0,0,0,.33v2.33h-1Z"/><path class="cls-2" d="M19.1,34.41,19,34h0a1.48,1.48,0,0,1-1.18.53,1.18,1.18,0,0,1-1.25-1.18c0-1,.89-1.51,2.36-1.5v-.07c0-.26-.11-.69-.81-.69a2.11,2.11,0,0,0-1.07.29l-.2-.65a2.87,2.87,0,0,1,1.44-.35A1.49,1.49,0,0,1,20,32v1.44a6.36,6.36,0,0,0,.06,1ZM19,32.47c-.71,0-1.39.14-1.39.74a.53.53,0,0,0,.57.57.81.81,0,0,0,.78-.55A.72.72,0,0,0,19,33Z"/><path class="cls-2" d="M21,33.49a2.23,2.23,0,0,0,1,.29c.44,0,.64-.18.64-.44s-.16-.41-.65-.58c-.78-.27-1.1-.69-1.09-1.16a1.33,1.33,0,0,1,1.5-1.25,2.34,2.34,0,0,1,1.05.24l-.2.71a1.77,1.77,0,0,0-.84-.23c-.36,0-.55.17-.55.42s.19.38.69.55c.72.26,1.05.63,1.06,1.22S23,34.49,22,34.49a2.55,2.55,0,0,1-1.21-.28Z"/><path class="cls-2" d="M25.49,29.33a.56.56,0,1,1-.56-.55A.53.53,0,0,1,25.49,29.33Zm-1.07,5.09v-4h1v4Z"/><path class="cls-3" d="M13,14.68a14,14,0,0,0,4.74.09c.75-.16,1.4-.54,1.29-1.53a.4.4,0,0,1,.21-.44,14.51,14.51,0,0,1,2.62-1.32.85.85,0,0,1,1.1.27.75.75,0,0,1-.17,1.06,16.52,16.52,0,0,1-6.36,3.92,8,8,0,0,1-2.45.17A5.54,5.54,0,0,0,10.46,18c-.27.19-.38.16-.57-.1q-1.33-1.78-2.7-3.53a.43.43,0,0,1,0-.68,8.24,8.24,0,0,1,2.4-1.94,3.07,3.07,0,0,1,2.79-.14,9.36,9.36,0,0,0,4.83.93,1.7,1.7,0,0,1,.48,0c.36.08.71.2.76.64a1,1,0,0,1-.53,1,2.07,2.07,0,0,1-.92.24Z"/><path class="cls-4" d="M16.26,4.48a3.22,3.22,0,1,0,3.19,3.24A3.24,3.24,0,0,0,16.26,4.48Zm.59,4.91c-.23.09-.42.17-.37.47s-.12.25-.3.26-.3-.08-.27-.28-.13-.3-.35-.34c-.72-.12-.73-.15-.44-.86a2.46,2.46,0,0,0,1,.22c.21,0,.4-.08.46-.3s-.11-.36-.3-.45-.53-.21-.78-.34a.94.94,0,0,1-.59-.88A1,1,0,0,1,15.57,6c.23-.1.42-.18.37-.48s.1-.21.24-.2.35-.07.34.14c0,.36.17.4.45.43s.43.1.35.44-.22.29-.49.23-.8-.25-.93.2.39.41.65.56c.11.06.23.1.34.15a1,1,0,0,1,.65,1A1,1,0,0,1,16.85,9.39Z"/><path class="cls-5" d="M9.74,18.78,6.49,14.52a.42.42,0,0,0-.68-.1L4,15.78a.41.41,0,0,0-.1.68l3.26,4.25a.52.52,0,0,0,.4.25.93.93,0,0,0,.18-.09l2-1.49C10,19.21,9.91,19,9.74,18.78Zm-1.62.66a.49.49,0,0,1-.49-.57.47.47,0,0,1,.53-.48c.35,0,.49.22.54.53S8.45,19.46,8.12,19.44Z"/></g></g></svg>