<svg xmlns="http://www.w3.org/2000/svg" viewBox="0 0 30.46 30.46"><defs><style>.cls-1{fill:#f9c5c5;opacity:0.5;}.cls-2{fill:#d95b75;}</style></defs><title>fail</title><g id="Layer_2" data-name="Layer 2"><g id="Layer_1-2" data-name="Layer 1"><circle class="cls-1" cx="15.23" cy="15.23" r="15.23"/><path class="cls-2" d="M19,21.76l-2.46-2.81a1.88,1.88,0,0,0-2.7,0l-2.49,2.82a1.8,1.8,0,0,1-1.35.57H9.91C8.51,22.33,7.72,21,8.57,20L12.27,16a1.25,1.25,0,0,0,0-1.72L8.82,10.41c-.84-.94,0-2.28,1.34-2.28h.15a1.81,1.81,0,0,1,1.35.57l2.28,2.57a1.88,1.88,0,0,0,2.7,0L18.91,8.7a1.81,1.81,0,0,1,1.35-.57h0c1.4,0,2.19,1.35,1.34,2.29L18.15,14.2a1.25,1.25,0,0,0,0,1.73L21.88,20c.85.94.06,2.29-1.34,2.29h-.19A1.8,1.8,0,0,1,19,21.76Z"/></g></g></svg>