
<svg xmlns="http://www.w3.org/2000/svg" xmlns:xlink="http://www.w3.org/1999/xlink" viewBox="0 0 27.44 36.12"><defs><style>.cls-1{fill:#fffdfd;stroke-miterlimit:10;stroke-width:0.5px;stroke:url(#radial-gradient);}.cls-2{fill:#008789;}.cls-3{fill:url(#Degradado_sin_nombre_69);}</style><radialGradient id="radial-gradient" cx="13.72" cy="12.72" r="13.23" gradientUnits="userSpaceOnUse"><stop offset="0" stop-color="#00bec9"/><stop offset="0.58" stop-color="#009ca1"/><stop offset="1" stop-color="#008789"/></radialGradient><linearGradient id="Degradado_sin_nombre_69" x1="4.48" y1="12.72" x2="22.96" y2="12.72" gradientTransform="matrix(-0.16, -0.99, 0.99, -0.16, 3.33, 28.28)" gradientUnits="userSpaceOnUse"><stop offset="0.01" stop-color="#ffda00"/><stop offset="1" stop-color="#ffa910"/></linearGradient></defs><title>gejala</title><g id="Layer_2" data-name="Layer 2"><g id="Layer_1-2" data-name="Layer 1"><rect class="cls-1" x="0.25" y="0.25" width="26.94" height="24.94" rx="5.69" ry="5.69"/><path class="cls-2" d="M7.56,34.16a5.45,5.45,0,0,1-1.77.31,3,3,0,0,1-2.16-.74,2.72,2.72,0,0,1-.77-2,2.8,2.8,0,0,1,3.06-2.86,3.64,3.64,0,0,1,1.46.26l-.22.81a3,3,0,0,0-1.25-.24,1.84,1.84,0,0,0-2,2,1.82,1.82,0,0,0,1.91,2,1.94,1.94,0,0,0,.76-.11V32.17h-1v-.79H7.56Z"/><path class="cls-2" d="M9.31,32.71a1.08,1.08,0,0,0,1.22,1,3,3,0,0,0,1.1-.18l.15.69a3.75,3.75,0,0,1-1.39.25,1.88,1.88,0,0,1-2-2,2,2,0,0,1,1.94-2.14A1.73,1.73,0,0,1,12,32.28a2.44,2.44,0,0,1,0,.42Zm1.75-.7a.86.86,0,0,0-.82-1,1,1,0,0,0-.92,1Z"/><path class="cls-2" d="M11.93,35.34a1.13,1.13,0,0,0,.75-.29c.19-.2.26-.51.26-1.38V30.44h1V34a2.24,2.24,0,0,1-.51,1.7,2.11,2.11,0,0,1-1.4.46Zm2.07-6a.53.53,0,0,1-.57.54.53.53,0,0,1-.55-.54.53.53,0,0,1,.56-.55A.52.52,0,0,1,14,29.33Z"/><path class="cls-2" d="M17.25,34.41,17.19,34h0A1.48,1.48,0,0,1,16,34.5a1.18,1.18,0,0,1-1.25-1.18c0-1,.89-1.51,2.36-1.5v-.07c0-.26-.11-.69-.81-.69a2.11,2.11,0,0,0-1.07.29L15,30.7a2.87,2.87,0,0,1,1.44-.35A1.49,1.49,0,0,1,18.1,32v1.44a6.36,6.36,0,0,0,.06,1Zm-.13-1.94c-.71,0-1.39.14-1.39.74a.53.53,0,0,0,.57.57.81.81,0,0,0,.78-.55.72.72,0,0,0,0-.22Z"/><path class="cls-2" d="M19.16,28.62h1v5.8h-1Z"/><path class="cls-2" d="M23.5,34.41,23.43,34h0a1.48,1.48,0,0,1-1.18.53A1.18,1.18,0,0,1,21,33.32c0-1,.89-1.51,2.36-1.5v-.07c0-.26-.11-.69-.81-.69a2.11,2.11,0,0,0-1.07.29l-.2-.65a2.87,2.87,0,0,1,1.44-.35A1.49,1.49,0,0,1,24.35,32v1.44a6.36,6.36,0,0,0,.06,1Zm-.13-1.94c-.71,0-1.39.14-1.39.74a.53.53,0,0,0,.57.57.81.81,0,0,0,.78-.55.72.72,0,0,0,0-.22Z"/><path class="cls-3" d="M10.21,13a3.69,3.69,0,0,1,0-1.17c0-.1,0-.12-.1-.14L7.8,11.25a.15.15,0,0,0-.15.06.5.5,0,1,1-.32-.85.46.46,0,0,1,.41.27.23.23,0,0,0,.19.14l2.26.42c.09,0,.12,0,.15-.09a3.62,3.62,0,0,1,.84-1.42c.08-.08.05-.13,0-.2L9.4,7.39a.14.14,0,0,0-.19,0A.94.94,0,0,1,8.14,7a1,1,0,1,1,1.57-.12.16.16,0,0,0,0,.23l1.74,2.17c.06.07.1.09.18,0a3.61,3.61,0,0,1,2.14-.75c.09,0,.1,0,.1-.12q0-1.1,0-2.21c0-.47,0-.95,0-1.42a.24.24,0,0,0-.17-.27.65.65,0,0,1-.27-.91.66.66,0,0,1,.94-.22.65.65,0,0,1,.16.94s-.06.09-.1.11-.18.23-.17.4q0,1.8.06,3.6c0,.08,0,.12.11.14a3.23,3.23,0,0,1,.89.24c.08,0,.11,0,.14-.06q.41-1,.84-1.94c0-.08,0-.12,0-.17a1.19,1.19,0,0,1,.25-2,1.2,1.2,0,1,1,.31,2.27.12.12,0,0,0-.15.08l-.84,2c0,.08,0,.13.05.18a3.6,3.6,0,0,1,1.4,1.56c0,.09.08.11.18.07l1.85-.61c.08,0,.14,0,.14-.16a.84.84,0,0,1,.8-.86.87.87,0,0,1,.44,1.64.85.85,0,0,1-1-.2.16.16,0,0,0-.2-.06l-1.85.61c-.11,0-.14.08-.11.19a3.47,3.47,0,0,1,.06,1.73c0,.09,0,.13.09.15l4.25.84a.22.22,0,0,0,.22-.06.48.48,0,0,1,.57-.07.5.5,0,1,1-.69.64.18.18,0,0,0-.15-.12l-4.28-.84c-.12,0-.18,0-.22.12a2.84,2.84,0,0,1-.39.73c0,.07-.06.11,0,.17l2,2a.26.26,0,0,0,.2.08.59.59,0,0,1,.56.47.61.61,0,0,1-.3.66.6.6,0,0,1-.7-.09.58.58,0,0,1-.1-.72.13.13,0,0,0,0-.2l-1.89-1.87c-.07-.07-.11-.06-.17,0a3.53,3.53,0,0,1-1.27.85c-.09,0-.09.07-.07.16q.43,1.63.84,3.27c0,.12.06.18.21.19a1.06,1.06,0,0,1,.94.7,1.07,1.07,0,0,1-.25,1.21,1.06,1.06,0,0,1-1.14.28,1.13,1.13,0,0,1-.2-2.07c.07,0,.09-.07.07-.15L15,16.78c-.06-.24-.13-.48-.18-.72,0-.08,0-.11-.13-.09a3.42,3.42,0,0,1-2.09-.15c-.16-.07-.23,0-.29.12s-.21.4-.32.6a.13.13,0,0,0,0,.19,1.06,1.06,0,0,1-.6,1.8,1,1,0,0,1-1-.46,1.07,1.07,0,0,1,0-1.2,1,1,0,0,1,1.07-.44.14.14,0,0,0,.19-.09c.11-.23.23-.45.35-.67s0-.12,0-.17a3.64,3.64,0,0,1-1.46-1.65c0-.08-.07-.09-.15-.06l-3,1-.86.3a.15.15,0,0,0-.13.14.58.58,0,0,1-.6.49.6.6,0,0,1-.17-1.17.56.56,0,0,1,.57.12.18.18,0,0,0,.2,0l3.46-1.2.41-.14c.09,0,.09-.07.07-.14S10.23,13.09,10.21,13Z"/></g></g></svg>