
<svg xmlns="http://www.w3.org/2000/svg" xmlns:xlink="http://www.w3.org/1999/xlink" viewBox="0 0 27.44 34.5"><defs><style>.cls-1{fill:#fffdfd;stroke-miterlimit:10;stroke-width:0.5px;stroke:url(#radial-gradient);}.cls-2{fill:#008789;}.cls-3{fill:url(#Degradado_sin_nombre_69);}</style><radialGradient id="radial-gradient" cx="13.72" cy="12.72" r="13.23" gradientUnits="userSpaceOnUse"><stop offset="0" stop-color="#00bec9"/><stop offset="0.58" stop-color="#009ca1"/><stop offset="1" stop-color="#008789"/></radialGradient><linearGradient id="Degradado_sin_nombre_69" x1="5.61" y1="12.72" x2="21.83" y2="12.72" gradientUnits="userSpaceOnUse"><stop offset="0.01" stop-color="#ffda00"/><stop offset="1" stop-color="#ffa910"/></linearGradient></defs><title>global</title><g id="Layer_2" data-name="Layer 2"><g id="Layer_1-2" data-name="Layer 1"><rect class="cls-1" x="0.25" y="0.25" width="26.94" height="24.94" rx="5.69" ry="5.69"/><path class="cls-2" d="M7.11,34.16a5.45,5.45,0,0,1-1.77.31,3,3,0,0,1-2.16-.74,2.72,2.72,0,0,1-.77-2,2.8,2.8,0,0,1,3.06-2.86,3.64,3.64,0,0,1,1.46.26l-.22.81a3,3,0,0,0-1.25-.24,1.84,1.84,0,0,0-2,2,1.82,1.82,0,0,0,1.91,2,1.94,1.94,0,0,0,.76-.11V32.17h-1v-.79H7.11Z"/><path class="cls-2" d="M8.13,28.62h1v5.8h-1Z"/><path class="cls-2" d="M14,32.39a2,2,0,0,1-2,2.11,1.92,1.92,0,0,1-2-2A2,2,0,0,1,12,30.35,1.91,1.91,0,0,1,14,32.39Zm-3,0c0,.77.38,1.35,1,1.35s1-.56,1-1.36c0-.62-.28-1.33-1-1.33S11,31.77,11,32.43Z"/><path class="cls-2" d="M14.8,34.41c0-.27,0-.71,0-1.12V28.62h1V31h0a1.44,1.44,0,0,1,1.27-.64c1,0,1.67.81,1.66,2A1.9,1.9,0,0,1,17,34.5a1.37,1.37,0,0,1-1.26-.69h0l0,.6Zm1-1.64a1.09,1.09,0,0,0,0,.24.93.93,0,0,0,.89.7c.63,0,1-.51,1-1.31s-.33-1.27-1-1.27a.94.94,0,0,0-.89.73,1.24,1.24,0,0,0,0,.26Z"/><path class="cls-2" d="M21.85,34.41,21.78,34h0a1.48,1.48,0,0,1-1.18.53,1.18,1.18,0,0,1-1.25-1.18c0-1,.89-1.51,2.36-1.5v-.07c0-.26-.11-.69-.81-.69a2.11,2.11,0,0,0-1.07.29l-.2-.65a2.87,2.87,0,0,1,1.44-.35A1.49,1.49,0,0,1,22.7,32v1.44a6.36,6.36,0,0,0,.06,1Zm-.13-1.94c-.71,0-1.39.14-1.39.74a.53.53,0,0,0,.57.57.81.81,0,0,0,.78-.55.72.72,0,0,0,0-.22Z"/><path class="cls-2" d="M23.76,28.62h1v5.8h-1Z"/><path class="cls-3" d="M13.74,4.63a8.09,8.09,0,1,0,8.09,8.1A8.11,8.11,0,0,0,13.74,4.63Zm-.91,1.25.27-.13c.07,0,.1,0,.1.07,0,.71,0,1.43,0,2.14s0,1.43,0,2.14c0,.06,0,.09-.08.09-.87,0-1.74,0-2.6-.11-.08,0-.1,0-.08-.11A8.69,8.69,0,0,1,11.6,7.1,3.59,3.59,0,0,1,12.83,5.88ZM7.36,9.57a7.13,7.13,0,0,1,3.78-3.45.13.13,0,0,1,.11,0l-.15.19A8.76,8.76,0,0,0,9.71,9q-.15.46-.26.93c0,.06,0,.08-.09.07a19.62,19.62,0,0,1-1.95-.31C7.34,9.65,7.33,9.63,7.36,9.57ZM7,15.15a7.13,7.13,0,0,1-.13-4.48c0-.07,0-.08.11-.06A16.78,16.78,0,0,0,9.13,11c.13,0,.12,0,.11.14a12.55,12.55,0,0,0,0,2.9c0,.28.06.55.11.82,0,.08,0,.09-.08.1-.49.05-1,.12-1.47.21-.18,0-.36.06-.53.11S7.08,15.24,7,15.15Zm3.81,4.06a7.12,7.12,0,0,1-3.26-2.9c-.06-.1-.06-.1.06-.12.6-.12,1.2-.2,1.8-.27.08,0,.09,0,.11.09a9.52,9.52,0,0,0,1.16,2.62,7.25,7.25,0,0,0,.47.65s.05,0,0,.09A2.72,2.72,0,0,1,10.86,19.21Zm2.34.49v0a2.33,2.33,0,0,1-.83-.48,5.12,5.12,0,0,1-1.21-1.68,9.49,9.49,0,0,1-.61-1.65c0-.07,0-.09.07-.1.84-.06,1.67-.09,2.51-.1.05,0,.08,0,.08.07Q13.2,17.74,13.2,19.69Zm0-5.09c0,.08,0,.1-.1.1q-1.35,0-2.69.11c-.08,0-.1,0-.11-.09a13.2,13.2,0,0,1-.12-3c0-.18,0-.37.06-.55s0-.09.1-.08q.89.07,1.79.09l1,0c.09,0,.12,0,.12.12,0,.55,0,1.1,0,1.65S13.2,14.06,13.2,14.61Zm7.15-4.4a.11.11,0,0,1,0-.11S20.37,10.17,20.35,10.21Zm-2.87-3.5A7.1,7.1,0,0,1,20,9.48c.06.11.06.11-.06.14A14.86,14.86,0,0,1,18.1,10c-.08,0-.09,0-.1-.09A10.43,10.43,0,0,0,17,7a8.73,8.73,0,0,0-.46-.77A5.48,5.48,0,0,1,17.48,6.71Zm-3.27-1s0,0,0-.05a2.35,2.35,0,0,1,.94.56A5.27,5.27,0,0,1,16.33,8,9.83,9.83,0,0,1,17,10c0,.07,0,.08-.07.09q-.94.07-1.89.09l-.72,0c-.06,0-.09,0-.09-.08Q14.21,7.93,14.21,5.76Zm0,5.53c0-.07,0-.1.09-.1.72,0,1.44,0,2.16-.07l.62,0c.06,0,.08,0,.09.07a13.81,13.81,0,0,1,0,3c0,.19-.05.38-.07.57s0,.08-.09.07c-.9-.07-1.8-.11-2.7-.11-.08,0-.1,0-.1-.1,0-.55,0-1.11,0-1.66S14.21,11.84,14.21,11.29Zm.33,8.32a1.27,1.27,0,0,1-.33.12v-.1q0-1.9,0-3.8c0-.09,0-.12.12-.11.82,0,1.64,0,2.46.1.06,0,.11,0,.08.09a8.23,8.23,0,0,1-1.08,2.52A3.36,3.36,0,0,1,14.54,19.61Zm5.3-3.29a7.13,7.13,0,0,1-3.23,2.88l-.06,0a8.06,8.06,0,0,0,1-1.91A10.42,10.42,0,0,0,17.9,16c0-.07,0-.09.11-.08a16.78,16.78,0,0,1,1.78.3C19.85,16.24,19.89,16.24,19.84,16.31Zm.52-1.08c0,.07-.05.09-.13.07a14.29,14.29,0,0,0-2-.36c-.1,0-.11,0-.1-.13a15.1,15.1,0,0,0,.14-2.63c0-.37,0-.74-.08-1.11,0-.09,0-.11.1-.12a13.89,13.89,0,0,0,2-.38l.14,0a.49.49,0,0,1,0-.18.33.33,0,0,1,.07.19,7.08,7.08,0,0,1-.11,4.7Z"/></g></g></svg>