<svg xmlns="http://www.w3.org/2000/svg" viewBox="0 0 23.28 21.13"><defs><style>.cls-1{fill:#fcb813;}.cls-2{fill:#ffd300;}</style></defs><title>hand</title><g id="Layer_2" data-name="Layer 2"><g id="Layer_1-2" data-name="Layer 1"><path class="cls-1" d="M14.44,8.66s.1-5.81-1.18-5.91c-1.1-.09-.61,1.8-.86,3.15a37.23,37.23,0,0,0-1,5.31,4.82,4.82,0,0,1-.16-1.7S10,11.14,8.92,12.58s-2.71,3.19-2.85,3.91,6.8,5.09,7.82,4.6,2.77-6.39,3.82-7.91S22.56,6.45,22.91,6c.49-.7.44-1.06.16-1.29S22.47,4.42,22,5L18.53,9.08l3.72-5.56c.35-.51.24-.9,0-1.13s-.73-.23-1.12.23c-.22.26-3.9,4.91-3.9,4.91l3.15-5.47c.36-.63.33-1.12-.12-1.38s-.78-.25-1.29.6c-.38.63-3.25,4.93-3.25,4.93s2.22-4.57,2.4-4.91c.33-.62.14-1-.16-1.19-.52-.3-.87,0-1.2.54s-2.17,3.7-2.17,3.7A13.29,13.29,0,0,1,14.44,8.66Z"/><path class="cls-2" d="M8.84,8.66S8.75,2.84,10,2.74c1.1-.09.61,1.8.86,3.15a37.22,37.22,0,0,1,1,5.31A4.82,4.82,0,0,0,12,9.5s1.23,1.64,2.34,3.08,2.71,3.19,2.85,3.91-6.8,5.09-7.82,4.6-2.77-6.39-3.82-7.91S.72,6.45.37,6C-.12,5.27-.07,4.9.21,4.67s.6-.25,1.05.29L4.76,9.08,1,3.52c-.35-.51-.24-.9,0-1.13s.73-.23,1.12.23c.22.26,3.9,4.91,3.9,4.91L2.94,2.07C2.58,1.43,2.61,1,3.06.69s.78-.25,1.29.6c.38.63,3.25,4.93,3.25,4.93S5.38,1.65,5.2,1.31C4.87.69,5.06.3,5.36.12c.52-.3.87,0,1.2.54s2.17,3.7,2.17,3.7A13.29,13.29,0,0,0,8.84,8.66Z"/></g></g></svg>