<svg xmlns="http://www.w3.org/2000/svg" viewBox="0 0 20.35 20.62"><defs><style>.cls-1{fill:#f16522;}.cls-2{fill:#b99664;}.cls-3{fill:#c5a87d;}.cls-4{fill:#93805e;}.cls-5{fill:#6dcef5;}</style></defs><title>home</title><g id="Layer_2" data-name="Layer 2"><g id="Layer_1-2" data-name="Layer 1"><polygon class="cls-1" points="10.17 0 5.34 4.69 5.19 3.14 2.74 3.14 2.51 7.43 0 9.86 20.35 9.86 10.17 0"/><polygon class="cls-2" points="17.01 20.62 18.22 9.86 10.17 2.05 2.13 9.86 3.33 20.62 17.01 20.62"/><path class="cls-3" d="M15.54,7.25V20.62H17l1.2-10.77ZM4.81,20.62H7.49v-16L4.81,7.25Zm5.36,0h2.68v-16L10.17,2Z"/><path class="cls-4" d="M9.27,19.75H5.72V14.19H9.27Z"/><rect class="cls-2" x="6.06" y="14.53" width="2.87" height="4.88"/><rect class="cls-4" x="5.43" y="19.41" width="4.14" height="0.61"/><rect class="cls-4" x="5.09" y="20.02" width="4.82" height="0.61"/><circle class="cls-4" cx="8.43" cy="17.16" r="0.37"/><path class="cls-4" d="M14.87,12H9.27V8h5.6Z"/><rect class="cls-5" x="9.61" y="8.37" width="4.92" height="3.24"/><rect class="cls-4" x="11.9" y="8.18" width="0.34" height="3.62"/><rect class="cls-4" x="9.38" y="9.83" width="5.38" height="0.34"/></g></g></svg>