<svg xmlns="http://www.w3.org/2000/svg" viewBox="0 0 11.67 14.83"><defs><style>.cls-1{fill:#b2b2b2;}.cls-2{fill:#fff;}</style></defs><title>informasi_off</title><g id="Layer_2" data-name="Layer 2"><g id="Layer_1-2" data-name="Layer 1"><path class="cls-1" d="M0,7.39Q0,4.2,0,1A.89.89,0,0,1,1,0H6.53c.16,0,.2,0,.2.2,0,.82,0,1.65,0,2.47A2.18,2.18,0,0,0,9,4.94h2.47c.14,0,.2,0,.2.18q0,4.4,0,8.8a.87.87,0,0,1-.91.91H.91A.87.87,0,0,1,0,13.91Q0,10.65,0,7.39Z"/><path class="cls-1" d="M10.65,3.64c-.58,0-1.19,0-1.8,0A.85.85,0,0,1,8,2.81C8,2.2,8,1.59,8,1Z"/><path class="cls-2" d="M5.83,7.28H2.41a.65.65,0,1,1,0-1.3H9.24a.65.65,0,1,1,0,1.3Z"/><path class="cls-2" d="M5.83,10H2.38a.65.65,0,1,1,0-1.3H9.29a.65.65,0,1,1,0,1.3Z"/><path class="cls-2" d="M5.81,12.66H2.43a.66.66,0,0,1-.69-.47.65.65,0,0,1,.59-.82H9.22a.65.65,0,0,1,.72.63.64.64,0,0,1-.69.67H5.81Z"/></g></g></svg>