<svg xmlns="http://www.w3.org/2000/svg" viewBox="0 0 24.85 20.07"><defs><style>.cls-1{fill:#3b79c4;}.cls-2{fill:#3b5f93;}</style></defs><title>msg</title><g id="Layer_2" data-name="Layer 2"><g id="Layer_1-2" data-name="Layer 1"><path class="cls-1" d="M23.21,4.84H17.93V2.08A2.08,2.08,0,0,0,15.85,0H2.08A2.08,2.08,0,0,0,0,2.08V12.89A2.08,2.08,0,0,0,2.08,15H3.86v3.52a.78.78,0,0,0,.78.79A.78.78,0,0,0,5.21,19h0L9.26,15h1.42V15a1.64,1.64,0,0,0,1.64,1.64h5.21l3.2,3.21h0a.62.62,0,0,0,1.06-.43V16.67h1.41A1.64,1.64,0,0,0,24.85,15V6.48A1.64,1.64,0,0,0,23.21,4.84Zm-7.44,8.64H9a.75.75,0,0,0-.52.22h0L5.35,16.82V14.19a.74.74,0,0,0-.74-.71H2.16a.68.68,0,0,1-.68-.68V2.17a.68.68,0,0,1,.68-.68h13.6a.68.68,0,0,1,.68.68V12.8h0A.68.68,0,0,1,15.77,13.48Z"/><rect class="cls-2" x="3.37" y="3.37" width="11.18" height="1.51"/><rect class="cls-2" x="3.37" y="6.73" width="11.18" height="1.51"/><rect class="cls-2" x="3.37" y="10.08" width="11.18" height="1.51"/></g></g></svg>