
<svg xmlns="http://www.w3.org/2000/svg" xmlns:xlink="http://www.w3.org/1999/xlink" viewBox="0 0 27.44 34.5"><defs><style>.cls-1{fill:#fffdfd;stroke-miterlimit:10;stroke-width:0.5px;stroke:url(#radial-gradient);}.cls-2{fill:#008789;}.cls-3{fill:url(#Degradado_sin_nombre_69);}</style><radialGradient id="radial-gradient" cx="13.72" cy="12.72" r="13.23" gradientUnits="userSpaceOnUse"><stop offset="0" stop-color="#00bec9"/><stop offset="0.58" stop-color="#009ca1"/><stop offset="1" stop-color="#008789"/></radialGradient><linearGradient id="Degradado_sin_nombre_69" x1="7.49" y1="12.72" x2="19.95" y2="12.72" gradientUnits="userSpaceOnUse"><stop offset="0.01" stop-color="#ffda00"/><stop offset="1" stop-color="#ffa910"/></linearGradient></defs><title>periksa</title><g id="Layer_2" data-name="Layer 2"><g id="Layer_1-2" data-name="Layer 1"><rect class="cls-1" x="0.25" y="0.25" width="26.94" height="24.94" rx="5.69" ry="5.69"/><path class="cls-2" d="M1.66,29a8.68,8.68,0,0,1,1.53-.11,2.49,2.49,0,0,1,1.63.45,1.55,1.55,0,0,1,.54,1.22,1.67,1.67,0,0,1-.47,1.25,2.42,2.42,0,0,1-1.74.59,2.85,2.85,0,0,1-.49,0v2.07h-1Zm1,2.56a2.05,2.05,0,0,0,.49,0c.75,0,1.21-.37,1.21-1s-.42-.94-1.12-.94a2.79,2.79,0,0,0-.58,0Z"/><path class="cls-2" d="M6.69,32.71a1.08,1.08,0,0,0,1.22,1A3,3,0,0,0,9,33.56l.15.69a3.75,3.75,0,0,1-1.39.25,1.88,1.88,0,0,1-2-2,2,2,0,0,1,1.94-2.14,1.73,1.73,0,0,1,1.71,1.93,2.44,2.44,0,0,1,0,.42ZM8.44,32a.86.86,0,0,0-.82-1,1,1,0,0,0-.92,1Z"/><path class="cls-2" d="M10.19,31.72c0-.54,0-.92,0-1.28H11l0,.76h0a1.19,1.19,0,0,1,1.08-.85,1,1,0,0,1,.24,0v.95a1.38,1.38,0,0,0-.29,0,.89.89,0,0,0-.9.76,1.79,1.79,0,0,0,0,.31v2.06h-1Z"/><path class="cls-2" d="M14.17,29.33a.56.56,0,1,1-.56-.55A.53.53,0,0,1,14.17,29.33ZM13.1,34.41v-4h1v4Z"/><path class="cls-2" d="M16.2,32.18h0c.1-.16.21-.33.32-.47l1-1.28H18.7l-1.47,1.62,1.68,2.35H17.68l-1.14-1.75-.34.4v1.36h-1v-5.8h1Z"/><path class="cls-2" d="M19.3,33.49a2.23,2.23,0,0,0,1,.29c.44,0,.64-.18.64-.44s-.16-.41-.65-.58c-.78-.27-1.1-.69-1.09-1.16a1.33,1.33,0,0,1,1.5-1.25,2.34,2.34,0,0,1,1.05.24l-.2.71a1.77,1.77,0,0,0-.84-.23c-.36,0-.55.17-.55.42s.19.38.69.55c.72.26,1.05.63,1.06,1.22s-.56,1.24-1.62,1.24a2.55,2.55,0,0,1-1.21-.28Z"/><path class="cls-2" d="M25,34.41,24.93,34h0a1.48,1.48,0,0,1-1.18.53,1.18,1.18,0,0,1-1.25-1.18c0-1,.89-1.51,2.36-1.5v-.07c0-.26-.11-.69-.81-.69a2.11,2.11,0,0,0-1.07.29l-.2-.65a2.87,2.87,0,0,1,1.44-.35A1.49,1.49,0,0,1,25.84,32v1.44a6.36,6.36,0,0,0,.06,1Zm-.13-1.94c-.71,0-1.39.14-1.39.74a.53.53,0,0,0,.57.57.81.81,0,0,0,.78-.55.72.72,0,0,0,0-.22Z"/><polygon class="cls-3" points="19.95 10.54 15.91 10.54 15.91 6.49 11.54 6.49 11.54 10.54 7.49 10.54 7.49 14.91 11.54 14.91 11.54 18.95 15.91 18.95 15.91 14.91 19.95 14.91 19.95 10.54"/></g></g></svg>