<svg xmlns="http://www.w3.org/2000/svg" xmlns:xlink="http://www.w3.org/1999/xlink" viewBox="0 0 21.99 14.63"><defs><style>.cls-1{isolation:isolate;}.cls-2{fill:#fff;}.cls-3{fill:#235196;}.cls-4,.cls-5{mix-blend-mode:multiply;}.cls-4{fill:url(#linear-gradient);}.cls-5{fill:url(#linear-gradient-2);}</style><linearGradient id="linear-gradient" x1="-209.85" y1="-8.7" x2="-199.2" y2="9.01" gradientTransform="translate(210.69 -45.65) rotate(-15.79)" gradientUnits="userSpaceOnUse"><stop offset="0" stop-color="#fff" stop-opacity="0"/><stop offset="1" stop-color="#235196"/></linearGradient><linearGradient id="linear-gradient-2" x1="1999.61" y1="1120.59" x2="2010.26" y2="1138.29" gradientTransform="matrix(-0.66, 0.75, -0.75, -0.66, 2173.77, -765.85)" xlink:href="#linear-gradient"/></defs><title>phil</title><g class="cls-1"><g id="Layer_2" data-name="Layer 2"><g id="Layer_1-2" data-name="Layer 1"><g id="_Group_" data-name="&lt;Group&gt;"><path id="_Path_" data-name="&lt;Path&gt;" class="cls-2" d="M17.66,4.75,7.7,7.56a3.41,3.41,0,0,0-2.35,4.21h0a3.41,3.41,0,0,0,4.21,2.35l10-2.82A3.41,3.41,0,0,0,21.87,7.1h0A3.41,3.41,0,0,0,17.66,4.75Z"/><path id="_Path_2" data-name="&lt;Path&gt;" class="cls-3" d="M17.66,4.75l-5,1.41,1.85,6.56,5-1.41a3.41,3.41,0,0,0-1.85-6.56Z"/><path id="_Path_3" data-name="&lt;Path&gt;" class="cls-4" d="M20.26,8.37,7.38,12a3.39,3.39,0,0,1-2,0,3.4,3.4,0,0,0,4.13,2.14l10-2.82a3.4,3.4,0,0,0,2.4-4A3.39,3.39,0,0,1,20.26,8.37Z"/></g><g id="_Group_2" data-name="&lt;Group&gt;"><path id="_Path_4" data-name="&lt;Path&gt;" class="cls-2" d="M6,13.46l6.79-7.82A3.41,3.41,0,0,0,12.43.84h0a3.41,3.41,0,0,0-4.81.34L.84,9a3.41,3.41,0,0,0,.34,4.81h0A3.41,3.41,0,0,0,6,13.46Z"/><path id="_Path_5" data-name="&lt;Path&gt;" class="cls-3" d="M6,13.46l3.4-3.91L4.23,5.08.84,9A3.41,3.41,0,1,0,6,13.46Z"/><path id="_Path_6" data-name="&lt;Path&gt;" class="cls-5" d="M1.82,11.85,10.6,1.75a3.39,3.39,0,0,1,1.66-1,3.4,3.4,0,0,0-4.63.47L.84,9A3.4,3.4,0,0,0,1,13.64,3.39,3.39,0,0,1,1.82,11.85Z"/></g></g></g></g></svg>