<svg xmlns="http://www.w3.org/2000/svg" xmlns:xlink="http://www.w3.org/1999/xlink" viewBox="0 0 8.14 11.47"><defs><style>.cls-1{fill:url(#Degradado_sin_nombre_10);}.cls-2{fill:#fefefe;}</style><linearGradient id="Degradado_sin_nombre_10" y1="5.73" x2="8.14" y2="5.73" gradientUnits="userSpaceOnUse"><stop offset="0" stop-color="#00bec9"/><stop offset="0.85" stop-color="#008789"/></linearGradient></defs><title>poin</title><g id="Layer_2" data-name="Layer 2"><g id="Layer_1-2" data-name="Layer 1"><path class="cls-1" d="M4.09,11.47H4a4.29,4.29,0,0,1-.76-.85,20.24,20.24,0,0,1-2.6-4A5.92,5.92,0,0,1,0,3.84,4,4,0,0,1,.91,1.43,4.18,4.18,0,0,1,2.69.17a4.77,4.77,0,0,1,1-.17h.76A3.72,3.72,0,0,1,5.82.33a4.1,4.1,0,0,1,2.1,5,14.46,14.46,0,0,1-2,3.8A24.44,24.44,0,0,1,4.3,11.29.78.78,0,0,1,4.09,11.47Z"/><ellipse class="cls-2" cx="4.07" cy="4.01" rx="1.44" ry="1.44" transform="translate(0.04 8.07) rotate(-89.76)"/></g></g></svg>