<svg xmlns="http://www.w3.org/2000/svg" viewBox="0 0 30.46 30.46"><defs><style>.cls-1{fill:#fcecc5;opacity:0.5;}.cls-2{fill:#ffc107;}</style></defs><title>virus2</title><g id="Layer_2" data-name="Layer 2"><g id="Layer_1-2" data-name="Layer 1"><circle class="cls-1" cx="15.23" cy="15.23" r="15.23"/><path class="cls-2" d="M23.61,16.44a.71.71,0,0,1-.75.4.63.63,0,0,1-.56-.59c0-.1,0-.21,0-.33H20.72a5.52,5.52,0,0,1-1.11,2.69l1.09,1.09a3.36,3.36,0,0,1,.54-.31.63.63,0,0,1,.69.3.57.57,0,0,1,0,.7c-.5.53-1,1.05-1.55,1.55a.6.6,0,0,1-.86-.14.63.63,0,0,1,0-.86c.06-.07.14-.14.21-.2l-1.13-1.12a5.5,5.5,0,0,1-2.68,1.1V22.3h.31a.63.63,0,0,1,.59.52.66.66,0,0,1-.38.77.51.51,0,0,1-.17,0H14.21a.6.6,0,0,1-.31-.11.69.69,0,0,1-.21-.77.61.61,0,0,1,.6-.44h.27V20.72a5.51,5.51,0,0,1-2.68-1.11l-1.08,1.1a3.31,3.31,0,0,1,.31.53.63.63,0,0,1-.29.69.57.57,0,0,1-.7,0c-.54-.5-1.06-1-1.56-1.56a.6.6,0,0,1,.15-.84.63.63,0,0,1,.86,0c.07.06.14.14.22.23l.56-.56.57-.56a5.54,5.54,0,0,1-1.13-2.71H8.2c0,.08,0,.16,0,.24a.63.63,0,0,1-.61.67.63.63,0,0,1-.73-.62q0-1,0-1.95a.63.63,0,0,1,.73-.62.63.63,0,0,1,.61.67c0,.08,0,.15,0,.24H9.78a5.5,5.5,0,0,1,1.11-2.68L9.8,10.79a3.35,3.35,0,0,1-.54.31.63.63,0,0,1-.69-.3.63.63,0,0,1,0-.71,1.07,1.07,0,0,1,.13-.16L9.94,8.69a.64.64,0,0,1,.68-.21.7.7,0,0,1,.51.58.6.6,0,0,1-.18.52,2.59,2.59,0,0,1-.2.18l1.13,1.13a5.5,5.5,0,0,1,2.68-1.11V8.2h-.23a.63.63,0,0,1-.68-.62.63.63,0,0,1,.63-.72q1,0,1.93,0a.63.63,0,0,1,.63.72.63.63,0,0,1-.66.62h-.24V9.78a5.49,5.49,0,0,1,2.67,1.1l1.13-1.13-.16-.15a.67.67,0,0,1,.95-1c.21.2.41.41.61.61l.68.68a.65.65,0,0,1,0,1,.64.64,0,0,1-1,0,1.58,1.58,0,0,1-.12-.15l-1.13,1.13a5.51,5.51,0,0,1,1.11,2.69H22.3c0-.08,0-.17,0-.25a.63.63,0,0,1,.48-.64.69.69,0,0,1,.78.31l.05.08ZM15.5,14.22a1.44,1.44,0,0,0-1.44-1.46,1.45,1.45,0,1,0,1.44,1.46Zm.06,2.21a.89.89,0,1,0,.89-.88A.87.87,0,0,0,15.56,16.43Z"/></g></g></svg>