<svg xmlns="http://www.w3.org/2000/svg" xmlns:xlink="http://www.w3.org/1999/xlink" viewBox="0 0 557.39 700"><defs><style>.cls-1{fill:none;}.cls-2{clip-path:url(#clip-path);}.cls-3{fill:#67a272;}.cls-4{fill:#f7f7f7;}.cls-5{fill:#eab5b5;}.cls-6{fill:#f7c6c6;}.cls-7{fill:#3f3f3f;}.cls-8{fill:#f9d1d1;}.cls-9{fill:#ed353e;}.cls-10{fill:#1f555d;}.cls-11{fill:#f45354;}.cls-12{fill:#595959;}.cls-13{fill:#4d4e4d;}.cls-14{fill:#666766;}.cls-15{fill:#246167;}.cls-16,.cls-23{fill:#fff;}.cls-17{fill:#174a4e;}.cls-18{fill:#6cf3f3;}.cls-19{fill:#86f7f4;}.cls-20{fill:#61dee7;}.cls-21{fill:#83e5f3;}.cls-22{fill:#ea651b;}.cls-23{font-size:41.12px;font-family:Montserrat-Regular, Montserrat;}</style><clipPath id="clip-path"><path class="cls-1" d="M557.76,279.55c0,145.51-124.81,276.37-278.33,276.37S1.84,433.06,1.84,279.55s124.45-278,278-278S557.76,126,557.76,279.55Z"/></clipPath></defs><title>1m</title><g id="Layer_2" data-name="Layer 2"><g id="Layer_1-2" data-name="Layer 1"><g class="cls-2"><circle class="cls-3" cx="279.43" cy="277.96" r="277.96"/><path class="cls-4" d="M208.49,284.83c4.57-5.12,6.19-11.74,7.72-18.25.43-1.84,3.26-1.06,2.83.78-1.65,7.06-3.55,14-8.47,19.55C209.31,288.31,207.24,286.23,208.49,284.83Z"/><path class="cls-4" d="M127.56,284.83c-4.57-5.12-6.19-11.74-7.72-18.25-.43-1.84-3.26-1.06-2.83.78,1.65,7.06,3.55,14,8.47,19.55C126.75,288.31,128.81,286.23,127.56,284.83Z"/><path class="cls-5" d="M142.5,271.39c-1.89,14.83-7.93,40.37-8.84,43.1-2.3,6.89-6.13,14.11-12.47,18.07-4.5,2.81-9.7,4.14-14.87,5.42-7.34,4.12-14.73,8.18-22.22,12a13,13,0,0,0-1.65,8.27c.88,7.41,6,14,10.15,19.85A70.1,70.1,0,0,0,116.81,399c15.78,8.36,34,11.2,51.85,11.1V271.39Z"/><path class="cls-6" d="M250.14,346.2c-6.55-2.89-13.15-5.64-19.78-8.39-5-1.23-9.91-2.57-14.22-5.25-6.34-4-10.17-11.18-12.47-18.07-.91-2.73-7-28.27-8.84-43.1H168.67V410.12c17.9.1,36.07-2.74,51.85-11.1a70.1,70.1,0,0,0,24.22-20.93c4.2-5.88,9.27-12.44,10.15-19.85A13.51,13.51,0,0,0,250.14,346.2Z"/><path class="cls-7" d="M228.67,196.74c-.29-7-1-14.09-3.42-20.05-5.35-13.12-22.22-16.11-34.62-18.18a137.23,137.23,0,0,0-39-.52c-13.24,1.6-30.92,5.51-36.44,19.39-5.3,13.33-6.29,27-7.34,41.13a89.81,89.81,0,0,0,1,21.31c1.52,9.18,9.53,10.37,17.41,13a168.17,168.17,0,0,0,76,6.83c11.49-1.63,23-5,25.07-18A167.55,167.55,0,0,0,229,208C228.87,204.47,228.83,200.63,228.67,196.74Z"/><path class="cls-8" d="M230.51,236.82c-.22-2.24-.95-4.3-3-5.11-3.1-1.2-6.78.36-9.69,2.79h0a92.7,92.7,0,0,0-8.22-30.28C200.63,185.38,185.68,173,168.74,173h-1.16c-24.74,0-45.26,26.37-49,60.85,0,.29-.06.59-.09.89-3-2.58-6.79-4.3-10-3.06-2.08.8-2.81,2.86-3,5.11a44.34,44.34,0,0,0,.06,5.56,76.66,76.66,0,0,0,1.6,15.33c1.53,6.48,5.8,17,13.68,17.11l1.33,0a65.77,65.77,0,0,0,11.24,21.45c7.23,9.08,18.13,18.46,29.8,20.81a23,23,0,0,0,5,.43,29.18,29.18,0,0,0,10.33-2.3,54.65,54.65,0,0,0,10.33-5.75,63.18,63.18,0,0,0,14.84-14.33A70.21,70.21,0,0,0,214,274.84l1.12,0c7.88-.14,12.14-10.62,13.68-17.11a76.69,76.69,0,0,0,1.6-15.33A43.1,43.1,0,0,0,230.51,236.82Z"/><path class="cls-6" d="M169.23,310.39a25,25,0,0,1-4.73-17.1q-.69-9-1.38-18.06a14.41,14.41,0,0,0-1.39-6.13c-1-1.7-2.6-2.94-3.67-4.58-3.59-5.51.19-12.58,2.64-18.68a44.15,44.15,0,0,0,2.94-20.77c-.31-3-.68-6.69,1.73-8.56a4.33,4.33,0,0,1,.38-.25c4.18-7.46,16.3-12.21,23.11-17.16a110.41,110.41,0,0,0,11.41-9.6C191.7,179.22,180.72,173,168.74,173h-1.16c-24.74,0-45.26,26.37-49,60.85,0,.29-.06.59-.09.89-3-2.58-6.79-4.3-10-3.06-2.08.8-2.81,2.86-3,5.11a44.35,44.35,0,0,0,.06,5.56,76.65,76.65,0,0,0,1.6,15.33c1.53,6.48,5.8,17,13.68,17.11l1.33,0a65.77,65.77,0,0,0,11.24,21.45c7.23,9.08,18.13,18.46,29.8,20.81a23,23,0,0,0,5,.43,27.42,27.42,0,0,0,7.77-1.37A22,22,0,0,1,169.23,310.39Z"/><path class="cls-6" d="M77.6,466.21V669C61,668.16,44.43,666.43,27.84,664l-10-90.15c-1.28-11.58-2.57-23.16-3.21-34.79q-.76-13.54-.32-27.11A319.11,319.11,0,0,1,19,466.21Z"/><path class="cls-5" d="M77.6,466.21v175c-2.54.19-5.37-1.43-5.87-4q-3.07-15.71-6.14-31.43c-3.54-18.08-7.19-36.17-9.08-54.52-1.19-11.61-1.17-23.46-2.86-35a177.84,177.84,0,0,1-39.34-4.28A319.11,319.11,0,0,1,19,466.21Z"/><path class="cls-6" d="M260.3,466.21V669c16.64-.89,33.17-2.61,49.76-5.07l10-90.15c1.28-11.58,2.57-23.16,3.21-34.79q.76-13.54.32-27.11a319.11,319.11,0,0,0-4.75-45.72Z"/><path class="cls-5" d="M260.3,466.21v175c2.54.19,5.37-1.43,5.87-4q3.07-15.71,6.14-31.43c3.54-18.08,7.19-36.17,9.08-54.52,1.19-11.61,1.17-23.46,2.86-35a177.84,177.84,0,0,0,39.34-4.28,319.11,319.11,0,0,0-4.75-45.72Z"/><path class="cls-9" d="M166.24,368.36a61.39,61.39,0,0,1-14.61-4.75,55.7,55.7,0,0,1-9.64-5.91c-.37-.21-.74-.43-1.1-.66-5.41-3.38-9.32-8.24-12.31-13.83a57,57,0,0,1-6.87-14.81,3,3,0,0,0-2.92.21l-1.17.75a153.27,153.27,0,0,1-13.52,7.74C98.43,340,92.62,342.64,86.83,345c-8.06,3.34-16.3,6.24-24.43,9.4l-.48.18h0c-7.67,2.55-14.58,10.6-18.82,16.42C19,404.16,7.91,445.12,2.84,485.78a7.88,7.88,0,0,0,.3,4.41,7.46,7.46,0,0,0,3.15,2.89c15.4,9.1,34,10.8,51.89,10.71l3.73,0V680.41a29.43,29.43,0,0,0,2.86.86,535.84,535.84,0,0,0,103.88,16.38V368.81C167.86,368.67,167,368.52,166.24,368.36Z"/><path class="cls-10" d="M156.86,449.7c-2.85,63.54-4.61,127.2-2.56,190.75q.82,25,2.44,49.91l0,.4c1.07,16.05-21.38,6.58-30.73,5.42A474.37,474.37,0,0,1,58.9,682.61a27.85,27.85,0,0,1-2.72-.86V505.08H56c-1.11,0-2.2,0-3.32,0-17,.09-34.61-1.61-49.21-10.7a7.29,7.29,0,0,1-3-2.89,8.27,8.27,0,0,1-.29-4.41Q1,480.29,2,473.47c5.46-36.08,16-71.68,36.34-101.08,4-5.82,10.57-13.87,17.84-16.42l.46-.18c7.71-3.17,15.53-6.07,23.17-9.4,5.49-2.39,11-5,16.38-7.91,2.3-1.24,4.57-2.55,6.8-3.91,7,19.11,19.46,37.32,32.76,54,6.52,8.17,16.36,15.8,20,25.94C159.4,424.92,157.36,438.82,156.86,449.7Z"/><path class="cls-11" d="M334.82,485.78c-5.06-40.66-16.13-81.63-40.26-114.74-4.53-6.22-12.13-15-20.44-16.87v0c-7.87-3-15.83-5.87-23.62-9.09a206.84,206.84,0,0,1-25.71-12.52q-3.17-1.86-6.25-3.88a3,3,0,0,0-2.92-.21,57.23,57.23,0,0,1-6.87,14.81,39,39,0,0,1-7.92,10.48,30.19,30.19,0,0,1-4.4,3.35c-.36.23-.73.44-1.11.66a55.28,55.28,0,0,1-9.64,5.91,58.25,58.25,0,0,1-10.39,3.78c-2.19.58-4.4,1-6.64,1.42V697.65a535.85,535.85,0,0,0,103.88-16.38c.52-.14,1-.28,1.57-.44V503.7q2.68.07,5.35.09c17.88.09,36.49-1.61,51.89-10.71a7.46,7.46,0,0,0,3.15-2.89A7.88,7.88,0,0,0,334.82,485.78Z"/><path class="cls-12" d="M203.14,175.68q-.09,1.22-.27,2.38c-.73,4.93-3.94,7.72-7.84,10.43-11.49,8-22.75,17-35.26,23.36A85.58,85.58,0,0,1,124.21,221c-7,.24-14.24-.44-20.52-3.55-3.33-1.64-6.95-4.54-7-8.56a16,16,0,0,1,1.18-5.58,92.22,92.22,0,0,1,5.73-13,96.78,96.78,0,0,1,11.27-16.7c12.72-15.2,29.85-26.58,49.35-30.62,14.88-3.09,34.07-1.67,37.88,16.19,0,.23.1.46.14.7A61.67,61.67,0,0,1,203.14,175.68Z"/><path class="cls-13" d="M203.14,175.68q-.09,1.22-.27,2.38c-.73,4.93-3.94,7.72-7.84,10.43-11.49,8-22.75,17-35.26,23.36A85.58,85.58,0,0,1,124.21,221c-7,.24-14.24-.44-20.52-3.55-3.33-1.64-6.95-4.54-7-8.56a16,16,0,0,1,1.18-5.58,92.22,92.22,0,0,1,5.73-13,14.26,14.26,0,0,0,2.83,2.8c5.53,4.09,12.87,4.7,19.74,4.45,13.82-.5,27.38-3.84,40.56-8A386.44,386.44,0,0,0,203.14,175.68Z"/><path class="cls-14" d="M198.05,167c-.12-4-.45-8.23-2.36-11.8-2.66-5-8.12-8-13.68-8.88s-11.26.09-16.72,1.5a74.13,74.13,0,0,0-23.82,10.42c6.5-3.21,12.53-6.4,19.62-7.9s14.65-1.5,21.41,1.12S196,160.09,198.05,167Z"/><path class="cls-12" d="M225,200.14q-.09-7.69-.7-15.36a22,22,0,0,0-.72-4.66,15,15,0,0,0-3.35-5.63,21.26,21.26,0,0,0-11.14-6.44c2,2.86,4.7,5,7.14,7.53C222,181.53,224.2,191.88,225,200.14Z"/><path class="cls-15" d="M334.54,491.54a7.29,7.29,0,0,1-3,2.89c-14.6,9.09-32.25,10.79-49.21,10.7-1.12,0-2.24,0-3.37,0h-.18V681.75a26.85,26.85,0,0,1-2.71.86,485,485,0,0,1-55.32,11.76q-14,2.13-28.06,3.44c-4.33.41-12.07,4.9-14.46-1.2a12.4,12.4,0,0,1-.52-5c0-.07,0-.14,0-.21,2-44.13,9.34-87.47,8.55-131.81-.58-32.23-5.4-64.23-5-96.5.16-11.66,1-23.36-.27-34.95-.5-4.5-1.31-9-.69-13.5,1.58-11.43,11.3-18,18-26.25a331.39,331.39,0,0,0,21.87-31.17A118.28,118.28,0,0,0,232,334.56c2.24,1.36,4.51,2.67,6.81,3.91,5.38,2.91,10.89,5.52,16.38,7.91,7.64,3.34,15.46,6.23,23.17,9.4l.45.18c7.28,2.55,13.83,10.6,17.85,16.42,22.22,32.16,32.75,71.7,37.74,111.18.15,1.19.3,2.37.44,3.56A8.27,8.27,0,0,1,334.54,491.54Z"/><path class="cls-16" d="M148.31,416.45c-6.39,0-6.4,9.93,0,9.93S154.71,416.45,148.31,416.45Z"/><path class="cls-16" d="M145.51,490.73c-6.39,0-6.4,9.93,0,9.93S151.91,490.73,145.51,490.73Z"/><path class="cls-16" d="M144.11,557.77c-6.39,0-6.4,9.93,0,9.93S150.5,557.77,144.11,557.77Z"/><path class="cls-16" d="M146,630.88c-6.39,0-6.4,9.93,0,9.93S152.37,630.88,146,630.88Z"/><path class="cls-17" d="M56,505.08c-1.11,0-2.2,0-3.32,0-17,.09-34.61-1.61-49.21-10.7a7.29,7.29,0,0,1-3-2.89,8.27,8.27,0,0,1-.29-4.41Q1,480.29,2,473.47a52.06,52.06,0,0,0,18.52,3.39c7.91-.18,16-3.09,21.21-9.05,6.14-7,7.36-17,8.32-26.28q1.53-15,3.09-30.07l3,84.9A56.86,56.86,0,0,1,56,505.08Z"/><path class="cls-17" d="M126,696.17A474.37,474.37,0,0,1,58.9,682.61a27.85,27.85,0,0,1-2.72-.86V585.67c.64,3.75,1.09,6.89,1.36,8.18,2.15,10.39,4.23,20.84,7.37,31,3.51,11.37,8.4,22.39,15.88,31.72,11.27,14,27.71,23.32,45,28.39a152.78,152.78,0,0,0,31,5.41l0,.4C157.85,706.81,135.39,697.34,126,696.17Z"/><path class="cls-10" d="M278.8,664.23v17.52a26.85,26.85,0,0,1-2.71.86,485,485,0,0,1-55.32,11.76q-14,2.13-28.06,3.44c-4.33.41-12.07,4.9-14.46-1.2a12.4,12.4,0,0,1-.52-5h1.53c15,0,30.11-.82,44.74-4.16C243.55,683,261.42,674.27,278.8,664.23Z"/><path class="cls-10" d="M334.54,491.54a7.29,7.29,0,0,1-3,2.89c-14.6,9.09-32.25,10.79-49.21,10.7-1.12,0-2.24,0-3.37,0a30,30,0,0,1-.82-3.79,141.83,141.83,0,0,1-1.16-23c.21-22.33,1.85-45.52,12.71-65a96,96,0,0,0-4.8,51.18c1,5.49,2.47,10.88,3.94,16.27a22.18,22.18,0,0,0,2.94,7.23c3.56,5,10.67,6.12,16.65,4.83s11.37-4.49,17.09-6.66a64.11,64.11,0,0,1,8.89-2.59c.15,1.19.3,2.37.44,3.56A8.27,8.27,0,0,1,334.54,491.54Z"/><path class="cls-4" d="M130.74,259.66c-3.53-9.25-6.45-20.42-12.34-28.49-1.11-1.52-3.55.11-2.43,1.64,5.72,7.84,8.55,18.78,12,27.81C128.64,262.38,131.42,261.43,130.74,259.66Z"/><path class="cls-4" d="M205.31,259.66c3.53-9.25,6.45-20.42,12.34-28.49,1.11-1.52,3.55.11,2.43,1.64-5.72,7.84-8.55,18.78-12,27.81C207.42,262.38,204.64,261.43,205.31,259.66Z"/><path class="cls-18" d="M147.53,244.36c-6.75,1.8-13.14,4.59-19.77,6.59-.38.11-1.76.46-3.5.9v34.42c4.3,5.16,8.77,10.21,13.24,15.24a58,58,0,0,0,13,10.77c5.61,3.45,10.83,5.76,17.49,6.17v-77.8A129.28,129.28,0,0,0,147.53,244.36Z"/><path class="cls-19" d="M188.47,244.36c6.75,1.8,13.14,4.59,19.77,6.59.38.11,1.76.46,3.5.9v34.42c-4.3,5.16-8.77,10.21-13.24,15.24a58,58,0,0,1-13,10.77c-5.61,3.45-10.83,5.76-17.49,6.17v-77.8A129.28,129.28,0,0,1,188.47,244.36Z"/><path class="cls-20" d="M208.71,269.59a65.66,65.66,0,0,1-19.33,6.27,120.93,120.93,0,0,1-20.29,1.61H168a133.3,133.3,0,0,1-19.19-1.32,122.06,122.06,0,0,1-19.71-4.81c6.74.51,13.4,1.41,20,1.78,6.27.39,12.56.48,18.87.47h1.08c6.67,0,13.3-.17,19.91-.76A123.59,123.59,0,0,0,208.71,269.59Z"/><path class="cls-20" d="M210.83,278.5c-3.08,2.11-6.12,4.23-9.23,6.31a75.63,75.63,0,0,1-9.82,5.6,58.26,58.26,0,0,1-22.17,5.25c-.54,0-1.08,0-1.62,0A57.56,57.56,0,0,1,147.13,292a47.48,47.48,0,0,1-18.65-12.54,63.76,63.76,0,0,0,19.62,9.67A67.23,67.23,0,0,0,168,291.83l1.48,0a68.44,68.44,0,0,0,21.14-4.2C197.42,285.13,203.87,281.26,210.83,278.5Z"/><path class="cls-20" d="M206.43,263.93c-6.37-1.17-12.73-2.17-19.12-2.86-.8-.09-1.6-.16-2.4-.23l-2.39-.23c-1.6-.11-3.19-.26-4.8-.32-3.2-.21-6.4-.28-9.61-.3H168c-3.16,0-6.33,0-9.5.16s-6.41.33-9.61.59c-6.41.5-12.8,1.31-19.23,2.13a126.81,126.81,0,0,1,19-4.12c3.21-.49,6.45-.77,9.7-1q2.43-.17,4.88-.23c1.58-.07,3.16-.06,4.75-.08h.14c3.26.06,6.51.16,9.76.45,1.63.12,3.24.33,4.86.5s3.23.43,4.83.71A107.33,107.33,0,0,1,206.43,263.93Z"/><path class="cls-21" d="M168.11,260H168v-2.57h.14c3.26.06,6.51.16,9.76.45,1.63.12,3.24.33,4.86.5s3.23.43,4.83.71a107.33,107.33,0,0,1,18.85,4.85c-6.37-1.17-12.73-2.17-19.12-2.86-.8-.09-1.6-.16-2.4-.23l-2.39-.23c-1.6-.11-3.19-.26-4.8-.32C174.52,260.08,171.32,260,168.11,260Z"/><path class="cls-21" d="M169.09,277.46H168v-3.88h1.08c6.67,0,13.3-.17,19.91-.76a123.59,123.59,0,0,0,19.73-3.24,65.66,65.66,0,0,1-19.33,6.27A120.93,120.93,0,0,1,169.09,277.46Z"/><path class="cls-21" d="M210.83,278.5c-3.08,2.11-6.12,4.23-9.23,6.31a75.63,75.63,0,0,1-9.82,5.6,58.26,58.26,0,0,1-22.17,5.25c-.54,0-1.08,0-1.62,0v-3.87l1.48,0a68.44,68.44,0,0,0,21.14-4.2C197.42,285.13,203.87,281.26,210.83,278.5Z"/><path class="cls-22" d="M279.43,555.92A278,278,0,0,1,82.88,81.41,278,278,0,0,1,476,474.51,276.14,276.14,0,0,1,279.43,555.92Zm0-537.92c-143.34,0-260,116.62-260,260s116.62,260,260,260,260-116.62,260-260S422.77,18,279.43,18Z"/><path class="cls-16" d="M279.43,539.51A261.55,261.55,0,0,1,94.49,93,261.55,261.55,0,1,1,464.37,462.9,259.84,259.84,0,0,1,279.43,539.51Zm0-506.16C144.55,33.34,34.81,143.08,34.81,278S144.55,522.57,279.43,522.57,524,412.84,524,278,414.31,33.34,279.43,33.34Z"/><rect class="cls-9" x="246.12" y="196.83" width="248.04" height="96.92" rx="21" ry="21"/><text class="cls-23" transform="translate(336.46 237.03)">1 M</text><polygon class="cls-16" points="479.37 251.87 436.82 227.29 436.82 244.47 303.45 244.47 303.45 227.29 260.9 251.87 303.45 276.43 303.45 259.25 436.82 259.25 436.82 276.43 479.37 251.87"/></g></g></g></svg>