<svg xmlns="http://www.w3.org/2000/svg" viewBox="0 0 254.17 254.17"><defs><style>.cls-1{fill:#1791b2;}.cls-1,.cls-2,.cls-3{fill-rule:evenodd;}.cls-2{fill:#fff;}.cls-3{fill:#ed1c24;}</style></defs><title>batuk2</title><g id="Layer_2" data-name="Layer 2"><g id="Layer_1-2" data-name="Layer 1"><path class="cls-1" d="M127.08,0A127.08,127.08,0,1,1,0,127.08,127.1,127.1,0,0,1,127.08,0"/><path class="cls-2" d="M127.08,6.52A121.06,121.06,0,1,1,6,127.59,121.08,121.08,0,0,1,127.08,6.52"/><path class="cls-1" d="M43.73,208.12c59.58,47.92,114.69,42.46,166.7,0l-26.91-19.79c-12.43-9.14-23-7.13-21.53-10.59s1.56-10.11,1.39-12.32-3.13-10.77-3.13-10.77,22.92-.52,24.14-7.3a98.05,98.05,0,0,0,.91-15c-3.89-1.3-18.34-3.12-18.34-3.12l21.3-7c.22-3.35-1.93-6.36-3.67-10.75,0,0,10.41-1.81,10.41-4.33s-14.49-22.23-14.49-22.23c-7.6-14.85-10.31-46.7-69.8-37.11-36.8,5.94-39.25,41.8-37.16,61.94s27.09,55.57,27.09,55.57S79.81,184.41,72.52,187.2s-28.79,9-28.79,20.92"/><path class="cls-3" d="M187.81,124.57s34.37-10.26,34.38-6.9-34.38,6.9-34.38,6.9"/><path class="cls-3" d="M184.46,129s18.68-2.64,18.3.64-18.3-.64-18.3-.64"/><path class="cls-3" d="M194.38,134.28s32.94,1.24,32.09,3.29-32.09-3.29-32.09-3.29"/><path class="cls-3" d="M202.87,124.5s3.61-.72,3.34.54-3.34-.54-3.34-.54"/><path class="cls-3" d="M205.78,132.57s2.43-2.77,3-1.6-3,1.6-3,1.6"/><path class="cls-3" d="M208.66,127.86s3.32-1.6,3.37-.32-3.37.32-3.37.32"/><path class="cls-3" d="M192.83,136.75s3.66.41,3,1.53-3-1.53-3-1.53"/><path class="cls-3" d="M221.52,129.78s3.66.41,3,1.52-3-1.52-3-1.52"/><path class="cls-3" d="M227.77,138.55s3.66.41,3,1.53-3-1.53-3-1.53"/><path class="cls-3" d="M187.58,132.34s3.53-1,3.38.24-3.38-.24-3.38-.24"/></g></g></svg>