<svg xmlns="http://www.w3.org/2000/svg" viewBox="0 0 201.33 249.31"><defs><style>.cls-1{fill:#ed9b62;}.cls-2{fill:#ffc097;}.cls-3{fill:#ffb8b9;}.cls-4{fill:#fc777b;}.cls-5{fill:#2b193f;}.cls-6{fill:#e27e6f;}.cls-7{fill:#3a2456;}.cls-8{fill:#cb5137;}.cls-9{fill:#b21700;}</style></defs><title>batuk</title><g id="Layer_2" data-name="Layer 2"><g id="OBJECTS"><ellipse class="cls-1" cx="174.84" cy="36.27" rx="7.45" ry="6.98" transform="translate(-3.53 28.09) rotate(-9.09)"/><ellipse class="cls-1" cx="177.42" cy="53.61" rx="2.35" ry="2.08" transform="translate(-6.24 28.71) rotate(-9.09)"/><ellipse class="cls-1" cx="184.91" cy="44.22" rx="2.35" ry="1.95" transform="translate(25.02 147.09) rotate(-46.2)"/><ellipse class="cls-1" cx="191.94" cy="33.53" rx="1.46" ry="2.08" transform="matrix(0.99, -0.16, 0.16, 0.99, -2.89, 30.75)"/><ellipse class="cls-1" cx="172.15" cy="19.45" rx="2.35" ry="2.08" transform="translate(-0.91 27.45) rotate(-9.09)"/><ellipse class="cls-1" cx="185.56" cy="27.21" rx="2.31" ry="2.6" transform="translate(115.54 201.2) rotate(-76.42)"/><ellipse class="cls-1" cx="162.18" cy="27.74" rx="2.35" ry="2.08" transform="translate(-2.35 25.98) rotate(-9.09)"/><ellipse class="cls-1" cx="157.49" cy="39.68" rx="2.18" ry="2.6" transform="translate(-4.29 25.39) rotate(-9.09)"/><ellipse class="cls-1" cx="164.12" cy="45.54" rx="2.35" ry="2.08" transform="translate(-5.14 26.51) rotate(-9.09)"/><line class="cls-1" x1="177.61" y1="53.58" x2="174.84" y2="36.27"/><rect class="cls-1" x="175.51" y="36.16" width="1.42" height="17.54" transform="translate(-4.89 28.41) rotate(-9.09)"/><line class="cls-1" x1="174.84" y1="36.27" x2="172.07" y2="18.95"/><rect class="cls-1" x="172.74" y="18.84" width="1.42" height="17.54" transform="translate(-2.18 27.76) rotate(-9.09)"/><line class="cls-1" x1="174.84" y1="36.27" x2="192.15" y2="33.5"/><rect class="cls-1" x="174.73" y="34.17" width="17.54" height="1.42" transform="translate(-3.21 29.44) rotate(-9.09)"/><line class="cls-1" x1="156.97" y1="39.13" x2="174.28" y2="36.36"/><rect class="cls-1" x="156.86" y="37.03" width="17.54" height="1.42" transform="translate(-3.88 26.65) rotate(-9.09)"/><line class="cls-1" x1="175.01" y1="36.12" x2="185.55" y2="26.99"/><rect class="cls-1" x="173.31" y="30.85" width="13.95" height="1.42" transform="translate(23.34 125.71) rotate(-40.89)"/><line class="cls-1" x1="164.12" y1="45.54" x2="174.67" y2="36.41"/><rect class="cls-1" x="162.42" y="40.27" width="13.95" height="1.42" transform="translate(14.51 120.89) rotate(-40.89)"/><line class="cls-1" x1="173.72" y1="35.82" x2="184.97" y2="44.07"/><rect class="cls-1" x="178.63" y="32.97" width="1.42" height="13.95" transform="translate(41.14 161.02) rotate(-53.78)"/><line class="cls-1" x1="162.11" y1="27.31" x2="173.36" y2="35.56"/><rect class="cls-1" x="167.02" y="24.46" width="1.42" height="13.95" transform="translate(43.25 148.17) rotate(-53.78)"/><ellipse class="cls-2" cx="175.24" cy="32.84" rx="2.37" ry="1.97"/><ellipse class="cls-2" cx="170.89" cy="37.75" rx="1.66" ry="1.37"/><ellipse class="cls-2" cx="179.64" cy="37.74" rx="1.66" ry="1.37"/><ellipse class="cls-1" cx="159.46" cy="177.82" rx="3.85" ry="4.11" transform="translate(-55.42 282.08) rotate(-74)"/><ellipse class="cls-1" cx="156.69" cy="187.09" rx="1.15" ry="1.3" transform="translate(-66.35 286.14) rotate(-74)"/><ellipse class="cls-1" cx="162.63" cy="184.15" rx="1.3" ry="1.08" transform="translate(-55.41 70.93) rotate(-21.11)"/><ellipse class="cls-1" cx="168.65" cy="180.45" rx="1.15" ry="0.8" transform="matrix(0.28, -0.96, 0.96, 0.28, -51.3, 292.83)"/><ellipse class="cls-1" cx="162.05" cy="168.78" rx="1.15" ry="1.3" transform="translate(-44.86 278.03) rotate(-74)"/><ellipse class="cls-1" cx="166.94" cy="175.8" rx="1.27" ry="1.44" transform="translate(-74.63 196.28) rotate(-51.33)"/><ellipse class="cls-1" cx="155.13" cy="170.59" rx="1.15" ry="1.3" transform="translate(-51.61 272.68) rotate(-74)"/><ellipse class="cls-1" cx="149.99" cy="175.46" rx="1.44" ry="1.2" transform="translate(-60.02 271.28) rotate(-74)"/><ellipse class="cls-1" cx="151.93" cy="179.95" rx="1.15" ry="1.3" transform="translate(-62.92 276.39) rotate(-74)"/><line class="cls-1" x1="156.79" y1="187.12" x2="159.46" y2="177.82"/><rect class="cls-1" x="153.28" y="182.08" width="9.68" height="0.78" transform="translate(-60.86 284.17) rotate(-74)"/><line class="cls-1" x1="159.46" y1="177.82" x2="162.13" y2="168.51"/><rect class="cls-1" x="155.95" y="172.77" width="9.68" height="0.78" transform="translate(-49.99 280) rotate(-74)"/><line class="cls-1" x1="159.46" y1="177.82" x2="168.76" y2="180.49"/><rect class="cls-1" x="163.72" y="174.31" width="0.78" height="9.68" transform="translate(-53.34 287.52) rotate(-74)"/><line class="cls-1" x1="149.86" y1="175.06" x2="159.16" y2="177.73"/><rect class="cls-1" x="154.12" y="171.56" width="0.78" height="9.68" transform="translate(-57.65 276.3) rotate(-74)"/><line class="cls-1" x1="159.58" y1="177.78" x2="166.99" y2="175.69"/><rect class="cls-1" x="159.43" y="176.34" width="7.7" height="0.78" transform="translate(-41.95 51.12) rotate(-15.8)"/><line class="cls-1" x1="151.93" y1="179.95" x2="159.34" y2="177.85"/><rect class="cls-1" x="151.79" y="178.51" width="7.7" height="0.78" transform="translate(-42.82 49.12) rotate(-15.8)"/><line class="cls-1" x1="159" y1="177.33" x2="162.7" y2="184.09"/><rect class="cls-1" x="160.46" y="176.86" width="0.78" height="7.7" transform="translate(-67 99.38) rotate(-28.68)"/><line class="cls-1" x1="155.19" y1="170.36" x2="158.88" y2="177.12"/><rect class="cls-1" x="156.65" y="169.89" width="0.78" height="7.7" transform="translate(-64.12 96.69) rotate(-28.68)"/><ellipse class="cls-2" cx="159.08" cy="176.74" rx="1.66" ry="1.37"/><ellipse class="cls-1" cx="47.2" cy="80.88" rx="4.16" ry="3.9"/><ellipse class="cls-1" cx="47.09" cy="90.67" rx="1.31" ry="1.16"/><ellipse class="cls-1" cx="52.05" cy="86.15" rx="1.31" ry="1.09" transform="matrix(0.8, -0.6, 0.6, 0.8, -41.44, 48.85)"/><ellipse class="cls-1" cx="56.87" cy="80.88" rx="0.81" ry="1.16"/><ellipse class="cls-1" cx="47.2" cy="71.37" rx="1.31" ry="1.16"/><ellipse class="cls-1" cx="53.91" cy="76.84" rx="1.29" ry="1.45" transform="translate(-37.77 96.96) rotate(-67.33)"/><ellipse class="cls-1" cx="40.97" cy="75.06" rx="1.31" ry="1.16"/><ellipse class="cls-1" cx="37.34" cy="81.23" rx="1.22" ry="1.45"/><ellipse class="cls-1" cx="40.47" cy="85.05" rx="1.31" ry="1.16"/><line class="cls-1" x1="47.2" y1="90.67" x2="47.2" y2="80.88"/><rect class="cls-1" x="46.8" y="80.88" width="0.79" height="9.79"/><line class="cls-1" x1="47.2" y1="80.88" x2="47.2" y2="71.09"/><rect class="cls-1" x="46.8" y="71.09" width="0.79" height="9.79"/><line class="cls-1" x1="47.2" y1="80.88" x2="56.99" y2="80.88"/><rect class="cls-1" x="47.2" y="80.49" width="9.79" height="0.79"/><line class="cls-1" x1="37.1" y1="80.88" x2="46.89" y2="80.88"/><rect class="cls-1" x="37.1" y="80.49" width="9.79" height="0.79"/><line class="cls-1" x1="47.3" y1="80.82" x2="53.92" y2="76.71"/><rect class="cls-1" x="46.72" y="78.37" width="7.79" height="0.79" transform="translate(-33.91 38.49) rotate(-31.8)"/><line class="cls-1" x1="40.47" y1="85.05" x2="47.09" y2="80.95"/><rect class="cls-1" x="39.89" y="82.6" width="7.79" height="0.79" transform="translate(-37.16 35.53) rotate(-31.8)"/><line class="cls-1" x1="46.62" y1="80.54" x2="52.09" y2="86.08"/><rect class="cls-1" x="48.96" y="79.41" width="0.79" height="7.79" transform="translate(-44.32 58.78) rotate(-44.68)"/><line class="cls-1" x1="40.97" y1="74.82" x2="46.45" y2="80.36"/><rect class="cls-1" x="43.31" y="73.7" width="0.79" height="7.79" transform="translate(-41.93 53.16) rotate(-44.68)"/><ellipse class="cls-2" cx="46.34" cy="79.84" rx="1.66" ry="1.37"/><path class="cls-3" d="M85,75.58a55.4,55.4,0,0,1-3,21.6c-4,10.8,11.83,17.72,19.66,16a21.71,21.71,0,0,0,12.12-8s-5.32-4.23-2.81-21.75S86.84,70.85,85,75.58Z"/><path class="cls-4" d="M110.37,89.43s-7.56,6.4-26.86,2.82A77.38,77.38,0,0,0,85,75.58S107.52,82.46,110.37,89.43Z"/><path class="cls-3" d="M137.78,37.31S134.2,89.59,118.29,90,80,81,80.19,67.87c0,0-2.63.93-7.77-3.47S68.89,47.07,74.79,46.3,83.12,52,83.12,52s.44-22.76,8.08-30.18S139.28,18.57,137.78,37.31Z"/><circle class="cls-4" cx="98.79" cy="62.39" r="5.43"/><path class="cls-5" d="M104.2,46.65a20.39,20.39,0,0,0,5.68-2.53c2.6-1.75,3.86-.35,3.65,1.82s-5,4.28-8.07,4.07S101.55,47.57,104.2,46.65Z"/><path class="cls-5" d="M114.56,54.21s-5.73-2-7.11-2-.53.67,0,1.25-1.25,0-1,.67S114.38,54.92,114.56,54.21Z"/><path class="cls-5" d="M135.27,47.42a20.39,20.39,0,0,1-5.68-2.53c-2.6-1.75-3.86-.35-3.65,1.82s5,4.28,8.07,4.07S137.91,48.33,135.27,47.42Z"/><path class="cls-5" d="M124.94,55.8s5.73-2,7.11-2,.53.67,0,1.25,1.25,0,1,.67S125.11,56.51,124.94,55.8Z"/><path class="cls-4" d="M119.5,68.72s6.79.86,7.14-3c.18-2-1.87-2.79-3.06-5a15.4,15.4,0,0,1-1.23-7.51C122.71,49.15,114.72,66.35,119.5,68.72Z"/><path class="cls-6" d="M119.24,85.21a3.51,3.51,0,0,1-2.67-1.3.24.24,0,0,1,.39-.28,3,3,0,0,0,3.89.69.24.24,0,1,1,.21.43A4.13,4.13,0,0,1,119.24,85.21Z"/><ellipse class="cls-5" cx="120.29" cy="76.66" rx="6.07" ry="4.32" transform="translate(17.37 175.42) rotate(-76.33)"/><path class="cls-4" d="M116.21,75.21c0,.14-.09.28-.12.43-.79,3.26.44,6.36,2.76,6.92,1.73.42,3.57-.69,4.73-2.63C122.13,75,116.3,75.21,116.21,75.21Z"/><path class="cls-7" d="M148.39,20.74c-1-6.12-5.47-10.46-11.59-9.5,0,0-4.42-10.42-13.15-8.65s-7.91,4.31-7.91,4.31-3.6-9-15.83-6.44S90,8.19,90,8.19s-3.06-6-11.27-.8-4.27,13.92-4.27,13.92l-.14.07-.34-.31s-5.52-1.2-7.16,5.79a10.34,10.34,0,0,0,1.06,8A9.31,9.31,0,0,0,65,40.09c-1.58,6.75,1.85,9.48,2.09,9.66a10.17,10.17,0,0,0-1.56,5C64.93,61.9,69,64,69,64s.43.2,1.14.49h0c1.22,7.08,5.73,8.09,5.73,8.09a33.49,33.49,0,0,0,5.41.45,12,12,0,0,1-1.14-5.19s-2.63.93-7.77-3.47S68.89,47.07,74.79,46.3a7.33,7.33,0,0,1,7,3.4c0-.43-.1-.53-.08-.41.87,4.46,5.14,5.76,6.1,3.35a45.93,45.93,0,0,0,3-14.06c.32-5.47,2.41-7,8.45-3.5,6.64,3.86,12.39-3.7,12.39-3.7s1,6.06,8.27,7,10.08-3,10.08-3,1.77,6.92,9.66,4.83,4.51-12.07,4.51-12.07S149.35,26.86,148.39,20.74Z"/><polygon class="cls-5" points="147.38 68.51 133.01 68.24 135.54 70.52 122.61 70.15 140.36 73.6 137.82 70.34 147.38 68.51"/><polygon class="cls-5" points="149.62 81.64 136.03 76.95 137.73 79.89 125.54 75.56 141.36 84.31 139.95 80.43 149.62 81.64"/><path class="cls-8" d="M80,96.39s5.07,14.24,19.31,13.52,11.63-8.19,16.44-8,21.21,3,29.6,9.89c4.26,3.51,29,17.62,29,17.62s21.75,8,24.89,15.69,2.66,14.24-8.93,16.42-49.84-9.58-52.5-7.89-5.57,36-4.56,43.62c1.14,8.57,4.32,28.29,6.32,43.47,1.38,10.48-97.2,11.93-96.37.85,1.14-15.19,2.9-35.53,4.86-46.6,1.34-7.61,1.73-35.38,1.73-35.38s-25,37.66-37.26,37.66-16.42-8-7.73-26.72S25.5,114.06,36.53,108.3C47.31,102.67,64.85,98.48,80,96.39Z"/><path class="cls-9" d="M42.46,111.74s10.19,27.66,11.22,34.17C53.68,145.91,49.19,120.85,42.46,111.74Z"/><path class="cls-9" d="M143.91,113.41s-8.71,19.64-9.85,24.68C134.06,138.09,135.86,124.05,143.91,113.41Z"/><path class="cls-3" d="M173.13,119.25s-6-18.43-7.81-25.67c0,0,3.14-4.91,5.55-5.39s2.63-1.45,2.63-1.45,12.82,24.14,14.59,30.42S175.07,122.31,173.13,119.25Z"/><path class="cls-3" d="M169.69,91.08s4.87-.6,5.59-7.18-1.21-9.3-2.47-12.25-1-3.44-2.6-3.62a3.93,3.93,0,0,0-3.52,1.09s-1.09-1.74-2.05-1.88a21.09,21.09,0,0,0-4,.5s-3-.64-3.66-.66a2.3,2.3,0,0,0-2.17,1.61c-.27,1.12-.81.92-.81.92s-3.52-.54-4.16,1h0s-.79.48-.28,2.12,1.09,6.12,1.92,6.45,3,1.13,3.1,2.1a38.05,38.05,0,0,1-.15,5.37c-.21,2.2,3.65,5.13,8.24,6.1,2.59.54,3.7,1,4.91,1S169.69,91.08,169.69,91.08Z"/><path class="cls-4" d="M168.49,76.52h-.12c-.76-.05-3.4-3.13-3.4-4a9.18,9.18,0,0,1,1.95-3.68,22.08,22.08,0,0,0-1.46,3.68c0,.65,2.48,3.42,3,3.48a6.43,6.43,0,0,0,1.23-.15,16.24,16.24,0,0,1,1.85-.25.81.81,0,0,0,.75-.58,1.7,1.7,0,0,0-.23-1.59l-1.13-1.15a3.1,3.1,0,0,1,1.47.81,2.18,2.18,0,0,1,.34,2.1,1.29,1.29,0,0,1-1.17.89,15.82,15.82,0,0,0-1.79.24A7.9,7.9,0,0,1,168.49,76.52Z"/><path class="cls-4" d="M154.42,81a15.34,15.34,0,0,0-3-1.58c-.4-.12-.8-1.37-1.89-5.82-.18-.74-.32-1.32-.39-1.55a1.88,1.88,0,0,1,.63-1.69,3.28,3.28,0,0,1,1.71-1,5.45,5.45,0,0,1,1.33.14,2.52,2.52,0,0,0-1.05.21c-.21.07-.46.18-.65.26a2.88,2.88,0,0,0-1,.68,1.47,1.47,0,0,0-.51,1.22c.07.24.22.83.4,1.57A36.26,36.26,0,0,0,151.59,79a15.67,15.67,0,0,1,3.1,1.63Zm-2.82-2Z"/><path class="cls-4" d="M157.61,77.21a5.68,5.68,0,0,0-1.71-.86c-.65-.16-.74-1-.88-2.37a25,25,0,0,0-.73-4.24,1.9,1.9,0,0,1,.4-1.72,2.26,2.26,0,0,1,1.09-.84,4.08,4.08,0,0,1,1.09-.09,2.22,2.22,0,0,0-1.09.48,3.89,3.89,0,0,0-.6.67,1.63,1.63,0,0,0-.43,1.37,25.45,25.45,0,0,1,.74,4.32c.11,1.08.19,1.87.52,1.95a6.09,6.09,0,0,1,1.89.94Z"/><path class="cls-4" d="M160.86,75.58a34.27,34.27,0,0,0-1.05-5c-.14-.94.15-2.63,1.61-2.92a5.93,5.93,0,0,0-1,1.18,3.71,3.71,0,0,0-.16,1.64h0a34.23,34.23,0,0,1,1.06,5.09Z"/><path class="cls-4" d="M166.33,78.37l-.28,0a6.45,6.45,0,0,0-2.43,0l-.12-.47a6.78,6.78,0,0,1,2.63,0,1,1,0,0,0,1.08-.58,1.79,1.79,0,0,0,.11-1.48l.34-.34a2.07,2.07,0,0,1,0,2A1.43,1.43,0,0,1,166.33,78.37Z"/><path class="cls-4" d="M157.51,90.91c-1.58-.86-3.47-2.52-3.21-4.8a21.93,21.93,0,0,0,.06-4.56c0-.33,0-.63-.06-.92,0-1.31.26-2.78,2.86-3.66a18,18,0,0,0,2.58-1.11,3.38,3.38,0,0,1,1.66-.55c.86,0,2.29.1,2.56,1.89.31,2-3.82,4.44-3.86,4.47-.23.14-.56.71-.12,3a2.1,2.1,0,0,1,0,.22s-1-3.14-.16-3.63c1.27-.75,3.82-2.71,3.63-4s-1.07-1.44-2.11-1.49a3.15,3.15,0,0,0-1.42.5,18.42,18.42,0,0,1-2.64,1.14c-2.29.78-2.57,2-2.53,3.18,0,.28,0,.58.06.9a22.35,22.35,0,0,1-.06,4.65c-.23,2.08,1.55,3.49,2.74,4.19a6.82,6.82,0,0,1,1.13,1A11.74,11.74,0,0,1,157.51,90.91Z"/><path class="cls-4" d="M168.63,87.9a12.35,12.35,0,0,1-3.41-8A15,15,0,0,0,168.49,87a9.94,9.94,0,0,0,1.35,1.27A3.12,3.12,0,0,1,168.63,87.9Z"/><path class="cls-4" d="M167.41,90.91a2.18,2.18,0,0,0,.4-1.21,8.68,8.68,0,0,0-.46-3.35l.46-.14a10.12,10.12,0,0,1,.51,2.85A2.17,2.17,0,0,1,167.41,90.91Z"/><path class="cls-8" d="M167.74,113.78s5.4,43.13,8,47c0,0,12,2.45,19.75,0s7.24-18.55,1.61-34.64-8-18.19-8-18.19S181.34,115.87,167.74,113.78Z"/><path class="cls-9" d="M167.74,113.78s-2-.42-1.19-6.24a.45.45,0,0,1,.61-.36c1.16.47,4.38,1.3,10.56-.37,8-2.17,7.73-5,8.61-4.91s4.5,5.22,3,6.44S178.27,116.67,167.74,113.78Z"/><path class="cls-9" d="M167.74,113.78s2,23.18,6.62,33.08c0,0-3.07-11.41-4.81-34.28Z"/><path class="cls-3" d="M47.73,186.52s6.57,2.4,23.76,4.71a70.31,70.31,0,0,1,14.6-4.64c7.22-1.27,11.09-2.06,12.88-4.12,1.3-1.51,2.61-2.11,3.57-.35,1.19,2.17-3.27,7.43-6.64,8.06s-2.72,1-1.5,1.32,7.92,1.77,13.13,2.57,10.12,1.41,11.73,1.82c2.46.61,2.41,3.88.36,4.16s-7.52-.51-11.57-1-6.36-.84-7.07-.52,4.84,2,11.18,3.32c6.59,1.32,7.34,1.92,7.6,2.88s-.32,3.09-3.85,2.55-13.24-2.75-15.78-3.24-3-.24-2.78.06,8.2,2.37,12,3.14,5,2.09,4.54,3.55c-.42,1.24-3.18,1-7.6.38s-10.74-2.68-11.52-2.66-.4.91,3.61,2.16,8.69,3,8.95,3.68,1.45,2.93-2.48,2.65S94,213.84,90.4,213.13a58.58,58.58,0,0,1-14.83-5c-5-2.64-3.2-2.84-5.87-3.46-3.78-.89-27.83-2.74-27.83-2.74S43.21,189.55,47.73,186.52Z"/><path class="cls-8" d="M52.57,183.88S28.72,170.75,5.14,171.32c0,0-4.24,5.47-5.12,16-.67,8.08,11.9,16.22,28.87,17.94s19.88.42,19.88.42A25.16,25.16,0,0,1,52.57,183.88Z"/><path class="cls-9" d="M51.87,183.78s1.23-1.64,6.16,1.55a.45.45,0,0,1,.07.7c-.92.85-3,3.42-4.11,9.73-1.42,8.21,1.27,9.11.83,9.88s-6.63,1.89-7.13.05S44.81,192.11,51.87,183.78Z"/><path class="cls-9" d="M52.3,183.51s-12-8.14-33.88-10.64c0,0,28.49,6.9,33.24,12.85Z"/><path class="cls-7" d="M97.75,124s4.54,24.7-2.81,35,14,16.25,21.75,13.89,9.26-40.75,3.79-55.72S100.8,117.53,97.75,124Z"/><path class="cls-5" d="M97.75,124s7.31,4.92,15.16,2.75,8.74-5,8.74-5,.16-1.64-1.56-5.55C120.09,116.17,112,121.16,97.75,124Z"/><path class="cls-7" d="M64.86,98.79S75.22,86,81.51,88.56s9.1,9.18,18.2,9.44,8.77-4.19,13.7-4.67,16.85,8.11,16.53,12.78-14.9,20.22-35,17.57S64.86,98.79,64.86,98.79Z"/></g></g></svg>