<svg xmlns="http://www.w3.org/2000/svg" xmlns:xlink="http://www.w3.org/1999/xlink" viewBox="0 0 254.17 254.17"><defs><style>.cls-1{fill:#1791b2;}.cls-1,.cls-2,.cls-3{fill-rule:evenodd;}.cls-2{fill:#fff;}.cls-3{fill:url(#linear-gradient);}</style><linearGradient id="linear-gradient" x1="127.08" y1="217.14" x2="127.08" y2="71.29" gradientUnits="userSpaceOnUse"><stop offset="0.32" stop-color="#1791b2"/><stop offset="0.69" stop-color="#ed1c25"/></linearGradient></defs><title>demam</title><g id="Layer_2" data-name="Layer 2"><g id="Layer_1-2" data-name="Layer 1"><path class="cls-1" d="M127.08,0A127.08,127.08,0,1,1,0,127.08,127.1,127.1,0,0,1,127.08,0"/><path class="cls-2" d="M127.09,6A121.06,121.06,0,1,1,6,127.09,121.08,121.08,0,0,1,127.09,6"/><path class="cls-1" d="M109.12,157.91V47A18,18,0,1,1,145,47V157.91a36,36,0,1,1-35.92,0"/><path class="cls-2" d="M112.21,159.76V47a14.91,14.91,0,0,1,14.87-14.87h0A14.92,14.92,0,0,1,142,47V159.76a32.89,32.89,0,1,1-29.74,0"/><path class="cls-3" d="M136.89,163.81a27.57,27.57,0,1,1-19.61,0V81.11a9.82,9.82,0,1,1,19.63,0v82.7Z"/><path class="cls-1" d="M160.44,136.29h23.23a5.1,5.1,0,0,1,0,10.19H160.44a5.1,5.1,0,1,1,0-10.19"/><path class="cls-1" d="M160.44,110.81h23.23a5.1,5.1,0,0,1,0,10.19H160.44a5.1,5.1,0,1,1,0-10.19"/><path class="cls-1" d="M160.44,85.33h23.23a5.1,5.1,0,1,1,0,10.19H160.44a5.1,5.1,0,1,1,0-10.19"/><path class="cls-1" d="M160.44,59.85h23.23a5.1,5.1,0,0,1,0,10.19H160.44a5.1,5.1,0,1,1,0-10.19"/><path class="cls-1" d="M88.93,59.85l6.31,11.75,6.31,11.75H92.65v53.36a3.73,3.73,0,0,1-3.72,3.72h0a3.73,3.73,0,0,1-3.72-3.72V83.34H76.3l6.31-11.75Z"/></g></g></svg>