<svg xmlns="http://www.w3.org/2000/svg" viewBox="0 0 555.92 555.92"><defs><style>.cls-1{fill:#67a272;}.cls-2{fill:none;}.cls-3{fill:#ea651b;}.cls-4{fill:#fff;}.cls-5{fill:#00abe9;}.cls-6{fill:#00eed0;}.cls-7{fill:#fdda41;}.cls-8{fill:#00bffe;}.cls-9{fill:#00bdfe;}.cls-10{fill:#07ace9;}.cls-11{fill:#01f2e0;}.cls-12{fill:#07edcb;}.cls-13{fill:#00a9ef;}.cls-14{fill:#00a9f1;}.cls-15{fill:#eed848;}.cls-16{fill:#3ddce2;}.cls-17{fill:#3bd5e5;}.cls-18{fill:#23cbe3;}.cls-19{fill:#22cbe3;}.cls-20{fill:#23cbe4;}.cls-21{fill:#21c9e4;}.cls-22{fill:#38e1e0;}.cls-23{fill:#35e8dc;}.cls-24{fill:#22cfe2;}.cls-25{fill:#23cee2;}.cls-26{fill:#31e4dd;}.cls-27{fill:#28dddf;}.cls-28{fill:#26cde4;}.cls-29{fill:#25d2e1;}.cls-30{fill:#32e9dc;}.cls-31{fill:#28d1e3;}.cls-32{fill:#35cbe7;}.cls-33{fill:#34cae7;}.cls-34{fill:#27dede;}.cls-35{fill:#29ead9;}.cls-36{fill:#00f6cd;}.cls-37{fill:#08aeea;}.cls-38{fill:#f3b744;}</style></defs><title>hand</title><g id="Layer_2" data-name="Layer 2"><g id="Layer_1-2" data-name="Layer 1"><circle class="cls-1" cx="277.96" cy="277.96" r="277.96"/><circle class="cls-2" cx="277.96" cy="277.96" r="277.96"/><path class="cls-3" d="M278,555.92A278,278,0,0,1,81.41,81.41,278,278,0,0,1,474.51,474.51,276.14,276.14,0,0,1,278,555.92ZM278,18C134.62,18,18,134.62,18,278s116.62,260,260,260,260-116.62,260-260S421.3,18,278,18Z"/><path class="cls-4" d="M278,539.51A261.55,261.55,0,0,1,93,93,261.55,261.55,0,0,1,462.9,462.9,259.84,259.84,0,0,1,278,539.51Zm0-506.16C143.08,33.34,33.35,143.08,33.35,278S143.08,522.57,278,522.57,522.57,412.84,522.57,278,412.84,33.34,278,33.34Z"/><circle class="cls-2" cx="277.96" cy="277.96" r="226.36"/><path class="cls-5" d="M337,291.54c-1.24,22.44-2.39,44.88-3.76,67.31-1,16.11-2.16,32.22-3.44,48.31-1,13.15-2.09,26.31-4.66,39.28a29.5,29.5,0,0,1-1.18,3.73c-.63,1.85-1.76,2.63-3.9,2.62q-80.44-.1-160.88,0a3.68,3.68,0,0,1-3.86-2.66c-1.82-4.29-2.17-8.89-2.77-13.41-2.91-22.07-4.44-44.28-5.79-66.48-2.15-35.28-4-70.57-5.9-105.87-.54-9.91-1.14-19.83-1.2-29.76-.07-12.08,6.7-20.67,15.67-27.76,13.79-10.89,30-16.39,46.89-20,2.24-.48,4.51-.86,6.76-1.28a4.74,4.74,0,0,1,3-1.28,7.48,7.48,0,0,0,4.44-.59,8.78,8.78,0,0,1,2-.28c1.9-.08,3.83.19,5.69-.43a13,13,0,0,1,2.77-.28c1.17,0,2.33,0,3.5,0,6.72,0,13.44,0,20.15,0a13.36,13.36,0,0,1,3.49.24c1.93.66,3.94.43,5.92.48a9.75,9.75,0,0,1,2.09.26,14.36,14.36,0,0,0,4,.49,6.39,6.39,0,0,1,3.72,1.48,141.39,141.39,0,0,1,39.69,11.83,2.23,2.23,0,0,1-.34,2.08,15.3,15.3,0,0,0-2.52,3.92c-.71,1.25-1.28,2.57-2,3.83a14.57,14.57,0,0,0-1.91,3.36,30.05,30.05,0,0,1-2.1,5.44,11.51,11.51,0,0,0-1.82,5c-.29,1.05-.39,2.15-.62,3.21a11.09,11.09,0,0,0-.35,3.4,10.74,10.74,0,0,1-.27,2.08,49.78,49.78,0,0,0,0,12.43,10.47,10.47,0,0,1,.29,2.08,11.21,11.21,0,0,0,.35,3.42c.24,1.08.34,2.19.64,3.25.39,1.79.67,3.61,1.95,5.06,1.1,1.55,1.37,3.41,1.94,5.16a12.14,12.14,0,0,0,1.85,3.41c.65,1.08,1.37,2.12,2,3.23a9.63,9.63,0,0,0,1.93,2.57c.53.61.92,1.33,1.43,2s1.14,1.2,1.68,1.82a6.43,6.43,0,0,1,.52.69,12.81,12.81,0,0,0,3.66,3.67,6.27,6.27,0,0,1,.69.5,19.76,19.76,0,0,0,2.52,2.17,11,11,0,0,1,1.32,1,9.21,9.21,0,0,0,2.59,1.93c1.12.61,2.17,1.32,3.26,2a13.15,13.15,0,0,0,3.48,1.87c1.69.66,3.44,1.11,5.12,1.78C335.66,290.08,336.93,290.11,337,291.54Z"/><path class="cls-6" d="M306.13,268.09c-.77-1-1.79-1.87-1.94-3.24a35.9,35.9,0,0,0-2-3.32l-2-5.22c-1.06-1.6-.93-3.63-1.94-5.25-1.09-.93-.46-2.2-.65-3.3-.78-1,.14-2.3-.65-3.28l0-2a58.8,58.8,0,0,1,0-13.05l0-2c.78-1-.13-2.29.65-3.26.18-1.11-.44-2.37.65-3.3.82-1.69,1-3.61,1.94-5.25l2-5.22a35.2,35.2,0,0,0,2-3.31,8.15,8.15,0,0,1,2-3.89,46.1,46.1,0,0,0,2.63-4l.68-1.85c3.78-5,6.49-10.57,9.67-15.89,6.1-10.2,12.34-20.34,18-30.76,5.18-9.47,10.84-18.65,16.18-28,.36-.63.75-1.23,1.4-2.3,3.82,6.44,7.57,12.42,11,18.57,12.61,22.68,26.09,44.84,39.1,67.29,19.82,34.2,1.73,76.77-36.71,86.15a58.21,58.21,0,0,1-29.19-.58c-.63-.17-1.28-.25-1.92-.37l-7.85-3.15c-1-.84-2.26-1.21-3.32-2-1.37-.17-2.25-1.16-3.26-1.95a22.42,22.42,0,0,0-2.67-2l-1.27-.7a7.59,7.59,0,0,0-2.64-2.6v0a23.78,23.78,0,0,1-4.6-4.59h0a5,5,0,0,0-2-2l-1.29-1.89A20.12,20.12,0,0,0,306.13,268.09Z"/><path class="cls-7" d="M243.81,133.38c7.61.63,15.24.24,22.85.21,2.78,0,3.51.87,3.44,3.53q-.26,9.77,0,19.56c.07,2.63-.57,3.84-3.4,3.5a26.65,26.65,0,0,0-4.23.13c-1.16.82-2.5.66-3.8.66q-19.31,0-38.62,0c-1.3,0-2.63.13-3.81-.64l-.32-.07c-2.22-.47-5.18.95-6.58-.69-1.54-1.81-.48-4.79-.52-7.26-.09-5.21.08-10.43-.08-15.64-.07-2.31.37-3.12,3-3.1,7.61.06,15.24.45,22.85-.2A17.07,17.07,0,0,1,243.81,133.38Z"/><path class="cls-5" d="M243.81,133.38a45.58,45.58,0,0,1-9.23,0q0-16.44,0-32.87a2.77,2.77,0,0,0-1.33-1c-12.17-.23-24.34-.29-36.5,0-.54.17-1,.53-1.66.29-4.05-2-4.51-5-1.2-7.95a53.53,53.53,0,0,1,6.81-.26H320.09c1.75,0,3.5.06,5.24-.11a9.82,9.82,0,0,0,1.21-.34c8.89,3.26,17.35,7.49,26,11.37,2.58,1.16,3.13,3.53,2.19,6.09a4.61,4.61,0,0,1-6.33,2.33c-8-3.49-15.86-7.14-23.79-10.73a1.76,1.76,0,0,0-1.63-.86c-25,0-50.08,0-75.12,0a16,16,0,0,0-2.61.14,2.76,2.76,0,0,0-1.4,1Q243.82,116.94,243.81,133.38Z"/><path class="cls-6" d="M212.26,185l-3.25.61q2.79-10.93,6.38-21.63c.55-2.36,2.43-2.7,4.39-2.78,4-.15,8.05-.07,12.08-.06,9.36,0,18.72-.12,28.07.08a4.49,4.49,0,0,0,2.63.25l7.2,24.2-3.6-.66c-1.22-.9-2.76.12-4-.66l-2,0c-1.89-.92-4,.19-5.89-.65l-3.33,0c-6.77-.72-13.56-.13-20.33-.32-1.3.14-2.64-.31-3.9.3l-2.67,0c-1.89.84-4-.24-5.89.64l-1.95,0C215,185.08,213.5,184.17,212.26,185Z"/><path class="cls-8" d="M326.54,91.21v.71c-1.13.62-2.36.31-3.54.31q-61.86,0-123.71,0c-1.15,0-2.88,1.06-3.49-1.05,1.08-.1,2.15-.29,3.23-.29q62.16,0,124.32,0C324.41,90.86,325.53,90.58,326.54,91.21Z"/><path class="cls-9" d="M243.83,100.51l0-1.36a4.29,4.29,0,0,1,2.55-.31q38.16,0,76.32,0a4.21,4.21,0,0,1,2.55.32l-.64,1.13-76.5.08C246.67,100.36,245.25,100.45,243.83,100.51Z"/><path class="cls-10" d="M195.8,91.15c.88,1.22,2.19.77,3.33.77q63.71,0,127.41,0c-1,1.09-2.25.65-3.4.65q-62.22,0-124.44,0a18.07,18.07,0,0,1-4.83-.69A1.88,1.88,0,0,1,195.8,91.15Z"/><path class="cls-11" d="M262.57,161.42c-.43,0-.21,1.28-1.06.59-1.12-.64-2.35-.32-3.52-.32q-19.62,0-39.24,0c-.85,0-1.75.26-2.54-.31l0-1,46.23,0Q262.52,160.86,262.57,161.42Z"/><path class="cls-9" d="M234.59,99.15l0,1.36q-17.84-.08-35.68-.17c-1.27,0-2.63.38-3.81-.46l.78-.73c1-.58,2.13-.3,3.2-.3q16.17,0,32.34,0C232.46,98.84,233.58,98.56,234.59,99.15Z"/><path class="cls-12" d="M216.21,161.35q21,0,41.91,0c1.14,0,2.43-.44,3.39.64q-20.35,0-40.7,0c-2.06,0-4,.16-5.42,1.93C215.55,163,215.44,162,216.21,161.35Z"/><path class="cls-7" d="M181.53,427.19c-.09-1.08-.25-2.15-.25-3.23q0-75.93-.08-151.85c0-2.86.65-3.59,3.57-3.58,36.54.11,73.09.07,109.63.08,1.08,0,2.16.16,3.24.24.6,1,.31,2.13.31,3.2q0,76,0,152a6.65,6.65,0,0,1-.28,3.21h0c-1.16.86-2.52.62-3.81.62q-54.29,0-108.57,0C184,427.84,182.65,428.15,181.53,427.19Z"/><path class="cls-13" d="M180.18,427V269.61h.32v157.5Z"/><path class="cls-14" d="M299,427V269.61h.32v157.5Z"/><path class="cls-15" d="M297.67,427.24l0-158.38c1.14.82.55,2,.55,3q.05,76.16,0,152.33C298.19,425.19,298.68,426.36,297.67,427.24Z"/><path class="cls-16" d="M230,183c5.86,0,11.73,0,17.59,0,1.14,0,2.42-.4,3.39.63H230q-.32-.21-.21-.42T230,183Z"/><path class="cls-17" d="M297,229.46q0,6.53,0,13.05A26.51,26.51,0,0,1,297,229.46Z"/><path class="cls-18" d="M298.3,251.06c1.9,1.29,1.52,3.42,1.94,5.25C298.48,255,298.38,253,298.3,251.06Z"/><path class="cls-19" d="M311.41,274.64a18.23,18.23,0,0,1,4.6,4.59A7.23,7.23,0,0,1,311.41,274.64Z"/><path class="cls-20" d="M300.23,215.68a8,8,0,0,1-1.94,5.25C298.38,219,298.47,217,300.23,215.68Z"/><path class="cls-21" d="M308.77,199.3a4.85,4.85,0,0,1-2.63,4A5.52,5.52,0,0,1,308.77,199.3Z"/><path class="cls-22" d="M254.32,183.63c2,.25,4.05-.67,5.89.65C258.24,184.06,256.16,184.9,254.32,183.63Z"/><path class="cls-23" d="M218.2,184.26c1.84-1.31,3.93-.38,5.89-.64C222.24,184.9,220.16,184.06,218.2,184.26Z"/><path class="cls-24" d="M302.21,261.53a3.85,3.85,0,0,1,2,3.32A4.43,4.43,0,0,1,302.21,261.53Z"/><path class="cls-25" d="M304.18,207.15a3.88,3.88,0,0,1-2,3.31A4.4,4.4,0,0,1,304.18,207.15Z"/><path class="cls-26" d="M212.26,185c1.17-1.23,2.65-.5,4-.65C215.08,185.47,213.67,185.21,212.26,185Z"/><path class="cls-27" d="M316,279.21a2.78,2.78,0,0,1,2.64,2.6A6.41,6.41,0,0,1,316,279.21Z"/><path class="cls-28" d="M325.85,286.44a3.85,3.85,0,0,1,3.32,2A4.37,4.37,0,0,1,325.85,286.44Z"/><path class="cls-29" d="M306.13,268.09a2.94,2.94,0,0,1,2,2.68A3.58,3.58,0,0,1,306.13,268.09Z"/><path class="cls-30" d="M262.17,184.29c1.34.17,2.83-.56,4,.66C264.83,184.81,263.35,185.44,262.17,184.29Z"/><path class="cls-31" d="M319.92,282.52a3,3,0,0,1,2.67,2A3.52,3.52,0,0,1,319.92,282.52Z"/><path class="cls-32" d="M297.65,224.23c-.12,1.11.43,2.35-.65,3.26C297.11,226.39,296.54,225.14,297.65,224.23Z"/><path class="cls-33" d="M297,244.48c1.08.92.53,2.17.65,3.28C296.54,246.84,297.12,245.59,297,244.48Z"/><path class="cls-34" d="M309.42,272.65a1.88,1.88,0,0,1,2,2A4.39,4.39,0,0,1,309.42,272.65Z"/><path class="cls-35" d="M230,183q0,.31,0,.62l-3.25,0C227.68,182.54,228.91,183.09,230,183Z"/><path class="cls-5" d="M360,226.15c-1.18,1.45-.54,3.15-.58,4.72-.1,4.25,0,8.5-.05,12.75-.05,3.2-2,5.29-4.64,5.26s-4.51-2.12-4.55-5.35c-.06-5.12-.09-10.25,0-15.37,0-2-.6-2.69-2.62-2.65-5.24.11-10.49.06-15.74,0-2.79,0-5.19-2.06-5.21-4.33,0-2.67,2.1-4.78,5.16-4.83,5.14-.09,10.28-.12,15.41,0,2.24.06,3.1-.57,3-2.92-.16-4.9-.07-9.81,0-14.71,0-3.82,1.56-5.43,5-5.36,2.86.06,4.2,1.71,4.22,5.37,0,4.9.12,9.81,0,14.71-.08,2.36.8,3,3,2.92,4.91-.14,9.84-.07,14.75,0,3.65,0,5.22,1.5,5.25,4.76,0,2.95-1.59,4.37-5.18,4.41-4.7,0-9.4,0-14.1,0-1.05,0-2.21-.35-3.1.59Z"/><path class="cls-36" d="M360,226.16h18.91v.67c-5,0-10,.13-15-.06-2.6-.1-3.42.72-3.32,3.31A86.63,86.63,0,0,1,360,245q0-9.44,0-18.88Z"/><path class="cls-37" d="M325.22,99.15H243.79c1-1.08,2.25-.64,3.39-.64q37.32,0,74.65,0C323,98.51,324.26,98.06,325.22,99.15Z"/><path class="cls-37" d="M234.59,99.15H195.85c.74-.92,1.78-.65,2.73-.65q16.64,0,33.29,0C232.81,98.5,233.86,98.22,234.59,99.15Z"/><path class="cls-38" d="M239.43,396.43H205c-3.27,0-5.68-1.85-5.81-4.41s2.39-4.75,5.9-4.75q34.77,0,69.54,0c3.07,0,5.24,1.92,5.29,4.53.05,3.13-1.62,4.61-5.37,4.62Q257,396.45,239.43,396.43Z"/><path class="cls-38" d="M239.49,337.5H205c-3.43,0-5.95-2-5.87-4.68s2.48-4.48,5.84-4.48q34.77,0,69.54,0c3.09,0,5.28,1.89,5.35,4.48.09,3.13-1.6,4.67-5.32,4.68C262.89,337.51,251.19,337.49,239.49,337.5Z"/><path class="cls-38" d="M239,367.61c-11.36,0-22.72,0-34.09,0-2.56,0-4.46-.89-5.47-3.31-.87-2.09.34-3.51,1.63-4.91a3.7,3.7,0,0,1,3-1q35.4,0,70.79,0c2.79,0,4.65,1.09,5,4s-1.42,4.07-3.85,4.83a11.61,11.61,0,0,1-3.56.32Z"/><path class="cls-38" d="M239.31,306.07h-19c-3.85,0-5.3-1.12-5.38-4.08s2-5,5.5-5.07c5.91-.07,11.81,0,17.72,0,6.67,0,13.35-.09,20,0,5,.09,7.22,3.5,5,7.2-1,1.68-2.45,2-4.18,2C252.44,306.06,245.87,306.07,239.31,306.07Z"/></g></g></svg>