<svg xmlns="http://www.w3.org/2000/svg" viewBox="0 0 77 57.02"><defs><style>.cls-1{isolation:isolate;}.cls-2{fill:#eed5d5;opacity:0.5;}.cls-3{fill:#353a85;}.cls-4{fill:#f7f7f7;}.cls-5{opacity:0.07;}.cls-20,.cls-5{mix-blend-mode:multiply;}.cls-6{fill:#394860;}.cls-7{fill:#d67086;}.cls-8{fill:#292949;}.cls-9{fill:#8c6654;}.cls-10,.cls-20{opacity:0.12;}.cls-11{fill:#c1796b;}.cls-12{fill:#8cabef;}.cls-13{fill:#babcbe;}.cls-14{fill:#efbfa5;}.cls-15{fill:#474ebb;}.cls-16{fill:#fff;}.cls-17{fill:#3b3387;}.cls-18{fill:#898f92;}.cls-19{fill:#ddc8ac;}</style></defs><title>health</title><g class="cls-1"><g id="Layer_2" data-name="Layer 2"><g id="Layer_1-2" data-name="Layer 1"><path class="cls-2" d="M73.4,47.43H10.8c-2,0-3.6.73-3.6,1.62h0c0,.62.78,1.15,1.91,1.43H3.6c-2,0-3.6.73-3.6,1.62H0c0,.89,1.62,1.62,3.6,1.62H5.52c-.54.28-.86.65-.86,1v.65c0,.89,1.62,1.62,3.6,1.62H69.93c2,0,3.6-.73,3.6-1.62v-.65c0-.89-1.62-1.62-3.6-1.62l-4.19,0a2.44,2.44,0,0,0,1.19-.34,1,1,0,0,0,.34-1.51A1.5,1.5,0,0,0,66,50.64l7.41,0c2,0,3.6-.73,3.6-1.62h0C77,48.16,75.38,47.43,73.4,47.43Z"/><circle class="cls-3" cx="16.84" cy="15.71" r="6.67"/><circle class="cls-4" cx="16.84" cy="15.71" r="5.78"/><g class="cls-5"><path class="cls-6" d="M20.81,11.54a5.78,5.78,0,0,1-8.38,7.94,5.78,5.78,0,1,0,8.38-7.94Z"/></g><rect class="cls-7" x="19.08" y="13.06" width="0.45" height="5.76" rx="0.18" ry="0.18" transform="translate(2.58 34.56) rotate(-87.6)"/><path class="cls-8" d="M17.07,15.32V12.48a.22.22,0,0,0-.22-.22h0a.22.22,0,0,0-.22.22v2.84a.44.44,0,1,0,.44,0Z"/><path class="cls-9" d="M22.2,21.63a1.73,1.73,0,0,1,1.23,1.45,1.52,1.52,0,0,0-.34-2.46,1.76,1.76,0,0,0-.85,1Z"/><path class="cls-3" d="M68.22,14.48,66,15a.37.37,0,0,0-.36-.12l-5.74,1.31a.37.37,0,0,0-.27.27l-2.17.5L58,19.25l2.15-.49a.37.37,0,0,0,.4.17l5.74-1.31a.37.37,0,0,0,.28-.33l2.15-.49Z"/><g class="cls-10"><polygon points="58.23 16.83 58.75 19.09 59.57 18.9 58.47 16.77 58.23 16.83"/></g><rect class="cls-3" x="56.26" y="14.04" width="2.21" height="8.34" rx="0.9" ry="0.9" transform="translate(-2.62 13.25) rotate(-12.88)"/><rect class="cls-3" x="54.12" y="14.53" width="2.21" height="8.34" rx="0.9" ry="0.9" transform="translate(-2.78 12.78) rotate(-12.88)"/><path class="cls-3" d="M54.32,20.15l-.24,0a.5.5,0,0,1-.39-.42l-.29-1.25a.5.5,0,0,1,.17-.55l.21-.12c.21-.12.47.07.54.39l.32,1.39C54.72,19.88,54.56,20.17,54.32,20.15Z"/><rect class="cls-3" x="67.49" y="11.47" width="2.21" height="8.34" rx="0.84" ry="0.84" transform="translate(-1.76 15.68) rotate(-12.88)"/><rect class="cls-3" x="69.63" y="10.98" width="2.21" height="8.34" rx="0.84" ry="0.84" transform="translate(-1.6 16.15) rotate(-12.88)"/><path class="cls-3" d="M72.19,16.06l.21-.12a.5.5,0,0,0,.17-.55l-.29-1.25a.5.5,0,0,0-.39-.42l-.24,0c-.24,0-.4.26-.32.58l.32,1.39C71.72,16,72,16.19,72.19,16.06Z"/><polygon class="cls-11" points="14.6 22.47 14.9 21.4 14.45 21.25 14.08 21.94 13.9 21.77 13.76 22.71 14.21 22.93 14.6 22.47"/><polygon class="cls-12" points="6.89 27.23 11.19 26.68 13.7 22.38 14.57 22.85 12.73 28.59 7.62 30.45 6.89 27.23"/><polygon class="cls-13" points="7.99 38.09 7.99 39.57 9.95 45.96 9.61 52.89 10.47 53.05 12.66 44.73 12.58 42.34 11.67 37.47 7.99 38.09"/><polygon class="cls-13" points="9.55 39.84 7.52 53.7 6.71 53.78 6.11 45.98 4.88 38.61 9.55 39.84"/><polygon class="cls-8" points="10.49 53.01 11.43 54 11.15 54.5 9.22 53.58 9.58 52.84 10.49 53.01"/><polygon class="cls-8" points="7.55 53.67 8.71 54.4 8.57 54.95 6.47 54.54 6.63 53.74 7.55 53.67"/><path class="cls-11" d="M10.7,23.31c-.8.06-1.54-.6-2.33-.43A1.52,1.52,0,0,0,7.3,23.95a1.28,1.28,0,0,0,0,.73,1.22,1.22,0,0,0,.23.41A1.74,1.74,0,0,0,8,25.5a3.13,3.13,0,0,1-.34.45l1.1.42L9,25.74a1.68,1.68,0,0,0,.33,0,1.9,1.9,0,0,0,1.34-1.41A3.7,3.7,0,0,0,10.7,23.31Z"/><polygon class="cls-8" points="10.5 23.55 8.03 23.26 7.55 25.14 6.86 24.59 7.22 21.51 10.69 21.44 12.2 22.32 12.13 23.2 10.79 24.11 10.5 23.55"/><path class="cls-12" d="M9.54,26.66,6.61,25.5a50.65,50.65,0,0,0-2.55,7c-1.18,4.14.38,9.88.38,9.88l9.5-1.93L11.3,32.21Z"/><path class="cls-14" d="M66.36,26.17l1.08,0a5.38,5.38,0,0,0,0-.86,2.46,2.46,0,0,0,.63-.34,2.3,2.3,0,0,0,.22-.76,2,2,0,0,0,0-1.51,1.63,1.63,0,0,0-1.4-.63,2,2,0,0,0-1.77.75c-.31.52.08,1.29.19,1.84.06.27.14.58.39.7s.3.05.42.14S66.26,25.93,66.36,26.17Z"/><path class="cls-8" d="M64,21.79l-.12-1.11a1,1,0,0,1,0-.41.72.72,0,0,1,.52-.42c.22-.06.46-.06.68-.11a2.85,2.85,0,0,1,.72-.15c.47,0,.83.45,1.29.53.64.1,1.23-.19,1.61.56.07.14.09.3.15.44a3.09,3.09,0,0,0,.34.49A2,2,0,0,1,69,24c-.3.3-.42.57-.83.66.19-.38-.06-1.9-.57-2.07-.14,0-.54.12-.7.14a4,4,0,0,0-1,.23,4.85,4.85,0,0,1-1.48.37.19.19,0,0,1-.25-.2Z"/><polygon class="cls-8" points="72.05 53.57 72.2 54.18 71.13 55.07 70.38 54.61 70.84 53.86 71.91 52.97 72.05 53.57"/><polygon class="cls-13" points="69.61 34.84 70.04 36.68 69.49 45.23 72.07 53.36 70.93 53.89 65.75 44.5 65.14 41.5 64.83 35.17 69.61 34.84"/><polygon class="cls-13" points="62.44 35.57 62.35 43.51 63.84 53.76 64.99 53.76 65.72 44.31 67.3 34.85 62.44 35.57"/><polygon class="cls-8" points="64.99 53.62 64.99 54.24 63.74 54.86 63.12 54.24 63.74 53.62 64.99 53.62"/><path class="cls-15" d="M71,37.09c0,.72,0,1.7-.29,1.74a.25.25,0,0,1-.15,0c-.48-.26-.82-.63-1.3-.89a5.47,5.47,0,0,0-1.62-.51,15.69,15.69,0,0,0-2.54-.26,20,20,0,0,0-2,.1,10.49,10.49,0,0,1-1.63.17,3.63,3.63,0,0,1-1.64-.52.1.1,0,0,1,0,0,.1.1,0,0,1,0-.07,3,3,0,0,1,.42-.91,5.9,5.9,0,0,0,.58-1,16.37,16.37,0,0,0,1-2.21c.38-1,.82-2,1.18-3.06a17.61,17.61,0,0,1,.83-2.12,3.31,3.31,0,0,1,1.34-1.54,1.81,1.81,0,0,1,.63-.09l1.93-.06a1.18,1.18,0,0,1,1.35.88,15.42,15.42,0,0,1,1.42,4.49c.13.82.26,1.64.35,2.46s.18,1.84.19,2.76C71,36.46,71,36.75,71,37.09Z"/><path class="cls-16" d="M66.68,29.32a5.26,5.26,0,0,0,.08,1.09L67.71,37l-5.19,0,.19-2.48a11.7,11.7,0,0,1,.19-1.58,11.8,11.8,0,0,1,.9-2.41l2-4.33a.45.45,0,0,1,.43-.32,5.09,5.09,0,0,1,1.55-.09c.12.45-.33,1.24-.5,1.66A6.24,6.24,0,0,0,66.68,29.32Z"/><polygon class="cls-15" points="63.45 28.45 61.02 24.82 60.4 19.11 61.41 18.88 62.77 24.09 65.15 26.18 63.45 28.45"/><polygon class="cls-14" points="61.41 18.88 61.41 18.51 61.59 18.14 61.53 17.86 61.24 17.86 61.13 18.48 60.28 18.69 60.4 19.11 61.41 18.88"/><polygon class="cls-14" points="64.72 32.8 64.19 33.01 63.73 32.8 63.64 32.88 63.73 33 63.3 32.93 63.01 33.12 62.97 33.58 63.24 33.98 63.7 33.96 64.17 33.67 64.9 33.42 64.72 32.8"/><polygon class="cls-15" points="64.11 32.66 67.13 31.39 67.47 27.77 69.57 28.67 69.08 32.7 64.51 33.69 64.11 32.66"/><polygon class="cls-13" points="34.48 38.97 34.88 44.45 36.21 53.52 37.23 53.52 37.87 45.15 38.16 38.38 34.48 38.97"/><polygon class="cls-8" points="37.22 53.39 37.22 53.95 36.12 54.5 35.57 53.95 36.12 53.39 37.22 53.39"/><polygon class="cls-13" points="41.7 37.67 41.31 45.35 40.43 54.17 39.38 54.17 38.53 45.82 37.29 37.03 41.7 37.67"/><polygon class="cls-8" points="39.39 54.05 39.39 54.61 40.52 55.17 41.08 54.61 40.52 54.05 39.39 54.05"/><path class="cls-14" d="M38.14,25.36l1.07-.1a5.36,5.36,0,0,0-.06-.85c.3-.1.64-.26.69-.57a.89.89,0,0,0,0-.3l-.21-1.21a1.08,1.08,0,0,0-.13-.4.91.91,0,0,0-.64-.35,2.21,2.21,0,0,0-1.79.43,1,1,0,0,0-.3.4,1.31,1.31,0,0,0,0,.77l.18.7c.07.27.17.57.43.67s.3,0,.42.12S38,25.13,38.14,25.36Z"/><path class="cls-8" d="M34.66,21.33a3.44,3.44,0,0,1,.09-.81c.1-.43.61-.63,1-.66,1-.07,1.88-.5,2.81-.17a12.17,12.17,0,0,1,1.73.51,1.43,1.43,0,0,1,.49.48,2.15,2.15,0,0,1,0,2.27,3.07,3.07,0,0,1-.34.42,2.3,2.3,0,0,1-.9.71c0-.31.28-1.29,0-1.54s-1.23-.26-1.7-.17-1,.47-1.48.55a1.91,1.91,0,0,1-1.14-.31A1.45,1.45,0,0,1,34.66,21.33Z"/><polygon class="cls-14" points="44.32 20.23 44.53 19.59 44.25 19.06 44.33 18.95 44.48 19.04 44.37 18.54 44.56 18.17 45.11 18.09 45.61 18.38 45.63 18.93 45.32 19.51 45.07 20.41 44.32 20.23"/><polygon class="cls-15" points="44.29 19.76 45.31 19.81 44.29 24.85 41.39 27.85 39.7 25.33 42.77 23.32 44.29 19.76"/><polygon class="cls-14" points="33.45 18.36 33.42 17.68 33.83 17.25 33.78 17.11 33.61 17.17 33.84 16.71 33.75 16.3 33.24 16.08 32.69 16.23 32.53 16.76 32.68 17.41 32.68 18.33 33.45 18.36"/><polygon class="cls-15" points="33.6 17.91 32.61 17.7 32.53 21.54 32.92 24.52 35.47 28.27 37.57 25.24 35.14 23.45 33.6 17.91"/><polygon class="cls-15" points="37.3 25.09 40.67 25.23 42.38 31.72 43.78 40.71 32.92 40.97 35.47 28.27 37.3 25.09"/><polygon class="cls-14" points="28.7 26.9 29.11 26.51 29.12 26.02 29.23 25.96 29.3 26.09 29.42 25.68 29.71 25.48 30.14 25.65 30.39 26.06 30.18 26.48 29.72 26.78 29.18 27.33 28.7 26.9"/><polygon class="cls-7" points="28.83 26.29 26.53 29.02 23.52 26.11 23.05 29.59 26.71 31.41 29.59 27.09 28.83 26.29"/><polygon class="cls-17" points="19.73 53.63 19.68 54.12 20.58 54.73 21.1 54.3 20.68 53.75 19.79 53.13 19.73 53.63"/><polygon class="cls-14" points="19.76 38.58 19.61 40.07 20.95 45.21 19.7 53.46 20.62 53.78 23.04 45.72 23.42 43.38 23.41 38.41 19.76 38.58"/><polygon class="cls-14" points="26.81 40.24 24.88 54.07 24 54.07 23.85 45.21 22.25 38.98 26.81 40.24"/><polygon class="cls-17" points="24.01 53.96 24.01 54.46 24.96 54.96 25.43 54.46 24.96 53.96 24.01 53.96"/><path class="cls-7" d="M24.66,26a.79.79,0,0,0-.29-.28c-.87-.49-2.31-.06-3.26-.06-.28,2.94-1.05,5.74-1.55,8.63q-.79,4.6-1.79,9.16a15.62,15.62,0,0,0,2.88.09,28.93,28.93,0,0,0,8.4-.74c-1.58-4.24-2.16-8.81-3.4-13.16-.22-.76-.48-1.52-.67-2.29A5.15,5.15,0,0,0,24.66,26Z"/><path class="cls-14" d="M24.81,22.58c-.34-1.77-2.55-1.47-3.18,0a2.31,2.31,0,0,0,.74,2.54c0,.16,0,.59.16.69s.54,0,.7,0a.25.25,0,0,0,.12-.06.46.46,0,0,0,0-.27,1.48,1.48,0,0,0,.36-.07,1.72,1.72,0,0,0,1-1.17A3.43,3.43,0,0,0,24.81,22.58Z"/><path class="cls-8" d="M21.54,29.61h.05c.39-.07,1-.19,1.2-.6s-.14-1.19-.2-1.62c-.08-.67-.11-1.34-.14-2a3.06,3.06,0,0,1,.5-1.71,9.62,9.62,0,0,1,1.14-1.41,1.43,1.43,0,0,0,.4-.63.93.93,0,0,0-.23-.77,1.31,1.31,0,0,0-1-.5,2.93,2.93,0,0,0-3,2.26c-.6,2,.15,4,0,6a2,2,0,0,1-.33,1A13.4,13.4,0,0,1,21.54,29.61Z"/><path class="cls-7" d="M18.58,37.41a.53.53,0,0,1-.51.16,1.22,1.22,0,0,1-.49-.26,3.79,3.79,0,0,1-.5-.46,1,1,0,0,1-.21-.33.39.39,0,0,1,.06-.37.59.59,0,0,1,.23-.14.25.25,0,0,1,.32,0C17.75,36.28,19,36.95,18.58,37.41Z"/><path class="cls-14" d="M18,37.41h.07a.52.52,0,0,0,.26,0s.21-.15.12-.14h-.19l.38-.4,0-.45L18.22,36l-.62,0c-.19.28-.45.54-.23.89a1.28,1.28,0,0,0,.25.26A1.07,1.07,0,0,0,18,37.41Z"/><path class="cls-17" d="M48.86,26l-.05,0c-.83.32-1.47,1.76-1.84,2.61a18.25,18.25,0,0,0-1.45,6.88c0,1.3,0,2.6,0,3.9A28.17,28.17,0,0,1,45.69,43a27.7,27.7,0,0,1,5-2,11.18,11.18,0,0,1,5.33-.19,86.12,86.12,0,0,0-2.43-12.19,10.68,10.68,0,0,0-.42-1.42c-.23-.52-.57-.67-1-1a2.81,2.81,0,0,0-.46-.28A4.06,4.06,0,0,0,48.86,26Z"/><polygon class="cls-11" points="46.35 38.82 48.22 46.42 48.26 52.27 49.16 52.44 49.53 47.01 50.42 37.47 46.35 38.82"/><polygon class="cls-17" points="49.18 52.38 49.33 52.95 49.2 54.06 48.46 54.06 48.19 52.45 48.27 52.18 49.18 52.38"/><polygon class="cls-11" points="53.5 37.98 53.66 44.55 52.79 53.83 51.89 53.89 51.57 45.39 49.74 37.68 53.5 37.98"/><polygon class="cls-17" points="52.76 53.67 53.97 54.31 53.87 54.88 51.74 54.62 51.84 53.8 52.76 53.67"/><polygon class="cls-15" points="53.76 38.83 54.37 46.42 53.75 51.62 51.32 51.48 50.89 45.57 49.84 39.12 50 38.11 53.5 38.16 53.76 38.83"/><polygon class="cls-15" points="50.08 45.87 49.79 51.31 47.67 51.2 47.72 46.04 46.39 39.55 46.69 37.74 50.24 37.96 50.08 45.87"/><path class="cls-16" d="M55,39c-2.18.33-5.8.59-8,.92A47.51,47.51,0,0,1,48.26,27.6a2.71,2.71,0,0,1,1-1.79c.65-.38,2-.33,2.41.41a16.43,16.43,0,0,1,.95,4C53.23,32.88,54.65,36.23,55,39Z"/><path class="cls-11" d="M48.91,23c.32-1.6,2.33-1.3,2.89,0a2.07,2.07,0,0,1-1,2.49q.08.33.13.66l-.74,0a.24.24,0,0,1-.21-.06.23.23,0,0,1,0-.13l0-.47-.06,0a1.56,1.56,0,0,1-.93-1.07A3.12,3.12,0,0,1,48.91,23Z"/><path class="cls-8" d="M49.11,23.46a2.16,2.16,0,0,0,0,1.57c.12.44.15.73-.36.76-.28,0-.79.06-1-.19s0-.66.15-.84.28-.18.37-.32a.53.53,0,0,0,.06-.19,2.78,2.78,0,0,0,0-.83,2.82,2.82,0,0,1-.05-.57,2.11,2.11,0,0,1,.4-.79c.26-.43,1-.95,1.5-.49a.81.81,0,0,1,.2.4.67.67,0,0,1,0,.27c-.05.36-.39.36-.64.49A1.8,1.8,0,0,0,49.11,23.46Z"/><path class="cls-8" d="M51.67,24c0,.25-.2.51-.09.75a1.11,1.11,0,0,0,.22.26.9.9,0,0,1,.18.87l1.52.19a.46.46,0,0,0,.23,0c.15-.06.19-.26.21-.42a1.59,1.59,0,0,0-.09-1c-.07-.13-.18-.24-.26-.37-.35-.63.24-1.54-.22-2.1-.21-.25-.55-.32-.82-.49-.48-.3-.73-.88-1.22-1.15a1.22,1.22,0,0,0-1.65,1.53C50,22.88,51.75,22.94,51.67,24Z"/><path class="cls-17" d="M48.92,26.08s-.69,9.77.82,11.69,2.17,2.65,2.17,2.65L45.7,43S45.83,28.78,48.92,26.08Z"/><path class="cls-18" d="M55.38,32.06a.53.53,0,0,1,.16.51,1.22,1.22,0,0,1-.26.49,3.79,3.79,0,0,1-.47.49,1,1,0,0,1-.33.21.39.39,0,0,1-.37-.06.59.59,0,0,1-.14-.23.25.25,0,0,1,0-.32C54.25,32.89,54.92,31.69,55.38,32.06Z"/><path class="cls-19" d="M55.38,32.64v-.07a.52.52,0,0,0,0-.26s-.15-.21-.14-.12v.19l-.4-.38-.45,0-.38.46L54,33c.28.19.54.45.89.23a1.28,1.28,0,0,0,.26-.25A1.07,1.07,0,0,0,55.38,32.64Z"/><path class="cls-7" d="M62.55,30.2a1.12,1.12,0,0,1-1.59.3.73.73,0,0,1-1.22,0,1,1,0,0,1-1.23-1.37.79.79,0,0,1-.74-.78s0,0,0,0a4.86,4.86,0,0,0-1.23.68,3.05,3.05,0,0,1-2.11.58,4,4,0,0,0-3.52,1.26c-1.42,1.63-1.18,3.74-.31,5.47a10,10,0,0,0,2.74,3.45c1.14.88,3.06,1.61,4.48.68a2.41,2.41,0,0,1,1.46-.4c2.47.16,3.44-2.66,3.78-4.46A8.28,8.28,0,0,0,62.55,30.2Z"/><path class="cls-8" d="M56.17,29.1A3.18,3.18,0,0,0,57,27.77a8.31,8.31,0,0,0,.39-1.62,6.26,6.26,0,0,0,.1-1.12,9.74,9.74,0,0,0-1.14.54,4.4,4.4,0,0,0-1.21.93,2.91,2.91,0,0,0-.72,1.56C54.33,29.27,55.39,29.74,56.17,29.1Z"/><path class="cls-7" d="M44.56,0c-2.13.05-4.68,1.46-5.12,3.33C38.61,1.6,35.25.83,33.15,1.22c-5.54,1-6.77,7.47-4,11.41a24.18,24.18,0,0,0,5.73,5.46c1.83,1.31,6.48,4,6.49,4s4-3.59,5.51-5.25a24.17,24.17,0,0,0,4.47-6.53C53.32,5.85,50.19-.13,44.56,0Z"/><g class="cls-20"><path d="M50.37,10.93A30.53,30.53,0,0,1,46.1,16a13.71,13.71,0,0,1-5.56,3.45,7.7,7.7,0,0,1-3.05.26c1.93,1.19,4,2.39,4,2.38s4-3.59,5.51-5.25a24.17,24.17,0,0,0,4.47-6.53,7,7,0,0,0,.56-2.42A22.14,22.14,0,0,1,50.37,10.93Z"/></g><path class="cls-16" d="M50.09,9.17l-4.37.57L43.52,4.16a.31.31,0,0,0-.58.06L40.6,14.6l-.14.6-3-6.36-.48-1a.31.31,0,0,0-.55,0L35.09,11.2l-4.91.52a.28.28,0,1,0,.06.56l5.09-.54a.3.3,0,0,0,.24-.17l1.15-2.9,3.08,6.52.48,1a.31.31,0,0,0,.58-.06L43.2,5.77l.11-.5,1.92,4.89a.3.3,0,0,0,.31.18l4.6-.6A.28.28,0,1,0,50.09,9.17Z"/><path class="cls-4" d="M19.56,36.8l-6.24.71a4.33,4.33,0,0,1-4.68-3.94h0a4.33,4.33,0,0,1,3.67-4.89L18.54,28Z"/><path class="cls-17" d="M19.78,36.77,31.9,35.39a3.38,3.38,0,0,0,3-3.74l-.24-2.12a3.38,3.38,0,0,0-3.74-3L18.77,27.94Z"/><path class="cls-16" d="M21.63,30.56l.33,0,.33,2.89-.33,0-.15-1.31-1.27.14.15,1.31-.33,0L20,30.74l.33,0L20.51,32l1.27-.14Z"/><path class="cls-16" d="M22.75,30.43l1.46-.17,0,.28-1.13.13.11,1,1-.12,0,.28-1,.12L23.38,33l1.2-.14,0,.28-1.53.17Z"/><path class="cls-16" d="M25.41,30.13l.44,0,1.23,2.79-.33,0-.37-.84-1,.12-.17.9-.33,0Zm.26.28-.28,1.49.87-.1Z"/><path class="cls-16" d="M27.54,32.82l-.33-2.89.33,0,.3,2.62,1-.12,0,.28Z"/><path class="cls-16" d="M28.47,30.06l0-.28,1.8-.2,0,.28-.74.08.3,2.62-.33,0L29.21,30Z"/><path class="cls-16" d="M32.26,29.35l.33,0,.33,2.89-.33,0-.15-1.31-1.27.14.15,1.31-.33,0-.33-2.89.33,0,.15,1.31,1.27-.14Z"/><path class="cls-17" d="M16.68,31.92l-1.58.18-.15,0-.14-1.22-.07-.61a.13.13,0,0,0-.13-.11l-1,.11a.13.13,0,0,0-.1.14l.19,1.68,0,.16-1.15.13-.58.07a.13.13,0,0,0-.1.14l.12,1a.12.12,0,0,0,0,.08.11.11,0,0,0,.09,0l1.58-.18.15,0L14,34.77l.07.61a.13.13,0,0,0,.13.11l1-.11a.11.11,0,0,0,.08,0,.12.12,0,0,0,0-.09l-.19-1.68,0-.16,1.15-.13.58-.07a.13.13,0,0,0,.1-.14l-.12-1A.13.13,0,0,0,16.68,31.92Z"/><path class="cls-11" d="M49.63,33.64l0,.07a.52.52,0,0,0,.15.22S50,34,50,34l-.09-.16.54.15.41-.19.12-.59-.28-.55c-.34,0-.69-.14-.89.21a1.28,1.28,0,0,0-.12.34A1.07,1.07,0,0,0,49.63,33.64Z"/><polygon class="cls-17" points="49.94 32.58 48.01 31.33 46.53 32.73 49.65 33.71 49.94 32.58"/></g></g></g></svg>