<svg xmlns="http://www.w3.org/2000/svg" viewBox="0 0 665.5 516.37"><defs><style>.cls-1{fill:#e6e7e8;}.cls-2{fill:#d1d3d4;}.cls-3{fill:#d3d3d4;}.cls-4{fill:#4fb2ff;}.cls-5{fill:#459ee6;}.cls-12,.cls-6{fill:#808285;}.cls-6{opacity:0.2;}.cls-13,.cls-7{fill:#d84e5c;}.cls-8{fill:#fff;}.cls-9{fill:#c44653;}.cls-10{fill:#d0d1cd;}.cls-11{fill:#eeefea;}.cls-13{font-size:38.35px;font-family:Roboto-Black, Roboto;}.cls-14{letter-spacing:-0.01em;}.cls-15{letter-spacing:-0.05em;}</style></defs><title>hospital_1</title><g id="Layer_2" data-name="Layer 2"><g id="Layer_1-2" data-name="Layer 1"><rect class="cls-1" x="338.69" width="326.82" height="60.67"/><rect class="cls-2" x="338.69" width="38.5" height="60.26"/><rect class="cls-1" y="200.04" width="170.73" height="316.34"/><rect class="cls-3" x="16.68" y="229.86" width="159.07" height="38.08"/><rect class="cls-3" x="16.68" y="299.54" width="159.07" height="38.09"/><rect class="cls-3" x="16.68" y="369.22" width="159.07" height="38.09"/><rect class="cls-3" x="16.68" y="438.91" width="159.07" height="38.09"/><rect class="cls-4" x="21.7" y="234.88" width="149.03" height="28.04"/><rect class="cls-4" x="21.7" y="304.56" width="149.03" height="28.04"/><rect class="cls-4" x="21.7" y="374.24" width="149.03" height="28.05"/><rect class="cls-4" x="21.7" y="443.93" width="149.03" height="28.04"/><rect class="cls-5" x="21.7" y="234.88" width="171.78" height="4.98"/><rect class="cls-5" x="21.7" y="304.56" width="171.78" height="4.98"/><rect class="cls-5" x="21.7" y="374.24" width="171.78" height="4.98"/><rect class="cls-5" x="21.7" y="443.93" width="171.78" height="4.98"/><rect class="cls-1" x="338.69" y="228.08" width="326.82" height="41.64"/><rect class="cls-1" x="338.69" y="297.76" width="326.82" height="41.64"/><rect class="cls-1" x="338.69" y="88.71" width="326.82" height="41.64"/><rect class="cls-1" x="338.69" y="158.4" width="326.82" height="41.64"/><rect class="cls-1" x="338.69" y="367.45" width="326.82" height="41.64"/><rect class="cls-1" x="338.69" y="437.13" width="326.82" height="79.24"/><rect class="cls-4" x="338.69" y="60.67" width="305.47" height="28.04"/><rect class="cls-4" x="338.69" y="130.35" width="305.47" height="28.04"/><rect class="cls-4" x="338.69" y="200.04" width="305.47" height="28.04"/><rect class="cls-4" x="338.69" y="269.72" width="305.47" height="28.04"/><rect class="cls-4" x="338.69" y="339.4" width="305.47" height="28.04"/><rect class="cls-4" x="338.69" y="409.09" width="305.47" height="28.04"/><rect class="cls-5" x="392.46" y="409.09" width="251.7" height="4.98"/><rect class="cls-5" x="392.46" y="339.4" width="251.7" height="4.98"/><rect class="cls-5" x="392.46" y="269.72" width="251.7" height="4.98"/><rect class="cls-5" x="392.46" y="200.04" width="251.7" height="4.98"/><rect class="cls-5" x="392.46" y="130.35" width="251.7" height="4.98"/><rect class="cls-5" x="392.46" y="60.67" width="251.7" height="4.98"/><polygon class="cls-6" points="453.19 516.37 453.19 105.01 468.12 109.53 495.19 516.37 453.19 516.37"/><rect class="cls-7" x="27.53" y="99.68" width="79.54" height="79.53"/><polygon class="cls-8" points="96.22 131.46 73.63 131.46 73.63 108.87 60.97 108.87 60.97 131.46 38.38 131.46 38.38 144.12 60.97 144.12 60.97 166.71 73.63 166.71 73.63 144.12 96.22 144.12 96.22 131.46"/><polygon class="cls-7" points="489.39 104.39 489.39 87.12 453.19 76.16 312.02 33.4 170.73 76.19 134.53 87.15 134.53 107.31 311.96 52.31 489.39 104.39"/><polygon class="cls-9" points="311.96 52.31 134.53 107.31 134.53 115.7 134.62 115.98 170.73 105.05 312.02 62.26 453.19 105.01 489.39 115.97 489.39 104.39 311.96 52.31"/><polygon class="cls-10" points="453.19 114.75 453.19 105.01 312.02 62.26 170.73 105.05 170.73 108.22 311.96 70.36 453.19 114.75"/><polygon class="cls-11" points="311.96 70.36 170.73 108.22 170.73 516.37 453.19 516.37 453.19 114.75 311.96 70.36"/><rect class="cls-3" x="198.36" y="126.23" width="40.23" height="78.78"/><rect class="cls-4" x="203.67" y="131.53" width="29.62" height="68.17"/><rect class="cls-3" x="260.68" y="126.23" width="40.23" height="78.78"/><rect class="cls-4" x="265.99" y="131.53" width="29.62" height="68.17"/><rect class="cls-3" x="323.01" y="126.23" width="40.23" height="78.78"/><rect class="cls-4" x="328.31" y="131.53" width="29.62" height="68.17"/><rect class="cls-3" x="385.33" y="126.23" width="40.23" height="78.78"/><rect class="cls-4" x="390.64" y="131.53" width="29.62" height="68.17"/><rect class="cls-3" x="198.36" y="228.55" width="40.23" height="78.79"/><rect class="cls-4" x="203.67" y="233.86" width="29.62" height="68.17"/><rect class="cls-3" x="208.64" y="362.89" width="206.65" height="153.47"/><rect class="cls-4" x="215.45" y="370.57" width="56.7" height="145.8"/><rect class="cls-4" x="283.61" y="370.57" width="56.7" height="145.8"/><rect class="cls-4" x="351.77" y="370.57" width="56.7" height="145.8"/><rect class="cls-3" x="260.68" y="228.55" width="40.23" height="78.79"/><rect class="cls-4" x="265.99" y="233.86" width="29.62" height="68.17"/><rect class="cls-3" x="323.01" y="228.55" width="40.23" height="78.79"/><rect class="cls-4" x="328.31" y="233.86" width="29.62" height="68.17"/><rect class="cls-3" x="385.33" y="228.55" width="40.23" height="78.79"/><rect class="cls-4" x="390.64" y="233.86" width="29.62" height="68.17"/><rect class="cls-12" x="39.03" y="179.21" width="9" height="20.82"/><rect class="cls-12" x="86.58" y="179.21" width="9" height="20.82"/><text class="cls-13" transform="translate(224.59 353.43)">HOSP<tspan class="cls-14" x="101.88" y="0">I</tspan><tspan class="cls-15" x="112.78" y="0">T</tspan><tspan x="132.27" y="0">AL</tspan></text><polygon class="cls-5" points="233.29 131.53 207.44 131.53 203.67 131.53 203.67 137.79 203.67 199.71 207.44 199.71 207.44 137.79 233.29 137.79 233.29 131.53"/><polygon class="cls-5" points="295.61 131.53 269.77 131.53 265.99 131.53 265.99 137.79 265.99 199.71 269.77 199.71 269.77 137.79 295.61 137.79 295.61 131.53"/><polygon class="cls-5" points="357.93 131.53 332.09 131.53 328.31 131.53 328.31 137.79 328.31 199.71 332.09 199.71 332.09 137.79 357.93 137.79 357.93 131.53"/><polygon class="cls-5" points="420.26 131.53 394.42 131.53 390.64 131.53 390.64 137.79 390.64 199.71 394.42 199.71 394.42 137.79 420.26 137.79 420.26 131.53"/><polygon class="cls-5" points="233.29 233.85 207.44 233.85 203.67 233.85 203.67 240.11 203.67 302.03 207.44 302.03 207.44 240.11 233.29 240.11 233.29 233.85"/><polygon class="cls-5" points="295.61 233.85 269.77 233.85 265.99 233.85 265.99 240.11 265.99 302.03 269.77 302.03 269.77 240.11 295.61 240.11 295.61 233.85"/><polygon class="cls-5" points="357.93 233.85 332.09 233.85 328.31 233.85 328.31 240.11 328.31 302.03 332.09 302.03 332.09 240.11 357.93 240.11 357.93 233.85"/><polygon class="cls-5" points="420.26 233.85 394.42 233.85 390.64 233.85 390.64 240.11 390.64 302.03 394.42 302.03 394.42 240.11 420.26 240.11 420.26 233.85"/><rect class="cls-5" x="21.7" y="234.88" width="4.39" height="28.04"/><rect class="cls-5" x="21.7" y="304.56" width="4.39" height="28.04"/><rect class="cls-5" x="21.7" y="374.24" width="4.39" height="28.05"/><rect class="cls-5" x="21.7" y="443.93" width="4.39" height="28.04"/><polygon class="cls-5" points="272.15 376.73 272.15 370.57 215.45 370.57 215.45 516.37 272.15 516.37 224.86 495.87 221.52 376.73 272.15 376.73"/><polygon class="cls-5" points="340.31 376.73 340.31 370.57 283.61 370.57 283.61 516.37 340.31 516.37 293.02 495.87 289.68 376.73 340.31 376.73"/><polygon class="cls-5" points="408.47 376.73 408.47 370.57 351.77 370.57 351.77 516.37 408.47 516.37 361.19 495.87 357.84 376.73 408.47 376.73"/></g></g></svg>