<svg xmlns="http://www.w3.org/2000/svg" xmlns:xlink="http://www.w3.org/1999/xlink" viewBox="0 0 152.75 66.87"><defs><style>.cls-1{fill:none;}.cls-2{clip-path:url(#clip-path);}.cls-3{fill:#ffb8b9;}.cls-4{fill:#fc777b;}.cls-5{fill:#2b193f;}.cls-6{fill:#3a2456;}.cls-7{fill:#e8e2f2;}.cls-8{fill:#cac3dd;}.cls-13,.cls-9{fill:#cb5137;}.cls-10{fill:#b21700;}.cls-11{clip-path:url(#clip-path-2);}.cls-12{fill:#54377f;}.cls-13{font-size:15.22px;font-family:Montserrat-SemiBold, Montserrat;font-weight:700;}</style><clipPath id="clip-path"><rect class="cls-1" width="66.87" height="66.87"/></clipPath><clipPath id="clip-path-2"><rect class="cls-1" x="66.87" y="-92.5" width="66.87" height="66.87"/></clipPath></defs><title>mask</title><g id="OBJECTS"><g class="cls-2"><path class="cls-3" d="M29,41.49a26.75,26.75,0,0,1-1.45,10.43c-1.93,5.22,5.71,8.56,9.49,7.7a10.48,10.48,0,0,0,5.85-3.89s-2.57-2-1.36-10.5S29.92,39.21,29,41.49Z"/><path class="cls-4" d="M41.29,48.17s-3.65,3.09-13,1.36a37.37,37.37,0,0,0,.73-8S39.91,44.81,41.29,48.17Z"/><path class="cls-3" d="M54.52,23s-1.73,25.24-9.41,25.42-18.5-4.31-18.4-10.66c0,0-1.27.45-3.75-1.68s-1.7-8.37,1.15-8.74,4,2.78,4,2.78.21-11,3.9-14.57S55.25,14,54.52,23Z"/><path class="cls-4" d="M45.7,38.18s3.28.41,3.45-1.44c.09-.95-.9-1.35-1.48-2.4a7.44,7.44,0,0,1-.59-3.63C47.25,28.73,43.38,37,45.7,38.18Z"/><path class="cls-5" d="M53.31,27.89a9.85,9.85,0,0,1-2.74-1.22c-1.25-.85-1.86-.17-1.76.88s2.41,2.07,3.9,2S54.58,28.33,53.31,27.89Z"/><ellipse class="cls-5" cx="50.05" cy="31.92" rx="0.9" ry="1.22"/><path class="cls-5" d="M51.39,31.49s-1.85-.26-2.14-1.15c0,0-.06-.28.14-.22s1.22,1,2,1.07S51.61,31.53,51.39,31.49Z"/><path class="cls-5" d="M38.3,27.52A9.85,9.85,0,0,0,41,26.3c1.25-.85,1.86-.17,1.76.88s-2.41,2.07-3.9,2S37,28,38.3,27.52Z"/><ellipse class="cls-5" cx="42.14" cy="31.81" rx="1.22" ry="0.9" transform="translate(7.74 71.86) rotate(-86.39)"/><path class="cls-5" d="M40.83,31.29s1.86-.14,2.21-1c0,0,.08-.28-.13-.23s-1.28.94-2.06.94S40.6,31.32,40.83,31.29Z"/><path class="cls-6" d="M59.34,15.24c-.47-3-2.64-5.05-5.6-4.59,0,0-2.13-5-6.35-4.18s-3.82,2.08-3.82,2.08S41.83,4.2,35.93,5.45s-4.8,3.73-4.8,3.73-1.48-2.88-5.44-.39a5.23,5.23,0,0,0-2.2,6.35c-.64-.06-2.59,0-3.25,2.83a5,5,0,0,0,.51,3.85,4.49,4.49,0,0,0-1.37,2.54c-.76,3.26.89,4.58,1,4.67a4.91,4.91,0,0,0-.75,2.41c-.29,3.46,1.69,4.48,1.69,4.48l.55.23h0c.59,3.42,2.76,3.91,2.76,3.91a16.18,16.18,0,0,0,2.61.22,5.78,5.78,0,0,1-.55-2.51s-1,.34-2.85-1l-.42-.31h0L23,36.09a3.19,3.19,0,0,1-.33-.33l0-.05,0-.06a3.74,3.74,0,0,1-.24-.33v0l0-.06a4.41,4.41,0,0,1-.21-.39l0-.07c-.06-.14-.12-.29-.18-.44s-.09-.28-.13-.42v0c0-.16-.08-.32-.11-.49l0-.09c0-.17-.05-.34-.07-.51v0c0-.17,0-.34,0-.52v-.06q0-.27,0-.53v0a7.76,7.76,0,0,1,.13-1.08v0a6.72,6.72,0,0,1,.24-.88l.09-.24.06-.15.13-.27.07-.13c.06-.12.13-.23.21-.34l.09-.12a2.39,2.39,0,0,1,1.61-1.05,3.37,3.37,0,0,1,3,1.19,2,2,0,0,1,.06.2c.42,2.15,2.44,3.06,2.9,1.89a22.18,22.18,0,0,0,1.46-6.79c.16-2.64,1.16-3.39,4.08-1.69,3.2,1.87,6-1.79,6-1.79a4.38,4.38,0,0,0,4,3.39c3.53.47,4.87-1.45,4.87-1.45s.85,3.34,4.66,2.33,2.18-5.83,2.18-5.83A3,3,0,0,0,59.34,15.24Z"/><path class="cls-7" d="M26.54,28s3.39,6.11,6.53,7.55l.5-1.24S27.85,28.09,26.54,28Z"/><path class="cls-7" d="M26.71,37.77s-.21,4.06,5.56,7.05l.38-1.18A9.75,9.75,0,0,1,26.71,37.77Z"/><path class="cls-7" d="M51.79,39.32c-.12-.73-2.18-2.81-3.55-4.2s-5.53,2.34-9.45,1.08-5.16-1.86-5.72-2.4c0,0-3.42,6.34-1.77,9.72s8.76,5.25,12.63,5.25,4-1,5.21-2.63S51.91,40,51.79,39.32Z"/><path class="cls-8" d="M45.66,47.58c-3.87,0-11-1.87-12.63-5.25-1.1-2.25,0-5.81.94-7.94a3.79,3.79,0,0,1-.9-.6s-3.42,6.34-1.77,9.72,8.76,5.25,12.63,5.25c2.82,0,3.67-.55,4.38-1.46A9.72,9.72,0,0,1,45.66,47.58Z"/><path class="cls-9" d="M26.61,51.54s2.45,6.88,9.33,6.53,5.61-4,7.94-3.84S53.71,56,58.67,57.7c6.27,2.14,10.57,17.06,10.57,17.06s3.63,19.08,5.15,22.82-5.73.54-11.33,1.59-7.23-17.86-8.52-17-2.69,14.49-2.2,18.14c.93,7,4.67,29.38,3.74,30.54s-12.08,7.85-30,5.06-17.86-4.82-17.86-4.82,1.36-22.63,3-31.88c.65-3.68.84-17.09.84-17.09S0,100.27-6,100.27s-7.93-3.89-3.73-12.9S.3,60.07,5.63,57.29,19.31,52.55,26.61,51.54Z"/><path class="cls-10" d="M8.49,59s4.92,13.36,5.42,16.5C13.91,75.45,11.74,63.35,8.49,59Z"/><path class="cls-10" d="M59.09,60.94s-4.2,9.48-4.75,11.92A28.33,28.33,0,0,1,59.09,60.94Z"/><path class="cls-6" d="M36.16,64.86s2.19,11.93-1.36,16.9,6.78,7.85,10.5,6.71,4.47-19.68,1.83-26.91S37.63,61.75,36.16,64.86Z"/><path class="cls-5" d="M36.16,64.86s3.53,2.38,7.32,1.33,4.22-2.42,4.22-2.42a6.28,6.28,0,0,0-.75-2.68A35,35,0,0,1,36.16,64.86Z"/><path class="cls-6" d="M20.27,52.7s5-6.16,8-4.94,4.39,4.44,8.79,4.56,4.24-2,6.62-2.26,8.14,3.92,8,6.17S44.5,66,34.8,64.71,20.27,52.7,20.27,52.7Z"/></g><g class="cls-11"><path class="cls-9" d="M89.2-41.79s2.46,6.9,9.35,6.55,5.63-4,8-3.85,9.86,1.79,14.84,3.49C127.64-33.47,132-18.5,132-18.5s7.64,16.79-3,21.15c-3.74,1.53-5.62,1.76-7.93,0-3.36-2.62-2.52-14.54-3.8-13.72S114.51,3.42,115,7.08c.94,7,4.68,29.46,3.75,30.63s-12.12,7.88-30.09,5.07-17.91-4.83-17.91-4.83,1.36-22.7,3-32c.65-3.69.84-17.13.84-17.13S62.46,7.08,56.54,7.08s-8-3.9-3.74-12.94S62.82-33.24,68.15-36,81.87-40.78,89.2-41.79Z"/><path class="cls-9" d="M114.57-26.47s3.74,25,5.25,27.31c0,0,6.38,1.42,10.87,0s4.2-10.77.93-20.11S127-29.84,127-29.84A14.7,14.7,0,0,1,114.57-26.47Z"/><path class="cls-3" d="M73.58,1.86S76.76,3,85.08,4.14a34.05,34.05,0,0,1,7.07-2.25c3.5-.62,5.37-1,6.24-2,.63-.73,1.27-1,1.73-.17.58,1.05-1.58,3.6-3.21,3.9s-1.32.49-.73.64,3.84.86,6.36,1.25,4.9.69,5.68.88c1.19.3,1.17,1.88.18,2a34.43,34.43,0,0,1-5.6-.5,12.05,12.05,0,0,0-3.43-.25c-.35.15,2.34,1,5.41,1.61s3.56.93,3.68,1.4-.16,1.49-1.87,1.24-6.41-1.33-7.64-1.57-1.43-.12-1.34,0a51.25,51.25,0,0,0,5.82,1.52c1.85.37,2.44,1,2.2,1.72s-1.54.49-3.68.18-5.2-1.3-5.58-1.29-.2.44,1.75,1,4.21,1.44,4.33,1.78.7,1.42-1.2,1.28-5.26-1.5-7-1.85a28.37,28.37,0,0,1-7.18-2.4c-2.4-1.28-1.55-1.37-2.84-1.68-1.83-.43-13.48-1.33-13.48-1.33S71.39,3.32,73.58,1.86Z"/><path class="cls-9" d="M75.92.58S64.38-5.78,53-5.51a15.44,15.44,0,0,0-2.48,7.74c-.33,3.91,5.76,7.85,14,8.69s9.63.2,9.63.2A12.18,12.18,0,0,1,75.92.58Z"/><path class="cls-10" d="M75.59.53s.59-.79,3,.75a.22.22,0,0,1,0,.34c-.45.41-1.46,1.66-2,4.71-.69,4,.62,4.41.4,4.78s-3.21.91-3.45,0S72.17,4.56,75.59.53Z"/><path class="cls-10" d="M75.79.4S70-3.55,59.38-4.75c0,0,13.8,3.34,16.1,6.22Z"/></g><path class="cls-12" d="M75.62,19.55a2.83,2.83,0,0,1,.89,2.3,2.73,2.73,0,0,1-.91,2.28,4.47,4.47,0,0,1-2.8.72H71.29v2.51H69.84V18.8h2.94A4.4,4.4,0,0,1,75.62,19.55Zm-1,3.53A1.89,1.89,0,0,0,75,21.73a1.39,1.39,0,0,0-.55-1.25,3.18,3.18,0,0,0-1.73-.37H71.29v3.43H73A2.24,2.24,0,0,0,74.6,23.08Z"/><path class="cls-12" d="M84.08,24.7H79a1.48,1.48,0,0,0,.65,1.15,2.52,2.52,0,0,0,3.23-.34l.78.86a3.64,3.64,0,0,1-2.74,1.09,3.26,3.26,0,0,1-2.33-.91,3.21,3.21,0,0,1-1-2.45,3.17,3.17,0,0,1,1-2.44,3.29,3.29,0,0,1,2.31-.91,3.34,3.34,0,0,1,2.26.8,2.76,2.76,0,0,1,.93,2.21ZM79,23.62h3.73a1.57,1.57,0,0,0-.51-1.26,1.88,1.88,0,0,0-1.27-.44,2.17,2.17,0,0,0-1.35.46A1.48,1.48,0,0,0,79,23.62Z"/><path class="cls-12" d="M89,22.13a1.82,1.82,0,0,0-1.53.66A2.81,2.81,0,0,0,87,24.57v2.79H85.59V20.85H87v1.31a2.85,2.85,0,0,1,.9-1,2.17,2.17,0,0,1,1.21-.4v1.38Z"/><path class="cls-12" d="M91.82,27.36H90.45V18.28h1.37Z"/><path class="cls-12" d="M98.35,24.37V20.85h1.37v6.51H98.35V26.17a2.47,2.47,0,0,1-2.17,1.28,2.42,2.42,0,0,1-1.78-.67,2.62,2.62,0,0,1-.68-1.95v-4H95.1v3.57q0,1.8,1.49,1.8a1.8,1.8,0,0,0,1.24-.47A1.75,1.75,0,0,0,98.35,24.37Z"/><path class="cls-12" d="M103.08,27.36h-1.37V18.28h1.37v5.34l2.64-2.77h1.76L105,23.43l2.66,3.93H106l-1.93-2.85-1,1Z"/><path class="cls-12" d="M114,27.36h-1.25v-.87a2.68,2.68,0,0,1-2.17,1,2.49,2.49,0,0,1-1.68-.57,1.93,1.93,0,0,1-.67-1.54,1.62,1.62,0,0,1,.71-1.44,3.41,3.41,0,0,1,1.92-.48h1.78v-.24q0-1.3-1.44-1.3a3.39,3.39,0,0,0-1.89.66l-.61-.86a4.22,4.22,0,0,1,2.69-.94,2.92,2.92,0,0,1,1.88.58,2.2,2.2,0,0,1,.73,1.83Zm-1.37-2.42v-.55h-1.54q-1.48,0-1.48.93A.83.83,0,0,0,110,26a1.8,1.8,0,0,0,1,.25,1.85,1.85,0,0,0,1.14-.37A1.18,1.18,0,0,0,112.62,24.93Z"/><path class="cls-12" d="M117.27,23.83v3.53H115.9V18.29h1.37V22a2.18,2.18,0,0,1,.89-.94,2.52,2.52,0,0,1,1.28-.34,2.42,2.42,0,0,1,1.78.67,2.62,2.62,0,0,1,.68,1.95v4h-1.37V23.78q0-1.8-1.49-1.8a1.8,1.8,0,0,0-1.24.47A1.75,1.75,0,0,0,117.27,23.83Z"/><path class="cls-12" d="M64,41.12H62.53V32.56h2.25l2.58,5.37L70,32.56h2.24v8.56H70.75V34.44l-3,5.94H67l-3-5.94Z"/><path class="cls-12" d="M80.43,38.46h-5.1A1.48,1.48,0,0,0,76,39.61a2.52,2.52,0,0,0,3.23-.34l.78.86a3.64,3.64,0,0,1-2.74,1.09,3.26,3.26,0,0,1-2.33-.91,3.21,3.21,0,0,1-1-2.45,3.17,3.17,0,0,1,1-2.44,3.29,3.29,0,0,1,2.31-.91,3.34,3.34,0,0,1,2.26.8,2.76,2.76,0,0,1,.93,2.21Zm-5.1-1.08h3.73a1.57,1.57,0,0,0-.51-1.26,1.88,1.88,0,0,0-1.27-.44,2.17,2.17,0,0,0-1.35.46A1.48,1.48,0,0,0,75.33,37.39Z"/><path class="cls-12" d="M83.31,37.59v3.53H81.94V34.61h1.37v1.19a2.47,2.47,0,0,1,2.17-1.29,2.42,2.42,0,0,1,1.78.67,2.62,2.62,0,0,1,.68,1.95v4H86.56V37.55q0-1.8-1.49-1.8a1.8,1.8,0,0,0-1.24.47A1.75,1.75,0,0,0,83.31,37.59Z"/><path class="cls-12" d="M95.87,34.61v5.68a3.35,3.35,0,0,1-.94,2.59,3.41,3.41,0,0,1-2.41.86,4.24,4.24,0,0,1-2.66-.92l.65-1a3.18,3.18,0,0,0,1.93.72A2.25,2.25,0,0,0,94,42a2,2,0,0,0,.57-1.6v-.83a2.34,2.34,0,0,1-.88.92,2.43,2.43,0,0,1-1.28.34,2.76,2.76,0,0,1-2.13-.91,3.46,3.46,0,0,1,0-4.51,2.76,2.76,0,0,1,2.12-.91,2.52,2.52,0,0,1,2.1,1.07v-1Zm-5.08,3a2.06,2.06,0,0,0,.5,1.38,1.66,1.66,0,0,0,1.33.58A1.76,1.76,0,0,0,94,39a2,2,0,0,0,.52-1.4A2,2,0,0,0,94,36.19a1.75,1.75,0,0,0-1.36-.58,1.64,1.64,0,0,0-1.33.6A2.13,2.13,0,0,0,90.79,37.61Z"/><path class="cls-12" d="M103.87,34.61v5.68a3.35,3.35,0,0,1-.94,2.59,3.41,3.41,0,0,1-2.41.86,4.24,4.24,0,0,1-2.66-.92l.65-1a3.18,3.18,0,0,0,1.93.72A2.25,2.25,0,0,0,102,42a2,2,0,0,0,.57-1.6v-.83a2.34,2.34,0,0,1-.88.92,2.43,2.43,0,0,1-1.28.34,2.76,2.76,0,0,1-2.13-.91,3.46,3.46,0,0,1,0-4.51,2.76,2.76,0,0,1,2.12-.91,2.52,2.52,0,0,1,2.1,1.07v-1Zm-5.08,3a2.06,2.06,0,0,0,.5,1.38,1.66,1.66,0,0,0,1.33.58A1.76,1.76,0,0,0,102,39a2,2,0,0,0,.52-1.4,2,2,0,0,0-.53-1.42,1.75,1.75,0,0,0-1.36-.58,1.64,1.64,0,0,0-1.33.6A2.13,2.13,0,0,0,98.79,37.61Z"/><path class="cls-12" d="M110.41,38.13V34.61h1.37v6.51h-1.37V39.93a2.47,2.47,0,0,1-2.17,1.28,2.42,2.42,0,0,1-1.78-.67,2.62,2.62,0,0,1-.68-1.95v-4h1.37v3.57q0,1.8,1.49,1.8a1.8,1.8,0,0,0,1.24-.47A1.75,1.75,0,0,0,110.41,38.13Z"/><path class="cls-12" d="M115.14,37.59v3.53h-1.37V34.61h1.37v1.19a2.47,2.47,0,0,1,2.17-1.29,2.42,2.42,0,0,1,1.78.67,2.62,2.62,0,0,1,.68,1.95v4h-1.37V37.55q0-1.8-1.49-1.8a1.8,1.8,0,0,0-1.24.47A1.75,1.75,0,0,0,115.14,37.59Z"/><path class="cls-12" d="M126.95,41.12H125.7v-.87a2.68,2.68,0,0,1-2.17,1,2.49,2.49,0,0,1-1.68-.57,1.93,1.93,0,0,1-.67-1.54,1.62,1.62,0,0,1,.71-1.44,3.41,3.41,0,0,1,1.92-.48h1.78v-.24q0-1.3-1.44-1.3a3.39,3.39,0,0,0-1.89.66l-.61-.86a4.22,4.22,0,0,1,2.69-.94,2.92,2.92,0,0,1,1.88.58,2.2,2.2,0,0,1,.73,1.83Zm-1.37-2.42v-.55H124q-1.48,0-1.48.93a.83.83,0,0,0,.37.73,1.8,1.8,0,0,0,1,.25,1.85,1.85,0,0,0,1.14-.37A1.18,1.18,0,0,0,125.58,38.7Z"/><path class="cls-12" d="M130.23,41.12h-1.37V32h1.37v5.34l2.64-2.77h1.76l-2.47,2.58,2.66,3.93h-1.66l-1.93-2.85-1,1Z"/><path class="cls-12" d="M141.14,41.12h-1.25v-.87a2.68,2.68,0,0,1-2.17,1,2.49,2.49,0,0,1-1.68-.57,1.93,1.93,0,0,1-.67-1.54,1.62,1.62,0,0,1,.71-1.44,3.41,3.41,0,0,1,1.92-.48h1.78v-.24q0-1.3-1.44-1.3a3.39,3.39,0,0,0-1.89.66l-.61-.86a4.22,4.22,0,0,1,2.69-.94,2.92,2.92,0,0,1,1.88.58,2.2,2.2,0,0,1,.73,1.83Zm-1.37-2.42v-.55h-1.54q-1.48,0-1.48.93a.83.83,0,0,0,.37.73,1.8,1.8,0,0,0,1,.25,1.85,1.85,0,0,0,1.14-.37A1.18,1.18,0,0,0,139.77,38.7Z"/><path class="cls-12" d="M144.42,37.59v3.53H143V34.61h1.37v1.19a2.47,2.47,0,0,1,2.17-1.29,2.42,2.42,0,0,1,1.78.67,2.62,2.62,0,0,1,.68,1.95v4h-1.37V37.55q0-1.8-1.49-1.8a1.8,1.8,0,0,0-1.24.47A1.75,1.75,0,0,0,144.42,37.59Z"/><text class="cls-13" transform="translate(70.82 59.38)">MASKER ?</text></g></svg>