<svg xmlns="http://www.w3.org/2000/svg" viewBox="0 0 254.23 254.23"><defs><style>.cls-1{fill:#1791b2;}.cls-1,.cls-2,.cls-3{fill-rule:evenodd;}.cls-2{fill:#fff;}.cls-3{fill:#ed1c24;}</style></defs><title>muntah</title><g id="Layer_2" data-name="Layer 2"><g id="Layer_1-2" data-name="Layer 1"><path class="cls-1" d="M81.29,8.58A127.08,127.08,0,1,1,8.58,172.94,127.1,127.1,0,0,1,81.29,8.58"/><path class="cls-2" d="M83.46,14.19A121.06,121.06,0,1,1,14.2,170.77,121.08,121.08,0,0,1,83.46,14.19"/><path class="cls-1" d="M213,201.07c-5.93-2.3-13.51-8.12-16-10.41-2.75-2.52-11-15.33-11-15.33s-24.52,29.73-34.74,24.29c-6.5-3.46-15.22-10-20.7-14.36,2.32-6.49,14.94-27.46,14.94-27.46l-31.42,20.81c-4.65-3.2-6.39-9.17-10.37-16,0,0-13.22,11.87-16.55,9.24s-14.28-42.25-14.28-42.25C63.1,108.31,34.17,79.22,68.22,30.3A113.32,113.32,0,0,1,213,201.07"/><path class="cls-3" d="M108.2,184.27C65.65,186.61,84,209,95,203.82c6.91-3.23,13.23-19.56,13.23-19.56"/><path class="cls-3" d="M120.87,190s-6.53,8.19-4.6,14.64,7.85,6.69,10.59,3.91c4.2-4.28,2.54-11,0-16.54-1.8-4,.75-10.09.75-10.09Z"/><path class="cls-3" d="M108.2,206c-.38,0-10,10.87-9.95,14.16.15,5.24,8.29,6.82,9.12,2.74s.83-16.91.83-16.91"/><path class="cls-3" d="M114.57,216c-.18.19.38,10.29,2.23,11.54,2.52,1.7,6.77.25,5.64-3.16-.89-2.68-7.87-8.38-7.87-8.38"/></g></g></svg>