<svg xmlns="http://www.w3.org/2000/svg" xmlns:xlink="http://www.w3.org/1999/xlink" viewBox="0 0 555.92 555.92"><defs><style>.cls-1{fill:none;}.cls-2{clip-path:url(#clip-path);}.cls-3{fill:#67a272;}.cls-4{fill:#31773b;}.cls-5{fill:#c1272d;}.cls-6{fill:#aa1520;}.cls-7{fill:#4d4d4d;}.cls-8{fill:#ccc;}.cls-9{fill:#333;}.cls-10{fill:#068d93;}.cls-11{fill:#036d6d;}.cls-12{fill:#ccc0ae;}.cls-13{fill:#dad2c5;}.cls-14{fill:#1b4a51;}.cls-15{fill:#0e3a3f;}.cls-16{fill:#00adbf;}.cls-17{fill:#029da5;}.cls-18{fill:#77d0dd;}.cls-19{fill:#5ecbd3;}.cls-20{fill:#42bec1;}.cls-21{fill:#ea651b;}.cls-22{fill:#fff;}</style><clipPath id="clip-path"><circle class="cls-1" cx="277.96" cy="277.96" r="277.95"/></clipPath></defs><title>risk</title><g id="Layer_2" data-name="Layer 2"><g id="Layer_1-2" data-name="Layer 1"><g class="cls-2"><circle class="cls-3" cx="277.96" cy="277.96" r="277.95"/><polygon class="cls-4" points="330.3 171.41 330.3 154.69 330 146.62 326.72 142.44 321.94 153.49 314.18 154.39 313.58 146.62 305.52 143.94 297.76 144.53 289.1 125.13 282.83 122.44 273.27 123.03 263.12 130.2 266.4 131.69 268.79 135.28 264.31 145.73 267.9 153.49 260.43 159.46 255.95 156.48 253.86 172.6 257.45 174.39 263.42 173.5 267.3 170.51 273.27 179.47 263.12 184.25 260.13 192.31 253.27 194.85 249.38 200.67 243.93 198.58 240.13 200.07 243.93 209.03 231.77 221.87 209.97 228.74 195.64 221.87 170.26 216.2 166.08 205.45 153.24 198.28 146.97 193.5 150.25 183.2 146.97 174.69 142.19 169.62 139.8 160.96 131.14 166.93 127.26 175.29 118.9 170.21 112.93 185.44 101.28 183.95 101.28 199.18 95.61 205.45 92.62 208.13 86.05 206.64 77.69 212.61 72.62 210.52 67.24 206.64 60.38 208.43 58.28 217.39 60.97 222.47 56.19 228.14 59.48 230.83 62.47 238.59 63.96 245.76 71.42 250.24 70.53 260.69 69.33 271.44 68.14 275.32 63.66 271.74 62.47 280.39 67.24 286.37 74.11 295.62 77.39 295.62 83.96 301.59 89.34 306.67 93.82 313.84 105.76 319.81 112.03 319.81 112.93 325.18 115.91 322.5 123.38 321.3 132.93 326.38 139.5 323.69 148.46 317.42 158.01 316.52 157.72 324.29 165.48 324.29 169.36 327.87 174.74 332.65 175.33 337.72 171.75 343.7 166.08 349.67 166.08 356.54 173.84 360.42 173.54 367.88 178.02 372.66 182.8 373.26 188.17 377.14 192.35 377.14 190.86 369.97 195.04 369.97 205.79 367.88 212.96 365.49 216.84 361.61 225.5 363.4 224 369.38 229.68 372.36 236.54 371.17 246.4 371.76 250.58 374.75 251.18 379.53 245.5 383.41 241.62 390.28 245.5 394.76 253.27 392.67 255.95 386.39 258.64 383.41 253.86 379.53 254.16 377.74 252.97 374.15 269.09 367.88 284.62 360.42 290.29 354.74 298.95 346.08 306.42 332.95 308.81 322.79 313.88 315.63 313.88 306.67 307.31 301.3 305.22 297.41 311.19 292.04 307.31 285.77 299.25 277.11 290.89 270.84 289.1 265.76 294.77 255.31 301.94 249.04 305.82 245.46 300.74 245.16 294.77 245.16 291.19 251.43 285.81 251.43 284.32 246.95 277.45 245.76 275.06 240.38 281.33 238.59 285.81 229.93 293.28 220.08 294.77 223.96 292.98 232.32 293.88 238.59 310.89 216.5 314.48 207.84 321.64 206.94 318.96 203.36 322.54 196.49 326.42 196.49 329.11 192.61 324.03 175.59 325.23 172.6 330.3 171.41"/><circle class="cls-3" cx="252.3" cy="303.65" r="13.93"/><path class="cls-5" d="M291.74,208.25a115.47,115.47,0,1,0,33.75,81.47A114.47,114.47,0,0,0,291.74,208.25Zm-81.47,179.5a97.95,97.95,0,0,1-75.09-161l138,138A97.58,97.58,0,0,1,210.26,387.75Zm75.1-35.09-138-138a98,98,0,0,1,138,138Z"/><path class="cls-6" d="M316.47,334.56a115.28,115.28,0,0,1-212.64-89.13,161.67,161.67,0,0,0,13,14.65A98,98,0,0,0,273.21,364.82l-44.88-44.88q15.91,4.67,32.2,7.9l24.83,24.83a98.27,98.27,0,0,0,12.7-19.37Q307.25,334.15,316.47,334.56Z"/><circle cx="334.5" cy="507.86" r="11.15"/><circle class="cls-7" cx="334.5" cy="507.86" r="7.4"/><circle class="cls-8" cx="334.5" cy="507.86" r="6.46"/><circle class="cls-9" cx="334.5" cy="507.86" r="3.14"/><path class="cls-10" d="M338.34,491.95a18.51,18.51,0,0,0-.24,2.76c-.17,3.2-1,6.54-3.24,8.84a5.26,5.26,0,0,1-1.07.93,10.59,10.59,0,0,0-1.22.72A3.38,3.38,0,0,0,331.4,507a3.12,3.12,0,0,0,2.5,4,5.26,5.26,0,0,0,3.17-.64c2.84-1.45,4.68-4.35,5.79-7.34a31.24,31.24,0,0,0,1.79-10.79,3.66,3.66,0,0,0-.57-2.37c-1.52-1.86-4.62-.83-5.44,1.13A5.44,5.44,0,0,0,338.34,491.95Z"/><rect class="cls-10" x="330.47" y="493.43" width="21.94" height="2.79"/><path class="cls-11" d="M322.93,484.48c0,.1,0,.21,0,.31a9.05,9.05,0,0,0,9,9h18.84a9.05,9.05,0,0,0,9-9c0-.1,0-.21,0-.31Z"/><circle cx="466.75" cy="507.86" r="11.15"/><circle class="cls-7" cx="466.75" cy="507.86" r="7.4"/><circle class="cls-8" cx="466.75" cy="507.86" r="6.46"/><circle class="cls-9" cx="466.75" cy="507.86" r="3.14"/><path class="cls-10" d="M470.59,491.95a18.5,18.5,0,0,0-.24,2.76c-.17,3.2-1,6.54-3.24,8.84a5.26,5.26,0,0,1-1.07.93,10.59,10.59,0,0,0-1.22.72,3.38,3.38,0,0,0-1.18,1.76,3.12,3.12,0,0,0,2.5,4,5.26,5.26,0,0,0,3.17-.64c2.84-1.45,4.68-4.35,5.79-7.34a31.24,31.24,0,0,0,1.79-10.79,3.66,3.66,0,0,0-.57-2.37c-1.52-1.86-4.62-.83-5.44,1.13A5.44,5.44,0,0,0,470.59,491.95Z"/><rect class="cls-10" x="462.72" y="493.43" width="21.94" height="2.79"/><path class="cls-11" d="M455.17,484.48c0,.1,0,.21,0,.31a9.05,9.05,0,0,0,9,9H483a9.05,9.05,0,0,0,9-9c0-.1,0-.21,0-.31Z"/><rect class="cls-12" x="365.68" y="77.37" width="7.8" height="134.03"/><rect class="cls-12" x="439.63" y="77.37" width="7.8" height="134.03"/><rect class="cls-13" x="369.58" y="77.37" width="3.9" height="134.03"/><rect class="cls-13" x="443.53" y="77.37" width="3.9" height="134.03"/><path class="cls-14" d="M450.14,80.45V87.2a6.38,6.38,0,0,1-12.75,0v-.6H376.11v.6a6.38,6.38,0,0,1-12.75,0V80.45a6,6,0,0,1,.71-2.84A5.66,5.66,0,0,1,368.13,74a6.45,6.45,0,0,1,1.61-.19h74a5.78,5.78,0,0,1,5.66,3.76,5.65,5.65,0,0,1,.62,1.9A4.64,4.64,0,0,1,450.14,80.45Z"/><path class="cls-15" d="M403.49,81.86c-9.58,0-19.2,0-28.76.07-5.08,0-8.54-2.41-9.7-6a6.17,6.17,0,0,0-1,1.65,6,6,0,0,0-.71,2.84V87.2a6.38,6.38,0,0,0,12.75,0v-.6h61.28v.6a6.38,6.38,0,0,0,12.75,0V83.41C434.59,83.17,419,81.85,403.49,81.86Z"/><path class="cls-13" d="M434.11,186.49q.24.35.45.7a3.7,3.7,0,0,1,.44,3.25,4.45,4.45,0,0,1-2.69,2.61,3.92,3.92,0,0,1-4.91-1.67c-.2-.32-.4-.63-.61-.94a19.19,19.19,0,0,0-2.15-2.59A23.4,23.4,0,0,0,408,181.3c-6.52,0-14.73,1.43-19,6.67a11.93,11.93,0,0,0-1.56,2.46c-.13.27-.26.56-.37.85a4.54,4.54,0,0,1-6.86,1.94,3.19,3.19,0,0,1-1.42-2.79,3.89,3.89,0,0,1,.29-1.35,24.26,24.26,0,0,1,1.41-3c5.15-9.19,15.46-12.67,26-13.06C417.43,172.63,428.1,177.28,434.11,186.49Z"/><path class="cls-12" d="M410.55,177.17c5.79.65,11,1.93,15.35,6a22.19,22.19,0,0,1,2.56,2.81,25.58,25.58,0,0,1,2.74,4.48,27.73,27.73,0,0,1,1.11,2.61,3.92,3.92,0,0,1-4.91-1.67c-.2-.32-.4-.63-.61-.94a19.19,19.19,0,0,0-2.15-2.59A23.4,23.4,0,0,0,408,181.3c-6.52,0-14.73,1.43-19,6.67a11.93,11.93,0,0,0-1.56,2.46c-.13.27-.26.56-.37.85a4.54,4.54,0,0,1-6.86,1.94,4.31,4.31,0,0,1,.26-.9c.27-.66.54-1.29.82-1.9a22.64,22.64,0,0,1,2.81-4.63,19.68,19.68,0,0,1,7.77-5.7A34.12,34.12,0,0,1,410.55,177.17Z"/><path class="cls-16" d="M384.09,185.8A8.52,8.52,0,0,1,389,188a7,7,0,0,1,1.7,2.46,8.42,8.42,0,0,1,.64,3.32,7.84,7.84,0,0,1-1.61,5c-3.16,4-10.2,4-13.36,0a7.84,7.84,0,0,1-1.61-5,8.41,8.41,0,0,1,.64-3.32,7.59,7.59,0,0,1,5.09-4.34A9.62,9.62,0,0,1,384.09,185.8Z"/><path class="cls-16" d="M434.11,186.49a7.37,7.37,0,0,1,4,3.95,8.42,8.42,0,0,1,.64,3.32,7.84,7.84,0,0,1-1.61,5c-3.16,4-10.2,4-13.36,0a7.84,7.84,0,0,1-1.61-5,8.41,8.41,0,0,1,.64-3.32,7,7,0,0,1,1.85-2.59,8.24,8.24,0,0,1,3.81-1.89A9.43,9.43,0,0,1,434.11,186.49Z"/><path class="cls-17" d="M375.39,190.44h15.3a8.42,8.42,0,0,1,.64,3.32,7.84,7.84,0,0,1-1.61,5H376.36a7.84,7.84,0,0,1-1.61-5A8.41,8.41,0,0,1,375.39,190.44Z"/><path class="cls-17" d="M422.8,190.44h15.3a8.42,8.42,0,0,1,.64,3.32,7.84,7.84,0,0,1-1.61,5H423.77a7.84,7.84,0,0,1-1.61-5A8.41,8.41,0,0,1,422.8,190.44Z"/><path class="cls-18" d="M512.5,217.08V466.39A24.53,24.53,0,0,1,488,490.92H325.52A24.53,24.53,0,0,1,301,466.39V217.08a24.53,24.53,0,0,1,24.52-24.52H488A24.53,24.53,0,0,1,512.5,217.08Z"/><path class="cls-19" d="M454.81,339.93a231.53,231.53,0,0,1-41.6-10.62c-12.55-4.37-24.91-9.66-35.88-17.24a96.21,96.21,0,0,1-38-55.06,382.69,382.69,0,0,1-7.86-40.81,170.63,170.63,0,0,1-1.74-23.63h-4.22A24.53,24.53,0,0,0,301,217.08V466.39a24.53,24.53,0,0,0,24.52,24.53H488a24.53,24.53,0,0,0,24.53-24.53V341.18C493.28,342.83,473.93,342.79,454.81,339.93Z"/><path class="cls-20" d="M512.51,463.82v2.58A24.53,24.53,0,0,1,488,490.92H325.52A24.53,24.53,0,0,1,301,466.39V217.08a24.53,24.53,0,0,1,24.53-24.52h.88a86.25,86.25,0,0,0-4.35,15.16c-3.15,16.27-2.3,33-1.61,49.55,2.52,61.21,0,122.67,5.47,183.73.57,6.36,1.28,12.85,3.93,18.67,7.2,15.82,27.52,17.62,45.71,17.33,1.62,0,3.23-.08,4.79-.13,5.24-.18,10.17-.43,14.41-.48h.32c1.49,0,3,0,4.48-.06,4.81-.06,9.6-.2,14.41-.38,1.59-.05,3.19-.11,4.79-.19,4.79-.2,9.6-.45,14.4-.7l4.81-.27c12.09-.68,24.16-1.43,36.25-2C487.5,472.23,501.82,471.54,512.51,463.82Z"/><rect class="cls-9" x="375.55" y="192.56" width="4.79" height="298.36"/><rect class="cls-9" x="394.76" y="192.56" width="4.79" height="298.36"/><rect class="cls-9" x="413.96" y="192.56" width="4.79" height="298.36"/><rect class="cls-9" x="433.15" y="192.56" width="4.81" height="298.36"/><path d="M375.55,477c1.62,0,3.23-.08,4.79-.13v14.05h-4.79Z"/><path d="M399.55,476.32v14.6h-4.79V476.39h.32C396.57,476.38,398.06,476.36,399.55,476.32Z"/><path d="M414,475.94c1.59-.05,3.19-.11,4.79-.19v15.17H414Z"/><path d="M438,474.78v16.14h-4.81V475Z"/><path class="cls-21" d="M278,555.92A278,278,0,0,1,81.41,81.41,278,278,0,0,1,474.51,474.51,276.14,276.14,0,0,1,278,555.92ZM278,18C134.62,18,18,134.62,18,278s116.62,260,260,260,260-116.62,260-260S421.3,18,278,18Z"/><path class="cls-22" d="M278,539.51A261.55,261.55,0,0,1,93,93,261.55,261.55,0,0,1,462.9,462.9,259.83,259.83,0,0,1,278,539.51Zm0-506.16C143.08,33.34,33.34,143.08,33.34,278S143.08,522.57,278,522.57,522.57,412.84,522.57,278,412.84,33.34,278,33.34Z"/></g></g></g></svg>