<svg xmlns="http://www.w3.org/2000/svg" viewBox="0 0 254.17 254.17"><defs><style>.cls-1{fill:#1791b2;}.cls-1,.cls-2,.cls-3{fill-rule:evenodd;}.cls-2{fill:#fff;}.cls-3{fill:#ed1c24;}</style></defs><title>sakitkepala</title><g id="Layer_2" data-name="Layer 2"><g id="Layer_1-2" data-name="Layer 1"><path class="cls-1" d="M127.08,0A127.08,127.08,0,1,1,0,127.08,127.1,127.1,0,0,1,127.08,0"/><path class="cls-2" d="M127.09,6A121.06,121.06,0,1,1,6,127.09,121.08,121.08,0,0,1,127.09,6"/><path class="cls-1" d="M43.73,208.12c59.58,47.91,114.69,42.46,166.7,0l-26.91-19.79c-12.44-9.15-23-7.13-21.53-10.6s1.56-10.11,1.39-12.32-3.12-10.77-3.12-10.77,22.92-.52,24.14-7.3.86-18.93.86-18.93c5.72-6.62,2-10.12-.67-16.93,0,0,10.41-1.81,10.41-4.33s-14.49-22.23-14.49-22.23c-7.6-14.85-10.31-46.7-69.8-37.11-36.8,5.93-39.24,41.8-37.16,61.94s27.09,55.57,27.09,55.57-20.84,19.1-28.13,21.87-28.79,9-28.79,20.92"/><polygon class="cls-3" points="144.44 16.36 153.59 22.98 128.39 51.42 140.99 54.38 110.47 84.89 128.95 56.77 117.13 53.67 144.44 16.36"/><polygon class="cls-3" points="116.95 22.34 126.1 28.95 100.9 57.39 113.5 60.35 82.98 90.86 101.46 62.74 89.64 59.65 116.95 22.34"/></g></g></svg>