<svg xmlns="http://www.w3.org/2000/svg" viewBox="0 0 254.17 254.17"><defs><style>.cls-1{fill:#1791b2;}.cls-1,.cls-2,.cls-3{fill-rule:evenodd;}.cls-2{fill:#fff;}.cls-3{fill:#ed1c24;}</style></defs><title>sakittenggorokan</title><g id="Layer_2" data-name="Layer 2"><g id="Layer_1-2" data-name="Layer 1"><path class="cls-1" d="M127.08,0A127.08,127.08,0,1,1,0,127.08,127.1,127.1,0,0,1,127.08,0"/><path class="cls-2" d="M127.09,6A121.06,121.06,0,1,1,6,127.09,121.08,121.08,0,0,1,127.09,6"/><path class="cls-1" d="M43.73,208.12c59.58,47.91,114.69,42.46,166.7,0l-26.91-19.79c-12.44-9.15-23-7.13-21.53-10.6s1.56-10.11,1.39-12.32-3.12-10.77-3.12-10.77,22.92-.52,24.14-7.3.86-18.93.86-18.93c5.72-6.62,2-10.12-.67-16.93,0,0,10.41-1.81,10.41-4.33s-14.49-22.23-14.49-22.23c-7.6-14.85-10.31-46.7-69.8-37.11-36.8,5.93-39.25,41.8-37.16,61.94s27.09,55.57,27.09,55.57-20.84,19.1-28.13,21.87-28.79,9-28.79,20.92"/><path class="cls-3" d="M153.36,160.64a5.82,5.82,0,1,1-5.82,5.82,5.82,5.82,0,0,1,5.82-5.82"/><path class="cls-3" d="M153.35,158.2a8.25,8.25,0,1,1-8.25,8.25,8.25,8.25,0,0,1,8.25-8.25m0-.91a9.17,9.17,0,1,1-9.17,9.17A9.16,9.16,0,0,1,153.35,157.29Z"/><path class="cls-3" d="M153.35,156.1A10.36,10.36,0,1,1,143,166.46a10.35,10.35,0,0,1,10.36-10.36m0-1.15a11.5,11.5,0,1,1-11.5,11.51A11.5,11.5,0,0,1,153.35,155Z"/><path class="cls-3" d="M153.35,153.8a12.66,12.66,0,1,1-12.66,12.66,12.65,12.65,0,0,1,12.66-12.66m0-1.4a14.06,14.06,0,1,1-14.06,14.06A14.05,14.05,0,0,1,153.35,152.4Z"/></g></g></svg>