<svg xmlns="http://www.w3.org/2000/svg" viewBox="0 0 254.17 254.17"><defs><style>.cls-1{fill:#1791b2;}.cls-1,.cls-2,.cls-3{fill-rule:evenodd;}.cls-2{fill:#fff;}.cls-3{fill:#ed1c24;}</style></defs><title>sesak</title><g id="Layer_2" data-name="Layer 2"><g id="Layer_1-2" data-name="Layer 1"><path class="cls-1" d="M127.08,0A127.08,127.08,0,1,1,0,127.08,127.1,127.1,0,0,1,127.08,0"/><path class="cls-2" d="M127.09,6A121.06,121.06,0,1,1,6,127.09,121.08,121.08,0,0,1,127.09,6"/><path class="cls-1" d="M43.73,208.12c59.58,47.91,114.69,42.46,166.7,0l-26.91-19.79c-12.44-9.15-23-7.13-21.53-10.6s1.56-10.11,1.39-12.32-3.12-10.77-3.12-10.77,22.92-.52,24.14-7.3.86-18.93.86-18.93c5.72-6.62,2-10.12-.67-16.93,0,0,10.41-1.81,10.41-4.33s-14.49-22.23-14.49-22.23c-7.6-14.85-10.31-46.7-69.8-37.11-36.8,5.93-39.25,41.8-37.16,61.94s27.09,55.57,27.09,55.57-20.84,19.1-28.13,21.87-28.79,9-28.79,20.92"/><path class="cls-3" d="M153.36,208.7a9.76,9.76,0,1,1-9.77,9.77,9.77,9.77,0,0,1,9.77-9.77"/><path class="cls-3" d="M153.35,204.61a13.85,13.85,0,1,1-13.85,13.85,13.84,13.84,0,0,1,13.85-13.85m0-1.53A15.38,15.38,0,1,1,138,218.45,15.38,15.38,0,0,1,153.35,203.07Z"/><path class="cls-3" d="M153.35,201.07A17.38,17.38,0,1,1,136,218.45a17.37,17.37,0,0,1,17.38-17.38m0-1.92A19.3,19.3,0,1,1,134,218.45,19.3,19.3,0,0,1,153.35,199.15Z"/><path class="cls-3" d="M153.35,197.22a21.23,21.23,0,1,1-21.23,21.23,21.22,21.22,0,0,1,21.23-21.23m0-2.35a23.59,23.59,0,1,1-23.59,23.59A23.58,23.58,0,0,1,153.35,194.87Z"/></g></g></svg>