<svg xmlns="http://www.w3.org/2000/svg" xmlns:xlink="http://www.w3.org/1999/xlink" viewBox="0 0 66.87 66.87"><defs><style>.cls-1{fill:none;}.cls-2{fill:#fff;}.cls-3{clip-path:url(#clip-path);}.cls-4{fill:#cb5137;}.cls-5{fill:#b21700;}.cls-6{fill:#ffb8b9;}.cls-7{fill:#fc777b;}.cls-8{fill:#2b193f;}.cls-9{fill:#3a2456;}.cls-10{fill:#e9e2f2;}</style><clipPath id="clip-path"><rect class="cls-1" width="66.87" height="66.87"/></clipPath></defs><title>tisu</title><g id="OBJECTS"><rect class="cls-2" width="66.87" height="66.87"/><g class="cls-3"><path class="cls-4" d="M22.33,50.71s2.46,6.9,9.35,6.55,5.63-4,8-3.85,9.86,1.79,14.84,3.49C60.76,59,65.08,74,65.08,74s7.64,16.79-3,21.15c-3.74,1.53-5.62,1.76-7.93,0-3.36-2.62-2.52-14.54-3.8-13.72s-2.7,14.53-2.21,18.19c.94,7,4.68,29.46,3.75,30.63s-12.12,7.88-30.09,5.07-17.91-4.83-17.91-4.83,1.36-22.7,3-32c.65-3.69.84-17.13.84-17.13s-12.12,18.24-18,18.24-8-3.9-3.74-12.94,10-27.38,15.36-30.17S15,51.72,22.33,50.71Z"/><path class="cls-5" d="M4.15,58.14S9.09,71.54,9.59,74.69C9.59,74.69,7.41,62.55,4.15,58.14Z"/><path class="cls-5" d="M54.9,60.13s-4.22,9.51-4.77,12A28.41,28.41,0,0,1,54.9,60.13Z"/><path class="cls-6" d="M24.76,40.63A26.83,26.83,0,0,1,23.3,51.09c-1.93,5.23,5.73,8.58,9.52,7.73a10.51,10.51,0,0,0,5.87-3.9s-2.58-2-1.36-10.53S25.65,38.34,24.76,40.63Z"/><path class="cls-7" d="M37,47.33s-3.66,3.1-13,1.37a37.47,37.47,0,0,0,.73-8.07S35.66,44,37,47.33Z"/><path class="cls-6" d="M50.31,22.1s-1.74,25.31-9.44,25.49S22.33,43.26,22.42,36.9c0,0-1.27.45-3.76-1.68s-1.71-8.4,1.15-8.77,4,2.79,4,2.79.21-11,3.91-14.61S51,13,50.31,22.1Z"/><ellipse class="cls-8" cx="41.85" cy="41.15" rx="2.94" ry="2.09" transform="translate(-8.03 72.09) rotate(-76.33)"/><path class="cls-7" d="M39.87,40.45l-.06.21c-.38,1.58.22,3.08,1.34,3.35a2.21,2.21,0,0,0,2.29-1.28C42.73,40.34,39.91,40.45,39.87,40.45Z"/><path class="cls-7" d="M41.34,45.29A1.7,1.7,0,0,1,40,44.66a.12.12,0,0,1,.19-.14,1.45,1.45,0,0,0,1.88.33.12.12,0,1,1,.1.21A2,2,0,0,1,41.34,45.29Z"/><circle class="cls-7" cx="31.43" cy="34.24" r="2.63"/><path class="cls-7" d="M41.46,37.31s3.29.41,3.46-1.44c.09-1-.91-1.35-1.48-2.41a7.46,7.46,0,0,1-.59-3.64C43,27.83,39.15,36.16,41.46,37.31Z"/><path class="cls-8" d="M49.1,27a9.87,9.87,0,0,1-2.75-1.22c-1.26-.85-1.87-.17-1.77.88s2.41,2.07,3.91,2S50.38,27.43,49.1,27Z"/><ellipse class="cls-8" cx="45.83" cy="31.03" rx="0.9" ry="1.22"/><path class="cls-8" d="M47.17,30.6s-1.85-.26-2.15-1.15c0,0-.06-.28.14-.22s1.22,1,2,1.08S47.4,30.64,47.17,30.6Z"/><path class="cls-8" d="M34.05,26.62A9.87,9.87,0,0,0,36.8,25.4c1.26-.85,1.87-.17,1.77.88s-2.41,2.07-3.91,2S32.77,27.06,34.05,26.62Z"/><ellipse class="cls-8" cx="37.9" cy="30.92" rx="1.22" ry="0.9" transform="translate(4.65 66.8) rotate(-86.39)"/><path class="cls-8" d="M36.58,30.4s1.86-.15,2.22-1c0,0,.08-.28-.13-.23s-1.29.94-2.07.95S36.35,30.43,36.58,30.4Z"/><path class="cls-9" d="M55.15,14.31c-.47-3-2.65-5.07-5.61-4.6,0,0-2.14-5-6.37-4.19S39.33,7.6,39.33,7.6s-1.74-4.37-7.67-3.12-4.81,3.74-4.81,3.74-1.48-2.88-5.46-.39a5.25,5.25,0,0,0-2.21,6.36c-.64-.06-2.6,0-3.26,2.83a5,5,0,0,0,.51,3.86,4.51,4.51,0,0,0-1.38,2.55c-.77,3.27.9,4.59,1,4.68a4.92,4.92,0,0,0-.75,2.42C15,34,17,35,17,35l.55.24h0c.59,3.43,2.77,3.92,2.77,3.92a16.22,16.22,0,0,0,2.62.22,5.79,5.79,0,0,1-.55-2.51s-1.27.45-3.76-1.68-1.71-8.4,1.15-8.77a3.38,3.38,0,0,1,3,1.2,2,2,0,0,1,.06.21c.42,2.16,2.44,3.07,2.91,1.9a22.24,22.24,0,0,0,1.46-6.81c.16-2.65,1.17-3.4,4.09-1.7,3.21,1.87,6-1.79,6-1.79a4.39,4.39,0,0,0,4,3.4c3.54.47,4.88-1.45,4.88-1.45s.86,3.35,4.68,2.34,2.18-5.85,2.18-5.85A3,3,0,0,0,55.15,14.31Z"/><path class="cls-9" d="M31.9,64.07S34.1,76,30.54,81s6.8,7.87,10.53,6.73,4.49-19.73,1.84-27S33.38,60.95,31.9,64.07Z"/><path class="cls-8" d="M31.9,64.07s3.54,2.38,7.34,1.33S43.47,63,43.47,63a6.29,6.29,0,0,0-.76-2.69A35.09,35.09,0,0,1,31.9,64.07Z"/><path class="cls-9" d="M16,51.87s5-6.18,8.06-5,4.4,4.45,8.82,4.57,4.25-2,6.63-2.26,8.16,3.93,8,6.19-7.22,9.79-16.95,8.51S16,51.87,16,51.87Z"/><path class="cls-2" d="M49.87,39.41s-3.1-5.71-5.3-5.17-7.75,8.88-9.09,12.82,2,6.79,2.83,8.35,11.44.48,12.72-1.46S50.53,40.53,49.87,39.41Z"/><path class="cls-10" d="M46.3,36.29a5.6,5.6,0,0,0-5.14,3.12c-1.67,3.35-4.24,6.62-4,8.44a12.21,12.21,0,0,0,2,4.3,6.12,6.12,0,0,1,.26-5.85C41.24,43.13,45.18,36.71,46.3,36.29Z"/><path class="cls-10" d="M43.44,46.49c0,.17.58,4.57-.62,6.44s-1.92,2.15-1.92,2.15,2.66.24,3.51-3.6S43.44,46.49,43.44,46.49Z"/><path class="cls-6" d="M50.83,69.2S47.32,58.5,46.3,54.3c0,0,1.82-2.85,3.22-3.13a2.06,2.06,0,0,0,1.66-1.44S58.49,64.34,59.52,68,51.95,71,50.83,69.2Z"/><path class="cls-6" d="M52.1,38.24s.2,4,.17,5.69-1.06,5.18-1.09,5.79,1.92,3.82-.8,4.47-2.63,4.46-3,4a48.1,48.1,0,0,1-1.55-5.6,4.44,4.44,0,0,1-1.69-1.5A31.3,31.3,0,0,1,43,46.35s-3.13-2-3.26-2.93,1.33-2,1.33-2,.54-1.33,1-1.47a.58.58,0,0,1,.67.17s.45-2.11,1.06-2.19.72-1.51,1.87-1.52a37.07,37.07,0,0,1,6.47,1.84"/><path class="cls-7" d="M43.22,39.94h-.64c0-.18,0-1.76,1-2.19.56-.24,4.68,1.31,4.68,1.31a22.88,22.88,0,0,0-4.43-.72C43.33,38.56,43.22,39.6,43.22,39.94Z"/><path class="cls-7" d="M41.24,41.76l-.61-.19c.09-.3.59-1.78,1.45-1.83a25.62,25.62,0,0,1,4.34,1.51,33.51,33.51,0,0,0-4.31-.87C41.85,40.4,41.44,41.12,41.24,41.76Z"/><path class="cls-7" d="M39.61,43.81c-.56-1.13.4-2,.81-2.33l.07-.06a4.89,4.89,0,0,1,1.79.6,11.1,11.1,0,0,1,1.87,1.32,13.87,13.87,0,0,0-3.28-1.4l0,0c-.48.42-1,.93-.66,1.56a23.34,23.34,0,0,0,3.74,3.54S40.11,44.8,39.61,43.81Zm1.3-1.91h0Z"/><path class="cls-7" d="M47.27,53.15a11.25,11.25,0,0,1-2.82-1.31c-.63-.47-1.53-4.13-1.75-5.54l.27.05c.48,2.12,1,4.31,1.87,5a8.85,8.85,0,0,0,2,1,.66.66,0,0,1,.4.82Z"/><path class="cls-7" d="M45.58,36.85c-.69.19-1,1.13-1,1.14L44,37.81a2.39,2.39,0,0,1,1.42-1.58c.91-.25,5.35,1.48,6.69,2C52.1,38.24,46.07,36.71,45.58,36.85Z"/><path class="cls-4" d="M47.7,66s3.74,25,5.25,27.31c0,0,6.38,1.42,10.87,0s4.2-10.77.93-20.11-4.67-10.56-4.67-10.56A14.7,14.7,0,0,1,47.7,66Z"/><path class="cls-5" d="M47.7,66s-1.16-.25-.69-3.62a.26.26,0,0,1,.35-.21c.67.28,2.54.76,6.13-.21,4.67-1.26,4.49-2.9,5-2.85s2.61,3,1.77,3.74S53.81,67.71,47.7,66Z"/><path class="cls-5" d="M47.7,66s1.17,13.46,3.84,19.2c0,0-1.78-6.62-2.79-19.9Z"/></g></g></svg>