<svg xmlns="http://www.w3.org/2000/svg" xmlns:xlink="http://www.w3.org/1999/xlink" viewBox="0 0 560.97 662.48"><defs><style>.cls-1{fill:none;}.cls-2{fill:#67a272;}.cls-3{clip-path:url(#clip-path);}.cls-4{fill:#f7c6c6;}.cls-5{fill:#ffe6e6;}.cls-6{fill:#ea651b;}.cls-7{fill:#fff;}.cls-8{fill:#c1272d;}.cls-9{fill:#aa1520;}</style><clipPath id="clip-path"><circle class="cls-1" cx="283.01" cy="277.96" r="277.96"/></clipPath></defs><title>touch</title><g id="Layer_2" data-name="Layer 2"><g id="Layer_1-2" data-name="Layer 1"><circle class="cls-2" cx="283.01" cy="277.96" r="277.96"/><g class="cls-3"><path class="cls-4" d="M304.4,327.91l-.31.38c4,3.24,9.56-1.07,12.94-4.95a239.16,239.16,0,0,1,43.33-39c4.56-3.19,12.56-5.23,14.26.07.87,2.7-.87,5.48-2.52,7.77q-26.14,36.46-52.3,72.91c-14.88,20.75-30.2,41.93-51.37,56.22-6.09,4.11-12.69,7.67-17.75,13-3.7,3.92-6.42,8.66-9.1,13.34l-123,214.82c-.13-.66-35.89-26.2-39.14-28.65Q59.82,619.14,40.58,604T2.45,573.19c-1.59-1.32-3.17-1.74-2.11-3.53,1-1.64,3.46-3.18,4.87-4.47l9.35-8.59,18.68-17.17L108,470.77l26.92-24.72c17.55-16.13,36.23-34.37,39-58.05,1.6-13.86-2.61-27.64-4.64-41.44-5.86-39.92,6.51-79.73,20.64-117.87Q192.45,221.8,195,215c.68-1.79,1.42-3.66,2.94-4.83a5.1,5.1,0,0,1,2.7-1.07c3.34-.32,7.1,2.38,9,5.51,11.93,19.34-9.49,45.21-1.58,66.51.84,2.28,2.11,4.54,4.21,5.76,4.64,2.71,10.38-.86,14.18-4.64,14-13.92,22.27-32.47,31.68-49.85A354,354,0,0,1,293.71,179c2.87-3.58,7.21-7.48,11.42-5.67,5.11,2.18,3.93,9.7,1.8,14.83a666.89,666.89,0,0,1-37.55,76.5c-3.31,5.76-6.38,13.86-1.39,18.23l68.93-105.4c3-4.52,6.79-9.55,12.18-9.6,5.86-.05,10.11,6.33,10,12.19s-3.3,11.15-6.38,16.14L288.19,300.59c25.38-18.19,43.39-44.62,61.22-70.26,3.6-5.16,9.32-11,15.12-8.54,3.66,1.57,5.29,5.92,5.5,9.9.6,11.26-6.74,21.22-13.7,30.1Z"/><path class="cls-5" d="M204.19,219.1c-.33,4.19-1.44,8.5-4.18,11.89a45.9,45.9,0,0,0-10.12-2.3Q192.45,221.8,195,215c.68-1.79,1.42-3.66,2.94-4.83a5.1,5.1,0,0,1,2.7-1.07,7.67,7.67,0,0,1,3,4.09A15.1,15.1,0,0,1,204.19,219.1Z"/><path class="cls-5" d="M302.92,191.32l-.08,0c-.89.51-2.11.14-3.07,0a14.52,14.52,0,0,1-3.31-.74c-1.85-.65-6.82-2.15-4.88-5,1.74-2.52,3.12-5.3,5-7.7s6.22-6.46,9.3-3.32c4.09,4.18.65,12.06-2.15,15.81A3.31,3.31,0,0,1,302.92,191.32Z"/><path class="cls-5" d="M352.88,190c-1.72.5-4.31-.69-5.88-1.29-2.74-1.05-10.76-4.53-9.24-8.63.86-2.3,3.38-4.7,5.17-6.29,2.26-2,5.68-4.05,8.84-3.65a4.61,4.61,0,0,1,2.76,1.32c2,2.14,2.06,6.07,1.85,8.87a22.51,22.51,0,0,1-2.74,8.92,1.72,1.72,0,0,1-.44.61A1,1,0,0,1,352.88,190Z"/><path class="cls-5" d="M363.67,243.64a2.09,2.09,0,0,1-1.3.06c-3.24-.88-6.66-2.2-9.17-4.51-1.25-1.15-2.87-2.92-2.7-4.74s1.35-3.24,2.33-4.76a26,26,0,0,1,3.69-4.77c1.82-1.76,4.65-3.61,7.27-3,2.39.6,3.69,2.68,4.25,5a19.54,19.54,0,0,1-2.61,15.22A4,4,0,0,1,363.67,243.64Z"/><path class="cls-5" d="M366.54,298.59c2.21-.73,3.74-4.47,4.79-6.17,1.32-2.13,4.12-6.39,2.1-8.7-1.6-1.84-4.75-1.25-6.87-.62-3.05.9-10.52,3.67-9.5,7.71a9.5,9.5,0,0,0,3.42,5.21c1.48,1.16,3.46,3,5.59,2.68A2.46,2.46,0,0,0,366.54,298.59Z"/></g><path class="cls-6" d="M283,555.92A278,278,0,0,1,86.46,81.41,278,278,0,0,1,479.55,474.51,276.14,276.14,0,0,1,283,555.92ZM283,18C139.66,18,23,134.62,23,278s116.62,260,260,260S543,421.3,543,278,426.35,18,283,18Z"/><path class="cls-7" d="M283,539.51A261.55,261.55,0,0,1,98.06,93,261.55,261.55,0,0,1,468,462.9,259.84,259.84,0,0,1,283,539.51Zm0-506.16C148.13,33.34,38.39,143.08,38.39,278S148.13,522.57,283,522.57,527.62,412.84,527.62,278,417.89,33.34,283,33.34Z"/><path class="cls-8" d="M401,160a167.24,167.24,0,1,0,48.88,118A165.79,165.79,0,0,0,401,160Zm-118,260c-78.29,0-142-63.7-142-142a141.36,141.36,0,0,1,33.22-91.17L374.17,386.73A141.33,141.33,0,0,1,283,419.95Zm108.77-50.82L191.84,169.19A141.36,141.36,0,0,1,283,136c78.3,0,142,63.7,142,142a141.62,141.62,0,0,1-33.22,91.16Z"/><path class="cls-9" d="M436.83,342.9a167,167,0,0,1-308-129.09A234.15,234.15,0,0,0,147.65,235,141.35,141.35,0,0,0,141,278c0,78.29,63.7,142,142,142a141.33,141.33,0,0,0,91.17-33.22l-65-65q23,6.77,46.64,11.44l36,36a142.33,142.33,0,0,0,18.4-28.06Q423.48,342.31,436.83,342.9Z"/></g></g></svg>