<svg xmlns="http://www.w3.org/2000/svg" xmlns:xlink="http://www.w3.org/1999/xlink" viewBox="0 0 66.87 66.87"><defs><style>.cls-1{fill:none;}.cls-2{fill:#442e66;}.cls-3{fill:#fff;}.cls-4{clip-path:url(#clip-path);}.cls-5{fill:#cb5137;}.cls-6{fill:#b21700;}.cls-7{fill:#5f584d;}.cls-8{fill:#342d27;}.cls-9{fill:#08510c;}</style><clipPath id="clip-path"><rect class="cls-1" x="66.87" y="-92.5" width="66.87" height="66.87"/></clipPath></defs><title>trash</title><g id="OBJECTS"><rect class="cls-2" width="66.87" height="66.87"/><ellipse class="cls-3" cx="27.49" cy="54.83" rx="4.95" ry="5.06"/><ellipse class="cls-3" cx="21.14" cy="56.44" rx="4.11" ry="4.2"/><ellipse class="cls-3" cx="35.98" cy="55.08" rx="4.95" ry="5.06"/><ellipse class="cls-3" cx="28.07" cy="58.53" rx="4.95" ry="5.06"/><ellipse class="cls-3" cx="22.88" cy="27.56" rx="12.31" ry="12.59"/><ellipse class="cls-3" cx="36.01" cy="39.31" rx="12.31" ry="12.59"/><ellipse class="cls-3" cx="16.51" cy="43.68" rx="12.31" ry="12.59"/><ellipse class="cls-3" cx="48.32" cy="39.31" rx="12.31" ry="12.59"/><ellipse class="cls-3" cx="49.16" cy="53.4" rx="8.96" ry="9.16"/><g class="cls-4"><path class="cls-5" d="M89.2-41.79s2.46,6.9,9.35,6.55,5.63-4,8-3.85,9.86,1.79,14.84,3.49C127.64-33.47,132-18.5,132-18.5s7.64,16.79-3,21.15c-3.74,1.53-5.62,1.76-7.93,0-3.36-2.62-2.52-14.54-3.8-13.72S114.51,3.42,115,7.08c.94,7,4.68,29.46,3.75,30.63s-12.12,7.88-30.09,5.07-17.91-4.83-17.91-4.83,1.36-22.7,3-32c.65-3.69.84-17.13.84-17.13S62.46,7.08,56.54,7.08s-8-3.9-3.74-12.94S62.82-33.24,68.15-36,81.87-40.78,89.2-41.79Z"/><path class="cls-5" d="M75.92.58S64.38-5.78,53-5.51a15.44,15.44,0,0,0-2.48,7.74c-.33,3.91,5.76,7.85,14,8.69s9.63.2,9.63.2A12.18,12.18,0,0,1,75.92.58Z"/><path class="cls-6" d="M75.79.4S70-3.55,59.38-4.75c0,0,13.8,3.34,16.1,6.22Z"/></g><path class="cls-3" d="M48.14,19.84H18.88a.66.66,0,0,0-.66.66v2.31a.66.66,0,0,0,.66.66h.85V54.76a1.1,1.1,0,0,0,1.1,1.1H45.28a1.1,1.1,0,0,0,1.1-1.1V23.47h1.76a.66.66,0,0,0,.66-.66V20.5A.66.66,0,0,0,48.14,19.84Z"/><path class="cls-3" d="M48.76,11.86A.66.66,0,0,0,48,11.3l-8.49,1.17-.39-2.85a.91.91,0,0,0-1-.77l-10.2,1.41a.91.91,0,0,0-.77,1l.39,2.85L19,15.29a.66.66,0,0,0-.56.74l.32,2.29a.66.66,0,0,0,.74.56l29-4a.66.66,0,0,0,.56-.74Z"/><path class="cls-7" d="M18.38,55.58a1.1,1.1,0,0,0,1.1,1.1H43.93a1.1,1.1,0,0,0,1.1-1.1V24.28H18.38ZM39.08,26.1a.45.45,0,0,1,.45-.45h1.59a.45.45,0,0,1,.45.45V53.58a.45.45,0,0,1-.45.45H39.54a.45.45,0,0,1-.45-.45Zm-5.68,0a.45.45,0,0,1,.45-.45h1.59a.45.45,0,0,1,.45.45V53.58a.45.45,0,0,1-.45.45H33.86a.45.45,0,0,1-.45-.45Zm-5.68,0a.45.45,0,0,1,.45-.45h1.59a.45.45,0,0,1,.45.45V53.58a.45.45,0,0,1-.45.45H28.18a.45.45,0,0,1-.45-.45Zm-5.68,0a.45.45,0,0,1,.45-.45H24.1a.45.45,0,0,1,.45.45V53.58a.45.45,0,0,1-.45.45H22.51a.45.45,0,0,1-.45-.45Z"/><path class="cls-7" d="M37.77,10.43a.91.91,0,0,0-1-.77l-10.2,1.41a.91.91,0,0,0-.77,1l.39,2.85,12-1.65Z"/><path class="cls-8" d="M46.79,20.65H17.53a.66.66,0,0,0-.66.66v2.31a.66.66,0,0,0,.66.66H46.79a.66.66,0,0,0,.66-.66V21.31A.66.66,0,0,0,46.79,20.65Z"/><path class="cls-8" d="M47.4,12.68a.66.66,0,0,0-.74-.56l-8.49,1.17-12,1.65-8.49,1.17a.66.66,0,0,0-.56.74l.32,2.29a.66.66,0,0,0,.74.56l29-4a.66.66,0,0,0,.56-.74Z"/><rect class="cls-8" x="22.05" y="25.65" width="2.5" height="28.38" rx="0.45" ry="0.45"/><rect class="cls-8" x="27.73" y="25.65" width="2.5" height="28.38" rx="0.45" ry="0.45"/><rect class="cls-8" x="33.41" y="25.65" width="2.5" height="28.38" rx="0.45" ry="0.45"/><rect class="cls-8" x="39.08" y="25.65" width="2.5" height="28.38" rx="0.45" ry="0.45"/><path class="cls-3" d="M36.78,33.52l-2.27-4-.48,1c-1-.5-3.69-1.19-6.79,2.42l1.51,1s2-2.44,4.55-1.83l-.63,1.36Z"/><path class="cls-3" d="M36.66,35.07s1,3-.84,4.83L35,38.65l-2.17,3.49,4.56.17-.62-.95c1-.62,3-2.51,1.53-7Z"/><path class="cls-3" d="M27.9,38l1.5,0-1.68-3.75L25,38h1.13c0,1.16.43,3.86,5,5.2l.28-1.78S28.4,40.65,27.9,38Z"/><path class="cls-9" d="M36.22,33.86l-2.27-4-.48,1c-1-.5-3.69-1.19-6.79,2.42l1.51,1s2-2.44,4.55-1.83l-.63,1.36Z"/><path class="cls-9" d="M36.1,35.41s1,3-.84,4.83L34.43,39l-2.17,3.49,4.56.17-.62-.95c1-.62,3-2.51,1.53-7Z"/><path class="cls-9" d="M27.33,38.38l1.5,0-1.68-3.75-2.69,3.69H25.6c0,1.16.43,3.86,5,5.2l.28-1.78S27.84,41,27.33,38.38Z"/></g></svg>