<svg xmlns="http://www.w3.org/2000/svg" xmlns:xlink="http://www.w3.org/1999/xlink" viewBox="0 0 601.35 662.48"><defs><style>.cls-1{fill:none;}.cls-2{clip-path:url(#clip-path);}.cls-3{fill:#67a272;}.cls-4{fill:#f2b6b6;}.cls-5{fill:#fff;}.cls-6{fill:#f7c6c6;}.cls-7{fill:#ffe6e6;}.cls-8{fill:#aeeaff;}.cls-9{fill:#ea651b;}</style><clipPath id="clip-path"><circle class="cls-1" cx="323.39" cy="277.96" r="277.96"/></clipPath></defs><title>washinghand</title><g id="Layer_2" data-name="Layer 2"><g id="Layer_1-2" data-name="Layer 1"><g class="cls-2"><circle class="cls-3" cx="323.39" cy="277.96" r="277.96"/><path class="cls-4" d="M469,163.83c-5.06-1.86-10.42,1.49-14.79,4.67L352.46,242.76c-3.12-5.85,2.61-12.35,7.74-16.56a666.9,666.9,0,0,0,62.15-58.31c3.8-4.05,7.56-10.67,3.55-14.51-3.31-3.18-8.75-1.06-12.69,1.27A354,354,0,0,0,361.12,192c-14.95,12.94-29.19,27.38-47.25,35.45-4.9,2.19-11.53,3.5-14.91-.67-1.53-1.88-1.92-4.44-1.9-6.87.13-22.72,29.3-39.36,25-61.66-.69-3.61-3.26-7.46-6.49-8.34a5.1,5.1,0,0,0-2.91,0c-1.83.56-3.19,2.05-4.45,3.48q-4.83,5.47-9.66,11c-26.69,30.69-52.33,63.56-60.94,103-3,13.63-3.91,28-10.3,40.41-10.91,21.19-34.84,31.66-57,40.55L136.42,362l-94.2,37.83-23.54,9.46L6.9,414c-1.77.71-4.66,1.27-6.14,2.46s-.3,2.26.72,4.05q12.15,21.27,24.8,42.25t25.8,41.66c2.18,3.44,26.61,40,26.49,40.63l191-157.51c4.16-3.44,8.38-6.91,13.23-9.27,6.62-3.22,14-4.21,21.2-5.91,24.84-5.89,46.67-20.29,67.91-34.45l35.22-23.45c11.21-7.47,22.23-15.49,34-22.07,3.31-1.86,10.41-6.38,10.61-10.6.28-5.56-7.92-6.48-13.32-5.11A239.16,239.16,0,0,0,384,297.93c-4.53,2.44-11.25,4.5-13.85.06l.42-.25,71.93-43.52c9.65-5.84,20-12.57,23.45-23.32,1.21-3.79,1.23-8.44-1.65-11.2-4.55-4.35-12-.9-17.17,2.65-25.74,17.68-51.92,36.06-82.09,44.11l97.24-74.84c4.65-3.58,9.5-7.42,11.67-12.85S474.47,165.85,469,163.83Z"/><path class="cls-5" d="M415.82,309.7a29.89,29.89,0,0,0,4.81-12.6,30.07,30.07,0,1,0-20.29-56.6A30,30,0,0,0,383.66,231,30.06,30.06,0,1,0,347.72,186,30.06,30.06,0,0,0,308,197.22a30.06,30.06,0,0,0-47,37.48,29.94,29.94,0,0,0-3,13.2c0,.26,0,.51,0,.77a30,30,0,0,0-31.39,12.11,30.06,30.06,0,0,0-20.43,47.83,30.07,30.07,0,1,0,57.6,12.07c0-.08,0-.16,0-.24a30,30,0,0,0,32.06-19.7,30,30,0,0,0,4,6.59,30,30,0,0,0,6,43,30.06,30.06,0,0,0,18.37,39.31,24.29,24.29,0,0,0,45-12.73c0-.64,0-1.27-.08-1.9h.08a24.27,24.27,0,0,0,20.68-11.56,30.06,30.06,0,1,0,26-53.77Z"/><path class="cls-6" d="M344.78,327.91l-.31.38c4,3.24,9.56-1.07,12.94-4.95a239.16,239.16,0,0,1,43.33-39c4.56-3.19,12.56-5.23,14.26.07.87,2.7-.87,5.48-2.52,7.77q-26.14,36.46-52.3,72.91C345.32,385.83,330,407,308.83,421.3c-6.09,4.11-12.69,7.67-17.75,13-3.7,3.92-6.42,8.66-9.1,13.34l-123,214.82c-.13-.66-35.89-26.2-39.14-28.65Q100.2,619.14,81,604T42.83,573.19c-1.59-1.32-3.17-1.74-2.11-3.53,1-1.64,3.46-3.18,4.87-4.47l9.35-8.59,18.68-17.17,74.77-68.67,26.92-24.72c17.55-16.13,36.23-34.37,39-58.05,1.6-13.86-2.61-27.64-4.64-41.44-5.86-39.92,6.51-79.73,20.64-117.87q2.56-6.89,5.16-13.71c.68-1.79,1.42-3.66,2.94-4.83a5.1,5.1,0,0,1,2.7-1.07c3.34-.32,7.1,2.38,9,5.51,11.93,19.34-9.49,45.21-1.58,66.51.84,2.28,2.11,4.54,4.21,5.76,4.64,2.71,10.38-.86,14.18-4.64,14-13.92,22.27-32.47,31.68-49.85A354,354,0,0,1,334.09,179c2.87-3.58,7.21-7.48,11.42-5.67,5.11,2.18,3.93,9.7,1.8,14.83a666.89,666.89,0,0,1-37.55,76.5c-3.31,5.76-6.38,13.86-1.39,18.23l68.93-105.4c3-4.52,6.79-9.55,12.18-9.6,5.86-.05,10.11,6.33,10,12.19s-3.3,11.15-6.38,16.14L328.57,300.59C354,282.4,372,256,389.79,230.33c3.6-5.16,9.32-11,15.12-8.54,3.66,1.57,5.29,5.92,5.5,9.9.6,11.26-6.74,21.22-13.7,30.1Z"/><path class="cls-7" d="M244.57,219.1c-.33,4.19-1.44,8.5-4.18,11.89a45.9,45.9,0,0,0-10.12-2.3q2.56-6.89,5.16-13.71c.68-1.79,1.42-3.66,2.94-4.83a5.1,5.1,0,0,1,2.7-1.07,7.67,7.67,0,0,1,3,4.09A15.1,15.1,0,0,1,244.57,219.1Z"/><path class="cls-7" d="M343.3,191.32l-.08,0c-.89.51-2.11.14-3.07,0a14.52,14.52,0,0,1-3.31-.74c-1.85-.65-6.82-2.15-4.88-5,1.74-2.52,3.12-5.3,5-7.7s6.22-6.46,9.3-3.32c4.09,4.18.65,12.06-2.15,15.81A3.31,3.31,0,0,1,343.3,191.32Z"/><path class="cls-7" d="M393.26,190c-1.72.5-4.31-.69-5.88-1.29-2.74-1.05-10.76-4.53-9.24-8.63.86-2.3,3.38-4.7,5.17-6.29,2.26-2,5.68-4.05,8.84-3.65a4.61,4.61,0,0,1,2.76,1.32c2,2.14,2.06,6.07,1.85,8.87a22.51,22.51,0,0,1-2.74,8.92,1.72,1.72,0,0,1-.44.61A1,1,0,0,1,393.26,190Z"/><path class="cls-7" d="M404,243.64a2.09,2.09,0,0,1-1.3.06c-3.24-.88-6.66-2.2-9.17-4.51-1.25-1.15-2.87-2.92-2.7-4.74s1.35-3.24,2.33-4.76a26,26,0,0,1,3.69-4.77c1.82-1.76,4.65-3.61,7.27-3,2.39.6,3.69,2.68,4.25,5a19.54,19.54,0,0,1-2.61,15.22A4,4,0,0,1,404,243.64Z"/><path class="cls-7" d="M406.92,298.59c2.21-.73,3.74-4.47,4.79-6.17,1.32-2.13,4.12-6.39,2.1-8.7-1.6-1.84-4.75-1.25-6.87-.62-3.05.9-10.52,3.67-9.5,7.71a9.5,9.5,0,0,0,3.42,5.21c1.48,1.16,3.46,3,5.59,2.68A2.46,2.46,0,0,0,406.92,298.59Z"/><path class="cls-8" d="M345.92,103c-1.27-4.73-2.8-9.44-3.87-14.12q-3.21-14-5.29-28.25c-.62-4.25-4.46-8.7-6.29-2.27a517.2,517.2,0,0,0-12,51.79c-.25,1.41-.52,2.81-.7,4.23-.9,7.21-.54,17,6.36,21.42,15.47,9.87,25.34-9.45,23.91-22.47A69.31,69.31,0,0,0,345.92,103Z"/><path class="cls-9" d="M323.39,555.92A278,278,0,0,1,126.84,81.41,278,278,0,0,1,519.93,474.51,276.14,276.14,0,0,1,323.39,555.92Zm0-537.92c-143.34,0-260,116.62-260,260s116.62,260,260,260,260-116.62,260-260S466.73,18,323.39,18Z"/><path class="cls-5" d="M323.39,539.51A261.55,261.55,0,0,1,138.44,93,261.55,261.55,0,0,1,508.33,462.9,259.84,259.84,0,0,1,323.39,539.51Zm0-506.16C188.51,33.34,78.77,143.08,78.77,278S188.51,522.57,323.39,522.57,568,412.84,568,278,458.27,33.34,323.39,33.34Z"/></g></g></g></svg>