<svg xmlns="http://www.w3.org/2000/svg" xmlns:xlink="http://www.w3.org/1999/xlink" viewBox="0 0 66.87 66.87"><defs><style>.cls-1{fill:none;}.cls-2{fill:#442e66;}.cls-3{clip-path:url(#clip-path);}.cls-4{fill:#fff;}.cls-5{fill:#ffb8b9;}.cls-6{clip-path:url(#clip-path-2);}.cls-7{fill:#cb5137;}.cls-8{fill:#b21700;}</style><clipPath id="clip-path"><rect class="cls-1" width="66.87" height="66.87"/></clipPath><clipPath id="clip-path-2"><rect class="cls-1" x="66.87" y="-92.5" width="66.87" height="66.87"/></clipPath></defs><title>wash</title><g id="OBJECTS"><rect class="cls-2" width="66.87" height="66.87"/><g class="cls-3"><ellipse class="cls-4" cx="30.02" cy="52.16" rx="4.95" ry="5.06"/><ellipse class="cls-4" cx="23.67" cy="53.77" rx="4.11" ry="4.2"/><ellipse class="cls-4" cx="37.22" cy="56.41" rx="4.95" ry="5.06"/><ellipse class="cls-4" cx="30.59" cy="55.86" rx="4.95" ry="5.06"/><ellipse class="cls-4" cx="50.09" cy="9.33" rx="4.95" ry="5.06"/><ellipse class="cls-4" cx="6.34" cy="13.49" rx="3.19" ry="3.26" transform="translate(-1.41 0.76) rotate(-6.17)"/><ellipse class="cls-4" cx="58.35" cy="16.13" rx="2.69" ry="2.75" transform="translate(-1.39 6.36) rotate(-6.17)"/><ellipse class="cls-4" cx="37.22" cy="11" rx="2.69" ry="2.75" transform="translate(-0.97 4.06) rotate(-6.17)"/><ellipse class="cls-4" cx="21.84" cy="20.84" rx="12.31" ry="12.59"/><ellipse class="cls-4" cx="34.97" cy="32.59" rx="12.31" ry="12.59"/><ellipse class="cls-4" cx="15.47" cy="36.97" rx="12.31" ry="12.59"/><ellipse class="cls-4" cx="47.28" cy="32.59" rx="12.31" ry="12.59"/><ellipse class="cls-4" cx="51.47" cy="43.26" rx="12.31" ry="12.59"/><path class="cls-5" d="M2.09,66.87S4.28,61,10.62,49.78a52.33,52.33,0,0,0,9.3-6.59c4-3.72,6.19-5.67,8.22-5.8,1.48-.1,2.42-.61,1.81-2-.76-1.68-5.88-1.39-7.77.33s-1.82,1.16-1.46.3,2.5-5.5,4.36-9,3.7-6.65,4.18-7.78c.74-1.74-1.22-3.17-2.31-2.08s-3.07,4.69-4.57,7.34S20,28.73,19.53,29s1-3.79,3-8.13c2.17-4.5,2.15-5.23,1.7-5.81s-2-1.19-3.24,1.14-4.3,9.1-5.15,10.83-1.18,1.87-1.28,1.62a78.77,78.77,0,0,1,3.52-8.55c1.26-2.61,1-3.93-.07-4.29-.92-.31-2,1.44-3.63,4.35s-3.22,7.58-3.58,8-.72-.17.33-3.11,2.14-6.49,1.83-7-1.09-2.17-2.68.29-3,7.85-4.21,10.29a43.6,43.6,0,0,0-3.71,11c-.66,4.13.25,3.17-.57,5C.65,47.44-9,62.55-9,62.55S-1.73,68.2,2.09,66.87Z"/><path class="cls-5" d="M62.47,69.43s-1.21-5.06-6.83-16.68a52.33,52.33,0,0,1-8.88-7.15c-3.75-4-5.83-6-7.85-6.3-1.47-.19-2.38-.76-1.69-2.07.86-1.63,6-1,7.73.81s1.75,1.27,1.44.39-2.15-5.65-3.8-9.21-3.28-6.87-3.69-8c-.63-1.78,1.42-3.09,2.43-1.93s2.77,4.88,4.11,7.61,2.09,4.29,2.58,4.6-.71-3.84-2.53-8.3c-1.89-4.63-1.82-5.35-1.33-5.91s2-1.07,3.17,1.34,3.73,9.35,4.47,11.13,1.07,1.94,1.17,1.7a78.77,78.77,0,0,0-3-8.75c-1.09-2.69-.77-4,.34-4.28.94-.25,1.93,1.56,3.35,4.56s2.75,7.77,3.08,8.25.73-.12-.14-3.13S54.89,21.48,55.24,21s1.22-2.1,2.66.45,2.54,8,3.57,10.53a43.6,43.6,0,0,1,3,11.24c.4,4.16-.45,3.15.26,5.06,1,2.71,9.73,18.4,9.73,18.4S66.21,71,62.47,69.43Z"/><ellipse class="cls-4" cx="9.09" cy="57.22" rx="4.95" ry="5.06"/><ellipse class="cls-4" cx="59.99" cy="55.86" rx="4.95" ry="5.06"/></g><g class="cls-6"><path class="cls-7" d="M89.2-41.79s2.46,6.9,9.35,6.55,5.63-4,8-3.85,9.86,1.79,14.84,3.49C127.64-33.47,132-18.5,132-18.5s7.64,16.79-3,21.15c-3.74,1.53-5.62,1.76-7.93,0-3.36-2.62-2.52-14.54-3.8-13.72S114.51,3.42,115,7.08c.94,7,4.68,29.46,3.75,30.63s-12.12,7.88-30.09,5.07-17.91-4.83-17.91-4.83,1.36-22.7,3-32c.65-3.69.84-17.13.84-17.13S62.46,7.08,56.54,7.08s-8-3.9-3.74-12.94S62.82-33.24,68.15-36,81.87-40.78,89.2-41.79Z"/><path class="cls-7" d="M75.92.58S64.38-5.78,53-5.51a15.44,15.44,0,0,0-2.48,7.74c-.33,3.91,5.76,7.85,14,8.69s9.63.2,9.63.2A12.18,12.18,0,0,1,75.92.58Z"/><path class="cls-8" d="M75.79.4S70-3.55,59.38-4.75c0,0,13.8,3.34,16.1,6.22Z"/></g></g></svg>