<svg xmlns="http://www.w3.org/2000/svg" xmlns:xlink="http://www.w3.org/1999/xlink" viewBox="0 0 555.92 639.44"><defs><style>.cls-1{fill:none;}.cls-2{clip-path:url(#clip-path);}.cls-3{fill:#67a272;}.cls-4{fill:#f7f7f7;}.cls-5{fill:#eab5b5;}.cls-6{fill:#f7c6c6;}.cls-7{fill:#3f3f3f;}.cls-8{fill:#f9d1d1;}.cls-9{fill:#ed353e;}.cls-10{fill:#1f555d;}.cls-11{fill:#f45354;}.cls-12{fill:#595959;}.cls-13{fill:#4d4e4d;}.cls-14{fill:#666766;}.cls-15{fill:#246167;}.cls-16{fill:#fff;}.cls-17{fill:#174a4e;}.cls-18{fill:#6cf3f3;}.cls-19{fill:#86f7f4;}.cls-20{fill:#61dee7;}.cls-21{fill:#83e5f3;}.cls-22{fill:#ea651b;}</style><clipPath id="clip-path"><circle class="cls-1" cx="277.96" cy="277.96" r="277.96"/></clipPath></defs><title>wearingmask</title><g id="Layer_2" data-name="Layer 2"><g id="Layer_1-2" data-name="Layer 1"><g class="cls-2"><circle class="cls-3" cx="277.96" cy="277.96" r="277.96"/><path class="cls-4" d="M319,224.26c4.57-5.12,6.19-11.74,7.72-18.25.43-1.84,3.26-1.06,2.83.78-1.65,7.06-3.55,14-8.47,19.55C319.78,227.75,317.71,225.67,319,224.26Z"/><path class="cls-4" d="M238,224.26c-4.57-5.12-6.19-11.74-7.72-18.25-.43-1.84-3.26-1.06-2.83.78,1.65,7.06,3.55,14,8.47,19.55C237.21,227.75,239.28,225.67,238,224.26Z"/><path class="cls-5" d="M253,210.82c-1.89,14.83-7.93,40.37-8.84,43.1C241.82,260.81,238,268,231.66,272c-4.5,2.81-9.7,4.14-14.87,5.42-7.34,4.12-14.73,8.18-22.22,12a13,13,0,0,0-1.65,8.27c.88,7.41,6,14,10.15,19.85a70.1,70.1,0,0,0,24.22,20.93c15.78,8.36,34,11.2,51.85,11.1V210.82Z"/><path class="cls-6" d="M360.61,285.63c-6.55-2.89-13.15-5.64-19.78-8.39-5-1.23-9.91-2.57-14.22-5.25-6.34-4-10.17-11.18-12.47-18.07-.91-2.73-7-28.27-8.84-43.1H279.14V349.55c17.9.1,36.07-2.74,51.85-11.1a70.1,70.1,0,0,0,24.22-20.93c4.2-5.88,9.27-12.44,10.15-19.85A13.51,13.51,0,0,0,360.61,285.63Z"/><path class="cls-7" d="M339.14,136.18c-.29-7-1-14.09-3.42-20.05C330.37,103,313.5,100,301.1,97.94a137.23,137.23,0,0,0-39-.52c-13.24,1.6-30.92,5.51-36.44,19.39-5.3,13.33-6.29,27-7.34,41.13a89.81,89.81,0,0,0,1,21.31c1.52,9.18,9.53,10.37,17.41,13a168.17,168.17,0,0,0,76,6.83c11.49-1.63,23-5,25.07-18a167.55,167.55,0,0,0,1.66-33.55C339.34,143.9,339.3,140.06,339.14,136.18Z"/><path class="cls-8" d="M341,176.25c-.22-2.24-.95-4.3-3-5.11-3.1-1.2-6.78.36-9.69,2.79h0A92.7,92.7,0,0,0,320,143.66c-8.94-18.84-23.89-31.19-40.83-31.19H278c-24.74,0-45.26,26.37-49,60.85,0,.29-.06.59-.09.89-3-2.58-6.79-4.3-10-3.06-2.08.8-2.81,2.86-3,5.11a44.34,44.34,0,0,0,.06,5.56,76.66,76.66,0,0,0,1.6,15.33c1.53,6.48,5.8,17,13.68,17.11l1.33,0a65.77,65.77,0,0,0,11.24,21.45c7.23,9.08,18.13,18.46,29.8,20.81a23,23,0,0,0,5,.43,29.18,29.18,0,0,0,10.33-2.3,54.65,54.65,0,0,0,10.33-5.75,63.18,63.18,0,0,0,14.84-14.33,70.21,70.21,0,0,0,10.39-20.32l1.12,0c7.88-.14,12.14-10.62,13.68-17.11a76.69,76.69,0,0,0,1.6-15.33A43.1,43.1,0,0,0,341,176.25Z"/><path class="cls-6" d="M279.7,249.82a25,25,0,0,1-4.73-17.1q-.69-9-1.38-18.06a14.41,14.41,0,0,0-1.39-6.13c-1-1.7-2.6-2.94-3.67-4.58-3.59-5.51.19-12.58,2.64-18.68a44.15,44.15,0,0,0,2.94-20.77c-.31-3-.68-6.69,1.73-8.56a4.33,4.33,0,0,1,.38-.25c4.18-7.46,16.3-12.21,23.11-17.16a110.41,110.41,0,0,0,11.41-9.6c-8.57-10.28-19.55-16.46-31.53-16.46H278c-24.74,0-45.26,26.37-49,60.85,0,.29-.06.59-.09.89-3-2.58-6.79-4.3-10-3.06-2.08.8-2.81,2.86-3,5.11a44.35,44.35,0,0,0,.06,5.56,76.65,76.65,0,0,0,1.6,15.33c1.53,6.48,5.8,17,13.68,17.11l1.33,0a65.77,65.77,0,0,0,11.24,21.45c7.23,9.08,18.13,18.46,29.8,20.81a23,23,0,0,0,5,.43,27.42,27.42,0,0,0,7.77-1.37A22,22,0,0,1,279.7,249.82Z"/><path class="cls-6" d="M188.07,405.64V608.48c-16.64-.89-33.17-2.61-49.76-5.07l-10-90.15c-1.28-11.58-2.57-23.16-3.21-34.79q-.76-13.54-.32-27.11a319.11,319.11,0,0,1,4.75-45.72Z"/><path class="cls-5" d="M188.07,405.64v175c-2.54.19-5.37-1.43-5.87-4q-3.07-15.71-6.14-31.43c-3.54-18.08-7.19-36.17-9.08-54.52-1.19-11.61-1.17-23.46-2.86-35a177.84,177.84,0,0,1-39.34-4.28,319.11,319.11,0,0,1,4.75-45.72Z"/><path class="cls-6" d="M370.77,405.64V608.48c16.64-.89,33.17-2.61,49.76-5.07l10-90.15c1.28-11.58,2.57-23.16,3.21-34.79q.76-13.54.32-27.11a319.11,319.11,0,0,0-4.75-45.72Z"/><path class="cls-5" d="M370.77,405.64v175c2.54.19,5.37-1.43,5.87-4q3.07-15.71,6.14-31.43c3.54-18.08,7.19-36.17,9.08-54.52,1.19-11.61,1.17-23.46,2.86-35a177.84,177.84,0,0,0,39.34-4.28,319.11,319.11,0,0,0-4.75-45.72Z"/><path class="cls-9" d="M276.71,307.8a61.39,61.39,0,0,1-14.61-4.75,55.7,55.7,0,0,1-9.64-5.91c-.37-.21-.74-.43-1.1-.66C246,293.11,242,288.24,239,282.66a57,57,0,0,1-6.87-14.81,3,3,0,0,0-2.92.21l-1.17.75a153.27,153.27,0,0,1-13.52,7.74c-5.67,2.91-11.49,5.51-17.27,7.91-8.06,3.34-16.3,6.24-24.43,9.4l-.48.18h0c-7.67,2.55-14.58,10.6-18.82,16.42-24.13,33.11-35.19,74.08-40.26,114.74a7.88,7.88,0,0,0,.3,4.41,7.46,7.46,0,0,0,3.15,2.89c15.4,9.1,34,10.8,51.89,10.71l3.73,0V619.84a29.43,29.43,0,0,0,2.86.86,535.84,535.84,0,0,0,103.88,16.38V308.24C278.33,308.11,277.51,308,276.71,307.8Z"/><path class="cls-10" d="M267.33,389.13c-2.85,63.54-4.61,127.2-2.56,190.75q.82,25,2.44,49.91l0,.4c1.07,16.05-21.38,6.58-30.73,5.42A474.37,474.37,0,0,1,169.37,622a27.85,27.85,0,0,1-2.72-.86V444.51h-.22c-1.11,0-2.2,0-3.32,0-17,.09-34.61-1.61-49.21-10.7a7.29,7.29,0,0,1-3-2.89,8.27,8.27,0,0,1-.29-4.41q.8-6.84,1.85-13.66c5.46-36.08,16-71.68,36.34-101.08,4-5.82,10.57-13.87,17.84-16.42l.46-.18c7.71-3.17,15.53-6.07,23.17-9.4,5.49-2.39,11-5,16.38-7.91,2.3-1.24,4.57-2.55,6.8-3.91,7,19.11,19.46,37.32,32.76,54,6.52,8.17,16.36,15.8,20,25.94C269.86,364.35,267.83,378.25,267.33,389.13Z"/><path class="cls-11" d="M445.29,425.22c-5.06-40.66-16.13-81.63-40.26-114.74-4.53-6.22-12.13-15-20.44-16.87v0c-7.87-3-15.83-5.87-23.62-9.09a206.84,206.84,0,0,1-25.71-12.52q-3.17-1.86-6.25-3.88a3,3,0,0,0-2.92-.21,57.23,57.23,0,0,1-6.87,14.81,39,39,0,0,1-7.92,10.48,30.19,30.19,0,0,1-4.4,3.35c-.36.23-.73.44-1.11.66a55.28,55.28,0,0,1-9.64,5.91,58.25,58.25,0,0,1-10.39,3.78c-2.19.58-4.4,1-6.64,1.42V637.08A535.85,535.85,0,0,0,383,620.7c.52-.14,1-.28,1.57-.44V443.13q2.68.07,5.35.09c17.88.09,36.49-1.61,51.89-10.71a7.46,7.46,0,0,0,3.15-2.89A7.88,7.88,0,0,0,445.29,425.22Z"/><path class="cls-12" d="M313.6,115.11q-.09,1.22-.27,2.38c-.73,4.93-3.94,7.72-7.84,10.43-11.49,8-22.75,17-35.26,23.36a85.58,85.58,0,0,1-35.55,9.13c-7,.24-14.24-.44-20.52-3.55-3.33-1.64-6.95-4.54-7-8.56a16,16,0,0,1,1.18-5.58,92.22,92.22,0,0,1,5.73-13A96.78,96.78,0,0,1,225.3,113C238,97.8,255.15,86.42,274.65,82.38c14.88-3.09,34.07-1.67,37.88,16.19,0,.23.1.46.14.7A61.67,61.67,0,0,1,313.6,115.11Z"/><path class="cls-13" d="M313.6,115.11q-.09,1.22-.27,2.38c-.73,4.93-3.94,7.72-7.84,10.43-11.49,8-22.75,17-35.26,23.36a85.58,85.58,0,0,1-35.55,9.13c-7,.24-14.24-.44-20.52-3.55-3.33-1.64-6.95-4.54-7-8.56a16,16,0,0,1,1.18-5.58,92.22,92.22,0,0,1,5.73-13,14.26,14.26,0,0,0,2.83,2.8c5.53,4.09,12.87,4.7,19.74,4.45,13.82-.5,27.38-3.84,40.56-8A386.44,386.44,0,0,0,313.6,115.11Z"/><path class="cls-14" d="M308.52,106.46c-.12-4-.45-8.23-2.36-11.8-2.66-5-8.12-8-13.68-8.88s-11.26.09-16.72,1.5A74.13,74.13,0,0,0,251.94,97.7c6.5-3.21,12.53-6.4,19.62-7.9s14.65-1.5,21.41,1.12S306.43,99.52,308.52,106.46Z"/><path class="cls-12" d="M335.46,139.58q-.09-7.69-.7-15.36a22,22,0,0,0-.72-4.66,15,15,0,0,0-3.35-5.63,21.26,21.26,0,0,0-11.14-6.44c2,2.86,4.7,5,7.14,7.53C332.49,121,334.67,131.31,335.46,139.58Z"/><path class="cls-15" d="M445,431a7.29,7.29,0,0,1-3,2.89c-14.6,9.09-32.25,10.79-49.21,10.7-1.12,0-2.24,0-3.37,0h-.18V621.18a26.85,26.85,0,0,1-2.71.86,485,485,0,0,1-55.32,11.76q-14,2.13-28.06,3.44c-4.33.41-12.07,4.9-14.46-1.2a12.4,12.4,0,0,1-.52-5c0-.07,0-.14,0-.21,2-44.13,9.34-87.47,8.55-131.81-.58-32.23-5.4-64.23-5-96.5.16-11.66,1-23.36-.27-34.95-.5-4.5-1.31-9-.68-13.5,1.58-11.43,11.3-18,18-26.25a331.39,331.39,0,0,0,21.87-31.17A118.28,118.28,0,0,0,342.45,274c2.24,1.36,4.51,2.67,6.81,3.91,5.38,2.91,10.89,5.52,16.38,7.91,7.64,3.34,15.46,6.23,23.17,9.4l.45.18c7.28,2.55,13.83,10.6,17.85,16.42C429.33,344,439.87,383.51,444.86,423c.15,1.19.3,2.37.44,3.56A8.27,8.27,0,0,1,445,431Z"/><path class="cls-16" d="M258.78,355.88c-6.39,0-6.4,9.93,0,9.93S265.18,355.88,258.78,355.88Z"/><path class="cls-16" d="M256,430.16c-6.39,0-6.4,9.93,0,9.93S262.37,430.16,256,430.16Z"/><path class="cls-16" d="M254.57,497.2c-6.39,0-6.4,9.93,0,9.93S261,497.2,254.57,497.2Z"/><path class="cls-16" d="M256.44,570.32c-6.39,0-6.4,9.93,0,9.93S262.84,570.32,256.44,570.32Z"/><path class="cls-17" d="M166.43,444.51c-1.11,0-2.2,0-3.32,0-17,.09-34.61-1.61-49.21-10.7a7.29,7.29,0,0,1-3-2.89,8.27,8.27,0,0,1-.29-4.41q.8-6.84,1.85-13.66A52.06,52.06,0,0,0,131,416.29c7.91-.18,16-3.09,21.21-9.05,6.14-7,7.36-17,8.32-26.28q1.53-15,3.09-30.07l3,84.9A56.86,56.86,0,0,1,166.43,444.51Z"/><path class="cls-17" d="M236.52,635.61A474.37,474.37,0,0,1,169.37,622a27.85,27.85,0,0,1-2.72-.86V525.1c.64,3.75,1.09,6.89,1.36,8.18,2.15,10.39,4.23,20.84,7.37,31,3.51,11.37,8.4,22.39,15.88,31.72,11.27,14,27.71,23.32,45,28.39a152.78,152.78,0,0,0,31,5.41l0,.4C268.31,646.24,245.86,636.77,236.52,635.61Z"/><path class="cls-10" d="M389.26,603.66v17.52a26.85,26.85,0,0,1-2.71.86,485,485,0,0,1-55.32,11.76q-14,2.13-28.06,3.44c-4.33.41-12.07,4.9-14.46-1.2a12.4,12.4,0,0,1-.52-5h1.53c15,0,30.11-.82,44.74-4.16C354,622.41,371.89,613.71,389.26,603.66Z"/><path class="cls-10" d="M445,431a7.29,7.29,0,0,1-3,2.89c-14.6,9.09-32.25,10.79-49.21,10.7-1.12,0-2.24,0-3.37,0a30,30,0,0,1-.82-3.79,141.83,141.83,0,0,1-1.16-23c.21-22.33,1.85-45.52,12.71-65a96,96,0,0,0-4.8,51.18c1,5.49,2.47,10.88,3.94,16.27a22.18,22.18,0,0,0,2.94,7.23c3.56,5,10.67,6.12,16.65,4.83s11.37-4.49,17.09-6.66a64.11,64.11,0,0,1,8.89-2.59c.15,1.19.3,2.37.44,3.56A8.27,8.27,0,0,1,445,431Z"/><path class="cls-4" d="M241.21,199.1c-3.53-9.25-6.45-20.42-12.34-28.49-1.11-1.52-3.55.11-2.43,1.64,5.72,7.84,8.55,18.78,12,27.81C239.11,201.81,241.88,200.87,241.21,199.1Z"/><path class="cls-4" d="M315.78,199.1c3.53-9.25,6.45-20.42,12.34-28.49,1.11-1.52,3.55.11,2.43,1.64-5.72,7.84-8.55,18.78-12,27.81C317.88,201.81,315.11,200.87,315.78,199.1Z"/><path class="cls-18" d="M258,183.8c-6.75,1.8-13.14,4.59-19.77,6.59-.38.11-1.76.46-3.5.9v34.42c4.3,5.16,8.77,10.21,13.24,15.24a58,58,0,0,0,13,10.77c5.61,3.45,10.83,5.76,17.49,6.17v-77.8A129.28,129.28,0,0,0,258,183.8Z"/><path class="cls-19" d="M298.94,183.8c6.75,1.8,13.14,4.59,19.77,6.59.38.11,1.76.46,3.5.9v34.42c-4.3,5.16-8.77,10.21-13.24,15.24a58,58,0,0,1-13,10.77c-5.61,3.45-10.83,5.76-17.49,6.17v-77.8A129.28,129.28,0,0,1,298.94,183.8Z"/><path class="cls-20" d="M319.18,209a65.66,65.66,0,0,1-19.33,6.27,120.93,120.93,0,0,1-20.29,1.61h-1.1a133.3,133.3,0,0,1-19.19-1.32,122.06,122.06,0,0,1-19.71-4.81c6.74.51,13.4,1.41,20,1.78,6.27.39,12.56.48,18.87.47h1.08c6.67,0,13.3-.17,19.91-.76A123.59,123.59,0,0,0,319.18,209Z"/><path class="cls-20" d="M321.3,217.94c-3.08,2.11-6.12,4.23-9.23,6.31a75.63,75.63,0,0,1-9.82,5.6,58.26,58.26,0,0,1-22.17,5.25c-.54,0-1.08,0-1.62,0a57.56,57.56,0,0,1-20.87-3.72A47.48,47.48,0,0,1,239,218.88a63.76,63.76,0,0,0,19.62,9.67,67.23,67.23,0,0,0,19.89,2.72l1.48,0a68.44,68.44,0,0,0,21.14-4.2C307.89,224.56,314.34,220.69,321.3,217.94Z"/><path class="cls-20" d="M316.9,203.36c-6.37-1.17-12.73-2.17-19.12-2.86-.8-.09-1.6-.16-2.4-.23L293,200c-1.6-.11-3.19-.26-4.8-.32-3.2-.21-6.4-.28-9.61-.3h-.12c-3.16,0-6.33,0-9.5.16s-6.41.33-9.61.59c-6.41.5-12.8,1.31-19.23,2.13a126.81,126.81,0,0,1,19-4.12c3.21-.49,6.45-.77,9.7-1q2.43-.17,4.88-.23c1.58-.07,3.16-.06,4.75-.08h.14c3.26.06,6.51.16,9.76.45,1.63.12,3.24.33,4.86.5s3.23.43,4.83.71A107.33,107.33,0,0,1,316.9,203.36Z"/><path class="cls-21" d="M278.58,199.43h-.12v-2.57h.14c3.26.06,6.51.16,9.76.45,1.63.12,3.24.33,4.86.5s3.23.43,4.83.71a107.33,107.33,0,0,1,18.85,4.85c-6.37-1.17-12.73-2.17-19.12-2.86-.8-.09-1.6-.16-2.4-.23L293,200c-1.6-.11-3.19-.26-4.8-.32C285,199.52,281.79,199.44,278.58,199.43Z"/><path class="cls-21" d="M279.56,216.9h-1.1V213h1.08c6.67,0,13.3-.17,19.91-.76A123.59,123.59,0,0,0,319.18,209a65.66,65.66,0,0,1-19.33,6.27A120.93,120.93,0,0,1,279.56,216.9Z"/><path class="cls-21" d="M321.3,217.94c-3.08,2.11-6.12,4.23-9.23,6.31a75.63,75.63,0,0,1-9.82,5.6,58.26,58.26,0,0,1-22.17,5.25c-.54,0-1.08,0-1.62,0v-3.87l1.48,0a68.44,68.44,0,0,0,21.14-4.2C307.89,224.56,314.34,220.69,321.3,217.94Z"/><path class="cls-22" d="M278,555.92A278,278,0,0,1,81.41,81.41,278,278,0,0,1,474.51,474.51,276.14,276.14,0,0,1,278,555.92ZM278,18C134.62,18,18,134.62,18,278s116.62,260,260,260,260-116.62,260-260S421.3,18,278,18Z"/><path class="cls-16" d="M278,539.51A261.55,261.55,0,0,1,93,93,261.55,261.55,0,1,1,462.9,462.9,259.84,259.84,0,0,1,278,539.51Zm0-506.16C143.08,33.34,33.35,143.08,33.35,278S143.08,522.57,278,522.57,522.57,412.84,522.57,278,412.84,33.34,278,33.34Z"/></g></g></g></svg>